<svg width="58" height="40" viewBox="0 0 58 40" fill="none" xmlns="http://www.w3.org/2000/svg">
<rect x="0.5" y="0.501953" width="57" height="39" rx="5.5" fill="white"/>
<rect x="0.5" y="0.501953" width="57" height="39" rx="5.5" stroke="#F5F5F4"/>
<path fill-rule="evenodd" clip-rule="evenodd" d="M16.0077 13.9072C15.5155 14.4937 14.7279 14.9563 13.9403 14.8902C13.8419 14.0972 14.2275 13.2547 14.6787 12.7342C15.1709 12.1312 16.0323 11.7017 16.7297 11.6686C16.8117 12.4947 16.4918 13.3042 16.0077 13.9072ZM16.7214 15.0472C16.0276 15.007 15.3945 15.2573 14.8831 15.4595C14.554 15.5896 14.2753 15.6998 14.0633 15.6998C13.8254 15.6998 13.5352 15.5837 13.2094 15.4534C12.7825 15.2826 12.2944 15.0874 11.7826 15.0967C10.6094 15.1133 9.51827 15.7824 8.91938 16.848C7.68877 18.9792 8.59942 22.1347 9.789 23.8694C10.3715 24.7285 11.0688 25.6702 11.9877 25.6371C12.3919 25.6218 12.6827 25.4975 12.9837 25.369C13.3301 25.2209 13.69 25.0672 14.252 25.0672C14.7945 25.0672 15.1387 25.2169 15.4691 25.3607C15.7832 25.4974 16.0849 25.6287 16.5327 25.6206C17.4844 25.6041 18.0833 24.7615 18.6658 23.9024C19.2944 22.9804 19.5706 22.0806 19.6125 21.944L19.6175 21.9282C19.6164 21.9272 19.6087 21.9236 19.595 21.9173C19.3848 21.8204 17.7787 21.0801 17.7633 19.0948C17.7479 17.4285 19.0373 16.5842 19.2402 16.4513C19.2526 16.4432 19.2609 16.4378 19.2647 16.4349C18.4443 15.2124 17.1644 15.0802 16.7214 15.0472ZM23.3093 25.5298V12.6516H28.1087C30.5863 12.6516 32.3174 14.3698 32.3174 16.881C32.3174 19.3922 30.5535 21.1269 28.0431 21.1269H25.2947V25.5298H23.3093ZM25.2946 14.3368H27.5835C29.3063 14.3368 30.2908 15.262 30.2908 16.8893C30.2908 18.5166 29.3063 19.45 27.5753 19.45H25.2946V14.3368ZM38.8725 23.985C38.3475 24.9928 37.1907 25.6289 35.9437 25.6289C34.0978 25.6289 32.8097 24.522 32.8097 22.8534C32.8097 21.2013 34.0567 20.2513 36.3621 20.1109L38.8397 19.9622V19.2518C38.8397 18.2027 38.1588 17.6327 36.9446 17.6327C35.9437 17.6327 35.2135 18.1531 35.0658 18.9461H33.2773C33.3348 17.2775 34.8935 16.0632 37.002 16.0632C39.2745 16.0632 40.7512 17.261 40.7512 19.1196V25.5298H38.9135V23.985H38.8725ZM36.4768 24.1007C35.4185 24.1007 34.7457 23.5885 34.7457 22.8038C34.7457 21.9943 35.3939 21.5234 36.6327 21.4491L38.8396 21.3086V22.0356C38.8396 23.2416 37.8223 24.1007 36.4768 24.1007ZM46.8468 26.0337C46.051 28.2888 45.1403 29.0322 43.2042 29.0322C43.0565 29.0322 42.5643 29.0157 42.4494 28.9827V27.4379C42.5725 27.4545 42.876 27.471 43.0319 27.471C43.9097 27.471 44.402 27.0993 44.7055 26.1328L44.886 25.5628L41.5223 16.1871H43.598L45.9361 23.7951H45.9771L48.3153 16.1871H50.3335L46.8468 26.0337Z" fill="black"/>
</svg>
