<svg width="58" height="40" viewBox="0 0 58 40" fill="none" xmlns="http://www.w3.org/2000/svg">
<rect x="0.5" y="0.501953" width="57" height="39" rx="5.5" fill="white"/>
<rect x="0.5" y="0.501953" width="57" height="39" rx="5.5" stroke="#F5F5F4"/>
<path fill-rule="evenodd" clip-rule="evenodd" d="M28.6316 28.051C26.6582 29.7144 24.0984 30.7186 21.3011 30.7186C15.0597 30.7186 10 25.7191 10 19.5519C10 13.3847 15.0597 8.38525 21.3011 8.38525C24.0984 8.38525 26.6582 9.38942 28.6316 11.0528C30.605 9.38942 33.1649 8.38525 35.9621 8.38525C42.2036 8.38525 47.2632 13.3847 47.2632 19.5519C47.2632 25.7191 42.2036 30.7186 35.9621 30.7186C33.1649 30.7186 30.605 29.7144 28.6316 28.051Z" fill="#ED0006"/>
<path fill-rule="evenodd" clip-rule="evenodd" d="M28.6318 28.051C31.0617 26.0028 32.6025 22.9552 32.6025 19.5519C32.6025 16.1487 31.0617 13.101 28.6318 11.0528C30.6053 9.38942 33.1651 8.38525 35.9623 8.38525C42.2038 8.38525 47.2635 13.3847 47.2635 19.5519C47.2635 25.7191 42.2038 30.7186 35.9623 30.7186C33.1651 30.7186 30.6053 29.7144 28.6318 28.051Z" fill="#F9A000"/>
<path fill-rule="evenodd" clip-rule="evenodd" d="M28.6318 28.051C31.0616 26.0028 32.6024 22.9552 32.6024 19.5519C32.6024 16.1487 31.0616 13.101 28.6318 11.0529C26.2019 13.101 24.6611 16.1487 24.6611 19.5519C24.6611 22.9552 26.2019 26.0028 28.6318 28.051Z" fill="#FF5E00"/>
</svg>
