<svg width="58" height="40" viewBox="0 0 58 40" fill="none" xmlns="http://www.w3.org/2000/svg">
<rect x="0.5" y="0.501953" width="57" height="39" rx="5.5" fill="white"/>
<rect x="0.5" y="0.501953" width="57" height="39" rx="5.5" stroke="#F5F5F4"/>
<path fill-rule="evenodd" clip-rule="evenodd" d="M17.9171 26.4324H14.4842L11.9099 16.3226C11.7877 15.8575 11.5283 15.4464 11.1467 15.2526C10.1943 14.7657 9.14486 14.3781 8 14.1827V13.7934H13.5301C14.2934 13.7934 14.8658 14.3781 14.9612 15.0572L16.2969 22.3497L19.7281 13.7934H23.0656L17.9171 26.4324ZM24.9737 26.4324H21.7316L24.4013 13.7934H27.6434L24.9737 26.4324ZM31.8378 17.2948C31.9332 16.6141 32.5057 16.2249 33.1735 16.2249C34.223 16.1271 35.3661 16.3226 36.3202 16.8079L36.8926 14.0866C35.9386 13.6974 34.8891 13.502 33.9367 13.502C30.7901 13.502 28.5003 15.2526 28.5003 17.6824C28.5003 19.5308 30.1222 20.5013 31.2671 21.086C32.5057 21.669 32.9827 22.0582 32.8873 22.6412C32.8873 23.5157 31.9332 23.9049 30.9809 23.9049C29.836 23.9049 28.6911 23.6134 27.6434 23.1265L27.0709 25.8494C28.2158 26.3346 29.4544 26.5301 30.5992 26.5301C34.1276 26.6261 36.3202 24.8772 36.3202 22.252C36.3202 18.9461 31.8378 18.7523 31.8378 17.2948ZM47.6667 26.4324L45.0924 13.7934H42.3273C41.7549 13.7934 41.1825 14.1827 40.9917 14.7657L36.2248 26.4324H39.5623L40.2284 24.5856H44.3292L44.7108 26.4324H47.6667ZM42.8044 17.1971L43.7567 21.9605H41.0871L42.8044 17.1971Z" fill="#172B85"/>
</svg>
