<svg width="95" height="75" viewBox="0 0 95 75" fill="none" xmlns="http://www.w3.org/2000/svg">
<path d="M40.1557 74.8969C61.8164 74.8969 79.3759 58.161 79.3759 37.5161C79.3759 16.8712 61.8164 0.135254 40.1557 0.135254C18.495 0.135254 0.935547 16.8712 0.935547 37.5161C0.935547 58.161 18.495 74.8969 40.1557 74.8969Z" fill="white"/>
<path d="M40.1555 74.9997C29.6475 74.9997 19.7717 71.0985 12.3431 64.0212C4.91445 56.9391 0.822266 47.529 0.822266 37.516C0.822266 27.503 4.91445 18.0879 12.3431 11.0107C19.7717 3.92862 29.6475 0.0322266 40.1555 0.0322266C50.6636 0.0322266 60.5393 3.93352 67.9679 11.0107C75.3966 18.0879 79.4888 27.503 79.4888 37.516C79.4888 47.529 75.3966 56.944 67.9679 64.0212C60.5393 71.1034 50.6636 74.9997 40.1555 74.9997ZM40.1555 0.242975C18.5945 0.242975 1.04847 16.9607 1.04847 37.516C1.04847 58.0713 18.5893 74.789 40.1555 74.789C61.7217 74.789 79.2626 58.0713 79.2626 37.516C79.2626 16.9607 61.7217 0.242975 40.1555 0.242975Z" fill="#292524"/>
<path d="M40.1559 66.6483C31.9921 66.6483 24.3167 63.6194 18.5434 58.1154C12.7701 52.6115 9.58789 45.2941 9.58789 37.516C9.58789 29.738 12.7701 22.4157 18.5434 16.9166C24.3167 11.4127 31.9921 8.38379 40.1559 8.38379C48.3197 8.38379 55.9951 11.4127 61.7683 16.9166C67.5416 22.4206 70.7238 29.738 70.7238 37.516C70.7238 45.2941 67.5416 52.6164 61.7683 58.1154C56.0002 63.6194 48.3248 66.6483 40.1559 66.6483Z" fill="#D9F99D"/>
<path d="M40.1564 57.3311C34.6042 57.3311 29.381 55.2678 25.4533 51.5282C21.5257 47.7838 19.3613 42.8091 19.3613 37.5159C19.3613 32.2227 21.5257 27.2432 25.4533 23.5036C29.381 19.7592 34.6042 17.7007 40.1564 17.7007C45.7086 17.7007 50.9318 19.7641 54.8594 23.5036C58.7871 27.2481 60.9514 32.2227 60.9514 37.5159C60.9514 42.8091 58.7871 47.7887 54.8594 51.5282C50.9318 55.2727 45.7137 57.3311 40.1564 57.3311Z" fill="white"/>
<path d="M40.1568 48.4066C37.1031 48.4066 34.2345 47.2744 32.0753 45.2159C29.9161 43.1575 28.7285 40.4226 28.7285 37.5163C28.7285 34.605 29.9161 31.8702 32.0753 29.8166C34.2345 27.7581 37.1031 26.626 40.1568 26.626C43.2105 26.626 46.0792 27.7581 48.2383 29.8166C50.3975 31.8751 51.5851 34.6099 51.5851 37.5163C51.5851 40.4275 50.3975 43.1624 48.2383 45.2159C46.0792 47.2744 43.2105 48.4066 40.1568 48.4066Z" fill="#65A30D"/>
<path d="M50.8213 32.0808L40.668 37.2515L49.9011 30.7036L50.8213 32.0808Z" fill="#292524"/>
<path d="M85.3012 10.2655L76.5102 15.5783L76.392 9.69692C76.3406 7.04542 77.7389 4.56055 80.0883 3.14413L85.0956 0.115234L85.3012 10.2655Z" fill="white"/>
<path d="M76.51 15.6863C76.4895 15.6863 76.474 15.6814 76.4586 15.6716C76.4226 15.652 76.4021 15.6176 76.3969 15.5784L76.2787 9.69709C76.2273 7.02598 77.6616 4.4774 80.0264 3.04627L85.0337 0.0173813C85.0697 -0.00222316 85.1108 -0.00712428 85.1468 0.0124802C85.1828 0.0320847 85.2033 0.0663925 85.2085 0.105601L85.4141 10.2558C85.4141 10.295 85.3935 10.3293 85.3627 10.3489L76.5717 15.6618C76.5511 15.6814 76.5306 15.6863 76.51 15.6863ZM84.9874 0.311448L80.1498 3.23742C77.8518 4.62933 76.4535 7.1044 76.5049 9.69709L76.618 15.3873L85.1828 10.2068L84.9874 0.311448Z" fill="#292524"/>
<path d="M85.3008 10.2661L76.5098 15.5789L82.0414 18.1863C84.5347 19.3626 87.4908 19.2107 89.8402 17.7942L94.8475 14.7653L85.3008 10.2661Z" fill="white"/>
<path d="M85.5679 19.0785C84.3444 19.0785 83.1157 18.8138 81.9898 18.2845L76.4582 15.6771C76.4222 15.6575 76.3965 15.6232 76.3965 15.584C76.3965 15.5448 76.4119 15.5056 76.4479 15.486L85.2389 10.1731C85.2749 10.1535 85.316 10.1486 85.352 10.1682L94.8987 14.6675C94.9347 14.6871 94.9604 14.7214 94.9604 14.7606C94.9604 14.7998 94.945 14.839 94.909 14.8586L89.9017 17.8875C88.5908 18.6766 87.0793 19.0785 85.5679 19.0785ZM76.7409 15.5693L82.0926 18.0934C84.5346 19.2451 87.4803 19.0981 89.7783 17.7062L94.6159 14.7802L85.3057 10.3888L76.7409 15.5693Z" fill="#292524"/>
<path d="M83.093 13.2018L56.792 29.101L55.2754 26.822L81.5764 10.9228C82.2036 10.5454 83.0261 10.7218 83.4271 11.3149L83.5094 11.4374C83.9001 12.0353 83.715 12.8244 83.093 13.2018Z" fill="white"/>
<path d="M56.7898 29.2136C56.7538 29.2136 56.7178 29.1939 56.6921 29.1645L55.1756 26.8855C55.1601 26.861 55.155 26.8316 55.1601 26.8022C55.1653 26.7728 55.1858 26.7483 55.2115 26.7336L81.5125 10.8344C82.1911 10.4276 83.0908 10.6187 83.5175 11.2608L83.5998 11.3833C83.8054 11.697 83.8774 12.0645 83.79 12.4272C83.7077 12.7899 83.4764 13.0987 83.1525 13.2947L56.8515 29.1939C56.8309 29.2087 56.8104 29.2136 56.7898 29.2136ZM55.4275 26.8561L56.8258 28.9538L83.0291 13.1134C83.3067 12.9467 83.4969 12.687 83.5689 12.3831C83.6409 12.0792 83.5843 11.7656 83.4095 11.5009L83.3273 11.3784C82.9674 10.8344 82.2066 10.6726 81.6359 11.0157L55.4275 26.8561Z" fill="#292524"/>
<path d="M63.8537 25.8715L53.032 32.4145C52.0039 33.0369 50.6364 32.7477 49.9835 31.7626L49.8498 31.5568C49.1969 30.5765 49.5002 29.2728 50.5335 28.6504L61.3501 22.1123L63.8537 25.8715Z" fill="white"/>
<path d="M51.8485 32.8502C51.0774 32.8502 50.3268 32.4875 49.8847 31.821L49.751 31.6151C49.4169 31.1152 49.3089 30.5222 49.4477 29.9439C49.5814 29.3655 49.9464 28.8754 50.4707 28.5568L61.2924 22.0138C61.3438 21.9795 61.4158 21.9991 61.4466 22.0482L63.9503 25.8073C63.9657 25.8318 63.9708 25.8612 63.9657 25.8906C63.9605 25.92 63.94 25.9445 63.9143 25.9592L53.0926 32.5022C52.707 32.7375 52.2752 32.8502 51.8485 32.8502ZM61.313 22.2589L50.5838 28.7431C50.1109 29.0273 49.7819 29.4734 49.6585 29.9929C49.5351 30.5124 49.6328 31.0515 49.9361 31.5024L50.0697 31.7083C50.6867 32.6395 51.9873 32.9139 52.9641 32.3258L63.6984 25.8367L61.313 22.2589Z" fill="#292524"/>
</svg>
