<svg width="125" height="141" viewBox="0 0 125 141" fill="none" xmlns="http://www.w3.org/2000/svg">
<path d="M28.2077 4.98728C21.7908 -1.42968 11.3919 -1.42968 4.98264 4.98728C-1.43432 11.4042 -1.43432 21.8031 4.98264 28.2124C9.92936 33.1591 17.2499 34.2847 23.284 31.597L28.4375 36.7504L36.7535 28.4344L31.5923 23.2886C34.2801 17.2545 33.1544 9.94166 28.2077 4.98728Z" fill="white"/>
<path d="M28.4303 36.9271C28.3843 36.9271 28.346 36.9118 28.3077 36.8812L23.2385 31.8119C20.2368 33.129 16.9364 33.5196 13.6896 32.9453C10.328 32.3556 7.27268 30.7629 4.85292 28.3431C-1.61764 21.8726 -1.61764 11.3435 4.85292 4.87299C7.99248 1.73343 12.1581 0.010498 16.5918 0.010498C21.0255 0.010498 25.1911 1.73343 28.323 4.87299C30.7428 7.29275 32.3356 10.3481 32.9252 13.7097C33.4995 16.9565 33.1013 20.2568 31.7919 23.2586L36.8611 28.3278C36.93 28.3967 36.93 28.5039 36.8611 28.5652L28.5528 36.8812C28.5145 36.9118 28.4762 36.9271 28.4303 36.9271ZM23.2768 31.4367C23.3227 31.4367 23.361 31.452 23.3993 31.4827L28.4303 36.5136L36.5089 28.435L31.4779 23.4117C31.432 23.3658 31.4167 23.2892 31.4396 23.2203C34.158 17.1096 32.8103 9.83502 28.0857 5.11037C25.015 2.03973 20.9336 0.347427 16.5918 0.347427C12.25 0.347427 8.1686 2.03973 5.09796 5.11037C-1.24242 11.4508 -1.24242 21.7654 5.09796 28.0981C9.82261 32.8227 17.1049 34.1704 23.2079 31.452C23.2308 31.4444 23.2538 31.4367 23.2768 31.4367Z" fill="#292524"/>
<path d="M36.9835 41.2995C35.7583 41.2995 34.8241 40.7864 34.7705 40.7558C34.7246 40.7328 34.6939 40.6869 34.6863 40.6333C34.6786 40.5797 34.6939 40.5261 34.7322 40.4878L41.5857 33.6343L39.1353 31.184L31.0566 39.2626C30.9877 39.3315 30.8805 39.3315 30.8193 39.2626C30.7503 39.1937 30.7503 39.0865 30.8193 39.0252L39.0128 30.8317C39.0817 30.7628 39.1889 30.7628 39.2501 30.8317L41.9379 33.5195C42.0068 33.5884 42.0068 33.6956 41.9379 33.7569L35.1381 40.5567C35.6358 40.7711 36.9452 41.2306 38.2853 40.7252C39.5335 40.2581 40.506 39.0865 41.1722 37.2487C41.2028 37.1644 41.3023 37.1185 41.3866 37.1491C41.4708 37.1798 41.5167 37.2793 41.4861 37.3635C40.7893 39.3009 39.7479 40.5414 38.4002 41.0468C37.9101 41.2306 37.4277 41.2995 36.9835 41.2995Z" fill="#292524"/>
<path d="M28.6287 30.127C28.5981 30.127 28.5674 30.1193 28.5368 30.0964L9.27828 17.3697C9.20171 17.3161 9.17874 17.2165 9.23234 17.1323C9.28594 17.0557 9.38549 17.0327 9.46972 17.0863L28.7206 29.8207C28.7972 29.8743 28.8201 29.9739 28.7665 30.0581C28.7359 30.104 28.6823 30.127 28.6287 30.127Z" fill="#292524"/>
<path d="M29.9463 28.8101C29.8927 28.8101 29.8391 28.7871 29.8085 28.7335L17.0741 9.48266C17.0205 9.40608 17.0435 9.29888 17.1201 9.24528C17.1967 9.19168 17.3039 9.21465 17.3575 9.29122L30.0842 28.5421C30.1378 28.6187 30.1148 28.7259 30.0382 28.7795C30.0153 28.8024 29.977 28.8101 29.9463 28.8101Z" fill="#292524"/>
<path d="M10.706 16.4821C10.66 16.4821 10.6217 16.4668 10.5834 16.4362C10.5145 16.3673 10.5145 16.2601 10.5834 16.1988L11.4487 15.3335L10.4992 12.5232C10.4762 12.4543 10.4992 12.3777 10.5605 12.3318C10.6217 12.2858 10.6983 12.2858 10.7596 12.3318L13.9221 14.6061L12.5284 11.1832C12.5055 11.1219 12.5208 11.0453 12.5667 10.9994C12.6203 10.9534 12.6893 10.9381 12.7582 10.9688L14.8257 11.9566L16.0509 10.7314C16.1198 10.6625 16.227 10.6625 16.2883 10.7314C16.3572 10.8003 16.3572 10.9075 16.2883 10.9688L14.9941 12.2629C14.9405 12.3165 14.864 12.3241 14.8027 12.2935L13.0185 11.4435L14.4658 15.0042C14.4964 15.0732 14.4734 15.1574 14.4122 15.2033C14.3509 15.2493 14.2667 15.2493 14.2131 15.211L11.0046 12.9061L11.8163 15.3182C11.8393 15.3795 11.824 15.4484 11.778 15.4943L10.8361 16.4362C10.7902 16.4668 10.7519 16.4821 10.706 16.4821Z" fill="#292524"/>
<path d="M138.343 98.7708H100.607C99.4279 98.7708 98.4707 97.8137 98.4707 96.6344V92.3615C98.4707 91.1823 99.4279 90.2251 100.607 90.2251H138.343C139.522 90.2251 140.48 91.1823 140.48 92.3615V96.6344C140.48 97.8137 139.522 98.7708 138.343 98.7708Z" fill="white"/>
<path d="M138.342 98.9403H100.606C99.3345 98.9403 98.3008 97.9065 98.3008 96.6354V92.3625C98.3008 91.0914 99.3345 90.0576 100.606 90.0576H138.342C139.613 90.0576 140.647 91.0914 140.647 92.3625V96.6354C140.647 97.9065 139.613 98.9403 138.342 98.9403ZM100.606 90.4022C99.5183 90.4022 98.6377 91.2828 98.6377 92.3702V96.643C98.6377 97.7304 99.5183 98.611 100.606 98.611H138.342C139.429 98.611 140.31 97.7304 140.31 96.643V92.3702C140.31 91.2828 139.429 90.4022 138.342 90.4022H100.606Z" fill="#292524"/>
<path d="M102.292 97.7689C102.2 97.7689 102.123 97.6923 102.123 97.6004V91.4055C102.123 91.3136 102.2 91.2371 102.292 91.2371C102.383 91.2371 102.46 91.3136 102.46 91.4055V97.6004C102.46 97.6923 102.383 97.7689 102.292 97.7689Z" fill="#F5F5F4"/>
<path d="M106.586 97.7686C106.495 97.7686 106.418 97.6921 106.418 97.6002V91.4053C106.418 91.3134 106.495 91.2368 106.586 91.2368C106.678 91.2368 106.755 91.3134 106.755 91.4053V97.6002C106.755 97.6921 106.678 97.7686 106.586 97.7686Z" fill="#F5F5F4"/>
<path d="M110.883 97.7686C110.791 97.7686 110.715 97.6921 110.715 97.6002V91.4053C110.715 91.3134 110.791 91.2368 110.883 91.2368C110.975 91.2368 111.052 91.3134 111.052 91.4053V97.6002C111.052 97.6921 110.975 97.7686 110.883 97.7686Z" fill="#F5F5F4"/>
<path d="M115.178 97.7686C115.086 97.7686 115.01 97.6921 115.01 97.6002V91.4053C115.01 91.3134 115.086 91.2368 115.178 91.2368C115.27 91.2368 115.347 91.3134 115.347 91.4053V97.6002C115.347 97.6921 115.27 97.7686 115.178 97.7686Z" fill="#F5F5F4"/>
<path d="M119.475 97.7686C119.383 97.7686 119.307 97.6921 119.307 97.6002V91.4053C119.307 91.3134 119.383 91.2368 119.475 91.2368C119.567 91.2368 119.644 91.3134 119.644 91.4053V97.6002C119.644 97.6921 119.567 97.7686 119.475 97.7686Z" fill="#F5F5F4"/>
<path d="M123.77 97.7686C123.678 97.7686 123.602 97.6921 123.602 97.6002V91.4053C123.602 91.3134 123.678 91.2368 123.77 91.2368C123.862 91.2368 123.938 91.3134 123.938 91.4053V97.6002C123.938 97.6921 123.862 97.7686 123.77 97.7686Z" fill="#F5F5F4"/>
<path d="M138.343 109.069H100.607C99.4279 109.069 98.4707 108.112 98.4707 106.933V102.66C98.4707 101.481 99.4279 100.523 100.607 100.523H138.343C139.522 100.523 140.48 101.481 140.48 102.66V106.933C140.48 108.12 139.522 109.069 138.343 109.069Z" fill="white"/>
<path d="M138.342 109.238H100.606C99.3345 109.238 98.3008 108.204 98.3008 106.933V102.66C98.3008 101.389 99.3345 100.355 100.606 100.355H138.342C139.613 100.355 140.647 101.389 140.647 102.66V106.933C140.647 108.212 139.613 109.238 138.342 109.238ZM100.606 100.7C99.5183 100.7 98.6377 101.58 98.6377 102.668V106.94C98.6377 108.028 99.5183 108.908 100.606 108.908H138.342C139.429 108.908 140.31 108.028 140.31 106.94V102.668C140.31 101.58 139.429 100.7 138.342 100.7H100.606Z" fill="#292524"/>
<path d="M102.292 108.066C102.2 108.066 102.123 107.99 102.123 107.898V101.703C102.123 101.611 102.2 101.534 102.292 101.534C102.383 101.534 102.46 101.611 102.46 101.703V107.898C102.46 107.99 102.383 108.066 102.292 108.066Z" fill="#F5F5F4"/>
<path d="M106.586 108.066C106.495 108.066 106.418 107.989 106.418 107.898V101.703C106.418 101.611 106.495 101.534 106.586 101.534C106.678 101.534 106.755 101.611 106.755 101.703V107.898C106.755 107.989 106.678 108.066 106.586 108.066Z" fill="#F5F5F4"/>
<path d="M110.883 108.066C110.791 108.066 110.715 107.989 110.715 107.898V101.703C110.715 101.611 110.791 101.534 110.883 101.534C110.975 101.534 111.052 101.611 111.052 101.703V107.898C111.052 107.989 110.975 108.066 110.883 108.066Z" fill="#F5F5F4"/>
<path d="M115.178 108.066C115.086 108.066 115.01 107.989 115.01 107.898V101.703C115.01 101.611 115.086 101.534 115.178 101.534C115.27 101.534 115.347 101.611 115.347 101.703V107.898C115.347 107.989 115.27 108.066 115.178 108.066Z" fill="#F5F5F4"/>
<path d="M119.475 108.066C119.383 108.066 119.307 107.989 119.307 107.898V101.703C119.307 101.611 119.383 101.534 119.475 101.534C119.567 101.534 119.644 101.611 119.644 101.703V107.898C119.644 107.989 119.567 108.066 119.475 108.066Z" fill="#F5F5F4"/>
<path d="M123.77 108.066C123.678 108.066 123.602 107.989 123.602 107.898V101.703C123.602 101.611 123.678 101.534 123.77 101.534C123.862 101.534 123.938 101.611 123.938 101.703V107.898C123.938 107.989 123.862 108.066 123.77 108.066Z" fill="#F5F5F4"/>
<path d="M138.343 119.378H100.607C99.4279 119.378 98.4707 118.421 98.4707 117.241V112.968C98.4707 111.789 99.4279 110.832 100.607 110.832H138.343C139.522 110.832 140.48 111.789 140.48 112.968V117.241C140.48 118.421 139.522 119.378 138.343 119.378Z" fill="white"/>
<path d="M138.342 119.546H100.606C99.3345 119.546 98.3008 118.512 98.3008 117.241V112.968C98.3008 111.697 99.3345 110.663 100.606 110.663H138.342C139.613 110.663 140.647 111.697 140.647 112.968V117.241C140.647 118.512 139.613 119.546 138.342 119.546ZM100.606 111C99.5183 111 98.6377 111.881 98.6377 112.968V117.241C98.6377 118.328 99.5183 119.209 100.606 119.209H138.342C139.429 119.209 140.31 118.328 140.31 117.241V112.968C140.31 111.881 139.429 111 138.342 111H100.606Z" fill="#292524"/>
<path d="M102.292 118.366C102.2 118.366 102.123 118.29 102.123 118.198V112.003C102.123 111.911 102.2 111.834 102.292 111.834C102.383 111.834 102.46 111.911 102.46 112.003V118.198C102.46 118.29 102.383 118.366 102.292 118.366Z" fill="#F5F5F4"/>
<path d="M106.586 118.366C106.495 118.366 106.418 118.29 106.418 118.198V112.003C106.418 111.911 106.495 111.834 106.586 111.834C106.678 111.834 106.755 111.911 106.755 112.003V118.198C106.755 118.29 106.678 118.366 106.586 118.366Z" fill="#F5F5F4"/>
<path d="M110.883 118.366C110.791 118.366 110.715 118.29 110.715 118.198V112.003C110.715 111.911 110.791 111.834 110.883 111.834C110.975 111.834 111.052 111.911 111.052 112.003V118.198C111.052 118.29 110.975 118.366 110.883 118.366Z" fill="#F5F5F4"/>
<path d="M115.178 118.366C115.086 118.366 115.01 118.29 115.01 118.198V112.003C115.01 111.911 115.086 111.834 115.178 111.834C115.27 111.834 115.347 111.911 115.347 112.003V118.198C115.347 118.29 115.27 118.366 115.178 118.366Z" fill="#F5F5F4"/>
<path d="M119.475 118.366C119.383 118.366 119.307 118.29 119.307 118.198V112.003C119.307 111.911 119.383 111.834 119.475 111.834C119.567 111.834 119.644 111.911 119.644 112.003V118.198C119.644 118.29 119.567 118.366 119.475 118.366Z" fill="#F5F5F4"/>
<path d="M123.77 118.366C123.678 118.366 123.602 118.29 123.602 118.198V112.003C123.602 111.911 123.678 111.834 123.77 111.834C123.862 111.834 123.938 111.911 123.938 112.003V118.198C123.938 118.29 123.862 118.366 123.77 118.366Z" fill="#F5F5F4"/>
<path d="M138.343 129.675H100.607C99.4279 129.675 98.4707 128.717 98.4707 127.538V123.265C98.4707 122.086 99.4279 121.129 100.607 121.129H138.343C139.522 121.129 140.48 122.086 140.48 123.265V127.538C140.48 128.717 139.522 129.675 138.343 129.675Z" fill="white"/>
<path d="M138.342 129.843H100.606C99.3345 129.843 98.3008 128.809 98.3008 127.538V123.265C98.3008 121.994 99.3345 120.96 100.606 120.96H138.342C139.613 120.96 140.647 121.994 140.647 123.265V127.538C140.647 128.809 139.613 129.843 138.342 129.843ZM100.606 121.297C99.5183 121.297 98.6377 122.178 98.6377 123.265V127.538C98.6377 128.626 99.5183 129.506 100.606 129.506H138.342C139.429 129.506 140.31 128.626 140.31 127.538V123.265C140.31 122.178 139.429 121.297 138.342 121.297H100.606Z" fill="#292524"/>
<path d="M102.292 128.664C102.2 128.664 102.123 128.587 102.123 128.495V122.301C102.123 122.209 102.2 122.132 102.292 122.132C102.383 122.132 102.46 122.209 102.46 122.301V128.495C102.46 128.587 102.383 128.664 102.292 128.664Z" fill="#F5F5F4"/>
<path d="M106.586 128.664C106.495 128.664 106.418 128.587 106.418 128.495V122.3C106.418 122.208 106.495 122.132 106.586 122.132C106.678 122.132 106.755 122.208 106.755 122.3V128.495C106.755 128.587 106.678 128.664 106.586 128.664Z" fill="#F5F5F4"/>
<path d="M110.883 128.664C110.791 128.664 110.715 128.587 110.715 128.495V122.3C110.715 122.208 110.791 122.132 110.883 122.132C110.975 122.132 111.052 122.208 111.052 122.3V128.495C111.052 128.587 110.975 128.664 110.883 128.664Z" fill="#F5F5F4"/>
<path d="M115.178 128.664C115.086 128.664 115.01 128.587 115.01 128.495V122.3C115.01 122.208 115.086 122.132 115.178 122.132C115.27 122.132 115.347 122.208 115.347 122.3V128.495C115.347 128.587 115.27 128.664 115.178 128.664Z" fill="#F5F5F4"/>
<path d="M119.475 128.664C119.383 128.664 119.307 128.587 119.307 128.495V122.3C119.307 122.208 119.383 122.132 119.475 122.132C119.567 122.132 119.644 122.208 119.644 122.3V128.495C119.644 128.587 119.567 128.664 119.475 128.664Z" fill="#F5F5F4"/>
<path d="M123.77 128.664C123.678 128.664 123.602 128.587 123.602 128.495V122.3C123.602 122.208 123.678 122.132 123.77 122.132C123.862 122.132 123.938 122.208 123.938 122.3V128.495C123.938 128.587 123.862 128.664 123.77 128.664Z" fill="#F5F5F4"/>
<path d="M138.343 139.976H100.607C99.4279 139.976 98.4707 139.018 98.4707 137.839V133.566C98.4707 132.387 99.4279 131.43 100.607 131.43H138.343C139.522 131.43 140.48 132.387 140.48 133.566V137.839C140.48 139.018 139.522 139.976 138.343 139.976Z" fill="white"/>
<path d="M138.342 140.145H100.606C99.3345 140.145 98.3008 139.111 98.3008 137.84V133.567C98.3008 132.296 99.3345 131.262 100.606 131.262H138.342C139.613 131.262 140.647 132.296 140.647 133.567V137.84C140.647 139.111 139.613 140.145 138.342 140.145ZM100.606 131.599C99.5183 131.599 98.6377 132.479 98.6377 133.567V137.84C98.6377 138.927 99.5183 139.808 100.606 139.808H138.342C139.429 139.808 140.31 138.927 140.31 137.84V133.567C140.31 132.479 139.429 131.599 138.342 131.599H100.606Z" fill="#292524"/>
<path d="M102.292 138.972C102.2 138.972 102.123 138.896 102.123 138.804V132.609C102.123 132.517 102.2 132.441 102.292 132.441C102.383 132.441 102.46 132.517 102.46 132.609V138.804C102.46 138.896 102.383 138.972 102.292 138.972Z" fill="#F5F5F4"/>
<path d="M106.586 138.972C106.495 138.972 106.418 138.896 106.418 138.804V132.609C106.418 132.517 106.495 132.441 106.586 132.441C106.678 132.441 106.755 132.517 106.755 132.609V138.804C106.755 138.896 106.678 138.972 106.586 138.972Z" fill="#F5F5F4"/>
<path d="M110.883 138.972C110.791 138.972 110.715 138.896 110.715 138.804V132.609C110.715 132.517 110.791 132.441 110.883 132.441C110.975 132.441 111.052 132.517 111.052 132.609V138.804C111.052 138.896 110.975 138.972 110.883 138.972Z" fill="#F5F5F4"/>
<path d="M115.178 138.972C115.086 138.972 115.01 138.896 115.01 138.804V132.609C115.01 132.517 115.086 132.441 115.178 132.441C115.27 132.441 115.347 132.517 115.347 132.609V138.804C115.347 138.896 115.27 138.972 115.178 138.972Z" fill="#F5F5F4"/>
<path d="M119.475 138.972C119.383 138.972 119.307 138.896 119.307 138.804V132.609C119.307 132.517 119.383 132.441 119.475 132.441C119.567 132.441 119.644 132.517 119.644 132.609V138.804C119.644 138.896 119.567 138.972 119.475 138.972Z" fill="#F5F5F4"/>
<path d="M123.77 138.972C123.678 138.972 123.602 138.896 123.602 138.804V132.609C123.602 132.517 123.678 132.441 123.77 132.441C123.862 132.441 123.938 132.517 123.938 132.609V138.804C123.938 138.896 123.862 138.972 123.77 138.972Z" fill="#F5F5F4"/>
<path d="M75.8075 117.019C108.071 117.019 134.226 90.8708 134.226 58.6154C134.226 26.36 108.071 0.211914 75.8075 0.211914C43.5437 0.211914 17.3887 26.36 17.3887 58.6154C17.3887 90.8708 43.5437 117.019 75.8075 117.019Z" fill="white"/>
<path d="M75.806 117.179C60.1542 117.179 45.4442 111.084 34.3791 100.026C23.3141 88.9615 17.2188 74.2591 17.2188 58.6149C17.2188 42.9707 23.3141 28.2607 34.3791 17.2033C45.4442 6.13831 60.1618 0.0429688 75.806 0.0429688C91.4502 0.0429688 106.168 6.13831 117.233 17.1957C128.298 28.2607 134.393 42.9707 134.393 58.6149C134.393 74.2591 128.298 88.9691 117.233 100.026C106.168 111.092 91.4579 117.179 75.806 117.179ZM75.806 0.379897C43.6906 0.379897 17.5633 26.5072 17.5633 58.6149C17.5633 90.7227 43.6906 116.85 75.8137 116.85C107.937 116.85 134.064 90.7303 134.064 58.6149C134.064 26.4995 107.921 0.379897 75.806 0.379897Z" fill="#292524"/>
<path d="M75.8067 104.13C63.6466 104.13 52.214 99.3978 43.6147 90.7984C35.0154 82.1991 30.2754 70.7665 30.2754 58.6141C30.2754 46.4617 35.0154 35.0215 43.6147 26.4298C52.214 17.8305 63.6466 13.0981 75.8067 13.0981C87.9667 13.0981 99.3993 17.8305 107.999 26.4298C116.598 35.0291 121.338 46.4617 121.338 58.6141C121.338 70.7665 116.606 82.2068 107.999 90.7984C99.407 99.3978 87.9667 104.13 75.8067 104.13Z" fill="#F5F5F4"/>
<path d="M75.8045 89.5738C67.5345 89.5738 59.7545 86.35 53.9042 80.5073C48.0539 74.657 44.8301 66.8847 44.8301 58.6146C44.8301 50.3446 48.0539 42.5646 53.9042 36.722C59.7545 30.8717 67.5345 27.6555 75.8045 27.6555C84.0746 27.6555 91.8546 30.8793 97.7049 36.722C103.555 42.5723 106.779 50.3446 106.779 58.6146C106.779 66.8847 103.555 74.6647 97.7049 80.5073C91.8546 86.3576 84.0822 89.5738 75.8045 89.5738Z" fill="white"/>
<path d="M75.8079 75.6294C71.2594 75.6294 66.9865 73.8605 63.7704 70.6444C60.5543 67.4282 58.7854 63.1554 58.7854 58.6145C58.7854 54.066 60.5543 49.7931 63.7704 46.5846C66.9865 43.3685 71.2594 41.5996 75.8079 41.5996C80.3565 41.5996 84.6293 43.3685 87.8455 46.5846C91.0616 49.8008 92.8305 54.0736 92.8305 58.6145C92.8305 63.163 91.0616 67.4359 87.8455 70.6444C84.6293 73.8605 80.3565 75.6294 75.8079 75.6294Z" fill="#65A30D"/>
<path d="M91.6762 50.1217L76.5527 58.2003L90.3132 47.97L91.6762 50.1217Z" fill="#292524"/>
<path d="M139.749 20.6255L100.573 45.4663L98.3142 41.9056L137.49 17.0648C138.424 16.4752 139.649 16.7508 140.246 17.6774L140.369 17.8688C140.951 18.803 140.675 20.0359 139.749 20.6255Z" fill="white"/>
<path d="M100.573 45.642C100.519 45.642 100.465 45.6114 100.427 45.5654L98.1682 42.0047C98.1452 41.9664 98.1375 41.9205 98.1452 41.8745C98.1529 41.8286 98.1835 41.7903 98.2218 41.7673L137.397 16.9265C138.408 16.2909 139.748 16.5896 140.384 17.5927L140.506 17.7841C140.813 18.2742 140.92 18.8485 140.79 19.4152C140.667 19.9818 140.323 20.4642 139.84 20.7705L100.665 45.6113C100.634 45.6343 100.603 45.642 100.573 45.642ZM98.5434 41.9587L100.626 45.2361L139.656 20.4872C140.07 20.2269 140.353 19.821 140.46 19.3462C140.568 18.8715 140.483 18.3814 140.223 17.9679L140.1 17.7765C139.564 16.9265 138.431 16.6738 137.581 17.2098L98.5434 41.9587Z" fill="#292524"/>
<path d="M111.1 40.4204L94.981 50.6431C93.4495 51.6156 91.4127 51.1638 90.4402 49.6247L90.2411 49.3031C89.2686 47.7716 89.7204 45.7347 91.2595 44.7622L107.371 34.5471L111.1 40.4204Z" fill="white"/>
<path d="M93.2206 51.3248C92.072 51.3248 90.954 50.7582 90.2954 49.7167L90.0963 49.3951C89.5986 48.6141 89.4378 47.6875 89.6446 46.7839C89.8437 45.8804 90.3873 45.1146 91.1684 44.6169L107.287 34.3942C107.364 34.3406 107.471 34.3712 107.517 34.4478L111.246 40.321C111.269 40.3593 111.277 40.4053 111.269 40.4512C111.262 40.4972 111.231 40.5354 111.193 40.5584L95.0737 50.7811C94.4917 51.1487 93.8562 51.3248 93.2206 51.3248ZM107.318 34.777L91.3369 44.9079C90.6324 45.352 90.1423 46.0488 89.9585 46.8605C89.7747 47.6722 89.9202 48.5145 90.372 49.219L90.5711 49.5406C91.49 50.9955 93.4273 51.4244 94.8823 50.5055L110.863 40.367L107.318 34.777Z" fill="#292524"/>
<path d="M30.5877 90.9892C30.4729 90.9662 30.3657 90.9585 30.2508 90.9509C30.1895 89.8023 29.9598 88.6766 29.5693 87.6275C29.6688 87.5739 29.7684 87.5203 29.8603 87.4591C31.1391 86.5938 31.4683 84.8632 30.6107 83.5844C29.7454 82.3056 28.0148 81.9763 26.736 82.834C26.6441 82.8952 26.5522 82.9718 26.468 83.0407C25.6333 82.2903 24.6838 81.6547 23.6347 81.1723C23.6654 81.0651 23.696 80.9579 23.719 80.843C24.01 79.3268 23.0222 77.8643 21.506 77.5733C19.9975 77.2823 18.5349 78.2701 18.2362 79.7863C18.2133 79.9012 18.2056 80.0084 18.1979 80.1232C17.0493 80.1845 15.9237 80.4142 14.8746 80.8047C14.821 80.7052 14.7674 80.6056 14.7061 80.5138C13.8408 79.235 12.1103 78.9057 10.8315 79.7633C9.55267 80.6286 9.2234 82.3592 10.081 83.638C10.1423 83.7299 10.2189 83.8218 10.2878 83.906C9.53735 84.7407 8.90178 85.6902 8.41936 86.7393C8.31216 86.7086 8.20495 86.678 8.09009 86.655C6.58157 86.3641 5.119 87.3519 4.82035 88.868C4.52937 90.3842 5.51718 91.8468 7.03336 92.1378C7.14822 92.1608 7.25543 92.1684 7.37029 92.1761C7.43155 93.3247 7.66127 94.4503 8.05181 95.4994C7.95226 95.553 7.85271 95.6066 7.76082 95.6679C6.48202 96.5332 6.15275 98.2638 7.01039 99.5426C7.86803 100.821 9.60627 101.151 10.8851 100.293C10.977 100.232 11.0688 100.155 11.1531 100.086C11.9877 100.837 12.9373 101.472 13.9863 101.955C13.9557 102.062 13.9251 102.169 13.9021 102.284C13.6111 103.8 14.5989 105.263 16.1151 105.554C17.6236 105.845 19.0862 104.857 19.3849 103.341C19.4078 103.226 19.4155 103.119 19.4231 103.004C20.5718 102.942 21.6974 102.713 22.7465 102.322C22.8001 102.422 22.8537 102.521 22.9149 102.613C23.7802 103.892 25.5108 104.221 26.7896 103.364C28.0684 102.498 28.3977 100.768 27.5401 99.4889C27.4788 99.3971 27.4022 99.3052 27.3333 99.2209C28.0837 98.3863 28.7193 97.4367 29.2017 96.3877C29.3089 96.4183 29.4161 96.4489 29.531 96.4719C31.0395 96.7629 32.5021 95.7751 32.8007 94.2589C33.0917 92.7427 32.1039 91.2801 30.5877 90.9892ZM17.8304 96.6404C15.0201 96.0967 13.1823 93.3783 13.726 90.568C14.2697 87.7577 16.9881 85.9199 19.7907 86.4636C22.601 87.0073 24.4388 89.7257 23.8951 92.536C23.3591 95.3463 20.6407 97.1841 17.8304 96.6404Z" fill="white"/>
<path d="M16.6502 105.761C16.4588 105.761 16.275 105.745 16.0835 105.707C14.4831 105.401 13.4341 103.846 13.7404 102.238C13.7557 102.169 13.771 102.108 13.7863 102.031C12.8291 101.572 11.9485 100.99 11.1521 100.293C11.0909 100.339 11.0373 100.377 10.9837 100.416C10.3328 100.86 9.54407 101.021 8.76301 100.867C7.9896 100.714 7.31575 100.278 6.87161 99.6193C5.96038 98.2716 6.31262 96.4261 7.66799 95.5149C7.72159 95.4766 7.78285 95.4383 7.84411 95.4077C7.49187 94.4122 7.27746 93.3708 7.20854 92.314C7.13197 92.3064 7.06305 92.2987 7.00179 92.2834C5.40138 91.9771 4.35231 90.4226 4.65861 88.8146C4.81176 88.0412 5.24823 87.3673 5.90677 86.9232C6.55766 86.4791 7.34638 86.3182 8.12744 86.4714C8.19636 86.4867 8.25762 86.502 8.33419 86.5173C8.79364 85.5602 9.3756 84.6796 10.0724 83.8832C10.0265 83.8219 9.9882 83.7683 9.94992 83.7147C9.03868 82.367 9.39092 80.5216 10.7463 79.6103C11.3972 79.1662 12.1859 79.0054 12.967 79.1585C13.7404 79.3117 14.4142 79.7481 14.8584 80.4067C14.8966 80.4603 14.9349 80.5215 14.9656 80.5828C15.961 80.2306 17.0024 80.0162 18.0592 79.9472C18.0668 79.8707 18.0745 79.8017 18.0898 79.7405C18.243 78.9671 18.6794 78.2932 19.338 77.8491C19.9889 77.405 20.7776 77.2442 21.5586 77.3973C23.159 77.7036 24.2081 79.2581 23.9018 80.8661C23.8865 80.9351 23.8712 80.9963 23.8559 81.0729C24.8131 81.5323 25.6937 82.1143 26.49 82.8111C26.5513 82.7652 26.6049 82.7269 26.6585 82.6886C27.3094 82.2445 28.0981 82.0837 28.8792 82.2368C29.6526 82.39 30.3264 82.8264 30.7706 83.485C31.6818 84.8327 31.3296 86.6781 29.9742 87.5894C29.9206 87.6277 29.8593 87.666 29.7981 87.6966C30.1503 88.6921 30.3647 89.7335 30.4336 90.7902C30.5102 90.7979 30.5791 90.8055 30.6404 90.8208C32.2408 91.1271 33.2899 92.6816 32.9836 94.2897C32.8304 95.0631 32.3939 95.7369 31.7354 96.1811C31.0845 96.6252 30.2958 96.786 29.5147 96.6329C29.4458 96.6175 29.3846 96.6022 29.308 96.5869C28.8485 97.5441 28.2666 98.4247 27.5697 99.2211C27.6157 99.2823 27.654 99.3359 27.6923 99.3895C28.6035 100.737 28.2513 102.583 26.8959 103.494C26.245 103.938 25.4563 104.099 24.6752 103.946C23.9018 103.793 23.228 103.356 22.7838 102.698C22.7455 102.644 22.7073 102.583 22.6766 102.521C21.6812 102.874 20.6397 103.088 19.583 103.157C19.5754 103.234 19.5677 103.303 19.5524 103.364C19.3992 104.137 18.9628 104.811 18.3042 105.255C17.8065 105.592 17.2322 105.761 16.6502 105.761ZM11.1598 99.9102C11.1981 99.9102 11.244 99.9256 11.2747 99.9562C12.1093 100.707 13.0435 101.327 14.062 101.802C14.1385 101.84 14.1768 101.924 14.1539 102.008C14.1156 102.123 14.0926 102.223 14.0696 102.315C13.794 103.731 14.7282 105.11 16.1448 105.385C16.834 105.516 17.5308 105.378 18.1128 104.979C18.6947 104.589 19.0853 103.992 19.2154 103.303C19.2308 103.211 19.2461 103.103 19.2537 102.989C19.2614 102.904 19.3303 102.835 19.4145 102.835C20.5325 102.774 21.6352 102.552 22.6919 102.162C22.7685 102.131 22.8604 102.169 22.8987 102.246C22.9523 102.353 23.0059 102.445 23.0595 102.521C23.45 103.103 24.0473 103.494 24.7365 103.624C25.4257 103.754 26.1225 103.616 26.7045 103.226C27.899 102.414 28.213 100.783 27.4089 99.5886C27.3553 99.5121 27.2941 99.4278 27.2098 99.3359C27.1562 99.2747 27.1562 99.1751 27.2098 99.1139C27.9603 98.2792 28.5805 97.345 29.0553 96.3189C29.0936 96.2423 29.1778 96.204 29.262 96.227C29.3769 96.2653 29.4765 96.2883 29.5683 96.3112C30.2575 96.4414 30.9543 96.3036 31.5363 95.9054C32.1183 95.5149 32.5088 94.9176 32.639 94.2284C32.9147 92.8118 31.9804 91.4334 30.5638 91.1578C30.4719 91.1425 30.3724 91.1271 30.2499 91.1195C30.1656 91.1118 30.0967 91.0429 30.0967 90.9587C30.0354 89.8407 29.8134 88.738 29.4229 87.6813C29.3922 87.6047 29.4305 87.5128 29.5071 87.4745C29.6143 87.4209 29.7062 87.3673 29.7828 87.3137C30.9773 86.502 31.2913 84.871 30.4872 83.6764C30.0967 83.0945 29.4994 82.7039 28.8103 82.5737C28.1211 82.4436 27.4243 82.5814 26.8423 82.9719C26.7657 83.0255 26.6815 83.0868 26.5896 83.171C26.5283 83.2246 26.4288 83.2246 26.3675 83.171C25.5329 82.4206 24.5986 81.8003 23.5802 81.3256C23.5036 81.2873 23.4653 81.2031 23.4883 81.1188C23.5266 81.004 23.5496 80.9044 23.5725 80.8125C23.8482 79.3959 22.914 78.0176 21.4974 77.7419C20.8082 77.6117 20.1114 77.7495 19.5294 78.1477C18.9474 78.5383 18.5569 79.1356 18.4267 79.8247C18.4114 79.9166 18.3961 80.0238 18.3884 80.1387C18.3808 80.2229 18.3119 80.2918 18.2276 80.2918C17.1096 80.3531 16.007 80.5751 14.9502 80.9657C14.8737 80.9963 14.7818 80.958 14.7435 80.8814C14.6899 80.7742 14.6363 80.6824 14.5827 80.6058C14.1922 80.0238 13.5949 79.6333 12.9057 79.5031C12.2165 79.3729 11.5197 79.5108 10.9377 79.9013C9.74316 80.713 9.42921 82.344 10.2332 83.5386C10.2868 83.6152 10.3481 83.6994 10.4323 83.7913C10.4859 83.8525 10.4859 83.9521 10.4323 84.0134C9.6819 84.848 9.06165 85.7899 8.58689 86.8083C8.5486 86.8849 8.46437 86.9232 8.38014 86.9002C8.26527 86.8619 8.16573 86.839 8.07384 86.816C7.38466 86.6858 6.68783 86.8236 6.10587 87.2218C5.5239 87.6124 5.13337 88.2096 5.00319 88.8988C4.72752 90.3155 5.66173 91.6938 7.07837 91.9695C7.17026 91.9848 7.2698 92.0001 7.39232 92.0077C7.47655 92.0154 7.54547 92.0843 7.54547 92.1686C7.60673 93.2942 7.8288 94.3969 8.21933 95.446C8.24996 95.5225 8.21167 95.6144 8.1351 95.6527C8.02789 95.7063 7.936 95.7599 7.85943 95.8135C6.66486 96.6252 6.35091 98.2562 7.15494 99.4508C7.54547 100.033 8.14275 100.423 8.83192 100.553C9.5211 100.684 10.2179 100.546 10.7999 100.155C10.8765 100.102 10.9607 100.04 11.0526 99.9562C11.0832 99.9179 11.1215 99.9102 11.1598 99.9102ZM18.8249 96.9085C18.488 96.9085 18.1434 96.8779 17.7988 96.809C14.9043 96.25 13.0052 93.4397 13.5642 90.5452C13.8323 89.1439 14.6363 87.9263 15.8155 87.1299C17.0024 86.3259 18.4267 86.0349 19.828 86.3106C22.7226 86.8696 24.6216 89.6799 24.0626 92.5744C23.7946 93.9757 22.9906 95.1933 21.8113 95.9896C20.9154 96.5946 19.8816 96.9085 18.8249 96.9085ZM18.8019 86.5403C17.8141 86.5403 16.8416 86.8313 16.007 87.3979C14.8966 88.1484 14.1462 89.2817 13.8935 90.5988C13.3728 93.3095 15.1493 95.9437 17.8601 96.472C19.1772 96.7247 20.5096 96.4567 21.6199 95.7063C22.7302 94.9559 23.4807 93.8226 23.7334 92.5055C24.2541 89.7947 22.4775 87.1606 19.7668 86.6322C19.4452 86.5709 19.1236 86.5403 18.8019 86.5403Z" fill="#292524"/>
<path d="M40.9898 67.8791C40.9285 67.9174 40.8749 67.9634 40.8213 68.0093C40.2776 67.5345 39.665 67.1517 39.0218 66.8607C39.0448 66.7918 39.0601 66.7229 39.0754 66.6539C39.2439 65.6968 38.6083 64.7932 37.6511 64.6247C36.7016 64.4562 35.7904 65.0918 35.6219 66.049C35.6066 66.1179 35.5989 66.1945 35.5989 66.2634C34.8944 66.3094 34.1899 66.4625 33.5161 66.7229C33.4855 66.6616 33.4472 66.6003 33.4089 66.5391C32.8575 65.7427 31.7625 65.5513 30.9662 66.1103C30.1698 66.6693 29.9783 67.7566 30.5373 68.553C30.5756 68.6143 30.6216 68.6679 30.6675 68.7215C30.1928 69.2651 29.8099 69.8777 29.5189 70.521C29.45 70.498 29.3811 70.4827 29.3121 70.4674C28.3626 70.2989 27.4514 70.9345 27.2829 71.8916C27.1145 72.8488 27.75 73.7524 28.7072 73.9209C28.7761 73.9362 28.845 73.9438 28.9216 73.9438C28.9676 74.6483 29.1207 75.3528 29.3811 76.0267C29.3198 76.0573 29.2585 76.0956 29.1973 76.1339C28.4009 76.6929 28.2095 77.7802 28.7685 78.5766C29.3198 79.373 30.4148 79.5644 31.2112 79.0054C31.2725 78.9671 31.3261 78.9212 31.3797 78.8753C31.9233 79.35 32.5359 79.7329 33.1792 80.0239C33.1562 80.0928 33.1409 80.1617 33.1256 80.2306C32.9571 81.1878 33.5927 82.0914 34.5498 82.2599C35.4994 82.4283 36.4106 81.7927 36.5791 80.8356C36.5944 80.7666 36.602 80.6901 36.602 80.6212C37.3065 80.5752 38.011 80.4221 38.6849 80.1617C38.7155 80.223 38.7538 80.2842 38.7921 80.3455C39.3434 81.1419 40.4384 81.3333 41.2348 80.7743C42.0312 80.2153 42.2226 79.128 41.6636 78.3316C41.6253 78.2703 41.5794 78.2167 41.5335 78.1631C42.0082 77.6194 42.3911 77.0068 42.6821 76.3636C42.751 76.3866 42.8199 76.4019 42.8888 76.4172C43.8384 76.5857 44.7496 75.9501 44.9181 74.9929C45.0865 74.0357 44.451 73.1322 43.4938 72.9637C43.4249 72.9484 43.3559 72.9407 43.2794 72.9407C43.2334 72.2362 43.0803 71.5317 42.8199 70.8579C42.8812 70.8273 42.9424 70.789 43.0037 70.7507C43.8001 70.1917 43.9915 69.1043 43.4325 68.308C42.8812 67.5192 41.7862 67.3278 40.9898 67.8791ZM37.9651 76.1186C36.4948 77.1523 34.4656 76.7924 33.4319 75.3145C32.3981 73.8443 32.758 71.8074 34.2359 70.7813C35.7061 69.7476 37.7354 70.1075 38.7691 71.5854C39.7952 73.0556 39.4353 75.0848 37.9651 76.1186Z" fill="white"/>
<path d="M34.849 82.4588C34.7341 82.4588 34.6269 82.4511 34.5121 82.4282C34.0067 82.3363 33.5702 82.0606 33.2716 81.6394C32.9806 81.2183 32.8657 80.7052 32.9576 80.1998C32.9653 80.1692 32.9653 80.1462 32.9729 80.1156C32.3986 79.8476 31.8626 79.503 31.3725 79.0972C31.3495 79.1125 31.3266 79.1355 31.3036 79.1508C30.8824 79.4418 30.377 79.5566 29.864 79.4724C29.3586 79.3805 28.9221 79.1048 28.6235 78.6837C28.0185 77.8184 28.2253 76.6161 29.0982 76.0036C29.1212 75.9882 29.1442 75.9729 29.1672 75.9576C28.9527 75.3603 28.8149 74.7401 28.7537 74.1045C28.723 74.1045 28.7001 74.0968 28.6694 74.0892C28.164 73.9973 27.7199 73.7216 27.4289 73.3005C27.1379 72.8793 27.0231 72.3663 27.115 71.8609C27.2987 70.8194 28.3019 70.115 29.3433 70.2987C29.3739 70.3064 29.3969 70.3064 29.4275 70.3141C29.6955 69.7397 30.0401 69.2037 30.446 68.7136C30.4306 68.6907 30.4077 68.6677 30.3924 68.6447C29.7874 67.7794 29.9942 66.5772 30.8671 65.9646C31.2883 65.6736 31.7937 65.5588 32.2991 65.643C32.8045 65.7349 33.2409 66.0106 33.5396 66.4317C33.5549 66.4547 33.5702 66.4777 33.5855 66.5006C34.1828 66.2862 34.8031 66.1484 35.4386 66.0871C35.4386 66.0565 35.4463 66.0335 35.4539 66.0029C35.6377 64.9615 36.6408 64.257 37.6823 64.4408C38.7237 64.6246 39.4205 65.6277 39.2367 66.6691C39.2291 66.6997 39.2291 66.7227 39.2214 66.7533C39.7957 67.0213 40.3317 67.3659 40.8218 67.7718C40.8448 67.7565 40.8678 67.7335 40.8907 67.7182C41.3119 67.4272 41.8173 67.3123 42.3227 67.3966C42.8281 67.4884 43.2646 67.7641 43.5632 68.1853C44.1681 69.0506 43.9614 70.2528 43.0884 70.8654C43.0655 70.8807 43.0425 70.896 43.0195 70.9113C43.2339 71.5086 43.3718 72.1289 43.433 72.7644C43.4636 72.7644 43.4866 72.7721 43.5173 72.7798C44.0226 72.8716 44.4668 73.1473 44.7578 73.5685C45.0487 73.9896 45.1636 74.5027 45.0717 75.0081C44.8879 76.0495 43.8848 76.754 42.8434 76.5702C42.8128 76.5625 42.7898 76.5625 42.7592 76.5549C42.4911 77.1292 42.1466 77.6652 41.7407 78.1553C41.756 78.1783 41.779 78.2012 41.7943 78.2242C42.3993 79.0895 42.1925 80.2917 41.3196 80.9043C40.8984 81.1953 40.3853 81.3102 39.8876 81.2259C39.3822 81.1341 38.9457 80.8584 38.6471 80.4372C38.6318 80.4143 38.6165 80.3913 38.6012 80.3683C38.0039 80.5827 37.3836 80.7206 36.748 80.7818C36.748 80.8124 36.7404 80.8354 36.7327 80.866C36.6408 81.3714 36.3652 81.8156 35.944 82.1065C35.6224 82.3439 35.2395 82.4588 34.849 82.4588ZM31.3725 78.7143C31.4108 78.7143 31.4491 78.7296 31.4797 78.7526C32.0081 79.212 32.5977 79.5872 33.2333 79.8706C33.3098 79.9089 33.3481 79.9931 33.3252 80.0773C33.3022 80.1462 33.2869 80.2075 33.2792 80.2611C33.2026 80.6746 33.3022 81.0958 33.5396 81.448C33.7846 81.7926 34.1445 82.03 34.558 82.0989C34.9715 82.1755 35.3927 82.0759 35.7449 81.8385C36.0895 81.5935 36.3269 81.2336 36.3958 80.8124C36.4035 80.7588 36.4111 80.6899 36.4188 80.621C36.4264 80.5368 36.4877 80.4678 36.5719 80.4602C37.2688 80.4142 37.9503 80.2611 38.6088 80.0084C38.6854 79.9778 38.7773 80.0084 38.8156 80.085C38.8462 80.1462 38.8845 80.1998 38.9151 80.2534C39.1602 80.598 39.5201 80.8354 39.9336 80.9043C40.3471 80.9809 40.7682 80.8814 41.1205 80.644C41.8326 80.1462 42.0087 79.1508 41.511 78.4386C41.4804 78.3927 41.4421 78.3467 41.3885 78.2855C41.3349 78.2242 41.3272 78.1247 41.3885 78.0634C41.8479 77.535 42.2231 76.9454 42.5065 76.3099C42.5448 76.2333 42.629 76.195 42.7132 76.218C42.7821 76.2409 42.8434 76.2562 42.897 76.2639C43.7546 76.4171 44.5816 75.8427 44.7348 74.9775C44.8114 74.5639 44.7118 74.1428 44.4744 73.7905C44.2294 73.446 43.8695 73.2086 43.456 73.1397C43.4024 73.132 43.3335 73.1243 43.2646 73.1167C43.1803 73.109 43.1114 73.0478 43.1037 72.9559C43.0578 72.259 42.9047 71.5775 42.652 70.919C42.6213 70.8424 42.652 70.7505 42.7285 70.7122C42.7898 70.674 42.8434 70.6433 42.897 70.6127C43.6091 70.115 43.7853 69.1195 43.2875 68.4073C43.0425 68.0628 42.6826 67.8254 42.2691 67.7565C41.8556 67.6799 41.4344 67.7794 41.0822 68.0168C41.0362 68.0474 40.9826 68.0934 40.929 68.1393C40.8678 68.1929 40.7682 68.1929 40.707 68.1393C40.1786 67.6799 39.589 67.3047 38.9534 67.0213C38.8768 66.9831 38.8385 66.8988 38.8615 66.8146C38.8845 66.7457 38.8998 66.6844 38.9075 66.6308C39.0606 65.7732 38.4863 64.9462 37.621 64.793C36.7634 64.6399 35.9364 65.2142 35.7832 66.0795C35.7756 66.1331 35.7679 66.202 35.7602 66.2709C35.7526 66.3551 35.6913 66.4241 35.6071 66.4317C34.9103 66.4777 34.2287 66.6308 33.5702 66.8835C33.4936 66.9141 33.4017 66.8835 33.3635 66.8069C33.3328 66.7457 33.2945 66.6921 33.2639 66.6385C33.0189 66.2939 32.659 66.0565 32.2455 65.9876C31.832 65.911 31.4108 66.0106 31.0586 66.2479C30.3464 66.7457 30.1703 67.7411 30.668 68.4533C30.6987 68.4992 30.7369 68.5452 30.7905 68.6064C30.8441 68.6677 30.8518 68.7672 30.7905 68.8285C30.3311 69.3569 29.9559 69.9465 29.6726 70.5821C29.6343 70.6586 29.55 70.6969 29.4658 70.674C29.3969 70.651 29.3356 70.6357 29.282 70.628C28.4244 70.4749 27.5974 71.0492 27.4442 71.9145C27.3677 72.328 27.4672 72.7491 27.7046 73.1014C27.9496 73.446 28.3095 73.6833 28.723 73.7523C28.7766 73.7599 28.8455 73.7676 28.9145 73.7752C28.9987 73.7829 29.0676 73.8441 29.0753 73.9284C29.1212 74.6252 29.2744 75.3067 29.5271 75.9653C29.5577 76.0418 29.5271 76.1337 29.4505 76.172C29.3892 76.2026 29.3356 76.2409 29.282 76.2716C28.5699 76.7693 28.3938 77.7648 28.8915 78.4769C29.1365 78.8215 29.4964 79.0589 29.9099 79.1278C30.3234 79.2044 30.7446 79.1048 31.0968 78.8674C31.1428 78.8368 31.1964 78.7909 31.25 78.7449C31.2959 78.7219 31.3342 78.7143 31.3725 78.7143ZM36.1048 76.8765C35.9057 76.8765 35.7066 76.8612 35.4999 76.8229C34.5963 76.6621 33.8152 76.1644 33.2945 75.4139C32.2148 73.8671 32.59 71.7307 34.1369 70.6433C34.8873 70.1226 35.7909 69.9159 36.6944 70.0767C37.598 70.2375 38.3791 70.7352 38.8998 71.4856C39.9795 73.0325 39.6043 75.1689 38.0575 76.2562C37.4832 76.6621 36.8017 76.8765 36.1048 76.8765ZM36.0972 70.36C35.4693 70.36 34.8567 70.5514 34.3359 70.919C32.9423 71.8915 32.5977 73.8212 33.5779 75.2225C34.0526 75.8963 34.7571 76.3481 35.5688 76.4936C36.3805 76.6391 37.1998 76.4553 37.8737 75.9806C39.2674 75.0081 39.6119 73.0784 38.6318 71.6771C38.157 71.0032 37.4525 70.5514 36.6408 70.4059C36.4571 70.3753 36.2733 70.36 36.0972 70.36Z" fill="#292524"/>
</svg>
