<svg width="261" height="266" viewBox="0 0 261 266" fill="none" xmlns="http://www.w3.org/2000/svg">
<path d="M24.0737 121.206L13.7324 110.847C44.9998 79.5261 86.5799 62.2661 130.795 62.2661C175.025 62.2661 216.591 79.5118 247.858 110.847L237.517 121.206C209.014 92.6541 171.101 76.9149 130.781 76.9149C90.4615 76.9149 52.5768 92.6397 24.0737 121.206Z" fill="#292524"/>
<path d="M212.106 146.673C190.393 124.922 161.517 112.942 130.808 112.942C100.1 112.942 71.2241 124.922 49.5103 146.673L39.1689 136.314C63.6472 111.794 96.1893 98.2935 130.808 98.2935C165.427 98.2935 197.97 111.794 222.448 136.314L212.106 146.673Z" fill="#292524"/>
<path d="M73.4858 170.704L63.1445 160.345C81.2203 142.238 105.24 132.281 130.793 132.281C156.345 132.281 180.365 142.253 198.441 160.345L188.1 170.704C172.788 155.366 152.435 146.93 130.793 146.93C109.15 146.93 88.7973 155.366 73.4858 170.704Z" fill="#292524"/>
<path d="M163.681 195.181C145.548 177.017 116.056 177.017 97.9233 195.181L87.582 184.822C111.401 160.962 150.188 160.948 174.008 184.822L163.681 195.181Z" fill="#292524"/>
<path d="M140.546 218.354C135.175 212.973 126.438 212.973 121.067 218.354L110.726 207.995C121.797 196.904 139.802 196.904 150.873 207.995L140.546 218.354Z" fill="#292524"/>
<path d="M17.5122 127.865L7.1709 117.506C38.4383 86.1858 80.0184 68.9258 124.234 68.9258C168.464 68.9258 210.029 86.1715 241.297 117.506L230.956 127.865C202.453 99.3138 164.539 83.5746 124.22 83.5746C83.8999 83.5746 46.0152 99.3138 17.5122 127.865Z" fill="#E7E5E4"/>
<path d="M205.543 153.346C183.829 131.595 154.954 119.615 124.245 119.615C93.5361 119.615 64.6606 131.595 42.9468 153.346L32.6055 142.987C57.0837 118.467 89.6259 104.966 124.245 104.966C158.864 104.966 191.406 118.467 215.884 142.987L205.543 153.346Z" fill="#E7E5E4"/>
<path d="M66.9302 177.379L56.5889 167.02C74.6647 148.928 98.6846 138.956 124.251 138.956C149.804 138.956 173.824 148.928 191.9 167.02L181.558 177.379C166.247 162.041 145.894 153.605 124.251 153.605C102.609 153.605 82.2416 162.041 66.9302 177.379Z" fill="#E7E5E4"/>
<path d="M157.119 201.855C138.986 183.691 109.495 183.691 91.3618 201.855L81.0205 191.496C104.84 167.636 143.627 167.622 167.446 191.496L157.119 201.855Z" fill="#E7E5E4"/>
<path d="M133.991 225.024C128.62 219.644 119.882 219.644 114.511 225.024L104.17 214.666C115.242 203.575 133.246 203.575 144.318 214.666L133.991 225.024Z" fill="#E7E5E4"/>
<path d="M157.532 13.5383C160.004 11.0618 160.004 7.04658 157.532 4.57006C155.06 2.09354 151.051 2.09355 148.579 4.57007C146.107 7.04659 146.107 11.0618 148.579 13.5383C151.051 16.0149 155.06 16.0149 157.532 13.5383Z" fill="#292524"/>
<path d="M144.605 17.0066C148.008 16.2017 150.115 12.7861 149.311 9.37765C148.508 5.96915 145.098 3.85846 141.695 4.66331C138.293 5.46815 136.186 8.88374 136.989 12.2922C137.792 15.7007 141.202 17.8114 144.605 17.0066Z" fill="#292524"/>
<path d="M134.694 18.8015C138.097 17.9967 140.204 14.5811 139.4 11.1726C138.597 7.76407 135.187 5.65339 131.784 6.45823C128.381 7.26307 126.274 10.6787 127.078 14.0872C127.881 17.4957 131.291 19.6063 134.694 18.8015Z" fill="#292524"/>
<path d="M157.922 10.8457H152.938V17.3021H157.922V10.8457Z" fill="#F5F5F4"/>
<path d="M157.923 17.6174H152.938C152.766 17.6174 152.623 17.474 152.623 17.3018V10.8454C152.623 10.6733 152.766 10.5298 152.938 10.5298H157.923C158.094 10.5298 158.238 10.6733 158.238 10.8454V17.3018C158.252 17.474 158.109 17.6174 157.923 17.6174ZM153.268 16.9862H157.622V11.1611H153.268V16.9862Z" fill="#292524"/>
<path d="M152.938 12.7386V10.8447H157.923V15.0198C157.479 15.1059 156.577 15.2207 155.545 14.8764C153.941 14.3599 153.153 13.0973 152.938 12.7386Z" fill="#292524"/>
<path d="M156.12 13.7989C158.335 13.7989 160.13 11.814 160.13 9.3655C160.13 6.91702 158.335 4.93213 156.12 4.93213C153.905 4.93213 152.109 6.91702 152.109 9.3655C152.109 11.814 153.905 13.7989 156.12 13.7989Z" fill="#F5F5F4"/>
<path d="M156.121 14.1294C153.729 14.1294 151.795 11.9916 151.795 9.38037C151.795 6.76912 153.729 4.63135 156.121 4.63135C158.512 4.63135 160.446 6.76912 160.446 9.38037C160.446 11.9916 158.498 14.1294 156.121 14.1294ZM156.121 5.24829C154.087 5.24829 152.425 7.09912 152.425 9.36602C152.425 11.6329 154.087 13.4837 156.121 13.4837C158.154 13.4837 159.816 11.6329 159.816 9.36602C159.816 7.09912 158.154 5.24829 156.121 5.24829Z" fill="#292524"/>
<path d="M156.146 4.84668C156.561 4.84668 156.962 4.91842 157.349 5.04754C156.819 7.77357 154.842 9.98308 152.236 10.8296C152.107 10.3848 152.035 9.91134 152.035 9.40918C152.035 6.89837 153.883 4.84668 156.146 4.84668Z" fill="#292524"/>
<path d="M154.37 11.3182C154.757 11.6769 155.258 11.9208 155.817 11.9782C157.077 12.1073 158.209 11.2895 158.509 10.0986L154.37 11.3182Z" fill="white"/>
<path d="M220.324 114.839L237.62 117.529L241.984 89.3709L224.687 86.6814L220.324 114.839Z" fill="#F5F5F4"/>
<path d="M237.629 117.85C237.615 117.85 237.601 117.85 237.586 117.85L220.284 115.153C220.198 115.139 220.126 115.096 220.083 115.024C220.041 114.952 220.012 114.866 220.026 114.794L224.395 86.6302C224.409 86.5441 224.452 86.4723 224.524 86.4293C224.595 86.3862 224.681 86.3575 224.753 86.3719L242.055 89.0549C242.141 89.0692 242.213 89.1123 242.256 89.184C242.299 89.2557 242.327 89.3418 242.313 89.4136L237.944 117.578C237.916 117.736 237.787 117.85 237.629 117.85ZM220.699 114.579L237.372 117.176L241.64 89.6431L224.968 87.0462L220.699 114.579Z" fill="#292524"/>
<path d="M255.307 127.865L248.131 121.523L242.659 110.146L231.373 111.595C228.981 111.896 226.56 111.193 224.713 109.629L224.397 109.357C222.535 107.778 221.733 105.282 222.335 102.915L222.492 102.312C222.793 101.135 221.347 100.332 220.502 101.207L204.574 117.922L210.132 123.274C213.082 126.114 216.448 128.482 220.115 130.29L221.59 131.021C230.528 135.44 240.081 138.482 249.921 140.032L256.983 141.136L259.904 138.697L260.019 138.468C260.835 136.803 260.893 134.881 260.191 133.173L260.177 133.145C259.819 132.298 259.303 131.538 258.63 130.921L255.307 127.865Z" fill="white"/>
<path d="M256.983 141.467C256.968 141.467 256.954 141.467 256.94 141.467L249.879 140.362C239.996 138.813 230.428 135.771 221.461 131.323L219.986 130.591C216.291 128.755 212.911 126.373 209.931 123.518L204.374 118.166C204.245 118.052 204.245 117.851 204.36 117.722L220.287 101.007C220.76 100.505 221.49 100.39 222.092 100.734C222.693 101.064 222.98 101.739 222.808 102.413L222.65 103.016C222.077 105.254 222.851 107.65 224.613 109.142L224.928 109.415C226.704 110.907 229.038 111.595 231.344 111.308L242.631 109.859C242.76 109.845 242.903 109.917 242.96 110.031L248.403 121.352L255.536 127.65L258.859 130.735C259.561 131.395 260.105 132.17 260.478 133.059C261.237 134.881 261.165 136.904 260.306 138.64L260.191 138.87C260.177 138.913 260.148 138.942 260.105 138.97L257.183 141.409C257.126 141.452 257.054 141.467 256.983 141.467ZM205.033 117.937L210.361 123.059C213.283 125.871 216.62 128.224 220.258 130.017L221.734 130.749C230.643 135.168 240.153 138.181 249.979 139.731L256.897 140.821L259.661 138.526L259.747 138.353C260.521 136.775 260.578 134.939 259.905 133.317C259.561 132.485 259.06 131.782 258.429 131.18L255.121 128.095L247.945 121.753C247.916 121.725 247.888 121.696 247.873 121.653L242.502 110.491L231.445 111.911C228.967 112.227 226.446 111.495 224.541 109.874L224.226 109.601C222.278 107.965 221.433 105.297 222.063 102.829L222.221 102.226C222.335 101.753 222.092 101.423 221.805 101.265C221.519 101.107 221.103 101.064 220.774 101.423L205.033 117.937Z" fill="#292524"/>
<path d="M237.876 110.76L242.66 110.143L248.131 121.521L243.734 119.34C242.259 118.608 241.084 117.417 240.368 115.939L237.876 110.76Z" fill="white"/>
<path d="M248.131 121.837C248.088 121.837 248.031 121.823 247.988 121.808L243.577 119.628C242.058 118.867 240.798 117.605 240.067 116.069L237.575 110.904C237.532 110.818 237.532 110.703 237.575 110.617C237.618 110.531 237.718 110.474 237.819 110.46L242.603 109.843C242.732 109.828 242.875 109.9 242.932 110.015L248.403 121.392C248.461 121.507 248.432 121.665 248.346 121.751C248.303 121.808 248.217 121.837 248.131 121.837ZM238.349 111.019L240.64 115.797C241.314 117.203 242.459 118.365 243.863 119.054L247.444 120.833L242.474 110.488L238.349 111.019Z" fill="#292524"/>
<path d="M229.079 121.423L227.747 124.106L220.156 114.221L217.563 119.042L213.223 108.855L211.605 108.511L203.541 117.076L210.173 123.389C213.08 126.158 216.389 128.482 219.998 130.262L221.56 131.036C230.497 135.455 240.051 138.497 249.891 140.047L256.952 141.151L259.874 138.712L256.408 137.737C243.732 134.035 237.114 126.23 237.114 126.23L236.112 128.411L229.079 121.423Z" fill="#292524"/>
<path d="M256.982 141.466C256.968 141.466 256.954 141.466 256.94 141.466L249.878 140.361C239.995 138.812 230.427 135.77 221.461 131.322L219.9 130.548C216.262 128.754 212.939 126.415 210.003 123.618L203.371 117.305C203.242 117.19 203.242 116.989 203.357 116.86L211.421 108.295C211.492 108.209 211.607 108.18 211.721 108.209L213.34 108.553C213.44 108.582 213.526 108.639 213.569 108.739L217.651 118.323L219.929 114.077C219.986 113.976 220.072 113.919 220.186 113.904C220.287 113.89 220.401 113.948 220.458 114.034L227.735 123.517L228.838 121.279C228.881 121.193 228.966 121.121 229.067 121.107C229.167 121.093 229.267 121.121 229.339 121.193L236.071 127.879L236.887 126.114C236.93 126.014 237.03 125.942 237.131 125.928C237.245 125.913 237.345 125.956 237.417 126.042C237.489 126.114 244.135 133.819 256.567 137.449L260.033 138.424C260.148 138.453 260.234 138.553 260.262 138.668C260.291 138.783 260.248 138.898 260.162 138.984L257.24 141.423C257.126 141.452 257.054 141.466 256.982 141.466ZM204.001 117.061L210.404 123.159C213.297 125.913 216.577 128.209 220.143 129.974L221.705 130.748C230.614 135.167 240.124 138.18 249.95 139.73L256.868 140.82L259.217 138.869L256.338 138.066C245.266 134.823 238.706 128.41 237.217 126.817L236.414 128.568C236.372 128.668 236.286 128.725 236.185 128.74C236.085 128.754 235.985 128.725 235.913 128.654L229.167 121.953L228.035 124.249C227.992 124.349 227.892 124.407 227.778 124.421C227.663 124.436 227.563 124.392 227.491 124.292L220.201 114.794L217.837 119.184C217.78 119.285 217.665 119.357 217.551 119.357C217.436 119.357 217.322 119.27 217.279 119.17L212.996 109.127L211.721 108.854L204.001 117.061Z" fill="#292524"/>
<path d="M193.174 157.099H210.677V138.131H193.174V157.099Z" fill="#F5F5F4"/>
<path d="M210.677 157.422H193.174C193.003 157.422 192.859 157.278 192.859 157.106V138.124C192.859 137.952 193.003 137.809 193.174 137.809H210.677C210.849 137.809 210.992 137.952 210.992 138.124V157.092C210.992 157.278 210.849 157.422 210.677 157.422ZM193.49 156.776H210.362V138.44H193.49V156.776Z" fill="#292524"/>
<path d="M233.87 155.511L224.631 153.015L214.691 145.253L205.223 151.566C203.218 152.9 200.726 153.345 198.391 152.771L197.99 152.671C195.627 152.082 193.793 150.203 193.292 147.807L193.163 147.204C192.92 146.013 191.258 145.942 190.886 147.089L184.011 169.156L191.359 171.48C195.254 172.714 199.322 173.345 203.404 173.345H205.037C215.006 173.345 224.903 171.824 234.414 168.84L241.232 166.702L242.764 163.216V162.958C242.764 161.107 241.962 159.342 240.573 158.137L240.558 158.123C239.871 157.52 239.069 157.075 238.195 156.817L233.87 155.511Z" fill="white"/>
<path d="M205.05 173.66H203.417C199.292 173.66 195.21 173.029 191.271 171.781L183.923 169.457C183.751 169.399 183.665 169.227 183.723 169.055L190.598 146.989C190.798 146.329 191.4 145.912 192.087 145.941C192.775 145.97 193.334 146.443 193.477 147.132L193.606 147.735C194.078 149.987 195.84 151.809 198.075 152.354L198.476 152.455C200.724 153.014 203.131 152.584 205.064 151.293L214.532 144.98C214.646 144.908 214.79 144.908 214.904 144.994L224.787 152.728L233.968 155.21C233.968 155.21 233.968 155.21 233.983 155.21L238.323 156.501C239.239 156.774 240.084 157.233 240.815 157.864C242.29 159.155 243.135 161.006 243.135 162.943V163.201C243.135 163.244 243.121 163.287 243.106 163.33L241.574 166.817C241.531 166.903 241.459 166.96 241.373 166.989L234.556 169.127C224.973 172.14 215.062 173.66 205.05 173.66ZM184.41 168.94L191.457 171.164C195.324 172.384 199.349 173.015 203.417 173.015H205.05C214.99 173.015 224.844 171.508 234.341 168.524L241.03 166.429L242.476 163.144V162.957C242.476 161.193 241.717 159.528 240.385 158.38C239.712 157.792 238.953 157.376 238.108 157.118L233.768 155.827L224.529 153.33C224.486 153.316 224.443 153.301 224.415 153.273L214.661 145.64L205.379 151.824C203.302 153.215 200.71 153.66 198.289 153.072L197.888 152.971C195.41 152.369 193.477 150.36 192.961 147.864L192.832 147.261C192.732 146.788 192.36 146.601 192.03 146.572C191.715 146.558 191.314 146.702 191.171 147.175L184.41 168.94Z" fill="#292524"/>
<path d="M210.677 147.936L214.702 145.253L224.642 153.015H219.715C218.082 153.015 216.478 152.47 215.189 151.451L210.677 147.936Z" fill="white"/>
<path d="M224.628 153.33H219.715C218.011 153.33 216.335 152.756 214.988 151.709L210.477 148.179C210.391 148.122 210.348 148.022 210.362 147.921C210.362 147.821 210.419 147.72 210.505 147.663L214.53 144.98C214.645 144.908 214.788 144.908 214.903 144.994L224.843 152.756C224.943 152.842 224.986 152.986 224.943 153.115C224.886 153.244 224.771 153.33 224.628 153.33ZM211.221 147.95L215.39 151.207C216.621 152.168 218.154 152.699 219.715 152.699H223.711L214.688 145.64L211.221 147.95Z" fill="#292524"/>
<path d="M207.514 161.395V164.393L196.342 158.898L196.155 164.365L187.748 157.162L186.144 157.564L182.706 168.812L191.457 171.524C195.296 172.715 199.292 173.317 203.303 173.317H205.05C215.019 173.317 224.916 171.797 234.427 168.812L241.245 166.674L242.777 163.188L239.239 163.862C226.234 166.172 216.852 162.126 216.852 162.126L216.924 164.522L207.514 161.395Z" fill="#292524"/>
<path d="M205.05 173.662H203.303C199.249 173.662 195.239 173.059 191.357 171.854L182.606 169.142C182.434 169.085 182.348 168.913 182.391 168.741L185.828 157.492C185.857 157.392 185.943 157.306 186.058 157.277L187.662 156.875C187.762 156.847 187.862 156.875 187.948 156.947L195.855 163.719L196.026 158.898C196.026 158.798 196.084 158.697 196.184 158.64C196.27 158.583 196.385 158.583 196.485 158.626L207.198 163.891V161.395C207.198 161.294 207.241 161.194 207.327 161.136C207.413 161.079 207.514 161.065 207.614 161.093L216.609 164.092L216.552 162.141C216.552 162.026 216.594 161.926 216.695 161.868C216.781 161.811 216.895 161.796 216.996 161.839C217.081 161.883 226.449 165.828 239.211 163.561L242.734 162.887C242.849 162.873 242.963 162.916 243.035 163.002C243.107 163.088 243.121 163.217 243.078 163.332L241.545 166.818C241.502 166.904 241.431 166.962 241.345 166.99L234.527 169.128C224.974 172.141 215.062 173.662 205.05 173.662ZM183.107 168.626L191.543 171.251C195.353 172.428 199.306 173.031 203.288 173.031H205.036C214.976 173.031 224.83 171.524 234.327 168.54L241.015 166.445L242.247 163.647L239.311 164.207C227.953 166.23 219.23 163.389 217.196 162.629L217.253 164.551C217.253 164.652 217.21 164.752 217.124 164.809C217.038 164.867 216.938 164.881 216.838 164.852L207.829 161.839V164.393C207.829 164.508 207.771 164.609 207.685 164.666C207.6 164.723 207.471 164.723 207.385 164.68L196.657 159.4L196.485 164.379C196.485 164.494 196.413 164.609 196.299 164.652C196.184 164.695 196.055 164.68 195.969 164.609L187.69 157.507L186.43 157.822L183.107 168.626Z" fill="#292524"/>
<path d="M168.036 48.5337H239.05C246.04 48.5337 251.325 54.8609 250.093 61.7621L243.39 99.1373H220.086L224.125 72.6231H183.003C174.725 72.6231 168.021 65.9085 168.021 57.6157V48.5337H168.036Z" fill="white"/>
<path d="M243.39 99.4533H220.087C220.001 99.4533 219.901 99.4103 219.843 99.3385C219.786 99.2668 219.757 99.1807 219.772 99.0803L223.768 72.9248H183.004C174.568 72.9248 167.707 66.0524 167.707 57.6017V48.5197C167.707 48.3476 167.85 48.2041 168.022 48.2041H239.051C242.474 48.2041 245.697 49.7106 247.902 52.3505C250.094 54.9761 251.01 58.4339 250.409 61.8055L243.706 99.1807C243.677 99.3386 243.548 99.4533 243.39 99.4533ZM220.459 98.822H243.118L249.764 61.7051C250.337 58.5199 249.478 55.2487 247.401 52.7666C245.324 50.2845 242.273 48.8497 239.036 48.8497H168.337V57.6161C168.337 65.708 174.912 72.3079 183.004 72.3079H224.126C224.212 72.3079 224.312 72.3509 224.369 72.4227C224.427 72.4944 224.455 72.5805 224.441 72.6809L220.459 98.822Z" fill="#292524"/>
<path d="M151.307 59.0669L147.955 45.8242H174.883L208.427 71.7501C212.91 75.2079 215.532 80.5595 215.532 86.2267V141.995H188.79V90.3014L170.858 72.5105L168.437 72.4962C160.33 72.4388 153.298 66.915 151.307 59.0669Z" fill="white"/>
<path d="M215.517 142.555H188.776C188.604 142.555 188.461 142.412 188.461 142.24V90.431L170.715 72.8266L168.423 72.8122C160.187 72.7549 153.026 67.145 150.992 59.1391L147.64 45.8964C147.612 45.7959 147.64 45.6955 147.697 45.6238C147.755 45.552 147.855 45.4946 147.941 45.4946H174.868C174.94 45.4946 175.012 45.5233 175.069 45.5664L208.614 71.4923C213.14 74.9931 215.833 80.4881 215.833 86.2128V142.24C215.833 142.412 215.689 142.555 215.517 142.555ZM189.106 141.924H215.202V86.2128C215.202 80.689 212.596 75.3661 208.227 71.9944L174.768 46.1403H148.356L151.608 58.9956C153.556 66.7146 160.474 72.1379 168.423 72.181L170.844 72.1953C170.93 72.1953 171.001 72.224 171.058 72.2814L188.991 90.0723C189.048 90.1297 189.091 90.2157 189.091 90.3018V141.924H189.106Z" fill="#292524"/>
<path d="M195.073 32.2946L204.398 29.1668C205.701 28.722 207.148 29.0951 208.093 30.0994L210.256 32.4093C210.8 32.9976 211.215 33.6863 211.473 34.461L212.06 36.2258C212.318 36.9718 211.903 37.7896 211.158 38.0479L210.972 38.1053C210.227 38.3635 209.411 37.9475 209.153 37.2014L208.766 36.0536C208.523 35.3075 208.107 34.6332 207.577 34.0593L206.46 32.8685C205.973 32.3376 205.214 32.1511 204.527 32.3806L196.033 35.2358L195.073 32.2946Z" fill="#F5F5F4"/>
<path d="M198.327 33.6147L203.727 31.8069C205.03 31.3622 206.477 31.7352 207.422 32.7395L209.585 35.0495C210.129 35.6377 210.545 36.3264 210.803 37.1012L211.39 38.8659C211.648 39.612 211.232 40.4298 210.487 40.688L210.301 40.7454C209.557 41.0037 208.74 40.5876 208.482 39.8415L208.096 38.6937C207.852 37.9477 207.437 37.2733 206.907 36.6994L205.79 35.5086C205.303 34.9777 204.543 34.7912 203.856 35.0208L199.287 36.556L198.327 33.6147Z" fill="#F5F5F4"/>
<path d="M197.424 35.9819L202.824 34.1741C204.127 33.7294 205.574 34.1024 206.519 35.1067L208.682 37.4167C209.226 38.0049 209.641 38.6936 209.899 39.4684L210.487 41.2331C210.744 41.9792 210.329 42.797 209.584 43.0552L209.398 43.1126C208.653 43.3709 207.837 42.9548 207.579 42.2087L207.192 41.0609C206.949 40.3148 206.533 39.6405 206.003 39.0666L204.886 37.8758C204.399 37.3449 203.64 37.1584 202.953 37.388L198.383 38.9231L197.424 35.9819Z" fill="#F5F5F4"/>
<path d="M184.231 39.4121V30.9757L198.526 30.9901L202.221 29.8423L204.57 36.8439L199.414 38.5799L199.514 38.6947C199.944 39.1825 200.56 39.4694 201.204 39.4694H204.083C204.857 39.4694 205.473 40.1007 205.473 40.8612V40.9616C205.473 41.7364 204.857 42.3533 204.083 42.3533C202.823 42.3533 200.345 42.3676 200.059 42.3389C199.901 42.3246 199.743 42.3102 199.586 42.2816L184.231 39.4121Z" fill="#F5F5F4"/>
<path d="M199.614 42.2798C199.142 42.1938 198.698 42.0216 198.282 41.749L194.501 39.396H184.231L199.614 42.2798Z" fill="#F5F5F4"/>
<path d="M208.953 43.486C208.223 43.486 207.535 43.0269 207.292 42.2952L206.905 41.1474C206.676 40.4587 206.289 39.7987 205.788 39.2679L204.671 38.077C204.27 37.6466 203.639 37.4888 203.067 37.6753L199.686 38.8087C199.514 38.8661 199.343 38.7801 199.285 38.6079C199.228 38.4357 199.314 38.2635 199.486 38.2062L202.866 37.0727C203.668 36.8001 204.556 37.0297 205.129 37.6466L206.246 38.8374C206.805 39.44 207.249 40.1718 207.507 40.9465L207.893 42.0943C208.094 42.6826 208.724 42.9982 209.311 42.7973L209.498 42.74C210.085 42.5391 210.4 41.9078 210.199 41.3196L209.612 39.5548C209.369 38.8374 208.982 38.1775 208.466 37.6323L206.304 35.3223C205.444 34.4041 204.126 34.0741 202.938 34.4758L202.064 34.7628C201.892 34.8201 201.72 34.7341 201.663 34.5619C201.606 34.3897 201.692 34.2175 201.863 34.1602L202.737 33.8732C204.155 33.3997 205.745 33.8015 206.776 34.8919L208.939 37.2018C209.512 37.8188 209.956 38.5648 210.228 39.3683L210.815 41.133C210.959 41.5778 210.93 42.0513 210.729 42.4674C210.515 42.8834 210.157 43.1991 209.712 43.3426L209.526 43.3999C209.326 43.4573 209.14 43.486 208.953 43.486Z" fill="#292524"/>
<path d="M210.387 41.0184C210.258 41.0184 210.129 40.9323 210.086 40.8032C210.029 40.631 210.114 40.4589 210.286 40.4015L210.415 40.3584C210.702 40.258 210.931 40.0571 211.06 39.7989C211.189 39.5263 211.217 39.225 211.117 38.9524L210.53 37.1876C210.286 36.4703 209.9 35.8103 209.384 35.2651L207.221 32.9551C206.362 32.0369 205.044 31.7069 203.855 32.1086L202.265 32.6395C202.094 32.6969 201.922 32.6108 201.864 32.4386C201.807 32.2664 201.893 32.0943 202.065 32.0369L203.655 31.506C205.073 31.0326 206.663 31.4343 207.694 32.5247L209.857 34.8346C210.43 35.4516 210.874 36.1977 211.146 37.0011L211.733 38.7659C212.034 39.6841 211.547 40.6741 210.63 40.9897L210.501 41.0328C210.444 41.0184 210.415 41.0184 210.387 41.0184Z" fill="#292524"/>
<path d="M201.706 42.6969C200.088 42.6969 199.014 42.6108 198.111 42.0369L194.416 39.7269H184.232C184.06 39.7269 183.917 39.5835 183.917 39.4113V31.0037C183.917 30.8315 184.06 30.688 184.232 30.688L198.383 30.6737L204.313 28.8659C205.731 28.3924 207.307 28.7941 208.338 29.8846L210.501 32.1945C211.088 32.8114 211.518 33.5432 211.79 34.361L212.377 36.1257C212.52 36.5705 212.492 37.044 212.291 37.46C212.076 37.8761 211.718 38.1918 211.274 38.3352C211.102 38.3926 210.93 38.3065 210.873 38.1344C210.816 37.9622 210.902 37.79 211.074 37.7326C211.36 37.6322 211.589 37.4313 211.718 37.1731C211.847 36.9005 211.876 36.5992 211.775 36.3266L211.188 34.5618C210.945 33.8445 210.558 33.1845 210.042 32.6393L207.88 30.3293C207.02 29.4111 205.702 29.0811 204.514 29.4828L198.527 31.305C198.498 31.3193 198.469 31.3193 198.441 31.3193L184.562 31.3337V39.11H194.516C194.573 39.11 194.631 39.1243 194.688 39.153L198.469 41.506C199.4 42.1086 200.632 42.0943 202.867 42.0656C203.253 42.0656 203.669 42.0512 204.127 42.0512C204.714 42.0512 205.201 41.5634 205.201 40.9752V40.8747C205.201 40.2865 204.714 39.7987 204.127 39.7987H201.248C200.503 39.7987 199.801 39.483 199.314 38.9091L199.214 38.7943C199.1 38.6652 199.114 38.4644 199.243 38.3496C199.372 38.2348 199.572 38.2491 199.687 38.3783L199.787 38.493C200.159 38.9091 200.689 39.153 201.248 39.153H204.127C205.072 39.153 205.831 39.9278 205.831 40.8604V40.9608C205.831 41.9078 205.072 42.6682 204.127 42.6682C203.683 42.6682 203.268 42.6682 202.881 42.6825C202.437 42.6825 202.064 42.6969 201.706 42.6969Z" fill="#292524"/>
<path d="M176.312 41.7051C173.992 41.7051 171.786 40.7869 170.153 39.1656L170.54 47.2002H178.174L178.289 51.1027H145.804L151.977 16.7979H161.659C163.736 16.7979 165.57 17.587 166.945 18.9069C167.145 19.0504 167.346 19.2369 167.518 19.4234L175.453 28.3906C176.527 29.5958 178.059 30.2845 179.664 30.2845H193.056V41.7051H176.312Z" fill="white"/>
<path d="M178.276 51.4181H145.805C145.705 51.4181 145.619 51.375 145.562 51.3033C145.504 51.2316 145.476 51.1311 145.49 51.045L151.663 16.7402C151.692 16.5824 151.821 16.4819 151.978 16.4819H161.661C163.723 16.4819 165.671 17.2567 167.132 18.6628L167.147 18.6771C167.376 18.8349 167.576 19.0214 167.748 19.2367L175.669 28.1895C176.671 29.3229 178.132 29.9829 179.651 29.9829H193.043C193.215 29.9829 193.358 30.1264 193.358 30.2986V41.7192C193.358 41.8053 193.329 41.877 193.272 41.9487C193.215 42.0061 193.129 42.0348 193.043 42.0348L176.285 42.0205C174.136 42.0205 172.102 41.2744 170.484 39.9114L170.813 46.8843H178.147C178.319 46.8843 178.462 47.0277 178.462 47.1856L178.576 51.0881C178.576 51.1742 178.548 51.2602 178.49 51.3176C178.448 51.3894 178.362 51.4181 178.276 51.4181ZM146.177 50.7868H177.946L177.86 47.5156H170.527C170.355 47.5156 170.212 47.3864 170.212 47.2143L169.825 39.1797C169.825 39.0505 169.897 38.9214 170.011 38.8784C170.126 38.821 170.269 38.8497 170.369 38.9501C171.959 40.5283 174.065 41.4035 176.299 41.4035L192.728 41.4179V30.6286H179.665C177.961 30.6286 176.342 29.8968 175.21 28.6199L167.275 19.6671C167.118 19.4949 166.96 19.3371 166.774 19.208C166.76 19.1936 166.731 19.1793 166.717 19.1649C165.342 17.8449 163.594 17.1419 161.646 17.1419H152.222L146.177 50.7868Z" fill="#292524"/>
<path d="M204.571 47.7599H237.686L253.256 21.0449H220.141L204.571 47.7599Z" fill="#292524"/>
<path d="M237.688 47.7598H178.146V51.1314H237.688V47.7598Z" fill="#292524"/>
<path d="M231.394 35.3157C231.743 34.0395 231.049 32.7367 229.844 32.4056C228.638 32.0746 227.378 32.8408 227.029 34.117C226.68 35.3932 227.374 36.6961 228.579 37.0271C229.784 37.3581 231.045 36.5919 231.394 35.3157Z" fill="white"/>
<path d="M173.761 38.5485L186.136 38.5342V48.6779H173.761V38.5485Z" fill="#F5F5F4"/>
<path d="M197.253 41.6911L198.356 42.8819C198.915 43.4845 198.972 44.3884 198.485 45.0484L197.411 46.5549L194.804 43.628H178.39V40.1846H193.844C195.119 40.1846 196.365 40.7298 197.253 41.6911Z" fill="#F5F5F4"/>
<path d="M196.736 39.5533L197.352 40.2276C197.91 40.8302 197.968 41.7341 197.481 42.3941L196.407 43.9006L193.8 40.9737H178.359V38.5776H180.98C182.069 38.5776 184.003 37.5303 186.438 37.5303H192.124C193.886 37.5303 195.547 38.262 196.736 39.5533Z" fill="#F5F5F4"/>
<path d="M198.484 45.3789C198.427 45.3789 198.355 45.3645 198.298 45.3215C198.155 45.2211 198.126 45.0202 198.226 44.8767C198.613 44.3315 198.57 43.5854 198.112 43.112L197.009 41.9211C196.192 41.0316 195.018 40.5151 193.815 40.5151H190.793C190.621 40.5151 190.478 40.3716 190.478 40.1994C190.478 40.0273 190.621 39.8838 190.793 39.8838H193.815C195.204 39.8838 196.536 40.472 197.482 41.4907L198.584 42.6815C199.243 43.3846 199.301 44.475 198.742 45.2497C198.67 45.3215 198.57 45.3789 198.484 45.3789Z" fill="#292524"/>
<path d="M197.626 44.001L198.943 45.4215C199.502 46.024 199.559 46.9279 199.072 47.5879L197.998 49.0944L195.391 46.1675H185.222V42.7241H194.747C195.835 42.7385 196.881 43.1976 197.626 44.001Z" fill="#F5F5F4"/>
<path d="M198.656 48.5067C198.598 48.5067 198.527 48.4923 198.47 48.4493C198.326 48.3489 198.298 48.148 198.398 48.0045L198.813 47.4163C199.2 46.8711 199.157 46.125 198.699 45.6372L197.381 44.2168C196.693 43.4707 195.734 43.0546 194.717 43.0546H190.735C190.563 43.0546 190.42 42.9112 190.42 42.739C190.42 42.5668 190.563 42.4233 190.735 42.4233H194.717C195.906 42.4233 197.037 42.9255 197.839 43.7864L199.157 45.2068C199.816 45.9098 199.873 47.0002 199.315 47.775L198.899 48.3632C198.856 48.4636 198.756 48.5067 198.656 48.5067Z" fill="#292524"/>
<path d="M197.151 46.512L198.526 48.0041C199.042 48.5493 199.085 49.3958 198.655 49.9984C198.068 50.8162 196.879 50.8736 196.206 50.1275L195.461 49.2954C195.103 48.8937 194.602 48.6641 194.058 48.6641H185.521C183.287 48.6641 181.711 48.535 179.562 45.2207H194.215C195.318 45.2207 196.392 45.6942 197.151 46.512Z" fill="#F5F5F4"/>
<path d="M197.367 50.9738C196.822 50.9738 196.321 50.7442 195.963 50.3425L195.218 49.5103C194.917 49.1803 194.502 48.9938 194.058 48.9938H184.605C182.857 48.9938 181.225 48.133 180.236 46.6695C180.136 46.526 180.179 46.3252 180.322 46.2248C180.465 46.1243 180.666 46.1674 180.766 46.3108C181.626 47.5878 183.072 48.3482 184.605 48.3482H194.058C194.674 48.3482 195.276 48.6208 195.691 49.0799L196.436 49.9121C196.694 50.199 197.052 50.3568 197.438 50.3281C197.825 50.3138 198.169 50.1129 198.398 49.8116C198.742 49.3238 198.713 48.6495 198.298 48.2191L196.923 46.7269C196.221 45.9665 195.233 45.5361 194.216 45.5361H190.907C190.735 45.5361 190.592 45.3926 190.592 45.2204C190.592 45.0483 190.735 44.9048 190.907 44.9048H194.216C195.419 44.9048 196.579 45.4069 197.395 46.2965L198.77 47.7886C199.386 48.4486 199.444 49.4529 198.914 50.1847C198.57 50.6581 198.054 50.9451 197.481 50.9738C197.438 50.9738 197.395 50.9738 197.367 50.9738Z" fill="#292524"/>
<path d="M187.855 48.9932H173.761C173.59 48.9932 173.446 48.8497 173.446 48.6775V38.5482C173.446 38.376 173.59 38.2325 173.761 38.2325H180.493C181.439 38.2325 182.169 38.0317 183 37.8021C183.988 37.5295 185.12 37.2139 186.824 37.2139H192.124C193.957 37.2139 195.719 37.9886 196.965 39.3373L197.581 40.0116C198.139 40.6286 198.283 41.5038 197.925 42.2642C197.853 42.422 197.667 42.4937 197.509 42.422C197.352 42.3503 197.28 42.1637 197.352 42.0059C197.595 41.4894 197.495 40.8725 197.108 40.4564L196.492 39.7821C195.361 38.5625 193.771 37.8595 192.109 37.8595H186.81C185.191 37.8595 184.16 38.1465 183.157 38.4191C182.312 38.6486 181.51 38.8782 180.479 38.8782H174.062V48.3762H187.841C188.013 48.3762 188.156 48.5197 188.156 48.6919C188.156 48.864 188.042 48.9932 187.855 48.9932Z" fill="#292524"/>
<path d="M151.335 16.7988H152.094L156.906 35.8379C157.221 37.0718 158.324 37.9327 159.599 37.9327L177.131 37.9183L177.145 50.0707L156.376 50.085C151.478 50.085 147.195 46.7564 145.992 41.993L142.497 28.1764C141.036 22.4087 145.39 16.7988 151.335 16.7988Z" fill="white"/>
<path d="M156.376 50.3999C151.32 50.3999 146.937 46.9708 145.691 42.0783L142.196 28.2617C141.48 25.4209 142.096 22.451 143.9 20.1267C145.705 17.8024 148.412 16.4824 151.348 16.4824H152.795C152.967 16.4824 153.11 16.6259 153.11 16.7981C153.11 16.9702 152.967 17.1137 152.795 17.1137H151.348C148.613 17.1137 146.077 18.3476 144.402 20.5141C142.726 22.6805 142.139 25.4353 142.812 28.1039L146.307 41.9205C147.481 46.5404 151.621 49.7686 156.376 49.7686C156.376 49.7686 156.376 49.7686 156.39 49.7686L176.844 49.7542L176.829 38.2476L159.613 38.2619C158.195 38.2619 156.963 37.3006 156.605 35.9233L154.227 26.5257C154.184 26.3535 154.285 26.1813 154.457 26.1383C154.628 26.0952 154.8 26.1957 154.843 26.3678L157.221 35.7654C157.493 36.8559 158.481 37.6306 159.613 37.6306L177.144 37.6163C177.316 37.6163 177.459 37.7597 177.459 37.9319L177.474 50.0842C177.474 50.1703 177.445 50.2421 177.388 50.3138C177.331 50.3712 177.245 50.3999 177.159 50.3999H156.376Z" fill="#292524"/>
<path d="M99.6956 246.033H18.5264L27.8364 195.3H75.3319C88.7813 195.3 99.6956 206.146 99.6956 219.518V246.033Z" fill="#292524"/>
<path d="M99.694 246.347H18.5248C18.4246 246.347 18.3386 246.304 18.2813 246.233C18.224 246.161 18.1954 246.06 18.2097 245.974L27.5197 195.242C27.5484 195.098 27.6773 194.983 27.8349 194.983H75.3304C88.9374 194.983 100.009 205.988 100.009 219.518V246.032C100.009 246.204 99.8659 246.347 99.694 246.347ZM18.9115 245.716H99.3789V219.532C99.3789 206.347 88.5936 195.629 75.3447 195.629H28.107L18.9115 245.716Z" fill="#292524"/>
<path d="M84.0814 224.252C83.9381 224.252 83.8092 224.151 83.7663 223.993L81.1595 211.655C81.1165 211.482 81.2311 211.31 81.4029 211.282C81.5748 211.238 81.7467 211.353 81.7753 211.525L84.3822 223.864C84.4251 224.036 84.3105 224.209 84.1387 224.237C84.1243 224.252 84.11 224.252 84.0814 224.252Z" fill="white"/>
<path d="M84.0851 264.956H37.0623C33.9828 264.956 31.1468 263.32 29.6143 260.666H84.0708V264.956H84.0851Z" fill="#292524"/>
<path d="M3.34473 249.834V223.937H23.0534V240.092C23.0534 242.172 24.7435 243.865 26.849 243.865L59.2622 243.851V261.513L15.104 261.527C8.60132 261.527 3.34473 256.29 3.34473 249.834Z" fill="#F5F5F4"/>
<path d="M78.7564 249.345L80.69 251.411C81.664 252.459 81.7642 254.037 80.9192 255.199L79.0285 257.81L74.4451 252.717H45.627V246.72H72.7406C75.018 246.734 77.2095 247.681 78.7564 249.345Z" fill="#F5F5F4"/>
<path d="M77.8683 245.601L78.9569 246.778C79.9309 247.825 80.0311 249.403 79.1861 250.565L77.2954 253.177L72.712 248.083H45.627V243.908H50.2247C52.1297 243.908 55.5242 242.086 59.8069 242.086H69.7758C72.8552 242.086 75.7772 243.363 77.8683 245.601Z" fill="#F5F5F4"/>
<path d="M79.43 253.377L81.736 255.859C82.71 256.906 82.8103 258.484 81.9652 259.646L80.0746 262.258L75.4912 257.164H57.6445V251.167H74.3596C76.2789 251.167 78.1266 251.97 79.43 253.377Z" fill="#F5F5F4"/>
<path d="M78.5854 257.738L80.9917 260.335C81.8798 261.296 81.98 262.745 81.2066 263.807C80.1753 265.228 78.0841 265.342 76.8953 264.037L75.5919 262.588C74.9617 261.899 74.0736 261.497 73.1426 261.497H58.1463C54.2218 261.497 51.4717 261.268 47.6904 255.5H73.4148C75.3914 255.5 77.2534 256.318 78.5854 257.738Z" fill="#F5F5F4"/>
<path d="M80.9198 255.516C80.8482 255.516 80.7909 255.502 80.7336 255.459C80.5904 255.358 80.5617 255.158 80.662 255.014C81.4068 253.981 81.3209 252.561 80.4471 251.628L78.5135 249.562C77.0239 247.969 74.9184 247.051 72.727 247.051H67.4274C67.2555 247.051 67.1123 246.908 67.1123 246.736C67.1123 246.563 67.2555 246.42 67.4274 246.42H72.727C75.0903 246.42 77.3677 247.41 78.9862 249.132L80.9198 251.198C81.994 252.345 82.0943 254.11 81.1776 255.387C81.1203 255.473 81.0201 255.516 80.9198 255.516Z" fill="#292524"/>
<path d="M81.2375 260.981C81.1659 260.981 81.1086 260.967 81.0513 260.923C80.9081 260.823 80.8794 260.622 80.9797 260.479L81.7102 259.46C82.455 258.427 82.369 257.007 81.4953 256.074L79.1893 253.592C77.9432 252.258 76.1814 251.483 74.3481 251.483H67.3727C67.2008 251.483 67.0576 251.339 67.0576 251.167C67.0576 250.995 67.2008 250.852 67.3727 250.852H74.3481C76.3533 250.852 78.287 251.698 79.6476 253.162L81.9537 255.644C83.0279 256.791 83.1282 258.556 82.2115 259.833L81.481 260.852C81.438 260.938 81.3378 260.981 81.2375 260.981Z" fill="#292524"/>
<path d="M78.9721 265.273C78.0984 265.273 77.2676 264.9 76.6804 264.254L75.377 262.805C74.8184 262.174 74.002 261.815 73.1569 261.815H56.5707C53.5772 261.815 50.7985 260.337 49.1084 257.884C49.0081 257.74 49.0511 257.54 49.1943 257.439C49.3375 257.339 49.538 257.382 49.6383 257.525C51.1995 259.821 53.792 261.184 56.5707 261.184H73.1569C74.1882 261.184 75.1621 261.614 75.8496 262.375L77.1531 263.824C77.6544 264.383 78.3562 264.67 79.1153 264.627C79.8601 264.584 80.5333 264.225 80.9773 263.623C81.6505 262.69 81.5789 261.399 80.7911 260.552L78.3848 257.956C77.1101 256.593 75.3197 255.818 73.4577 255.818H67.6568C67.4849 255.818 67.3417 255.674 67.3417 255.502C67.3417 255.33 67.4849 255.187 67.6568 255.187H73.4577C75.5059 255.187 77.4682 256.047 78.8575 257.525L81.2638 260.122C82.2521 261.184 82.3524 262.819 81.5073 263.996C80.963 264.756 80.1036 265.215 79.1726 265.258C79.0724 265.273 79.0294 265.273 78.9721 265.273Z" fill="#292524"/>
<path d="M15.0923 261.843C11.8696 261.843 8.84742 260.595 6.57004 258.328C4.29266 256.061 3.03223 253.048 3.03223 249.848V223.621H23.3711V240.092C23.3711 241.01 23.7292 241.885 24.388 242.531C25.0469 243.177 25.9206 243.535 26.8373 243.535H49.3532C51.0434 243.535 52.3897 243.162 53.8221 242.775C55.5552 242.302 57.5174 241.756 60.468 241.756H69.778C72.9291 241.756 75.9656 243.076 78.0998 245.372L79.1883 246.548C80.1193 247.538 80.3342 248.973 79.7613 250.207C79.6896 250.365 79.5034 250.437 79.3459 250.365C79.1883 250.293 79.1167 250.107 79.1883 249.949C79.661 248.959 79.4748 247.797 78.73 246.993L77.6414 245.817C75.6219 243.65 72.7572 242.402 69.778 242.402H60.468C57.6034 242.402 55.77 242.904 53.9939 243.392C52.5187 243.794 51.1293 244.181 49.3532 244.181H26.8516C25.7487 244.181 24.7318 243.751 23.944 242.99C23.1706 242.215 22.7409 241.197 22.7409 240.106V224.267H3.66244V249.848C3.66244 252.89 4.85126 255.731 7.01406 257.883C9.17685 260.035 12.0415 261.212 15.0923 261.212H62.287C62.4589 261.212 62.6021 261.355 62.6021 261.527C62.6021 261.699 62.4589 261.843 62.287 261.843H15.0923Z" fill="#292524"/>
<path d="M28.1365 227.896H0.306641V223.061C0.306641 207.738 12.7105 195.299 28.0219 195.299H28.1365V227.896Z" fill="#292524"/>
<path d="M23.2243 228.212H0.307296C0.135419 228.212 -0.0078125 228.069 -0.0078125 227.897V222.976C-0.0078125 207.552 12.6109 194.998 28.1371 194.998C28.309 194.998 28.4523 195.142 28.4523 195.314C28.4523 195.486 28.309 195.629 28.1371 195.629C12.9689 195.629 0.636729 207.896 0.636729 222.976V227.581H23.2386C23.4105 227.581 23.5537 227.725 23.5537 227.897C23.5537 228.069 23.4105 228.212 23.2243 228.212Z" fill="#292524"/>
<path d="M28.1355 228.212H23.237C23.0651 228.212 22.9219 228.069 22.9219 227.897C22.9219 227.725 23.0651 227.581 23.237 227.581H27.8204V218.915C27.8204 218.743 27.9636 218.6 28.1355 218.6C28.3074 218.6 28.4506 218.743 28.4506 218.915V227.897C28.4506 228.069 28.3074 228.212 28.1355 228.212Z" fill="white"/>
<path d="M144.812 264.955H67.9541L86.4596 214.136H163.318L144.812 264.955Z" fill="white"/>
<path d="M144.813 265.269H67.9548C67.8545 265.269 67.7542 265.212 67.6969 265.14C67.6397 265.054 67.6253 264.954 67.654 264.853L86.1738 214.035C86.2168 213.905 86.3313 213.819 86.4746 213.819H163.333C163.433 213.819 163.533 213.877 163.59 213.948C163.648 214.035 163.662 214.135 163.633 214.235L145.113 265.054C145.056 265.183 144.942 265.269 144.813 265.269ZM68.3988 264.638H144.584L162.874 214.451H86.6894L68.3988 264.638Z" fill="#292524"/>
<path d="M122.683 237.064C122.009 238.929 120.405 240.077 119.102 239.618C117.798 239.159 117.283 237.265 117.956 235.385C118.629 233.52 120.233 232.372 121.537 232.832C122.84 233.291 123.341 235.185 122.683 237.064Z" fill="white"/>
<path d="M119.689 240.033C119.445 240.033 119.216 239.99 118.987 239.918C118.414 239.717 117.97 239.287 117.669 238.67C117.225 237.737 117.211 236.474 117.641 235.284C118.371 233.246 120.162 232.027 121.622 232.543C122.195 232.744 122.639 233.175 122.94 233.792C123.384 234.724 123.399 235.987 122.969 237.178C122.353 238.885 120.992 240.033 119.689 240.033ZM120.921 233.045C119.889 233.045 118.772 234.035 118.257 235.485C117.884 236.518 117.884 237.594 118.257 238.383C118.471 238.842 118.801 239.157 119.202 239.301C120.348 239.703 121.766 238.641 122.382 236.948C122.754 235.915 122.754 234.839 122.382 234.05C122.167 233.591 121.837 233.275 121.436 233.132C121.264 233.074 121.093 233.045 120.921 233.045Z" fill="#292524"/>
<path d="M62.2278 179.441C62.0559 179.441 61.9127 179.298 61.9127 179.126V168.939C61.9127 165.123 58.7902 162.024 54.9516 162.024C51.113 162.024 47.9906 165.123 47.9906 168.939V179.126C47.9906 179.298 47.8473 179.441 47.6755 179.441C47.5036 179.441 47.3604 179.298 47.3604 179.126V168.939C47.3604 164.778 50.7693 161.378 54.9516 161.378C59.134 161.378 62.5429 164.764 62.5429 168.939V179.126C62.5429 179.298 62.3996 179.441 62.2278 179.441Z" fill="#292524"/>
<path d="M62.5977 185.74C64.52 185.74 66.0782 183.395 66.0782 180.503C66.0782 177.611 64.52 175.266 62.5977 175.266C60.6755 175.266 59.1172 177.611 59.1172 180.503C59.1172 183.395 60.6755 185.74 62.5977 185.74Z" fill="white"/>
<path d="M62.5984 186.055C60.5072 186.055 58.8027 183.559 58.8027 180.488C58.8027 177.418 60.5072 174.921 62.5984 174.921C64.6895 174.921 66.394 177.418 66.394 180.488C66.394 183.573 64.6895 186.055 62.5984 186.055ZM62.5984 175.581C60.8509 175.581 59.4473 177.791 59.4473 180.503C59.4473 183.214 60.8653 185.424 62.5984 185.424C64.3458 185.424 65.7495 183.214 65.7495 180.503C65.7638 177.791 64.3458 175.581 62.5984 175.581Z" fill="#292524"/>
<path d="M49.0771 195.298L58.244 203.189V183.805H49.0771V195.298Z" fill="#F5F5F4"/>
<path d="M58.2433 203.504C58.1717 203.504 58.1001 203.475 58.0428 203.432L48.8617 195.541C48.79 195.484 48.7471 195.398 48.7471 195.297V183.805C48.7471 183.633 48.8903 183.489 49.0622 183.489H58.2433C58.4152 183.489 58.5584 183.633 58.5584 183.805V203.188C58.5584 203.317 58.4868 203.418 58.3722 203.475C58.3436 203.504 58.2863 203.504 58.2433 203.504ZM49.3916 195.154L57.9282 202.5V184.121H49.3916V195.154Z" fill="#292524"/>
<path d="M62.8575 182.469C65.9188 182.469 68.4006 180.002 68.4006 176.96C68.4006 173.917 65.9188 171.45 62.8575 171.45C59.7962 171.45 57.3145 173.917 57.3145 176.96C57.3145 180.002 59.7962 182.469 62.8575 182.469Z" fill="#292524"/>
<path d="M46.7589 185.067C49.8202 185.067 52.3019 182.6 52.3019 179.557C52.3019 176.515 49.8202 174.048 46.7589 174.048C43.6975 174.048 41.2158 176.515 41.2158 179.557C41.2158 182.6 43.6975 185.067 46.7589 185.067Z" fill="#292524"/>
<path d="M47.3175 177.979C50.3788 177.979 52.8605 175.512 52.8605 172.469C52.8605 169.427 50.3788 166.96 47.3175 166.96C44.2561 166.96 41.7744 169.427 41.7744 172.469C41.7744 175.512 44.2561 177.979 47.3175 177.979Z" fill="#292524"/>
<path d="M53.6632 174.406C56.7245 174.406 59.2062 171.939 59.2062 168.897C59.2062 165.854 56.7245 163.387 53.6632 163.387C50.6018 163.387 48.1201 165.854 48.1201 168.897C48.1201 171.939 50.6018 174.406 53.6632 174.406Z" fill="#292524"/>
<path d="M59.1339 176.673C62.1952 176.673 64.6769 174.206 64.6769 171.163C64.6769 168.12 62.1952 165.654 59.1339 165.654C56.0725 165.654 53.5908 168.12 53.5908 171.163C53.5908 174.206 56.0725 176.673 59.1339 176.673Z" fill="#292524"/>
<path d="M49.0781 187.261V183.803H58.2593V191.436C57.4285 191.594 55.7813 191.809 53.8907 191.192C50.9115 190.217 49.4505 187.907 49.0781 187.261Z" fill="#292524"/>
<path d="M54.951 189.311C58.9695 189.311 62.2271 185.726 62.2271 181.305C62.2271 176.883 58.9695 173.299 54.951 173.299C50.9325 173.299 47.6748 176.883 47.6748 181.305C47.6748 185.726 50.9325 189.311 54.951 189.311Z" fill="#F5F5F4"/>
<path d="M54.9516 189.612C50.7693 189.612 47.3604 185.882 47.3604 181.291C47.3604 176.7 50.7693 172.969 54.9516 172.969C59.134 172.969 62.5429 176.7 62.5429 181.291C62.5429 185.882 59.134 189.612 54.9516 189.612ZM54.9516 173.615C51.113 173.615 47.9906 177.058 47.9906 181.305C47.9906 185.538 51.113 188.995 54.9516 188.995C58.7902 188.995 61.9127 185.552 61.9127 181.305C61.9127 177.058 58.7902 173.615 54.9516 173.615Z" fill="#292524"/>
<path d="M54.9499 189.613C52.6009 189.613 51.054 189.226 49.1347 187.146C49.0201 187.016 49.0201 186.816 49.149 186.701C49.2779 186.586 49.4784 186.586 49.593 186.715C51.3547 188.638 52.7298 188.982 54.9355 188.982C58.7741 188.982 61.8966 185.539 61.8966 181.292C61.8966 177.059 58.7741 173.602 54.9355 173.602C52.4719 173.602 50.2375 174.993 48.9628 177.332C48.8768 177.49 48.6906 177.547 48.5331 177.461C48.3755 177.375 48.3182 177.188 48.4042 177.031C49.7649 174.534 52.2714 172.97 54.9355 172.97C59.1179 172.97 62.5268 176.701 62.5268 181.292C62.5268 185.883 59.1322 189.613 54.9499 189.613Z" fill="#292524"/>
<path d="M54.95 173.302C50.9252 173.302 47.6738 176.889 47.6738 181.308C47.6738 181.709 47.7025 182.097 47.7454 182.484L54.3627 176.544L61.9253 179.026C61.023 175.712 58.2443 173.302 54.95 173.302Z" fill="#292524"/>
<path d="M51.6846 183.458C51.8135 184.262 52.2002 185.022 52.8304 185.625C54.2341 186.974 56.3969 187.045 57.9008 185.912L51.6846 183.458Z" fill="white"/>
<path d="M47.8885 167.447C47.8599 167.447 47.8312 167.447 47.8026 167.433C47.6307 167.39 47.5304 167.217 47.5734 167.045C48.4328 163.702 51.455 161.378 54.9355 161.378C55.1074 161.378 55.2506 161.521 55.2506 161.694C55.2506 161.866 55.1074 162.009 54.9355 162.009C51.7558 162.009 48.9771 164.147 48.1893 167.203C48.1606 167.346 48.0317 167.447 47.8885 167.447Z" fill="#292524"/>
<path d="M47.6716 179.44C47.4997 179.44 47.3564 179.297 47.3564 179.125V168.938C47.3564 168.307 47.4424 167.661 47.5999 167.058C47.6429 166.886 47.8148 166.786 47.9867 166.829C48.1585 166.872 48.2588 167.044 48.2158 167.216C48.0726 167.776 48.001 168.35 48.001 168.938V179.125C47.9867 179.297 47.8434 179.44 47.6716 179.44Z" fill="white"/>
<path d="M47.3145 186.054C49.2367 186.054 50.795 183.709 50.795 180.817C50.795 177.925 49.2367 175.58 47.3145 175.58C45.3923 175.58 43.834 177.925 43.834 180.817C43.834 183.709 45.3923 186.054 47.3145 186.054Z" fill="white"/>
<path d="M47.3152 186.384C45.224 186.384 43.5195 183.888 43.5195 180.817C43.5195 177.747 45.224 175.25 47.3152 175.25C49.4063 175.25 51.1108 177.747 51.1108 180.817C51.1108 183.888 49.4063 186.384 47.3152 186.384ZM47.3152 175.896C45.5677 175.896 44.1641 178.106 44.1641 180.817C44.1641 183.529 45.5821 185.738 47.3152 185.738C49.0483 185.738 50.4663 183.529 50.4663 180.817C50.4806 178.106 49.0626 175.896 47.3152 175.896Z" fill="#292524"/>
<path d="M44.7777 183.658C45.814 183.658 46.654 182.386 46.654 180.817C46.654 179.248 45.814 177.976 44.7777 177.976C43.7414 177.976 42.9014 179.248 42.9014 180.817C42.9014 182.386 43.7414 183.658 44.7777 183.658Z" fill="white"/>
<path d="M44.7784 183.973C43.5466 183.973 42.5869 182.581 42.5869 180.817C42.5869 179.052 43.5466 177.66 44.7784 177.66C46.0101 177.66 46.9698 179.052 46.9698 180.817C46.9698 182.581 45.9958 183.973 44.7784 183.973ZM44.7784 178.291C43.9333 178.291 43.2171 179.439 43.2171 180.817C43.2171 182.18 43.9333 183.327 44.7784 183.327C45.6234 183.327 46.3396 182.18 46.3396 180.817C46.3396 179.454 45.6234 178.291 44.7784 178.291Z" fill="#292524"/>
<path d="M228.151 223.304C237.667 223.304 245.381 215.577 245.381 206.044C245.381 196.512 237.667 188.784 228.151 188.784C218.634 188.784 210.92 196.512 210.92 206.044C210.92 215.577 218.634 223.304 228.151 223.304Z" fill="white"/>
<path d="M238.692 188.109C235.67 186.431 232.189 185.455 228.408 185.455C224.641 185.455 221.146 186.431 218.124 188.109C208.184 193.662 204.818 206.402 210.304 216.388L228.408 249.33L246.513 216.388C251.998 206.402 248.647 193.662 238.692 188.109ZM228.422 221.912C219.786 221.912 212.782 214.896 212.782 206.245C212.782 197.593 219.786 190.577 228.422 190.577C237.059 190.577 244.063 197.593 244.063 206.245C244.049 214.91 237.059 221.912 228.422 221.912Z" fill="#E7E5E4"/>
<path d="M244.047 206.475C243.932 215.026 236.971 221.913 228.42 221.913C219.855 221.913 212.908 215.011 212.794 206.475H207.709C207.752 209.846 208.611 213.261 210.33 216.389L228.435 249.331L246.539 216.389C248.258 213.247 249.117 209.846 249.16 206.475H244.047Z" fill="#E7E5E4"/>
<path d="M228.422 249.645C228.307 249.645 228.207 249.588 228.15 249.488L210.045 216.546C204.416 206.302 207.983 193.418 217.994 187.836C221.146 186.072 224.755 185.139 228.422 185.139C232.088 185.139 235.698 186.072 238.849 187.836C248.861 193.418 252.427 206.302 246.798 216.546L228.694 249.488C228.637 249.588 228.536 249.645 228.422 249.645ZM228.422 185.77C224.87 185.77 221.36 186.674 218.295 188.382C208.584 193.805 205.132 206.302 210.604 216.245L228.422 248.684L246.24 216.245C251.697 206.302 248.245 193.805 238.548 188.382C235.469 186.674 231.974 185.77 228.422 185.77Z" fill="#292524"/>
<path d="M217.295 203.19C223.44 197.034 233.394 197.034 239.539 203.19H217.295Z" fill="white"/>
<path d="M239.538 203.506C239.452 203.506 239.381 203.477 239.309 203.42C233.294 197.394 223.525 197.394 217.509 203.42C217.381 203.549 217.18 203.549 217.065 203.42C216.937 203.29 216.937 203.09 217.065 202.975C223.325 196.705 233.494 196.705 239.753 202.975C239.882 203.104 239.882 203.305 239.753 203.42C239.696 203.477 239.624 203.506 239.538 203.506Z" fill="#292524"/>
<path d="M219.829 205.713C224.57 200.964 232.276 200.964 237.017 205.713H219.829Z" fill="white"/>
<path d="M237.017 206.029C236.931 206.029 236.859 206.001 236.787 205.943C232.175 201.323 224.67 201.323 220.044 205.943C219.915 206.072 219.714 206.072 219.6 205.943C219.471 205.814 219.471 205.613 219.6 205.498C224.455 200.635 232.376 200.635 237.231 205.498C237.36 205.628 237.36 205.828 237.231 205.943C237.174 206.001 237.088 206.029 237.017 206.029Z" fill="#292524"/>
<path d="M222.204 208.111C225.627 204.682 231.199 204.682 234.622 208.111H222.204Z" fill="white"/>
<path d="M234.622 208.427C234.536 208.427 234.464 208.398 234.393 208.341C232.789 206.734 230.669 205.859 228.406 205.859C226.143 205.859 224.023 206.734 222.419 208.341C222.29 208.47 222.089 208.47 221.975 208.341C221.846 208.212 221.846 208.011 221.975 207.896C223.693 206.174 225.971 205.228 228.406 205.228C230.841 205.228 233.118 206.174 234.837 207.896C234.966 208.025 234.966 208.226 234.837 208.341C234.779 208.398 234.708 208.427 234.622 208.427Z" fill="#292524"/>
<path d="M224.642 210.535C226.733 208.44 230.113 208.44 232.204 210.535H224.642Z" fill="white"/>
<path d="M232.204 210.851C232.118 210.851 232.046 210.822 231.975 210.765C230.012 208.799 226.818 208.799 224.856 210.765C224.727 210.894 224.527 210.894 224.412 210.765C224.283 210.636 224.283 210.435 224.412 210.32C226.618 208.111 230.213 208.111 232.419 210.32C232.548 210.449 232.548 210.65 232.419 210.765C232.361 210.822 232.275 210.851 232.204 210.851Z" fill="#292524"/>
<path d="M226.934 212.846C227.75 212.028 229.082 212.028 229.898 212.846H226.934Z" fill="white"/>
<path d="M229.898 213.161C229.812 213.161 229.741 213.132 229.669 213.075C228.981 212.386 227.85 212.386 227.148 213.075C227.019 213.204 226.819 213.204 226.704 213.075C226.575 212.945 226.575 212.745 226.704 212.63C227.162 212.171 227.764 211.927 228.409 211.927C229.053 211.927 229.655 212.185 230.113 212.63C230.242 212.759 230.242 212.96 230.113 213.075C230.056 213.132 229.984 213.161 229.898 213.161Z" fill="#292524"/>
<path d="M33.2478 37.8206C39.0818 31.9767 39.0818 22.5018 33.2478 16.6579C27.4138 10.814 17.955 10.814 12.121 16.6579C6.28701 22.5018 6.28701 31.9767 12.121 37.8206C17.955 43.6645 27.4138 43.6645 33.2478 37.8206Z" fill="white"/>
<path d="M31.8063 11.6921C29.1995 10.2286 26.163 9.39648 22.8973 9.39648C19.6316 9.39648 16.6094 10.243 13.9883 11.6921C5.38009 16.5128 2.47249 27.5461 7.22777 36.2119L22.9116 64.7491L38.5954 36.2119C43.3364 27.5461 40.4288 16.5128 31.8063 11.6921ZM22.9116 40.9896C15.4349 40.9896 9.36192 34.9207 9.36192 27.4169C9.36192 19.9275 15.4206 13.8442 22.9116 13.8442C30.3883 13.8442 36.4613 19.9132 36.4613 27.4169C36.447 34.9207 30.3883 40.9896 22.9116 40.9896Z" fill="#E7E5E4"/>
<path d="M36.4487 27.6177C36.3485 35.021 30.3184 41.0039 22.899 41.0039C15.4797 41.0039 9.46394 35.0353 9.34935 27.6177H4.95215C4.99512 30.5446 5.7256 33.4858 7.22953 36.2118L22.9134 64.749L38.5972 36.2118C40.0868 33.5001 40.8316 30.5446 40.8746 27.6177H36.4487Z" fill="#E7E5E4"/>
<path d="M22.9142 65.0645C22.7996 65.0645 22.6993 65.0071 22.642 64.9066L6.94387 36.3551C2.05968 27.4597 5.15348 16.2687 13.8476 11.4192C16.5833 9.88403 19.7201 9.08057 22.8998 9.08057C26.0796 9.08057 29.2163 9.88403 31.9521 11.4192C40.6462 16.2687 43.74 27.4597 38.8558 36.3551L23.1863 64.8923C23.129 65.0071 23.0288 65.0645 22.9142 65.0645ZM22.9142 9.71186C19.8347 9.71186 16.8125 10.4866 14.1627 11.9644C5.76938 16.656 2.77584 27.4597 7.50248 36.0538L22.9142 64.0888L38.3115 36.0538C43.0382 27.4597 40.0446 16.656 31.6656 11.9788C29.0158 10.501 25.9793 9.71186 22.9142 9.71186Z" fill="#292524"/>
<path d="M13.2764 24.7637C18.6046 19.4264 27.2271 19.4264 32.541 24.7637H13.2764Z" fill="white"/>
<path d="M32.5407 25.0799C32.4547 25.0799 32.3831 25.0512 32.3115 24.9938C27.1265 19.8 18.6759 19.8 13.4909 24.9938C13.362 25.1229 13.1615 25.1229 13.0469 24.9938C12.918 24.8646 12.918 24.6638 13.0469 24.549C18.4897 19.0969 27.327 19.0969 32.7698 24.549C32.8987 24.6781 32.8987 24.879 32.7698 24.9938C32.7125 25.0512 32.6266 25.0799 32.5407 25.0799Z" fill="#292524"/>
<path d="M15.4688 26.9579C19.5795 22.8402 26.2541 22.8402 30.3648 26.9579H15.4688Z" fill="white"/>
<path d="M30.3502 27.2741C30.2642 27.2741 30.1926 27.2454 30.121 27.188C26.1392 23.1994 19.6651 23.1994 15.6833 27.188C15.5544 27.3171 15.3538 27.3171 15.2393 27.188C15.1104 27.0589 15.1104 26.858 15.2393 26.7432C17.2875 24.6916 20.0089 23.5581 22.9021 23.5581C25.7954 23.5581 28.5168 24.6916 30.565 26.7432C30.6939 26.8724 30.6939 27.0732 30.565 27.188C30.522 27.2454 30.4361 27.2741 30.3502 27.2741Z" fill="#292524"/>
<path d="M17.5322 29.0258C20.4971 26.0559 25.324 26.0559 28.2889 29.0258H17.5322Z" fill="white"/>
<path d="M28.2886 29.342C28.2026 29.342 28.131 29.3133 28.0594 29.2559C25.2091 26.4151 20.5971 26.4151 17.7468 29.2559C17.6178 29.385 17.4173 29.385 17.3027 29.2559C17.1738 29.1268 17.1738 28.9259 17.3027 28.8111C20.3965 25.7121 25.424 25.7121 28.5178 28.8111C28.6467 28.9402 28.6467 29.1411 28.5178 29.2559C28.4605 29.3133 28.3745 29.342 28.2886 29.342Z" fill="#292524"/>
<path d="M19.6357 31.1327C21.4405 29.3249 24.3767 29.3249 26.1814 31.1327H19.6357Z" fill="white"/>
<path d="M26.1811 31.4487C26.0952 31.4487 26.0235 31.42 25.9519 31.3626C25.1355 30.5448 24.0469 30.1 22.9011 30.1C21.7552 30.1 20.6667 30.5448 19.8503 31.3626C19.7214 31.4917 19.5208 31.4917 19.4063 31.3626C19.2773 31.2335 19.2773 31.0326 19.4063 30.9178C20.3373 29.9853 21.5834 29.4688 22.9011 29.4688C24.2188 29.4688 25.4649 29.9853 26.3959 30.9178C26.5248 31.047 26.5248 31.2478 26.3959 31.3626C26.353 31.42 26.267 31.4487 26.1811 31.4487Z" fill="#292524"/>
<path d="M21.6279 33.1279C22.3298 32.4248 23.4899 32.4248 24.1918 33.1279H21.6279Z" fill="white"/>
<path d="M21.6276 33.4439C21.5417 33.4439 21.4701 33.4152 21.3984 33.3578C21.2695 33.2287 21.2695 33.0278 21.3984 32.913C21.7995 32.5113 22.3294 32.2817 22.9024 32.2817C23.4753 32.2817 24.0052 32.4969 24.4063 32.913C24.5352 33.0422 24.5352 33.243 24.4063 33.3578C24.2774 33.4869 24.0769 33.4869 23.9623 33.3578C23.6758 33.0709 23.3034 32.913 22.9024 32.913C22.5013 32.913 22.1289 33.0709 21.8425 33.3578C21.7852 33.4152 21.7135 33.4439 21.6276 33.4439Z" fill="#292524"/>
<path d="M62.8877 37.4012L60.8252 35.3351C67.0701 29.0796 75.3775 25.6362 84.2006 25.6362C93.0379 25.6362 101.331 29.0796 107.576 35.3351L105.513 37.4012C99.8271 31.7052 92.2502 28.5631 84.2006 28.5631C76.151 28.5488 68.5883 31.6909 62.8877 37.4012Z" fill="#292524"/>
<path d="M100.442 42.4806C96.1017 38.1333 90.3438 35.7516 84.2135 35.7516C78.0832 35.7516 72.311 38.1476 67.9854 42.4806L65.9229 40.4145C70.807 35.522 77.3097 32.8247 84.2278 32.8247C91.1459 32.8247 97.6343 35.522 102.533 40.4145L100.442 42.4806Z" fill="#292524"/>
<path d="M72.7578 47.2877L70.6953 45.2217C74.3047 41.6061 79.103 39.6118 84.202 39.6118C89.3011 39.6118 94.0993 41.6061 97.7087 45.2217L95.6462 47.2877C92.5954 44.2317 88.5276 42.5387 84.202 42.5387C79.8764 42.5387 75.823 44.2174 72.7578 47.2877Z" fill="#292524"/>
<path d="M90.773 52.1649C87.1493 48.535 81.2625 48.535 77.6387 52.1649L75.5762 50.0989C80.3315 45.3355 88.0803 45.3355 92.8356 50.0989L90.773 52.1649Z" fill="#292524"/>
<path d="M86.1498 56.7998C85.0756 55.7238 83.3282 55.7238 82.2539 56.7998L80.1914 54.7338C82.3972 52.5243 85.9923 52.5243 88.2124 54.7338L86.1498 56.7998Z" fill="#292524"/>
<path d="M165.717 243.406L164.026 241.713C169.125 236.605 175.9 233.793 183.119 233.793C190.324 233.793 197.113 236.605 202.212 241.713L200.522 243.406C195.867 238.743 189.693 236.189 183.119 236.189C176.545 236.189 170.357 238.757 165.717 243.406Z" fill="#292524"/>
<path d="M196.366 247.566C192.828 244.022 188.116 242.071 183.103 242.071C178.09 242.071 173.392 244.022 169.84 247.566L168.149 245.873C172.146 241.87 177.445 239.675 183.088 239.675C188.732 239.675 194.046 241.87 198.027 245.873L196.366 247.566Z" fill="#292524"/>
<path d="M173.764 251.483L172.074 249.79C175.025 246.834 178.935 245.213 183.103 245.213C187.271 245.213 191.181 246.834 194.132 249.79L192.442 251.483C189.949 248.986 186.627 247.609 183.103 247.609C179.58 247.609 176.271 248.986 173.764 251.483Z" fill="#292524"/>
<path d="M188.473 255.47C185.522 252.515 180.71 252.515 177.745 255.47L176.055 253.777C179.936 249.889 186.267 249.889 190.149 253.777L188.473 255.47Z" fill="#292524"/>
<path d="M184.707 259.244C183.833 258.369 182.401 258.369 181.527 259.244L179.837 257.551C181.642 255.743 184.578 255.743 186.383 257.551L184.707 259.244Z" fill="#292524"/>
</svg>
