<svg width="254" height="250" viewBox="0 0 254 250" fill="none" xmlns="http://www.w3.org/2000/svg">
<path d="M253.925 24.8779H54.832V207.351H253.925V24.8779Z" fill="#292524"/>
<path d="M245.714 18.21H48.0742V199.358H245.714V18.21Z" fill="white"/>
<path d="M245.718 199.658H48.0778C47.9118 199.658 47.7734 199.522 47.7734 199.358V18.2097C47.7734 18.0458 47.9118 17.9092 48.0778 17.9092H245.718C245.884 17.9092 246.022 18.0458 246.022 18.2097V199.358C246.022 199.522 245.884 199.658 245.718 199.658ZM48.3822 199.057H245.414V18.5103H48.3822V199.057Z" fill="#292524"/>
<path d="M70.1316 45.574C65.5247 45.574 61.7617 41.8718 61.7617 37.309C61.7617 32.7598 65.5109 29.0439 70.1316 29.0439C74.7524 29.0439 78.5015 32.7461 78.5015 37.309C78.5015 41.8718 74.7385 45.574 70.1316 45.574ZM70.1316 29.6587C65.8567 29.6587 62.3704 33.1013 62.3704 37.3227C62.3704 41.544 65.8567 44.9866 70.1316 44.9866C74.4065 44.9866 77.8928 41.544 77.8928 37.3227C77.8928 33.1013 74.4065 29.6587 70.1316 29.6587Z" fill="#292524"/>
<path d="M99.9011 45.574C95.2942 45.574 91.5312 41.8718 91.5312 37.309C91.5312 32.7598 95.2804 29.0439 99.9011 29.0439C104.522 29.0439 108.271 32.7461 108.271 37.309C108.271 41.8718 104.522 45.574 99.9011 45.574ZM99.9011 29.6587C95.6263 29.6587 92.14 33.1013 92.14 37.3227C92.14 41.544 95.6263 44.9866 99.9011 44.9866C104.176 44.9866 107.662 41.544 107.662 37.3227C107.662 33.1013 104.176 29.6587 99.9011 29.6587Z" fill="#292524"/>
<path d="M129.69 45.574C125.083 45.574 121.32 41.8718 121.32 37.309C121.32 32.7598 125.069 29.0439 129.69 29.0439C134.297 29.0439 138.06 32.7461 138.06 37.309C138.046 41.8718 134.297 45.574 129.69 45.574ZM129.69 29.6587C125.415 29.6587 121.929 33.1013 121.929 37.3227C121.929 41.544 125.415 44.9866 129.69 44.9866C133.965 44.9866 137.451 41.544 137.451 37.3227C137.438 33.1013 133.965 29.6587 129.69 29.6587Z" fill="#292524"/>
<path d="M159.456 45.574C154.849 45.574 151.086 41.8718 151.086 37.309C151.086 32.7598 154.835 29.0439 159.456 29.0439C164.063 29.0439 167.826 32.7461 167.826 37.309C167.826 41.8718 164.077 45.574 159.456 45.574ZM159.456 29.6587C155.181 29.6587 151.695 33.1013 151.695 37.3227C151.695 41.544 155.181 44.9866 159.456 44.9866C163.731 44.9866 167.217 41.544 167.217 37.3227C167.217 33.1013 163.731 29.6587 159.456 29.6587Z" fill="#292524"/>
<path d="M189.249 45.574C184.642 45.574 180.879 41.8718 180.879 37.309C180.879 32.7598 184.628 29.0439 189.249 29.0439C193.856 29.0439 197.619 32.7461 197.619 37.309C197.605 41.8718 193.856 45.574 189.249 45.574ZM189.249 29.6587C184.974 29.6587 181.488 33.1013 181.488 37.3227C181.488 41.544 184.974 44.9866 189.249 44.9866C193.524 44.9866 197.01 41.544 197.01 37.3227C196.996 33.1013 193.524 29.6587 189.249 29.6587Z" fill="#292524"/>
<path d="M219.018 45.574C214.411 45.574 210.648 41.8718 210.648 37.309C210.648 32.7598 214.398 29.0439 219.018 29.0439C223.625 29.0439 227.388 32.7461 227.388 37.309C227.388 41.8718 223.625 45.574 219.018 45.574ZM219.018 29.6587C214.743 29.6587 211.257 33.1013 211.257 37.3227C211.257 41.544 214.743 44.9866 219.018 44.9866C223.293 44.9866 226.78 41.544 226.78 37.3227C226.78 33.1013 223.293 29.6587 219.018 29.6587Z" fill="#292524"/>
<path d="M70.1325 37.6231C69.9665 37.6231 69.8281 37.4864 69.8281 37.3225V0.300547C69.8281 0.136612 69.9665 0 70.1325 0C70.2985 0 70.4368 0.136612 70.4368 0.300547V37.3225C70.4368 37.4864 70.2985 37.6231 70.1325 37.6231Z" fill="#292524"/>
<path d="M99.902 37.6231C99.736 37.6231 99.5977 37.4864 99.5977 37.3225V0.300547C99.5977 0.136612 99.736 0 99.902 0C100.068 0 100.206 0.136612 100.206 0.300547V37.3225C100.206 37.4864 100.068 37.6231 99.902 37.6231Z" fill="#292524"/>
<path d="M129.687 37.6231C129.521 37.6231 129.383 37.4864 129.383 37.3225V0.300547C129.383 0.136612 129.521 0 129.687 0C129.853 0 129.992 0.136612 129.992 0.300547V37.3225C129.992 37.4864 129.853 37.6231 129.687 37.6231Z" fill="#292524"/>
<path d="M159.465 37.6231C159.298 37.6231 159.16 37.4864 159.16 37.3225V0.300547C159.16 0.136612 159.298 0 159.465 0C159.631 0 159.769 0.136612 159.769 0.300547V37.3225C159.769 37.4864 159.631 37.6231 159.465 37.6231Z" fill="#292524"/>
<path d="M189.246 37.6231C189.08 37.6231 188.941 37.4864 188.941 37.3225V0.300547C188.941 0.136612 189.08 0 189.246 0C189.412 0 189.55 0.136612 189.55 0.300547V37.3225C189.55 37.4864 189.412 37.6231 189.246 37.6231Z" fill="#292524"/>
<path d="M219.019 37.6231C218.853 37.6231 218.715 37.4864 218.715 37.3225V0.300547C218.715 0.136612 218.853 0 219.019 0C219.185 0 219.324 0.136612 219.324 0.300547V37.3225C219.324 37.4864 219.185 37.6231 219.019 37.6231Z" fill="#292524"/>
<path d="M84.4102 62.6914H65.6367V79.1532H84.4102V62.6914Z" fill="#E7E5E4"/>
<path d="M113.074 62.6914H94.3008V79.1532H113.074V62.6914Z" fill="#E7E5E4"/>
<path d="M141.738 62.6914H122.965V79.1532H141.738V62.6914Z" fill="#E7E5E4"/>
<path d="M170.402 62.6914H151.629V79.1532H170.402V62.6914Z" fill="#E7E5E4"/>
<path d="M199.07 62.6914H180.297V79.1532H199.07V62.6914Z" fill="#D4D4D4"/>
<path d="M227.734 62.6914H208.961V79.1532H227.734V62.6914Z" fill="#D4D4D4"/>
<path d="M84.4102 88.3477H65.6367V104.809H84.4102V88.3477Z" fill="#E7E5E4"/>
<path d="M113.074 88.3477H94.3008V104.809H113.074V88.3477Z" fill="#E7E5E4"/>
<path d="M141.738 88.3477H122.965V104.809H141.738V88.3477Z" fill="#E7E5E4"/>
<path d="M170.402 88.3477H151.629V104.809H170.402V88.3477Z" fill="#E7E5E4"/>
<path d="M199.07 88.3477H180.297V104.809H199.07V88.3477Z" fill="#D4D4D4"/>
<path d="M227.734 88.3477H208.961V104.809H227.734V88.3477Z" fill="#D4D4D4"/>
<path d="M84.4102 114.018H65.6367V130.479H84.4102V114.018Z" fill="#E7E5E4"/>
<path d="M113.074 114.018H94.3008V130.479H113.074V114.018Z" fill="#E7E5E4"/>
<path d="M141.738 114.018H122.965V130.479H141.738V114.018Z" fill="#E7E5E4"/>
<path d="M170.402 114.018H151.629V130.479H170.402V114.018Z" fill="#E7E5E4"/>
<path d="M199.07 114.018H180.297V130.479H199.07V114.018Z" fill="#D4D4D4"/>
<path d="M227.734 114.018H208.961V130.479H227.734V114.018Z" fill="#D4D4D4"/>
<path d="M84.4102 139.673H65.6367V156.135H84.4102V139.673Z" fill="#E7E5E4"/>
<path d="M113.074 139.673H94.3008V156.135H113.074V139.673Z" fill="#E7E5E4"/>
<path d="M141.738 139.673H122.965V156.135H141.738V139.673Z" fill="#E7E5E4"/>
<path d="M170.402 139.673H151.629V156.135H170.402V139.673Z" fill="#E7E5E4"/>
<path d="M199.07 139.673H180.297V156.135H199.07V139.673Z" fill="#D4D4D4"/>
<path d="M227.734 139.673H208.961V156.135H227.734V139.673Z" fill="#D4D4D4"/>
<path d="M84.4102 165.328H65.6367V181.79H84.4102V165.328Z" fill="#E7E5E4"/>
<path d="M113.074 165.328H94.3008V181.79H113.074V165.328Z" fill="#E7E5E4"/>
<path d="M124.887 93.6477C124.887 91.5849 126.049 90.2188 127.709 90.2188C129.383 90.2188 130.559 91.5712 130.559 93.6477C130.559 95.7242 129.383 97.0767 127.709 97.0767C126.049 97.0767 124.887 95.7242 124.887 93.6477ZM129.867 93.6477C129.867 91.8854 129.009 90.8335 127.723 90.8335C126.45 90.8335 125.592 91.8991 125.592 93.6477C125.592 95.3827 126.45 96.4619 127.723 96.4619C128.996 96.4619 129.867 95.41 129.867 93.6477ZM135.553 90.3007H136.342L127.571 102.992H126.782L135.553 90.3007ZM132.565 99.6313C132.565 97.5685 133.741 96.2024 135.415 96.2024C137.089 96.2024 138.237 97.5548 138.237 99.6313C138.237 101.694 137.075 103.06 135.415 103.06C133.727 103.06 132.565 101.694 132.565 99.6313ZM137.531 99.6313C137.531 97.8964 136.674 96.8171 135.401 96.8171C134.114 96.8171 133.257 97.869 133.257 99.6313C133.257 101.394 134.114 102.446 135.401 102.446C136.674 102.446 137.531 101.366 137.531 99.6313Z" fill="#292524"/>
<path d="M154.184 118.865C154.184 116.803 155.346 115.437 157.006 115.437C158.68 115.437 159.856 116.789 159.856 118.865C159.856 120.942 158.68 122.294 157.006 122.294C155.332 122.281 154.184 120.928 154.184 118.865ZM159.15 118.865C159.15 117.103 158.292 116.051 157.006 116.051C155.733 116.051 154.875 117.117 154.875 118.865C154.875 120.6 155.733 121.68 157.006 121.68C158.292 121.666 159.15 120.614 159.15 118.865ZM164.836 115.505H165.625L156.854 128.182H156.065L164.836 115.505ZM161.848 124.835C161.848 122.773 163.024 121.406 164.698 121.406C166.372 121.406 167.52 122.759 167.52 124.835C167.52 126.898 166.358 128.264 164.698 128.264C163.038 128.264 161.848 126.912 161.848 124.835ZM166.815 124.835C166.815 123.1 165.957 122.021 164.684 122.021C163.397 122.021 162.54 123.073 162.54 124.835C162.54 126.598 163.397 127.65 164.684 127.65C165.957 127.65 166.815 126.584 166.815 124.835Z" fill="#E7E5E4"/>
<path d="M188.623 154.987C188.527 154.987 188.444 154.946 188.388 154.878L179.202 143.826C179.091 143.703 179.119 143.512 179.244 143.403C179.368 143.293 179.562 143.321 179.673 143.444L188.596 154.168L202.486 133.43C202.583 133.293 202.762 133.252 202.915 133.348C203.053 133.444 203.094 133.621 202.998 133.772L188.886 154.837C188.831 154.919 188.748 154.96 188.651 154.974C188.637 154.987 188.623 154.987 188.623 154.987Z" fill="#292524"/>
<path d="M81.8513 231H63.7695L70.1888 192.871H88.2705L81.8513 231Z" fill="#E7E5E4"/>
<path d="M81.8506 231.3H63.7688C63.6858 231.3 63.589 231.259 63.5336 231.191C63.4783 231.122 63.4506 231.04 63.4645 230.945L69.8975 192.816C69.9252 192.666 70.0497 192.57 70.2019 192.57H88.2836C88.3666 192.57 88.4635 192.611 88.5188 192.68C88.5742 192.748 88.6018 192.83 88.588 192.926L82.1549 231.054C82.1273 231.191 81.9889 231.3 81.8506 231.3ZM64.1285 230.699H81.5877L87.9101 193.171H70.4509L64.1285 230.699Z" fill="#292524"/>
<path d="M113.261 237.351H61.5195L63.7746 222.01H84.1805L98.1534 226.436L101.059 226.655C107.976 227.187 113.261 231.819 113.261 237.351Z" fill="white"/>
<path d="M113.26 237.652H61.5188C61.4358 237.652 61.3528 237.611 61.2836 237.542C61.2283 237.474 61.2006 237.392 61.2145 237.296L63.4695 221.955C63.4972 221.805 63.6217 221.695 63.7739 221.695H84.1798C84.2075 221.695 84.249 221.695 84.2766 221.709L98.2219 226.135L101.086 226.354C108.197 226.9 113.564 231.613 113.564 237.337C113.564 237.515 113.426 237.652 113.26 237.652ZM61.8785 237.051H112.956C112.776 231.777 107.712 227.474 101.044 226.969L98.1389 226.75C98.1112 226.75 98.0974 226.75 98.0697 226.736L84.1383 222.31H64.0367L61.8785 237.051Z" fill="#292524"/>
<path d="M114.697 241.121H59.7461V237.351H114.379L114.697 241.121Z" fill="white"/>
<path d="M114.7 241.421H59.7497C59.5837 241.421 59.4453 241.285 59.4453 241.121V237.35C59.4453 237.186 59.5837 237.05 59.7497 237.05H114.368C114.521 237.05 114.659 237.173 114.673 237.323L114.991 241.094C115.005 241.176 114.963 241.257 114.908 241.326C114.866 241.38 114.783 241.421 114.7 241.421ZM60.054 240.82H114.368L114.092 237.651H60.054V240.82Z" fill="#292524"/>
<path d="M91.5386 229.536C91.4694 229.536 91.4002 229.508 91.3449 229.467C91.2204 229.358 91.2066 229.167 91.3172 229.044L94.6514 225.205C94.762 225.082 94.9557 225.068 95.0802 225.178C95.2047 225.287 95.2186 225.478 95.1079 225.601L91.7738 229.44C91.7046 229.508 91.6216 229.536 91.5386 229.536Z" fill="#292524"/>
<path d="M88.3159 228.594C88.2468 228.594 88.1776 228.567 88.1222 228.526C87.9977 228.417 87.9839 228.225 88.0946 228.102L91.4287 224.264C91.5394 224.141 91.7331 224.127 91.8576 224.236C91.9821 224.346 91.9959 224.537 91.8852 224.66L88.5511 228.499C88.4958 228.553 88.4128 228.594 88.3159 228.594Z" fill="#292524"/>
<path d="M85.105 227.637C85.0358 227.637 84.9666 227.61 84.9113 227.569C84.7868 227.46 84.773 227.268 84.8836 227.145L88.2178 223.307C88.3284 223.184 88.5221 223.17 88.6466 223.279C88.7711 223.388 88.785 223.58 88.6743 223.703L85.3402 227.541C85.2848 227.596 85.188 227.637 85.105 227.637Z" fill="#292524"/>
<path d="M33.3278 231H15.2461L21.6792 192.871H39.7471L33.3278 231Z" fill="#E7E5E4"/>
<path d="M33.3271 231.3H15.2454C15.1624 231.3 15.0655 231.259 15.0102 231.191C14.9549 231.122 14.9272 231.04 14.941 230.945L21.3741 192.816C21.4018 192.666 21.5263 192.57 21.6784 192.57H39.7602C39.8432 192.57 39.94 192.611 39.9954 192.68C40.0507 192.748 40.0784 192.83 40.0645 192.926L33.6315 231.054C33.6038 231.191 33.4793 231.3 33.3271 231.3ZM15.6051 230.699H33.0643L39.3867 193.171H21.9275L15.6051 230.699Z" fill="#292524"/>
<path d="M65.0477 237.351H13.3203L15.5753 222.01H35.9813L49.9542 226.436L52.8594 226.655C59.7629 227.187 65.0477 231.819 65.0477 237.351Z" fill="white"/>
<path d="M65.0469 237.652H13.3196C13.2366 237.652 13.1536 237.611 13.0844 237.542C13.0291 237.474 13.0014 237.392 13.0152 237.296L15.2703 221.955C15.2979 221.805 15.4225 221.695 15.5746 221.695H35.9806C36.0082 221.695 36.0498 221.695 36.0774 221.709L50.0226 226.135L52.8864 226.354C59.9973 226.9 65.3651 231.613 65.3651 237.337C65.3513 237.515 65.213 237.652 65.0469 237.652ZM13.6655 237.051H64.7426C64.5627 231.777 59.4993 227.474 52.8311 226.969L49.9258 226.75C49.8981 226.75 49.8843 226.75 49.8566 226.736L35.9252 222.324H15.8237L13.6655 237.051Z" fill="#292524"/>
<path d="M66.4799 241.121H11.543V237.351H66.1617L66.4799 241.121Z" fill="white"/>
<path d="M66.4835 241.421H11.5465C11.3805 241.421 11.2422 241.285 11.2422 241.121V237.35C11.2422 237.186 11.3805 237.05 11.5465 237.05H66.1653C66.3175 237.05 66.4558 237.173 66.4697 237.323L66.7879 241.094C66.8017 241.176 66.7602 241.257 66.7049 241.326C66.6495 241.38 66.5665 241.421 66.4835 241.421ZM11.8509 240.82H66.1515L65.8748 237.651H11.8509V240.82Z" fill="#292524"/>
<path d="M43.3316 229.536C43.2624 229.536 43.1932 229.508 43.1379 229.467C43.0134 229.358 42.9995 229.167 43.1102 229.044L46.4443 225.205C46.555 225.082 46.7487 225.068 46.8732 225.178C46.9977 225.287 47.0115 225.478 46.9009 225.601L43.5667 229.44C43.5114 229.508 43.4146 229.536 43.3316 229.536Z" fill="#292524"/>
<path d="M40.1167 228.594C40.0475 228.594 39.9784 228.567 39.923 228.526C39.7985 228.417 39.7847 228.225 39.8954 228.102L43.2295 224.264C43.3402 224.141 43.5338 224.127 43.6584 224.236C43.7829 224.346 43.7967 224.537 43.686 224.66L40.3519 228.499C40.2827 228.553 40.1997 228.594 40.1167 228.594Z" fill="#292524"/>
<path d="M36.9097 227.637C36.8405 227.637 36.7713 227.61 36.716 227.569C36.5915 227.46 36.5777 227.268 36.6883 227.145L40.0225 223.307C40.1331 223.184 40.3268 223.17 40.4513 223.279C40.5758 223.388 40.5897 223.58 40.479 223.703L37.1449 227.541C37.0757 227.596 36.9927 227.637 36.9097 227.637Z" fill="#292524"/>
<path d="M97.1122 213.195H52.565L60.4922 154.985L39.7266 89.0557H64.9884L83.0702 130.463C88.4656 142.799 91.8274 155.9 93.0725 169.274L97.1122 213.195Z" fill="#292524"/>
<path d="M45.7035 213.195H1.15625L33.2939 89.0557H55.3461L45.7035 213.195Z" fill="#292524"/>
<path d="M45.7041 213.496H1.15685C1.06001 213.496 0.977 213.455 0.921662 213.373C0.866323 213.304 0.838654 213.209 0.866323 213.113L33.004 88.9735C33.0316 88.8368 33.1561 88.7412 33.2945 88.7412H55.3329C55.4159 88.7412 55.4989 88.7822 55.5543 88.8368C55.6096 88.8915 55.6373 88.9871 55.6373 89.0691L45.9946 213.209C45.9946 213.373 45.8562 213.496 45.7041 213.496ZM1.54422 212.895H45.4135L55.0147 89.356H33.5297L1.54422 212.895Z" fill="#292524"/>
<path d="M11.5434 213.495C11.5158 213.495 11.5019 213.495 11.4743 213.482C11.3082 213.441 11.2114 213.29 11.2391 213.127L39.42 88.9869C39.4615 88.8229 39.6137 88.7273 39.7797 88.7546C39.9457 88.7956 40.0426 88.9459 40.0149 89.1098L11.834 213.263C11.8063 213.4 11.6818 213.495 11.5434 213.495Z" fill="white"/>
<path d="M14.7544 213.495C14.7267 213.495 14.7129 213.495 14.6852 213.482C14.5192 213.441 14.4223 213.29 14.45 213.127L42.631 88.9869C42.6725 88.8229 42.8246 88.7273 42.9907 88.7546C43.1567 88.7956 43.2535 88.9459 43.2258 89.1098L15.0449 213.249C15.0172 213.4 14.8927 213.495 14.7544 213.495Z" fill="white"/>
<path d="M50.1155 45.9685C53.7066 45.9685 56.6177 43.0938 56.6177 39.5477C56.6177 36.0016 53.7066 33.127 50.1155 33.127C46.5244 33.127 43.6133 36.0016 43.6133 39.5477C43.6133 43.0938 46.5244 45.9685 50.1155 45.9685Z" fill="#292524"/>
<path d="M53.4002 44.9023H46.1094V55.8723H53.4002V44.9023Z" fill="#E7E5E4"/>
<path d="M53.4038 56.1726H46.113C45.9469 56.1726 45.8086 56.036 45.8086 55.8721V44.9021C45.8086 44.7382 45.9469 44.6016 46.113 44.6016H53.4038C53.5698 44.6016 53.7081 44.7382 53.7081 44.9021V55.8721C53.7081 56.036 53.5698 56.1726 53.4038 56.1726ZM46.4173 55.5715H53.0994V45.2027H46.4173V55.5715Z" fill="#292524"/>
<path d="M46.1133 47.6219V44.8896H53.4041V50.9143C52.74 51.0372 51.4396 51.2011 49.9316 50.723C47.5659 49.958 46.4038 48.141 46.1133 47.6219Z" fill="#292524"/>
<path d="M55.2371 38.0459H55.1264V40.7645H46.3553V38.0459H46.2585C45.4007 39.1525 44.875 40.6006 44.875 42.1716C44.875 45.7099 47.5036 48.5651 50.7408 48.5651C53.9781 48.5651 56.6067 45.6962 56.6067 42.1716C56.6205 40.6006 56.0948 39.1661 55.2371 38.0459Z" fill="#E7E5E4"/>
<path d="M50.7522 48.8654C47.3489 48.8654 44.582 45.8599 44.582 42.1714C44.582 40.6003 45.0939 39.0703 46.0208 37.8681C46.0762 37.7998 46.173 37.7451 46.2698 37.7451H46.3667C46.5327 37.7451 46.671 37.8817 46.671 38.0457V40.4637H54.8334V38.0457C54.8334 37.8817 54.9718 37.7451 55.1378 37.7451H55.2485C55.3453 37.7451 55.4283 37.7861 55.4975 37.8681C56.4244 39.0703 56.9363 40.6003 56.9363 42.1714C56.9224 45.8599 54.1555 48.8654 50.7522 48.8654ZM46.0485 38.9063C45.4813 39.8763 45.1769 41.0102 45.1769 42.1714C45.1769 45.532 47.6671 48.2643 50.7384 48.2643C53.8097 48.2643 56.2999 45.532 56.2999 42.1714C56.2999 40.9965 55.9955 39.8626 55.4145 38.879V40.7643C55.4145 40.9282 55.2761 41.0648 55.1101 41.0648H46.339C46.173 41.0648 46.0347 40.9282 46.0347 40.7643V38.9063H46.0485Z" fill="#292524"/>
<path d="M48.1953 44.9859C48.7625 45.5051 49.4958 45.8466 50.312 45.9286C52.152 46.1062 53.7983 44.9313 54.2548 43.2236L48.1953 44.9859Z" fill="white"/>
<path d="M42.8656 28.1685C35.4918 25.8188 26.3056 33.7423 22.3351 45.8598C21.339 48.9063 20.7718 51.9391 20.5781 54.7943H25.6554C25.8768 53.9336 26.1119 53.073 26.4025 52.2123C30.373 40.0948 39.5591 32.1713 46.9329 34.521C47.9705 34.8489 48.9113 35.368 49.7552 36.0374C48.4824 32.103 46.1305 29.2204 42.8656 28.1685Z" fill="#292524"/>
<path d="M103.003 43.2137C103.003 43.2137 102.754 39.8121 106.572 38.1454C107.458 37.7629 109.353 37.0798 110.958 36.5607C112.784 35.9733 114.555 35.099 116.16 34.0607L117.986 32.8858C118.913 32.2847 120.531 32.4897 121.182 33.3776L121.32 33.5689C121.97 34.4705 121.278 35.823 120.393 36.4924L114.997 40.6454L117.363 42.4897C118.844 43.5006 120.573 44.0881 122.371 44.17L129.607 44.6755C130.81 44.7575 131.765 45.7137 131.848 46.9023L131.862 47.1072L135.777 46.9979C136.925 46.9979 138.281 47.8722 138.336 49.0061C138.378 50.1263 137.575 51.0826 136.012 51.2465L112.023 54.0471L105.936 65.5362L99.1985 78.7603C99.1985 78.7603 97.5383 81.9707 96.6806 82.7767C93.4571 85.7822 90.6487 85.222 89.0024 84.7302C82.0021 82.6401 60.2266 69.0471 60.2266 69.0471L71.391 59.5253L88.117 69.5389L93.3049 60.6728L103.003 43.2137Z" fill="#E7E5E4"/>
<path d="M90.9006 85.4542C89.4756 85.4542 87.9261 85.0717 86.266 84.1837C78.7815 80.1399 62.0279 70.6317 61.8619 70.5361C61.7789 70.4814 61.7235 70.3995 61.7097 70.3038C61.6958 70.2082 61.7374 70.1126 61.8065 70.0443L72.9848 60.4268C73.0817 60.3448 73.2339 60.3312 73.3445 60.3995L87.7878 69.1973C88.5487 67.8995 91.869 62.2301 93.0588 60.1809C95.3968 56.1645 101.954 44.1972 102.48 43.2273C102.508 42.6672 102.867 39.4158 106.506 37.8311C107.433 37.4349 109.411 36.7655 110.919 36.2737C112.718 35.6863 114.433 34.8803 116.01 33.8557L117.85 32.6671C118.916 31.9704 120.327 32.2436 121.074 33.2546L121.212 33.4458C121.959 34.4704 121.738 35.9185 120.714 36.6699L115.277 40.7136L117.809 42.4486C119.248 43.4322 120.922 43.9923 122.651 44.0743L129.9 44.5797C131.214 44.6754 132.28 45.7 132.418 46.9978L136.029 46.9021C137.357 46.9021 138.436 47.9267 138.491 49.2246C138.547 50.4951 137.592 51.588 136.306 51.7382L111.971 54.4022C111.127 56.0688 103.324 71.3558 100.612 76.6563L100.28 77.2984C99.727 78.3913 98.9661 79.8804 98.4957 80.6864C97.0431 83.2001 94.373 85.4542 90.9006 85.4542ZM62.5398 70.2219C65.0576 71.6563 79.6946 79.9487 86.5565 83.6509C91.869 86.5197 95.9502 83.8558 97.9838 80.3995C98.4542 79.6072 99.2013 78.1317 99.7547 77.0525L100.087 76.4104C102.95 70.8366 111.431 54.1836 111.514 54.0197C111.556 53.924 111.652 53.8694 111.749 53.8557L136.25 51.1781C137.205 51.0688 137.938 50.2492 137.896 49.2929C137.855 48.3229 137.053 47.5442 136.056 47.5442L132.155 47.6535C131.989 47.6535 131.851 47.5306 131.837 47.3666L131.823 47.1617C131.754 46.1235 130.91 45.2901 129.872 45.2218L122.637 44.7164C120.797 44.6207 118.999 44.0196 117.477 42.9814L114.613 40.9868C114.53 40.9322 114.488 40.8366 114.475 40.7409C114.475 40.6453 114.516 40.5497 114.599 40.495L120.368 36.2054C121.129 35.6453 121.295 34.5661 120.742 33.8147L120.603 33.6234C120.05 32.8584 118.999 32.6671 118.21 33.1863L116.37 34.3748C114.737 35.4267 112.98 36.2737 111.127 36.8611C108.982 37.5579 107.474 38.077 106.769 38.3912C103.172 39.9622 103.103 43.2819 103.103 43.3229C103.103 43.3776 103.089 43.4185 103.061 43.4595C102.992 43.5825 96.0332 56.3147 93.5983 60.4814C92.2425 62.8038 88.1613 69.7574 88.1613 69.7574C88.1198 69.8257 88.0506 69.8804 87.9676 69.894C87.8846 69.9213 87.8016 69.9077 87.7325 69.853L73.22 61.0005L62.5398 70.2219Z" fill="#292524"/>
<path d="M113.103 42.271C113.006 42.271 112.923 42.23 112.854 42.1481C112.757 42.0114 112.785 41.8202 112.923 41.7246L114.68 40.4404C114.819 40.3448 115.012 40.3721 115.109 40.5087C115.206 40.6453 115.178 40.8366 115.04 40.9322L113.283 42.2164C113.228 42.2437 113.172 42.271 113.103 42.271Z" fill="#292524"/>
<path d="M121.016 46.5726L123.118 46.559C124.447 46.559 125.747 46.1628 126.868 45.4387L132.969 41.4906C133.84 40.9169 135.016 41.1491 135.611 42.0098C136.178 42.8294 136.012 43.9223 135.224 44.5508L128.86 49.6054C128.348 50.0152 127.753 50.3158 127.117 50.4934L123.7 51.4633L121.016 46.5726Z" fill="#E7E5E4"/>
<path d="M127.118 50.808C126.979 50.808 126.868 50.726 126.827 50.5894C126.785 50.4255 126.868 50.2615 127.035 50.2206C127.629 50.0566 128.183 49.7697 128.667 49.3872L135.031 44.3326C135.681 43.8134 135.819 42.8845 135.349 42.2014C134.851 41.491 133.855 41.2861 133.122 41.7643L128.459 44.8244C128.321 44.92 128.127 44.879 128.031 44.7424C127.934 44.6058 127.975 44.4145 128.114 44.3189L132.776 41.2588C133.786 40.603 135.155 40.8763 135.833 41.8599C136.483 42.8025 136.29 44.0867 135.391 44.797L129.027 49.8517C128.473 50.2889 127.851 50.6031 127.173 50.7943C127.173 50.7943 127.145 50.808 127.118 50.808Z" fill="#292524"/>
<path d="M115.574 47.6941L117.636 47.3389C118.95 47.1204 120.167 46.5193 121.15 45.6313L126.504 40.7406C127.278 40.0302 128.468 40.0712 129.201 40.8225C129.893 41.5329 129.907 42.6531 129.243 43.3908L123.82 49.4155C123.377 49.9073 122.851 50.3034 122.256 50.5767L119.047 52.0794L115.574 47.6941Z" fill="#E7E5E4"/>
<path d="M120.997 51.8468C120.886 51.8468 120.775 51.7784 120.72 51.6692C120.651 51.5189 120.72 51.3413 120.872 51.273C122.242 50.6446 123.473 49.7156 124.442 48.5681L129.021 43.1855C129.574 42.5708 129.56 41.6145 128.979 41.027C128.371 40.3986 127.361 40.3713 126.71 40.9587L121.356 45.8495C120.333 46.7921 119.06 47.4069 117.69 47.6391L113.388 48.0489C113.222 48.0763 113.07 47.9396 113.056 47.7757C113.042 47.6118 113.166 47.4615 113.332 47.4478L117.607 47.038C118.839 46.8331 120.001 46.2593 120.941 45.3986L126.295 40.5079C127.181 39.7019 128.578 39.7429 129.422 40.6036C130.211 41.4232 130.238 42.7347 129.477 43.5817L124.898 48.9506C123.874 50.1528 122.574 51.1364 121.121 51.8058C121.08 51.8331 121.038 51.8468 120.997 51.8468Z" fill="#292524"/>
<path d="M66.5781 72.242L74.616 77.283C75.5982 74.3595 72.6653 73.1027 74.0626 69.7147C75.9026 65.2611 74.0349 60.7666 74.0349 60.7666L66.5781 72.242Z" fill="#292524"/>
<path d="M20.6308 98.1714L8.84375 86.0538L23.4392 61.1357L40.8292 63.6357L20.6308 98.1714Z" fill="#E7E5E4"/>
<path d="M8.84786 86.3547C8.79252 86.3547 8.73718 86.341 8.69568 86.3137C8.5435 86.2317 8.50199 86.0405 8.585 85.9039L23.1804 60.9858C23.2634 60.8355 23.4571 60.7945 23.5955 60.8765C23.7477 60.9584 23.7892 61.1497 23.7062 61.2863L9.11071 86.2044C9.05537 86.3 8.95853 86.3547 8.84786 86.3547Z" fill="#292524"/>
<path d="M29.5276 73.021L19.8711 67.2287L23.4404 61.1357L40.8304 63.6357L29.5276 73.021Z" fill="#292524"/>
<path d="M75.4272 60.3293L74.6386 59.7966C69.3262 56.2583 63.073 54.3594 56.6676 54.3594H42.1551C34.9612 54.3594 27.9609 56.7501 22.3164 61.149L29.538 73.0206L25.609 89.6737H68.6068L68.0534 77.7747C69.6029 76.7911 70.6404 75.0698 70.6404 73.1026C70.6404 71.7775 70.1701 70.5479 69.3677 69.5917L75.4272 60.3293Z" fill="white"/>
<path d="M68.607 89.974H25.5954C25.4986 89.974 25.4155 89.933 25.3602 89.8647C25.3049 89.7964 25.2772 89.7008 25.3049 89.6051L29.1924 73.075L22.0399 61.299C21.9569 61.1624 21.9984 60.9985 22.1091 60.9029C27.7951 56.4903 34.906 54.0586 42.1415 54.0586H56.6539C63.1423 54.0586 69.4232 55.9575 74.791 59.5504L75.5796 60.0832C75.7179 60.1788 75.7594 60.3564 75.6626 60.493L69.7137 69.5778C70.4885 70.5887 70.9173 71.8319 70.9173 73.1024C70.9173 75.0422 69.9628 76.8319 68.3441 77.9248L68.8975 89.6598C68.8975 89.7417 68.8698 89.8237 68.8145 89.8784C68.7592 89.9467 68.69 89.974 68.607 89.974ZM25.9828 89.3729H68.2749L67.7354 77.7882C67.7354 77.6789 67.7769 77.5832 67.8737 77.5149C69.3955 76.545 70.3086 74.892 70.3086 73.1024C70.3086 71.9002 69.8798 70.7116 69.105 69.7827C69.022 69.687 69.0082 69.5368 69.0912 69.4275L74.9985 60.3974L74.459 60.0422C69.188 56.5176 63.0317 54.6597 56.6539 54.6597H42.1553C35.1412 54.6597 28.2516 56.9821 22.704 61.2171L29.7873 72.8701C29.8288 72.9384 29.8426 73.0204 29.8288 73.0887L25.9828 89.3729Z" fill="#292524"/>
<path d="M67.1826 78.5266C67.0581 78.5266 66.9474 78.4583 66.9059 78.349C66.8367 78.1988 66.9197 78.0212 67.0719 77.9529C69.0502 77.1332 70.323 75.2343 70.323 73.1168C70.323 70.9583 69.0087 69.0457 66.9889 68.2397C66.892 68.1987 66.8229 68.1031 66.7952 68.0075L66.2695 64.278C66.2418 64.114 66.3663 63.9638 66.5323 63.9364C66.6984 63.9091 66.8505 64.0321 66.8782 64.196L67.3762 67.7616C69.5344 68.6905 70.9317 70.7807 70.9317 73.1304C70.9317 75.4938 69.5068 77.6113 67.3071 78.5266C67.2656 78.5266 67.2241 78.5266 67.1826 78.5266Z" fill="#292524"/>
<path d="M54.7053 52.8975H44.8828V56.7226H54.7053V52.8975Z" fill="white"/>
<path d="M54.7089 57.0229H44.8864C44.7204 57.0229 44.582 56.8863 44.582 56.7224V52.8972C44.582 52.7333 44.7204 52.5967 44.8864 52.5967H54.7089C54.8749 52.5967 55.0133 52.7333 55.0133 52.8972V56.7224C55.0133 56.8863 54.8749 57.0229 54.7089 57.0229ZM45.1908 56.4218H54.4046V53.1978H45.1908V56.4218Z" fill="#292524"/>
<path d="M49.9571 120.588C61.4256 120.588 70.7227 111.414 70.7227 100.096C70.7227 88.779 61.4256 79.6045 49.9571 79.6045C38.4885 79.6045 29.1914 88.779 29.1914 100.096C29.1914 111.414 38.4885 120.588 49.9571 120.588Z" fill="#292524"/>
<path d="M47.7774 120.601C59.2459 120.601 68.543 111.426 68.543 100.109C68.543 88.7917 59.2459 79.6172 47.7774 79.6172C36.3088 79.6172 27.0117 88.7917 27.0117 100.109C27.0117 111.426 36.3088 120.601 47.7774 120.601Z" fill="white"/>
<path d="M47.804 120.903C39.4617 120.903 31.5346 115.971 28.2281 107.87C26.1253 102.72 26.1806 97.0639 28.3941 91.9546C30.5938 86.8453 34.6888 82.8972 39.9045 80.8207C50.6816 76.5447 62.9805 81.7087 67.3107 92.3508C69.4135 97.501 69.3582 103.157 67.1447 108.266C64.945 113.375 60.8499 117.323 55.6343 119.4C53.0749 120.411 50.4187 120.903 47.804 120.903ZM47.7625 79.919C45.2308 79.919 42.6437 80.3835 40.1535 81.3808C35.09 83.389 31.1195 87.2278 28.9752 92.2005C26.8308 97.1595 26.7755 102.651 28.823 107.651C32.0326 115.52 39.7246 120.302 47.8316 120.302C50.3634 120.302 52.9504 119.837 55.4406 118.84C60.5041 116.832 64.4746 112.993 66.6189 108.02C68.7633 103.061 68.8186 97.5693 66.7711 92.5693C63.5477 84.7141 55.8695 79.919 47.7625 79.919Z" fill="#292524"/>
<path d="M51.4707 112.146L50.3363 109.469C48.4271 110.22 46.3935 110.52 45.0653 110.37L44.512 106.695C45.9646 106.818 47.8599 106.682 49.6722 105.876C51.2632 105.165 52.0933 104.059 51.6229 102.925C51.1664 101.846 49.9904 101.572 47.6247 101.791C44.2076 102.105 41.5652 101.6 40.4169 98.8674C39.3655 96.381 40.2786 93.6625 43.0178 91.7362L41.8834 89.0586L44.6226 87.8428L45.6741 90.3291C47.5832 89.5778 49.0082 89.4138 50.1149 89.4548L50.6545 93.0067C49.7967 93.0204 48.2334 92.9384 46.2274 93.8401C44.4151 94.6461 44.1523 95.698 44.4843 96.4903C44.8716 97.4193 46.1029 97.5832 48.8698 97.4193C52.702 97.1188 54.6942 98.075 55.7594 100.616C56.8247 103.13 55.967 106.067 52.9925 108.061L54.21 110.944L51.4707 112.146Z" fill="#292524"/>
<path d="M47.4891 123.279C47.4199 123.279 47.3508 123.251 47.2954 123.21L39.5758 116.749C39.4789 116.667 39.4513 116.544 39.4789 116.434L43.0897 104.358C43.1312 104.194 43.3111 104.112 43.4633 104.153C43.6293 104.194 43.7123 104.372 43.6708 104.522L40.1153 116.407L47.4891 122.568L58.5567 113.333C58.6813 113.224 58.8749 113.238 58.9856 113.374C59.0963 113.497 59.0825 113.689 58.9441 113.798L47.669 123.197C47.6275 123.251 47.5583 123.279 47.4891 123.279Z" fill="#292524"/>
<path d="M44.5875 104.467L39.7869 116.516L12.5882 100.369C7.59392 97.4041 5.93377 91.038 8.85286 86.0653L12.6574 79.5898L44.5875 104.467Z" fill="#E7E5E4"/>
<path d="M60.9836 112.102L60.8037 111.87L59.8076 110.572L59.5448 110.217L59.531 110.204C57.9261 108.277 55.6988 106.938 53.2086 106.433L43.3999 104.425L39.7891 116.501L47.5087 122.963L58.7839 113.564L60.3195 115.641L60.5547 115.463C61.5785 114.657 61.786 113.168 60.9836 112.102Z" fill="#E7E5E4"/>
<path d="M59.38 120.109L52.8086 111.53L55.6862 109.385L62.2438 117.964C62.8248 118.715 62.6726 119.781 61.9117 120.355L61.801 120.437C61.0401 121.01 59.9611 120.86 59.38 120.109Z" fill="#E7E5E4"/>
<path d="M57.4972 123.538L50.5938 114.508L53.4713 112.363L60.3748 121.393C60.9558 122.145 60.8036 123.224 60.0289 123.798L59.9321 123.866C59.1573 124.453 58.0782 124.303 57.4972 123.538Z" fill="#E7E5E4"/>
<path d="M51.7381 127.814L44.9453 118.934L47.8229 116.789L54.6157 125.669C55.1967 126.434 55.0445 127.513 54.2698 128.087L54.2006 128.142C53.4121 128.729 52.3191 128.579 51.7381 127.814Z" fill="#E7E5E4"/>
<path d="M45.186 123.647L39.832 116.584L42.7234 114.439L51.8127 126.379L48.4786 125.696C47.1643 125.423 45.9884 124.699 45.186 123.647Z" fill="#E7E5E4"/>
<path d="M56.692 125.272L56.5398 125.395C55.7927 125.956 54.6445 125.696 53.9804 124.835L47.3398 116.16L50.2174 114.016L56.858 122.691C57.5082 123.565 57.4391 124.712 56.692 125.272Z" fill="#E7E5E4"/>
<path d="M40.4386 117.118L27.8906 108.716L38.4602 100.096L51.603 108.798L40.4386 117.118Z" fill="#E7E5E4"/>
<path d="M58.8782 124.521C58.2556 124.521 57.6469 124.248 57.2457 123.715L54.9215 120.668C54.8247 120.532 54.8523 120.341 54.9769 120.245C55.1152 120.149 55.3089 120.177 55.4057 120.3L57.7438 123.346C58.2141 123.974 59.1134 124.097 59.7498 123.619L59.8466 123.551C60.151 123.319 60.3447 122.991 60.4 122.622C60.4553 122.253 60.3585 121.871 60.1233 121.57L57.4809 118.114C57.3841 117.977 57.4117 117.786 57.5362 117.69C57.6746 117.595 57.8683 117.622 57.9651 117.745L60.6075 121.201C60.9395 121.625 61.0779 122.158 60.9949 122.69C60.9257 123.223 60.6352 123.701 60.2063 124.015L60.1095 124.084C59.7359 124.398 59.3071 124.521 58.8782 124.521Z" fill="#292524"/>
<path d="M55.5073 126.039C54.8985 126.039 54.3037 125.766 53.9025 125.247L51.7028 122.364C51.6059 122.228 51.6336 122.036 51.7581 121.941C51.8964 121.845 52.0901 121.872 52.187 121.995L54.3867 124.878C54.857 125.479 55.7286 125.602 56.3373 125.151L56.4895 125.028C56.7939 124.81 56.9737 124.482 57.0291 124.113C57.0844 123.744 56.9876 123.389 56.7662 123.088L54.6357 120.315C54.5388 120.178 54.5665 119.987 54.691 119.891C54.8294 119.796 55.0231 119.823 55.1199 119.946L57.2504 122.719C57.5686 123.143 57.707 123.662 57.6378 124.181C57.5686 124.7 57.2919 125.165 56.863 125.493L56.7109 125.616C56.3512 125.902 55.9361 126.039 55.5073 126.039Z" fill="#292524"/>
<path d="M60.7641 121.093C60.1415 121.093 59.5328 120.82 59.1455 120.3L57.0149 117.514C56.9181 117.377 56.9458 117.186 57.0703 117.09C57.2086 116.994 57.4023 117.022 57.4991 117.145L59.6297 119.932C60.1 120.546 60.9993 120.669 61.6218 120.205L61.7325 120.123C62.0369 119.891 62.2306 119.563 62.2859 119.194C62.3412 118.825 62.2444 118.456 62.0092 118.156L56.0465 110.369C55.9497 110.232 55.9773 110.041 56.1019 109.945C56.2402 109.85 56.4339 109.877 56.5307 110L62.4934 117.787C62.8254 118.21 62.9638 118.743 62.8808 119.276C62.7978 119.809 62.5211 120.273 62.0922 120.601L61.9815 120.683C61.6218 120.956 61.193 121.093 60.7641 121.093Z" fill="#292524"/>
<path d="M53.1382 128.798C52.5157 128.798 51.8931 128.525 51.4919 127.992L50.1915 126.353L48.4068 125.984C47.0234 125.697 45.7921 124.932 44.9343 123.825L39.691 116.954C39.5942 116.817 39.6219 116.626 39.7464 116.53C39.8847 116.435 40.0784 116.462 40.1753 116.585L45.4185 123.443C46.1794 124.44 47.2862 125.123 48.5175 125.383L50.5235 125.792L51.9623 127.609C52.4465 128.238 53.3596 128.361 53.996 127.896L54.0651 127.842C54.3695 127.609 54.577 127.282 54.6324 126.899C54.6877 126.517 54.5908 126.148 54.3557 125.847L51.3536 121.926C51.2567 121.79 51.2844 121.598 51.4089 121.503C51.5472 121.407 51.7409 121.435 51.8378 121.557L54.8399 125.478C55.1719 125.915 55.3102 126.448 55.2411 126.981C55.1719 127.514 54.8814 127.992 54.4387 128.32L54.3695 128.374C54.0098 128.661 53.5671 128.798 53.1382 128.798Z" fill="#292524"/>
<path d="M60.4432 115.915C60.3464 115.915 60.2634 115.874 60.208 115.806C60.1112 115.669 60.125 115.492 60.2634 115.383C61.2041 114.659 61.4255 113.197 60.7337 112.295L59.3226 110.451C59.3088 110.437 59.2949 110.424 59.2811 110.41C57.7178 108.538 55.5319 107.241 53.1386 106.749L43.3299 104.741C43.1639 104.713 43.0532 104.549 43.0947 104.385C43.1224 104.221 43.2884 104.126 43.4544 104.153L53.2631 106.161C55.781 106.68 58.0775 108.047 59.7238 110C59.7515 110.014 59.7653 110.041 59.7791 110.055L61.2179 111.94C62.1033 113.101 61.8405 114.932 60.6369 115.861C60.5815 115.902 60.5124 115.915 60.4432 115.915Z" fill="#292524"/>
<path d="M39.7752 116.817C39.7198 116.817 39.6645 116.803 39.623 116.776L12.4381 100.628C7.33317 97.5956 5.61768 90.9973 8.59211 85.9153L12.3966 79.4399C12.4796 79.2896 12.6733 79.2486 12.8116 79.3306C12.9638 79.4125 13.0053 79.6038 12.9223 79.7404L9.11782 86.2022C6.29558 91.0109 7.92805 97.2404 12.7425 100.109L39.9412 116.257C40.0795 116.339 40.1349 116.53 40.0519 116.667C39.9827 116.762 39.8858 116.817 39.7752 116.817Z" fill="#292524"/>
<path d="M45.3923 105.151C45.3232 105.151 45.254 105.124 45.1986 105.083L19.0514 84.946C18.913 84.8504 18.8992 84.6592 18.996 84.5226C19.0929 84.3859 19.2866 84.3723 19.4249 84.4679L45.586 104.618C45.7244 104.714 45.7382 104.905 45.6414 105.042C45.5722 105.11 45.4753 105.151 45.3923 105.151Z" fill="#292524"/>
<path d="M196.406 191.694L199.505 181.994H211.403L204.956 185.724L203.905 198.155L196.406 191.694Z" fill="#D4D4D4"/>
<path d="M196.462 243.961L192.284 241.133L188.092 243.961L185.242 224.835H199.312L196.462 243.961Z" fill="#D4D4D4"/>
<path d="M156.536 243.784L152.358 240.956L148.166 243.784L145.316 224.658H159.386L156.536 243.784Z" fill="#D4D4D4"/>
<path d="M216.241 218.278L215.411 202.144H208.937C203.002 191.079 186.995 183.142 168.18 183.142C144.315 183.142 124.961 195.901 124.961 211.639C124.961 227.377 144.315 240.136 168.18 240.136C182.056 240.136 194.396 235.819 202.31 229.125L216.241 218.278Z" fill="#E7E5E4"/>
<path d="M168.184 240.437C144.181 240.437 124.66 227.513 124.66 211.639C124.66 195.764 144.181 182.841 168.184 182.841C186.501 182.841 202.908 190.464 209.12 201.844H215.415C215.581 201.844 215.705 201.967 215.719 202.13L216.549 218.264C216.549 218.36 216.508 218.456 216.438 218.51L202.493 229.357C194.193 236.393 181.686 240.437 168.184 240.437ZM168.184 183.442C144.527 183.442 125.269 196.092 125.269 211.639C125.269 227.185 144.513 239.835 168.184 239.835C181.534 239.835 193.902 235.846 202.106 228.893L215.94 218.128L215.124 202.445H208.94C208.829 202.445 208.719 202.376 208.677 202.281C202.632 191.01 186.362 183.442 168.184 183.442Z" fill="#292524"/>
<path d="M195.27 214.85C195.574 216.393 196.362 217.869 197.635 219.003C200.471 221.544 204.705 221.598 207.596 219.29L195.27 214.85Z" fill="white"/>
<path d="M215.414 218.715C217.63 218.715 219.426 215.063 219.426 210.559C219.426 206.055 217.63 202.403 215.414 202.403C213.199 202.403 211.402 206.055 211.402 210.559C211.402 215.063 213.199 218.715 215.414 218.715Z" fill="#D4D4D4"/>
<path d="M130.539 206.08C130.511 206.08 130.484 206.08 130.442 206.067C130.276 206.012 130.193 205.848 130.249 205.684C131.646 201.354 130.747 197.993 127.897 196.927C127.08 196.627 126.223 196.518 125.351 196.613C125.406 196.941 125.448 197.269 125.462 197.61C125.6 200.52 124.106 203.526 122.64 204.632C121.754 205.302 120.675 205.411 119.762 204.919C118.821 204.4 118.282 203.375 118.379 202.296C118.545 200.534 120.163 198.348 122.211 197.091C122.985 196.613 123.788 196.285 124.59 196.121C124.286 195.11 123.65 194.059 122.404 193.28C120.066 191.818 116.054 193.184 113.481 196.313C113.37 196.436 113.177 196.463 113.052 196.354C112.928 196.244 112.9 196.053 113.011 195.93C115.819 192.501 120.094 191.121 122.736 192.761C123.968 193.526 124.812 194.632 125.199 195.998C126.195 195.875 127.177 195.985 128.104 196.34C131.286 197.542 132.324 201.176 130.816 205.848C130.788 205.998 130.664 206.08 130.539 206.08ZM124.742 196.709C123.995 196.873 123.262 197.173 122.543 197.61C120.647 198.772 119.153 200.78 119.001 202.365C118.918 203.198 119.333 204.004 120.066 204.4C120.772 204.783 121.574 204.701 122.266 204.168C123.608 203.143 124.978 200.274 124.853 197.651C124.839 197.351 124.812 197.037 124.742 196.709Z" fill="#292524"/>
<path d="M187.243 249.7L183.051 246.886L178.873 249.7L176.023 230.574H190.093L187.243 249.7Z" fill="#E7E5E4"/>
<path d="M187.244 250C187.189 250 187.12 249.987 187.078 249.946L183.066 247.241L179.054 249.946C178.971 250 178.861 250.014 178.764 249.973C178.667 249.932 178.598 249.85 178.584 249.741L175.734 230.615C175.72 230.533 175.748 230.437 175.803 230.369C175.859 230.301 175.942 230.26 176.038 230.26H190.094C190.177 230.26 190.274 230.301 190.329 230.369C190.385 230.437 190.412 230.519 190.399 230.615L187.549 249.741C187.535 249.85 187.466 249.932 187.369 249.973C187.327 249.987 187.286 250 187.244 250ZM183.052 246.585C183.108 246.585 183.177 246.599 183.218 246.64L186.995 249.181L189.721 230.875H176.357L179.082 249.181L182.859 246.64C182.942 246.599 182.997 246.585 183.052 246.585Z" fill="#292524"/>
<path d="M147.31 249.7L143.132 246.886L138.94 249.7L136.09 230.574H150.16L147.31 249.7Z" fill="#E7E5E4"/>
<path d="M147.307 250C147.251 250 147.182 249.987 147.141 249.946L143.129 247.241L139.117 249.946C139.034 250 138.923 250.014 138.826 249.973C138.729 249.932 138.66 249.85 138.646 249.741L135.796 230.615C135.783 230.533 135.81 230.437 135.866 230.369C135.921 230.301 136.004 230.26 136.101 230.26H150.171C150.254 230.26 150.35 230.301 150.406 230.369C150.461 230.437 150.489 230.519 150.475 230.615L147.625 249.741C147.611 249.85 147.542 249.932 147.445 249.973C147.39 249.987 147.348 250 147.307 250ZM143.129 246.585C143.184 246.585 143.253 246.599 143.295 246.64L147.072 249.181L149.797 230.875H136.433L139.158 249.181L142.935 246.64C143.004 246.599 143.06 246.585 143.129 246.585Z" fill="#292524"/>
<path d="M186.167 200.465C186.139 200.465 186.112 200.465 186.07 200.451C185.904 200.396 185.821 200.232 185.876 200.068L188.989 190.355C189.031 190.232 189.141 190.15 189.28 190.15H201.164C201.302 190.15 201.426 190.246 201.454 190.369C201.496 190.506 201.426 190.642 201.316 190.71L195.021 194.358L194.634 198.921C194.62 199.085 194.468 199.221 194.302 199.194C194.136 199.18 194.011 199.03 194.025 198.866L194.426 194.153C194.44 194.057 194.495 193.962 194.578 193.921L200.043 190.751H189.501L186.457 200.246C186.416 200.383 186.291 200.465 186.167 200.465Z" fill="#292524"/>
<path d="M171.01 193.962C180.453 193.962 188.109 186.39 188.109 177.049C188.109 167.709 180.453 160.137 171.01 160.137C161.566 160.137 153.91 167.709 153.91 177.049C153.91 186.39 161.566 193.962 171.01 193.962Z" fill="#292524"/>
<path d="M171.642 193.894C181.086 193.894 188.742 186.322 188.742 176.981C188.742 167.64 181.086 160.068 171.642 160.068C162.199 160.068 154.543 167.64 154.543 176.981C154.543 186.322 162.199 193.894 171.642 193.894Z" fill="#292524"/>
<path d="M168.451 194.249C177.895 194.249 185.551 186.677 185.551 177.336C185.551 167.996 177.895 160.424 168.451 160.424C159.007 160.424 151.352 167.996 151.352 177.336C151.352 186.677 159.007 194.249 168.451 194.249Z" fill="white"/>
<path d="M168.476 194.549C166.76 194.549 165.031 194.289 163.343 193.784C158.902 192.431 155.25 189.453 153.078 185.396C148.582 177.008 151.833 166.584 160.314 162.131C164.422 159.972 169.14 159.535 173.581 160.887C178.022 162.24 181.674 165.218 183.846 169.275C188.342 177.663 185.091 188.101 176.611 192.541C174.065 193.879 171.284 194.549 168.476 194.549ZM168.434 160.724C165.723 160.724 163.053 161.379 160.59 162.663C152.4 166.953 149.274 177.021 153.604 185.109C155.707 189.03 159.221 191.899 163.509 193.21C167.798 194.508 172.35 194.084 176.306 192.008C184.496 187.718 187.623 177.65 183.293 169.562C181.19 165.642 177.676 162.773 173.387 161.461C171.755 160.969 170.095 160.724 168.434 160.724Z" fill="#292524"/>
<path d="M169.361 188.1L168.822 185.969C167.314 186.325 165.751 186.324 164.782 186.065V183.251C165.847 183.51 167.286 183.606 168.739 183.196C170.012 182.841 170.759 182.103 170.524 181.202C170.302 180.341 169.458 180.013 167.66 179.917C165.059 179.781 163.15 179.111 162.596 176.939C162.084 174.958 163.081 173.018 165.349 171.871L164.81 169.74L166.996 169.125L167.508 171.106C169.016 170.751 170.108 170.792 170.939 170.942V173.661C170.288 173.579 169.14 173.346 167.535 173.797C166.083 174.207 165.778 174.972 165.93 175.6C166.124 176.338 167.023 176.598 169.099 176.775C171.99 176.967 173.387 177.909 173.899 179.931C174.411 181.926 173.443 184.029 170.994 185.204L171.575 187.499L169.361 188.1Z" fill="#292524"/>
<path d="M185.521 189.152H149.855V198.278H185.521V189.152Z" fill="#E7E5E4"/>
<path d="M186.505 189.454H149.636C149.47 189.454 149.332 189.317 149.332 189.153C149.332 188.989 149.47 188.853 149.636 188.853H186.505C186.671 188.853 186.81 188.989 186.81 189.153C186.81 189.317 186.671 189.454 186.505 189.454Z" fill="#292524"/>
</svg>
