<svg width="311" height="216" viewBox="0 0 311 216" fill="none" xmlns="http://www.w3.org/2000/svg">
<g clip-path="url(#clip0_10393_13032)">
<path d="M38.3338 3.48267L68.7005 42.4142C68.7005 42.4142 94.3786 52.3045 107.304 57.2725C111.866 59.0239 115.84 61.9887 118.813 65.8349C124.884 73.7105 127.89 84.6997 149.087 97.3488C163.326 105.842 150.999 117.003 134.019 109.162C121.358 103.313 114.412 92.5295 106.141 92.3807C101.498 92.3006 68.3319 90.6408 62.618 70.4825L46.6973 79.4112L42.0433 115.55C42.0433 115.55 23.8762 93.8574 -2.73497 71.6958L-2.76953 3.48267H38.3338Z" fill="white"/>
<path d="M145.078 112.058C141.783 112.058 137.947 111.257 133.903 109.391C128.201 106.758 123.651 103.129 119.63 99.924C114.792 96.0549 110.599 92.7124 106.129 92.6437C104.228 92.6094 95.2654 91.7508 85.9918 88.145C74.6561 83.7264 67.3985 76.9154 64.9908 68.4331C64.9563 68.2957 65.0369 68.1584 65.1636 68.124C65.3019 68.0897 65.4401 68.1698 65.4747 68.2957C68.4584 78.8156 78.3771 84.6307 86.1646 87.6757C95.3576 91.2586 104.251 92.1057 106.129 92.14C110.771 92.2202 115.022 95.6085 119.941 99.5348C123.939 102.717 128.454 106.334 134.111 108.944C143.834 113.432 152.266 111.68 154.513 107.491C156.183 104.366 154.11 100.657 148.949 97.5774C132.498 87.7672 126.957 78.9072 122.499 71.7986C121.208 69.7266 119.976 67.7806 118.605 66.0063C115.656 62.1945 111.716 59.2525 107.2 57.524C94.4244 52.6132 68.85 42.7687 68.5966 42.6657C68.5505 42.6543 68.516 42.6199 68.4929 42.5856L38.1262 3.64261C38.0456 3.52814 38.0571 3.37932 38.1723 3.28775C38.2875 3.20762 38.4373 3.21907 38.5294 3.33354L68.85 42.2078C70.3016 42.7687 94.9313 52.2584 107.384 57.0433C111.992 58.8061 116.001 61.8052 119.008 65.6973C120.391 67.4945 121.623 69.4519 122.925 71.5353C127.349 78.5981 132.867 87.4009 149.214 97.1538C154.628 100.382 156.771 104.343 154.962 107.731C153.568 110.329 149.916 112.058 145.078 112.058Z" fill="#292524"/>
<path d="M42.0318 115.801C41.9627 115.801 41.882 115.767 41.836 115.709C41.6516 115.492 23.3809 93.7883 -2.90771 71.89C-3.01139 71.7985 -3.03443 71.6382 -2.94227 71.5352C-2.85011 71.4322 -2.68883 71.4093 -2.58515 71.5009C23.7496 93.4335 42.0433 115.171 42.2276 115.389C42.3198 115.492 42.3083 115.652 42.1931 115.744C42.147 115.79 42.0894 115.801 42.0318 115.801Z" fill="#292524"/>
<path d="M39.2872 149.627C39.2872 149.627 31.707 103.45 40.7157 91.911C49.7128 80.3837 96.3572 128.026 96.3572 128.026L39.2872 149.627Z" fill="white"/>
<path d="M39.2877 149.879C39.2416 149.879 39.1955 149.868 39.1609 149.845C39.0918 149.81 39.0457 149.742 39.0342 149.662C39.0112 149.547 37.1334 137.951 36.3731 125.108C35.3478 107.811 36.7417 96.593 40.5203 91.7623C41.4304 90.6062 42.7321 89.9651 44.4025 89.8736C50.3008 89.5416 60.8876 95.8375 75.8291 108.59C86.9344 118.056 96.4384 127.752 96.542 127.855C96.5996 127.912 96.6227 128.004 96.6112 128.084C96.5881 128.164 96.5305 128.233 96.4499 128.267L39.3913 149.868C39.3453 149.868 39.3222 149.879 39.2877 149.879ZM44.8403 90.3658C44.7021 90.3658 44.5638 90.3658 44.4256 90.3772C42.9049 90.4574 41.7299 91.0297 40.912 92.0714C32.4563 102.9 38.8499 145.243 39.4835 149.284L95.8969 127.935C92.4985 124.49 58.3302 90.3658 44.8403 90.3658Z" fill="#292524"/>
<path d="M87.8681 166.557L79.1936 170.117C77.385 170.861 76.5325 172.91 77.2813 174.696L90.7481 207.206C92.4646 211.361 97.2569 213.342 101.439 211.625C105.609 209.919 107.602 205.191 105.897 201.059L92.4877 168.469C91.7389 166.672 89.6653 165.813 87.8681 166.557Z" fill="white"/>
<path d="M98.3288 212.483C95.011 212.483 91.8546 210.525 90.5067 207.297L77.0399 174.788C76.6482 173.86 76.6482 172.842 77.0399 171.914C77.4315 170.987 78.1573 170.266 79.0904 169.877L87.765 166.317C89.7003 165.527 91.9122 166.443 92.707 168.354L106.116 200.944C107.867 205.203 105.805 210.09 101.52 211.842C100.483 212.277 99.4002 212.483 98.3288 212.483ZM89.205 166.546C88.7903 166.546 88.364 166.626 87.9608 166.798L79.2863 170.358C78.4799 170.69 77.8463 171.319 77.5122 172.12C77.1781 172.922 77.1781 173.803 77.5122 174.604L90.9791 207.114C92.6379 211.132 97.292 213.055 101.336 211.395C105.368 209.747 107.303 205.157 105.656 201.15L92.2463 168.56C91.7278 167.301 90.4952 166.546 89.205 166.546Z" fill="#292524"/>
<path d="M58.6782 35.6716L9.10763 76.9956C4.66091 80.693 4.06187 87.298 7.75979 91.6707L94.1137 193.504C97.8116 197.865 104.482 198.415 108.917 194.706L158.487 153.382C162.934 149.685 163.533 143.08 159.835 138.707L73.4814 36.8736C69.7834 32.5122 63.1134 31.9628 58.6782 35.6716Z" fill="white"/>
<path d="M102.12 197.419C99.0668 197.419 96.0371 196.137 93.9289 193.653L7.57502 91.8194C5.75486 89.6674 4.87934 86.9315 5.13278 84.0927C5.38622 81.2309 6.73406 78.6324 8.95742 76.7894L58.528 35.4654C63.0899 31.665 69.8867 32.2145 73.6883 36.7017L160.042 138.535C161.862 140.687 162.738 143.423 162.484 146.262C162.231 149.124 160.883 151.722 158.66 153.565L109.089 194.889C107.062 196.583 104.573 197.419 102.12 197.419ZM58.6777 35.6715L58.839 35.8661L9.26846 77.1786C7.1603 78.9415 5.87006 81.414 5.62814 84.1385C5.39774 86.8285 6.21566 89.4499 7.95518 91.4875L94.3091 193.321C97.9264 197.591 104.412 198.117 108.755 194.5L158.326 153.176C160.434 151.413 161.724 148.94 161.966 146.216C162.196 143.526 161.379 140.905 159.639 138.867L73.2851 37.0337C69.6678 32.7639 63.182 32.2374 58.839 35.8546L58.6777 35.6715Z" fill="#292524"/>
<path d="M60.579 40.4564L13.5428 79.6626C10.179 82.4672 9.71819 87.4695 12.5291 90.7777L96.0836 189.303C98.8945 192.611 103.94 193.023 107.304 190.219L154.329 151.012C157.693 148.208 158.153 143.205 155.342 139.897L71.7995 41.3721C68.9886 38.0639 63.9428 37.6518 60.579 40.4564Z" fill="#F5F5F4"/>
<path d="M114.146 176.173C114.077 176.173 114.008 176.138 113.95 176.081C113.858 175.978 113.869 175.818 113.985 175.726L136.84 156.449C136.944 156.358 137.105 156.369 137.197 156.484C137.29 156.587 137.278 156.747 137.163 156.839L114.307 176.116C114.273 176.15 114.204 176.173 114.146 176.173Z" fill="#292524"/>
<path d="M36.283 81.208L58.2401 62.9614C61.4542 60.2942 66.2465 60.7063 68.9422 63.9C71.6378 67.0938 71.2116 71.8443 67.9975 74.5115L46.0289 92.7581C42.8148 95.4253 38.0225 95.0132 35.3268 91.8195C32.6427 88.6257 33.0689 83.8752 36.283 81.208Z" fill="#E7E5E4"/>
<path d="M85.0212 144.831C100.723 144.831 113.453 132.208 113.453 116.637C113.453 101.066 100.723 88.4426 85.0212 88.4426C69.319 88.4426 56.5898 101.066 56.5898 116.637C56.5898 132.208 69.319 144.831 85.0212 144.831Z" fill="#65A30D"/>
<path d="M86.2656 105.098L88.0282 103.633L96.6797 113.867L94.9171 115.332L86.2656 105.098Z" fill="white"/>
<path d="M84.7801 104.571L85.3906 105.304L88.3858 102.809L87.7753 102.087L88.3974 101.572L87.7062 100.76L83.4668 104.285L84.158 105.098L84.7801 104.571Z" fill="white"/>
<path d="M94.7109 115.996L97.3721 113.786L97.7868 114.279L95.1257 116.488L94.7109 115.996Z" fill="white"/>
<path d="M78.9258 111.199L80.6883 109.734L89.3399 119.967L87.5658 121.433L78.9258 111.199Z" fill="white"/>
<path d="M77.4402 110.672L78.0508 111.405L81.046 108.921L80.4239 108.188L81.0575 107.673L80.3663 106.861L76.127 110.386L76.8182 111.199L77.4402 110.672Z" fill="white"/>
<path d="M87.3711 122.097L90.0207 119.887L90.4469 120.38L87.7858 122.589L87.3711 122.097Z" fill="white"/>
<path d="M71.5898 117.3L73.3524 115.835L81.9924 126.069L80.2298 127.534L71.5898 117.3Z" fill="white"/>
<path d="M70.1043 116.774L70.7149 117.507L73.6985 115.023L73.088 114.29L73.7216 113.775L73.0304 112.962L68.791 116.488L69.4707 117.301L70.1043 116.774Z" fill="white"/>
<path d="M80.0352 128.198L82.6848 125.989L83.0995 126.481L80.4499 128.691L80.0352 128.198Z" fill="white"/>
<path d="M78.9963 130.522L99.8591 113.18L100.919 114.439L80.0562 131.793L78.9963 130.522Z" fill="white"/>
<path d="M66.4395 115.664L87.3022 98.3098L88.3735 99.5804L67.5108 116.923L66.4395 115.664Z" fill="white"/>
<path d="M94.7091 128.106L101.54 115.171L80.6777 132.513L94.7091 128.106Z" fill="white"/>
<path d="M119.71 143.709C126.874 143.709 132.681 137.949 132.681 130.843C132.681 123.737 126.874 117.976 119.71 117.976C112.546 117.976 106.738 123.737 106.738 130.843C106.738 137.949 112.546 143.709 119.71 143.709Z" fill="white"/>
<path d="M119.721 143.95C115.943 143.95 112.187 142.358 109.572 139.268C107.303 136.578 106.22 133.178 106.531 129.687C106.842 126.195 108.501 123.036 111.208 120.781C116.795 116.133 125.159 116.866 129.836 122.406C132.105 125.096 133.188 128.496 132.877 131.987C132.566 135.479 130.907 138.638 128.2 140.893C125.735 142.954 122.716 143.95 119.721 143.95ZM109.964 138.947C114.468 144.282 122.509 144.98 127.877 140.515C130.481 138.352 132.082 135.307 132.382 131.953C132.681 128.599 131.644 125.325 129.456 122.75C124.951 117.415 116.91 116.717 111.542 121.181C108.939 123.345 107.337 126.39 107.038 129.744C106.75 133.098 107.787 136.36 109.964 138.947Z" fill="#65A30D"/>
<path d="M119.722 141.202C116.738 141.202 113.766 139.943 111.704 137.493C109.907 135.375 109.054 132.685 109.307 129.927C109.549 127.168 110.863 124.672 113.005 122.887C117.418 119.212 124.03 119.796 127.728 124.169C129.525 126.286 130.378 128.976 130.124 131.735C129.882 134.494 128.569 136.989 126.426 138.775C124.468 140.412 122.095 141.202 119.722 141.202ZM112.095 137.173C115.62 141.339 121.899 141.889 126.104 138.397C128.143 136.703 129.387 134.322 129.617 131.701C129.848 129.08 129.041 126.515 127.336 124.501C123.811 120.334 117.533 119.784 113.328 123.276C111.289 124.97 110.045 127.351 109.814 129.972C109.572 132.605 110.39 135.158 112.095 137.173Z" fill="#65A30D"/>
<path d="M115.044 124.295L116.323 125.806C117.21 125.096 118.339 124.615 119.18 124.547L119.664 125.851C118.823 125.943 117.798 126.309 116.957 127.008C115.885 127.901 115.689 129.102 116.404 129.961C117.095 130.785 118.109 130.797 119.606 130.327C121.645 129.652 123.177 129.549 124.272 130.842C125.32 132.079 125.228 133.761 124.03 135.135L125.309 136.646L124.375 137.424L123.154 135.982C122.221 136.703 121.403 136.978 120.758 137.081L120.297 135.788C120.77 135.707 121.657 135.524 122.624 134.723C123.788 133.761 123.638 132.708 123.131 132.113C122.475 131.335 121.588 131.415 119.825 131.964C117.751 132.628 116.311 132.502 115.182 131.174C114.192 129.995 114.077 128.21 115.413 126.664L114.1 125.107L115.044 124.295Z" fill="#65A30D"/>
<path d="M77.2628 159.472C73.1732 157.514 68.2541 159.22 66.2842 163.284L59.4644 177.318C57.4829 181.381 59.2109 186.269 63.3005 188.227C67.3901 190.184 72.3092 188.479 74.2791 184.415L81.0989 170.381C83.0804 166.317 81.3639 161.429 77.2628 159.472Z" fill="white"/>
<path d="M66.8592 189.28C65.6266 189.28 64.3709 189.017 63.1844 188.444C61.1453 187.471 59.6016 185.754 58.8528 183.636C58.104 181.519 58.2423 179.229 59.2215 177.215L66.0413 163.18C66.9629 161.292 68.5412 159.826 70.4996 159.037C70.6263 158.979 70.776 159.048 70.8336 159.174C70.8912 159.3 70.8221 159.449 70.6954 159.506C68.8522 160.25 67.3661 161.624 66.5136 163.398L59.6938 177.432C58.7722 179.332 58.6455 181.484 59.3482 183.476C60.0509 185.468 61.4909 187.082 63.4148 187.998C67.3776 189.898 72.1584 188.238 74.0592 184.312L80.4874 171.09C80.545 170.965 80.7063 170.907 80.8215 170.976C80.9482 171.033 81.0058 171.182 80.9367 171.308L74.5085 184.529C73.057 187.528 70.0157 189.28 66.8592 189.28Z" fill="#292524"/>
<path d="M68.6212 139.588C64.5316 137.631 59.6126 139.337 57.6427 143.4L47.7124 163.822C45.731 167.886 47.459 172.773 51.5486 174.731C55.6382 176.688 60.5572 174.983 62.5271 170.919L72.4574 150.497C74.4388 146.434 72.7223 141.546 68.6212 139.588Z" fill="white"/>
<path d="M55.119 175.796C53.8864 175.796 52.6307 175.532 51.4441 174.96C49.4051 173.987 47.8614 172.27 47.1126 170.152C46.3638 168.035 46.5021 165.745 47.4813 163.73L57.4115 143.297C57.4691 143.171 57.6304 143.114 57.7456 143.183C57.8723 143.24 57.9299 143.389 57.8608 143.515L47.9421 163.948C47.0205 165.848 46.8937 168 47.5965 169.992C48.2992 171.984 49.7392 173.598 51.663 174.514C55.6259 176.414 60.4067 174.754 62.3075 170.828L68.8508 157.366C68.9084 157.24 69.0697 157.183 69.1849 157.251C69.3116 157.309 69.3692 157.457 69.3001 157.583L62.7568 171.045C61.3052 174.044 58.2755 175.796 55.119 175.796Z" fill="#292524"/>
<path d="M58.0822 123.837C53.9926 121.879 49.0735 123.585 47.1036 127.649L37.1734 148.07C35.1919 152.134 36.9199 157.022 41.0095 158.979C45.0991 160.937 50.0182 159.231 51.9881 155.168L61.9183 134.746C63.8998 130.682 62.1718 125.794 58.0822 123.837Z" fill="white"/>
<path d="M44.5682 160.044C43.3356 160.044 42.0799 159.781 40.8933 159.208C38.8543 158.235 37.3106 156.518 36.5618 154.401C35.813 152.283 35.9513 149.993 36.9305 147.979L45.6511 130.018C45.7087 129.892 45.87 129.835 45.9852 129.904C46.1119 129.961 46.1695 130.11 46.1004 130.236L37.3797 148.196C36.4581 150.096 36.3314 152.248 37.0341 154.24C37.7369 156.232 39.1769 157.846 41.1007 158.762C45.0636 160.662 49.8444 159.002 51.7452 155.076L58.1618 141.866C58.2194 141.74 58.3807 141.683 58.4959 141.752C58.6226 141.809 58.6802 141.958 58.6111 142.083L52.1945 155.293C50.766 158.293 47.7247 160.044 44.5682 160.044Z" fill="#292524"/>
<path d="M228.412 181.897C250.012 169.282 286.472 173.54 301.955 176.15C307.554 177.089 311.713 182.034 311.966 188.021L313.303 212.403C291.53 212.403 235.232 212.426 220.578 212.426L222.133 192.806C222.272 188.284 224.645 184.094 228.412 181.897Z" fill="#65A30D"/>
<path d="M231.973 188.57C234.957 144.648 237.745 99.9812 237.745 99.9812C226.789 75.6905 241.108 74.3626 241.108 74.3626C244.507 60.6719 254.264 64.8272 254.264 64.8272C264.505 51.8004 273.56 64.7356 273.56 64.7356C271.659 43.5242 279.942 15.3071 292.418 63.568C299.042 89.2095 306.703 145.964 306.703 186.143C306.127 189.761 303.028 192.062 301.128 193.229C294.077 197.556 281.209 202.707 268.353 202.719C254.126 202.73 244.922 199.456 237.364 196.022C235.256 195.061 231.708 192.439 231.973 188.57Z" fill="white"/>
<path d="M232.572 180.008H232.56C232.422 179.996 232.318 179.882 232.318 179.744C234 149.558 236.569 102.03 236.673 100.038C232.249 90.2053 231.362 82.8906 234.058 78.3118C236.028 74.9463 239.276 74.2595 240.083 74.145C241.281 69.4288 243.366 66.3152 246.292 64.8729C249.472 63.2932 252.582 64.2433 253.365 64.5295C256.487 60.6146 259.817 58.6686 263.284 58.7716C267.788 58.8975 271.164 62.3889 272.419 63.9113C271.982 58.0962 272.339 51.6744 273.387 46.5575C274.597 40.6737 276.544 37.2167 278.871 36.8161C283.099 36.0949 287.81 45.3327 292.51 63.5221C298.42 86.3591 305.275 128.255 306.841 177.386C306.841 177.524 306.738 177.638 306.599 177.65C306.461 177.661 306.346 177.547 306.334 177.409C304.779 128.324 297.925 86.4621 292.027 63.6595C285.875 39.861 281.198 36.942 278.963 37.3312C274.366 38.121 271.947 52.9679 273.007 64.7355C273.019 64.85 272.949 64.953 272.846 64.9988C272.742 65.0331 272.615 64.9988 272.546 64.9072C272.512 64.85 268.652 59.447 263.273 59.2981C259.943 59.2066 256.706 61.1297 253.653 65.0102C253.584 65.1018 253.458 65.1362 253.354 65.0904C253.319 65.0789 249.909 63.6709 246.511 65.3537C243.7 66.7502 241.696 69.8066 240.532 74.4655C240.509 74.5686 240.417 74.6487 240.313 74.6601C240.279 74.6601 236.569 75.0608 234.484 78.6094C231.915 82.9822 232.848 90.3541 237.157 99.9238C237.168 99.9582 237.18 100.004 237.18 100.038C237.157 100.531 234.53 149.123 232.825 179.813C232.814 179.905 232.699 180.008 232.572 180.008Z" fill="#292524"/>
<path d="M255.439 156.793L186.411 141.213C183.831 140.63 182.379 138.397 182.955 135.902L212.47 7.75192C213.149 4.79857 216.594 2.70376 219.646 3.39058L288.686 18.9701C291.266 19.5539 292.718 21.786 292.142 24.2815L262.628 152.443C261.948 155.396 258.492 157.491 255.439 156.793Z" fill="white"/>
<path d="M256.66 157.182C256.234 157.182 255.808 157.136 255.393 157.045L186.365 141.465C185.029 141.168 183.935 140.424 183.266 139.371C182.621 138.352 182.425 137.104 182.713 135.845L212.228 7.69469C212.942 4.59253 216.513 2.41758 219.716 3.13875L288.744 18.7182C290.08 19.0159 291.174 19.7599 291.842 20.813C292.488 21.8318 292.683 23.0796 292.395 24.3387L262.881 152.5C262.248 155.19 259.471 157.182 256.66 157.182ZM218.472 3.50505C215.891 3.50505 213.276 5.35948 212.712 7.79771L183.197 135.959C182.944 137.081 183.117 138.191 183.681 139.096C184.269 140.034 185.259 140.698 186.457 140.962L255.485 156.541C258.377 157.194 261.718 155.167 262.363 152.374L291.877 24.2128C292.13 23.091 291.958 21.9806 291.393 21.0763C290.806 20.1377 289.815 19.4737 288.617 19.2105L219.601 3.63097C219.232 3.55084 218.852 3.50505 218.472 3.50505Z" fill="#292524"/>
<path d="M258.642 146.937L286.129 27.1548C286.636 24.9684 285.357 23.0224 283.111 22.5073L275.53 20.8017L271.775 26.0216C270.807 27.3723 269.01 28.082 267.466 27.7272L236.72 20.7902C234.957 20.3896 233.701 19.1533 233.425 17.5164L232.572 12.6056C232.411 11.6555 231.685 10.9 230.741 10.6825C230.741 10.6825 225.453 9.45762 221.559 8.5533C219.451 8.06108 217.343 9.37749 216.859 11.4723L189.038 132.491C188.531 134.677 189.81 136.623 192.057 137.138L252.387 150.749C255.036 151.356 258.043 149.524 258.642 146.937Z" fill="#F5F5F4"/>
<path d="M217.068 114.198L241.075 119.613C245.096 120.517 249.093 118.022 250.003 114.027L250.441 112.138C251.363 108.143 248.84 104.171 244.819 103.255L220.812 97.8404C216.791 96.9361 212.794 99.4316 211.884 103.427L211.446 105.315C210.524 109.322 213.047 113.294 217.068 114.198Z" fill="#E7E5E4"/>
<path d="M244.879 77.1498C253.926 75.8407 260.211 67.6181 258.917 58.7842C257.622 49.9503 249.238 43.8503 240.191 45.1594C231.143 46.4685 224.858 54.6911 226.153 63.525C227.447 72.3589 235.831 78.4589 244.879 77.1498Z" fill="#FCD34D"/>
<path d="M239.196 70.6309C239.139 70.6309 239.081 70.6195 239.024 70.608C238.782 70.5508 238.574 70.3791 238.482 70.1501L233.598 58.0162C233.436 57.627 233.632 57.192 234.024 57.0318C234.416 56.8715 234.853 57.0661 235.015 57.4553L239.484 68.559L252.513 56.5853C252.825 56.2992 253.308 56.3221 253.596 56.6311C253.884 56.9402 253.861 57.421 253.55 57.7072L239.715 70.4249C239.577 70.5508 239.381 70.6309 239.196 70.6309Z" fill="white"/>
<path d="M285.693 134.38C278.723 125.142 270.924 111.532 255.706 103.427C251.524 101.206 245.776 100.497 244.025 104.869C242.481 108.704 244.969 114.279 248.137 117.965C255.89 126.985 255.165 138.146 255.89 142.736C256.616 147.327 256.95 152.054 258.851 156.301C260.74 160.548 265.59 164.429 270.267 164.52L285.693 134.38Z" fill="white"/>
<path d="M269.333 164.646C264.091 164.554 260.278 160.147 258.608 156.404C257.076 152.97 256.546 149.192 256.039 145.529C255.912 144.625 255.785 143.686 255.636 142.77C255.497 141.912 255.417 140.836 255.313 139.577C254.898 134.277 254.196 125.417 247.94 118.125L247.825 117.999C247.733 117.896 247.744 117.736 247.86 117.644C247.963 117.552 248.125 117.564 248.217 117.678L248.32 117.804C254.691 125.222 255.394 134.185 255.808 139.542C255.901 140.779 255.993 141.855 256.12 142.69C256.269 143.606 256.396 144.545 256.523 145.46C257.03 149.089 257.56 152.832 259.057 156.198C260.67 159.804 264.322 164.051 269.321 164.142C269.46 164.142 269.575 164.257 269.575 164.394C269.586 164.531 269.471 164.646 269.333 164.646Z" fill="#292524"/>
<path d="M285.461 134.334C285.38 134.334 285.311 134.3 285.253 134.231C284.067 132.663 282.88 130.991 281.613 129.217C275.623 120.804 268.169 110.341 255.578 103.644C252.053 101.767 247.468 100.989 245.175 103.473C245.083 103.576 244.922 103.587 244.818 103.484C244.714 103.393 244.703 103.232 244.807 103.129C247.283 100.439 252.133 101.229 255.831 103.198C268.526 109.952 276.014 120.472 282.039 128.931C283.295 130.705 284.493 132.365 285.668 133.933C285.749 134.048 285.726 134.208 285.622 134.288C285.564 134.323 285.507 134.334 285.461 134.334Z" fill="#292524"/>
<path d="M157.084 75.8393C145.598 75.8393 134.931 70.8026 127.811 61.9998C122.708 55.6925 119.909 48.2175 119.713 40.3763C119.713 40.2389 119.817 40.1244 119.966 40.113C120.116 40.1015 120.22 40.216 120.231 40.3648C120.416 48.0916 123.18 55.4635 128.215 61.6793C135.242 70.3562 145.76 75.3242 157.095 75.3242C172.163 75.3242 185.941 66.1322 191.379 52.4529C191.425 52.327 191.575 52.2583 191.713 52.3156C191.84 52.3614 191.909 52.5102 191.851 52.6475C189.167 59.4013 184.513 65.1706 178.384 69.3374C172.106 73.5957 164.745 75.8393 157.084 75.8393Z" fill="#292524"/>
<path d="M193.072 57.3406C192.956 57.3406 192.853 57.2605 192.83 57.146L191.724 52.4756L187.024 54.3071C186.897 54.3529 186.747 54.2957 186.689 54.1583C186.643 54.0324 186.701 53.8836 186.839 53.8264L191.816 51.8918C191.885 51.8689 191.966 51.8689 192.023 51.9033C192.092 51.9376 192.138 51.9948 192.15 52.0635L193.325 57.0087C193.36 57.146 193.267 57.2834 193.141 57.3177C193.106 57.3406 193.083 57.3406 193.072 57.3406Z" fill="#292524"/>
<path d="M193.705 34.5378C193.579 34.5378 193.475 34.4462 193.452 34.3203C190.837 16.8864 175.204 3.73365 157.083 3.73365C143.213 3.73365 130.633 11.1972 124.274 23.2051C124.205 23.3311 124.055 23.3768 123.929 23.3082C123.802 23.2395 123.756 23.0907 123.825 22.9648C130.276 10.7965 143.017 3.22998 157.083 3.22998C166.092 3.22998 174.778 6.40082 181.563 12.1587C188.279 17.8594 192.68 25.7006 193.959 34.2516C193.982 34.3889 193.878 34.5149 193.74 34.5378C193.728 34.5378 193.717 34.5378 193.705 34.5378Z" fill="#292524"/>
<path d="M123.987 23.4914C123.952 23.4914 123.906 23.4799 123.872 23.4685C123.802 23.4341 123.756 23.3769 123.745 23.2968L122.57 18.3516C122.535 18.2143 122.627 18.0769 122.754 18.0426C122.892 18.0082 123.031 18.0998 123.065 18.2257L124.171 22.8847L128.975 20.9387C129.102 20.8814 129.251 20.9501 129.309 21.076C129.367 21.2019 129.298 21.3508 129.171 21.408L124.09 23.4685C124.056 23.4914 124.021 23.4914 123.987 23.4914Z" fill="#292524"/>
<path d="M176.491 19.8521L165.098 24.7629C160.72 26.6516 155.835 27.0523 151.227 25.8961C146.458 24.6942 141.389 25.1749 136.885 27.2354L126.828 31.86L131.828 53.8499L141.885 49.2253C146.378 47.1533 151.446 46.684 156.227 47.886C160.835 49.0421 165.72 48.6415 170.097 46.7527L181.491 41.8419L176.491 19.8521Z" fill="white"/>
<path d="M131.84 54.1133C131.806 54.1133 131.76 54.1019 131.725 54.0904C131.656 54.0561 131.61 53.9989 131.587 53.9187L126.587 31.9289C126.564 31.8144 126.622 31.6885 126.725 31.6427L136.782 27.0181C141.321 24.9347 146.471 24.4539 151.286 25.6559C155.813 26.7891 160.686 26.3885 164.995 24.5341L176.388 19.6233C176.457 19.5889 176.538 19.6004 176.607 19.6347C176.676 19.6691 176.722 19.7263 176.745 19.8064L181.745 41.7963C181.768 41.9107 181.71 42.0367 181.595 42.0825L170.202 46.9932C165.79 48.8935 160.801 49.3056 156.17 48.138C151.47 46.9589 146.436 47.4282 142.001 49.4658L131.944 54.0904C131.921 54.1019 131.875 54.1133 131.84 54.1133ZM127.129 32.009L132.013 53.4952L141.793 48.9965C146.332 46.9131 151.482 46.4323 156.297 47.6343C160.825 48.7675 165.697 48.3669 170.006 46.5125L181.203 41.6933L176.319 20.2071L165.214 25.0034C160.801 26.9036 155.813 27.3157 151.182 26.1481C146.482 24.9691 141.448 25.4384 137.013 27.476L127.129 32.009Z" fill="#292524"/>
<path d="M141.563 47.7255C146.056 45.6535 151.124 45.1842 155.905 46.3861C160.513 47.5423 165.398 47.1417 169.775 45.2529L179.279 41.1548L174.959 22.187L165.455 26.2851C161.078 28.1738 156.193 28.5745 151.585 27.4183C146.816 26.2164 141.747 26.6972 137.243 28.7576L129.018 32.5352L133.338 51.503L141.563 47.7255Z" fill="#E7E5E4"/>
<path d="M156.22 43.8274C158.927 43.3925 160.631 40.0245 160.026 36.3048C159.421 32.5851 156.736 29.9222 154.029 30.3571C151.321 30.792 149.618 34.16 150.223 37.8797C150.828 41.5994 153.513 44.2623 156.22 43.8274Z" fill="white"/>
<path d="M169.597 37.4914C170.85 36.9623 171.442 35.5429 170.919 34.3211C170.397 33.0992 168.957 32.5377 167.704 33.0668C166.451 33.596 165.859 35.0154 166.382 36.2372C166.904 37.459 168.344 38.0206 169.597 37.4914Z" fill="white"/>
<path d="M141.907 40.9851C143.161 40.4559 143.753 39.0364 143.23 37.8145C142.708 36.5925 141.268 36.0309 140.015 36.56C138.762 37.0891 138.17 38.5087 138.692 39.7306C139.215 40.9526 140.654 41.5142 141.907 40.9851Z" fill="white"/>
<path d="M183.508 24.9453L172.115 29.8561C167.738 31.7449 162.853 32.1455 158.245 30.9894C153.476 29.7874 148.407 30.2682 143.903 32.3287L133.846 36.9533L138.845 58.9432L148.902 54.3185C153.395 52.2466 158.464 51.7773 163.245 52.9792C167.853 54.1354 172.737 53.7347 177.115 51.846L188.508 46.9352L183.508 24.9453Z" fill="white"/>
<path d="M138.858 59.2066C138.823 59.2066 138.777 59.1952 138.743 59.1837C138.673 59.1494 138.627 59.0921 138.604 59.012L133.605 37.0222C133.582 36.9077 133.639 36.7818 133.743 36.736L143.8 32.1114C148.339 30.028 153.488 29.5472 158.304 30.7491C162.831 31.8824 167.704 31.4818 172.012 29.6273L183.406 24.7165C183.475 24.6822 183.555 24.6936 183.624 24.728C183.694 24.7623 183.74 24.8196 183.763 24.8997L188.762 46.8895C188.785 47.004 188.728 47.1299 188.613 47.1757L177.219 52.0865C172.807 53.9867 167.819 54.3988 163.188 53.2312C158.488 52.0522 153.454 52.5215 149.018 54.5591L138.961 59.1837C138.927 59.1952 138.892 59.2066 138.858 59.2066ZM134.146 37.1023L139.031 58.5885L148.811 54.0898C153.35 52.0064 158.499 51.5256 163.315 52.7276C167.842 53.8608 172.715 53.4602 177.024 51.6057L188.221 46.7751L183.336 25.2889L172.231 30.0852C167.819 31.9854 162.831 32.3975 158.2 31.2299C153.5 30.0509 148.465 30.5202 144.03 32.5578L134.146 37.1023Z" fill="#292524"/>
<path d="M148.58 52.8192C153.073 50.7473 158.142 50.2779 162.923 51.4799C167.531 52.636 172.415 52.2354 176.793 50.3466L186.297 46.2486L181.977 27.2693L172.473 31.3673C168.095 33.2561 163.211 33.6568 158.603 32.5006C153.833 31.2987 148.765 31.7794 144.26 33.8399L136.023 37.6289L140.343 56.5967L148.58 52.8192Z" fill="#E7E5E4"/>
<path d="M163.238 48.9205C165.945 48.4856 167.649 45.1177 167.044 41.398C166.439 37.6783 163.753 35.0154 161.046 35.4503C158.339 35.8851 156.635 39.2531 157.241 42.9728C157.846 46.6925 160.531 49.3554 163.238 48.9205Z" fill="white"/>
<path d="M176.628 42.5754C177.881 42.0463 178.474 40.6267 177.951 39.4048C177.428 38.1828 175.989 37.6212 174.736 38.1503C173.483 38.6795 172.89 40.099 173.413 41.3209C173.935 42.5429 175.375 43.1045 176.628 42.5754Z" fill="white"/>
<path d="M148.915 46.0757C150.169 45.5464 150.761 44.1269 150.238 42.905C149.715 41.6832 148.276 41.1218 147.023 41.6511C145.77 42.1803 145.178 43.5999 145.7 44.8217C146.223 46.0435 147.662 46.6049 148.915 46.0757Z" fill="white"/>
<path d="M6.74717 182.823C8.64314 182.823 10.1801 181.301 10.1801 179.424C10.1801 177.546 8.64314 176.024 6.74717 176.024C4.8512 176.024 3.31421 177.546 3.31421 179.424C3.31421 181.301 4.8512 182.823 6.74717 182.823Z" fill="white"/>
<path d="M6.7467 183.087C4.71918 183.087 3.0603 181.45 3.0603 179.424C3.0603 177.398 4.71918 175.761 6.7467 175.761C8.77422 175.761 10.4331 177.398 10.4331 179.424C10.4331 181.45 8.78574 183.087 6.7467 183.087ZM6.7467 176.276C4.99566 176.276 3.56718 177.695 3.56718 179.424C3.56718 181.164 4.99566 182.572 6.7467 182.572C8.49774 182.572 9.92622 181.152 9.92622 179.424C9.92622 177.684 8.49774 176.276 6.7467 176.276Z" fill="#292524"/>
<path d="M6.7509 192.76C8.64687 192.758 10.1821 191.234 10.1799 189.356C10.1777 187.479 8.63899 185.958 6.74302 185.96C4.84705 185.963 3.31182 187.486 3.314 189.364C3.31618 191.242 4.85493 192.762 6.7509 192.76Z" fill="white"/>
<path d="M6.74646 193.023C4.71894 193.023 3.06006 191.386 3.06006 189.36C3.06006 187.345 4.71894 185.697 6.74646 185.697C8.77398 185.697 10.4329 187.334 10.4329 189.36C10.4329 191.375 8.7855 193.023 6.74646 193.023ZM6.74646 186.212C4.99542 186.212 3.56694 187.631 3.56694 189.36C3.56694 191.1 4.99542 192.508 6.74646 192.508C8.4975 192.508 9.92598 191.088 9.92598 189.36C9.92598 187.62 8.4975 186.212 6.74646 186.212Z" fill="#292524"/>
<path d="M6.74692 202.696C8.64289 202.696 10.1799 201.173 10.1799 199.296C10.1799 197.418 8.64289 195.896 6.74692 195.896C4.85095 195.896 3.31396 197.418 3.31396 199.296C3.31396 201.173 4.85095 202.696 6.74692 202.696Z" fill="white"/>
<path d="M6.74646 202.959C4.71894 202.959 3.06006 201.322 3.06006 199.296C3.06006 197.281 4.71894 195.633 6.74646 195.633C8.77398 195.633 10.4329 197.27 10.4329 199.296C10.4329 201.311 8.7855 202.959 6.74646 202.959ZM6.74646 196.148C4.99542 196.148 3.56694 197.567 3.56694 199.296C3.56694 201.036 4.99542 202.444 6.74646 202.444C8.4975 202.444 9.92598 201.024 9.92598 199.296C9.92598 197.556 8.4975 196.148 6.74646 196.148Z" fill="#292524"/>
<path d="M6.74758 172.315C6.60934 172.315 6.49414 172.201 6.49414 172.064V129.995C6.49414 129.858 6.60934 129.744 6.74758 129.744H27.1841C27.3223 129.744 27.4375 129.858 27.4375 129.995C27.4375 130.133 27.3223 130.247 27.1841 130.247H7.00102V172.064C7.00102 172.201 6.88582 172.315 6.74758 172.315Z" fill="#292524"/>
</g>
<defs>
<clipPath id="clip0_10393_13032">
<rect width="311" height="216" fill="white"/>
</clipPath>
</defs>
</svg>
