<svg width="345" height="241" viewBox="0 0 345 241" fill="none" xmlns="http://www.w3.org/2000/svg">
<path d="M112.006 48.0078C112.691 54.5006 111.687 56.8513 108.492 58.9737C99.7853 64.7705 92.6079 72.6897 83.4449 77.9273C76.2446 82.0352 68.7019 85.9948 60.4633 87.2843C56.9829 87.832 53.1603 87.8206 50.2505 85.8693C46.8044 83.5529 45.5263 78.9315 46.3822 74.9148C47.238 70.9096 49.8739 67.4635 52.9092 64.6336C59.5846 58.4146 100.607 22.356 111.915 37.2131C114.038 41.709 111.721 45.3377 112.006 48.0078Z" fill="#292524"/>
<path d="M162.889 48.6934C162.365 47.849 158.085 45.1218 144.894 55.7796C144.198 56.3387 143.525 56.875 142.863 57.3999C143.388 61.4052 145.054 67.0193 150.086 70.6594C153.407 66.871 158.188 61.2226 159.888 60.0815C161.942 58.7122 160.938 56.8066 160.938 56.8066C162.114 55.5057 160.744 54.0109 160.744 54.0109C161.84 51.4548 157.994 51.8884 157.994 51.8884C158.302 50.4278 163.414 49.5378 162.889 48.6934Z" fill="#FAFAF9"/>
<path d="M150.079 70.9104C150.022 70.9104 149.965 70.8876 149.908 70.8533C149.805 70.762 149.794 70.6023 149.885 70.4996C150.376 69.929 150.912 69.3243 151.46 68.6967C154.643 65.0223 158.261 60.8688 159.744 59.876C161.581 58.655 160.748 57.0005 160.714 56.932C160.668 56.8407 160.68 56.7266 160.748 56.6467C161.752 55.5284 160.611 54.239 160.554 54.1934C160.486 54.1249 160.474 54.0108 160.509 53.9195C160.737 53.3946 160.737 52.9838 160.531 52.6985C160.052 52.0595 158.557 52.0823 158.021 52.1394C157.941 52.1508 157.861 52.1166 157.804 52.0595C157.747 52.0025 157.724 51.9226 157.747 51.8427C157.93 50.9412 159.424 50.3365 160.874 49.7431C161.57 49.4578 162.62 49.0356 162.677 48.8074C162.551 48.6134 162.083 48.2254 161.148 48.0657C159.196 47.7348 154.506 48.3281 145.047 55.9735C144.408 56.487 143.746 57.0233 143.016 57.5938C142.901 57.6851 142.753 57.6623 142.662 57.5482C142.571 57.4341 142.593 57.2857 142.707 57.1944C143.438 56.6239 144.1 56.0876 144.739 55.5741C154.347 47.8032 159.196 47.2213 161.239 47.5636C162.277 47.7348 162.882 48.1912 163.11 48.545C163.19 48.6705 163.213 48.8074 163.167 48.9557C163.03 49.3894 162.323 49.686 161.079 50.1995C160.143 50.5761 158.911 51.0782 158.443 51.6031C159.128 51.5917 160.417 51.6601 160.954 52.379C161.25 52.7784 161.284 53.3147 161.045 53.9537C161.535 54.5585 162.072 55.7795 161.239 56.8407C161.444 57.3656 161.889 59.043 160.029 60.2754C158.603 61.2225 154.86 65.5358 151.848 69.0048C151.3 69.6324 150.775 70.2486 150.273 70.8077C150.216 70.8762 150.147 70.9104 150.079 70.9104Z" fill="#292524"/>
<path d="M142.865 57.4007C130.974 66.7348 124.641 69.2224 124.641 69.2224C124.641 69.2224 118.274 62.6269 112.169 59.2949C106.064 55.9629 83.6761 55.8374 83.6761 55.8374C83.6761 55.8374 80.6636 86.1905 108.735 87.7766C136.817 89.3627 145.227 76.0348 148.262 72.7028C148.775 72.1322 149.403 71.4362 150.076 70.6602C145.056 67.0087 143.378 61.3945 142.865 57.4007Z" fill="#FAFAF9"/>
<path d="M113.217 88.1531C111.745 88.1531 110.25 88.1074 108.721 88.0275C100.756 87.5825 94.5258 84.7754 90.1782 79.709C82.0879 70.2607 83.4115 55.9628 83.423 55.8259C83.4344 55.7004 83.5485 55.5977 83.674 55.5977C84.5869 55.5977 106.188 55.7574 112.293 59.0894C117.895 62.1475 123.783 68.0013 124.696 68.9256C125.735 68.4806 131.988 65.605 142.703 57.1952C142.771 57.1381 142.874 57.1267 142.954 57.161C143.034 57.1952 143.102 57.2751 143.114 57.3664C143.638 61.3602 145.293 66.8717 150.234 70.4547C150.291 70.5003 150.325 70.5574 150.337 70.6259C150.348 70.6943 150.325 70.7628 150.28 70.8198C149.481 71.7327 148.922 72.3717 148.454 72.8738C148.203 73.1591 147.895 73.5128 147.552 73.9236C145.635 76.2172 142.429 80.0513 136.404 83.2007C130.094 86.4985 122.311 88.1531 113.217 88.1531ZM83.9022 56.0997C83.7653 57.9597 83.1719 70.7514 90.5662 79.3895C94.8111 84.3532 100.927 87.0918 108.755 87.5369C134.304 88.9746 143.33 78.2027 147.176 73.6041C147.53 73.1933 147.826 72.8282 148.089 72.5429C148.511 72.0865 149.024 71.5045 149.72 70.7057C144.985 67.1455 143.273 61.8623 142.68 57.8798C131.121 66.9059 124.799 69.4505 124.742 69.4734C124.651 69.5076 124.537 69.4848 124.468 69.4163C124.4 69.3478 118.055 62.8094 112.053 59.5344C106.382 56.4307 86.2985 56.1226 83.9022 56.0997Z" fill="#292524"/>
<path d="M180.455 77.9138C187.398 70.971 187.398 59.7145 180.455 52.7718C173.512 45.829 162.256 45.829 155.313 52.7718C148.37 59.7145 148.37 70.971 155.313 77.9138C162.256 84.8565 173.512 84.8565 180.455 77.9138Z" fill="#FAFAF9"/>
<path d="M167.909 83.3708C160.891 83.3708 154.204 79.2401 151.283 72.3821C147.403 63.2305 151.682 52.6298 160.834 48.7386C165.273 46.8558 170.168 46.8102 174.63 48.6131C179.091 50.416 182.595 53.8507 184.477 58.2896C188.357 67.4411 184.078 78.0419 174.926 81.933C172.644 82.9144 170.259 83.3708 167.909 83.3708ZM167.886 47.8143C165.558 47.8143 163.242 48.2822 161.039 49.2179C152.139 52.9949 147.974 63.299 151.751 72.1995C153.577 76.5128 156.977 79.8448 161.313 81.6021C165.649 83.3594 170.419 83.3138 174.732 81.488C183.633 77.711 187.798 67.4069 184.021 58.5064C182.195 54.193 178.795 50.8611 174.459 49.1038C172.325 48.2365 170.111 47.8143 167.886 47.8143Z" fill="#292524"/>
<path d="M167.885 79.3201C175.605 79.3201 181.863 73.0617 181.863 65.3417C181.863 57.6216 175.605 51.3633 167.885 51.3633C160.165 51.3633 153.906 57.6216 153.906 65.3417C153.906 73.0617 160.165 79.3201 167.885 79.3201Z" fill="#FAFAF9"/>
<path d="M167.908 79.5708C162.363 79.5708 157.091 76.3186 154.786 70.8984C153.302 67.3953 153.268 63.527 154.694 60.0124C156.121 56.4978 158.825 53.725 162.328 52.2416C169.552 49.172 177.916 52.5611 180.985 59.7842C182.469 63.2873 182.503 67.1556 181.077 70.6702C179.65 74.1848 176.946 76.9576 173.443 78.4411C171.64 79.217 169.757 79.5708 167.908 79.5708ZM167.863 51.6254C166.071 51.6254 164.268 51.9791 162.522 52.7208C159.145 54.1586 156.532 56.8173 155.162 60.2178C153.793 63.6183 153.816 67.3496 155.254 70.7273C158.209 77.6994 166.288 80.9515 173.249 77.996C176.626 76.5583 179.239 73.8995 180.609 70.4991C181.978 67.0986 181.955 63.3672 180.517 59.9896C178.304 54.7634 173.214 51.6254 167.863 51.6254Z" fill="#292524"/>
<path d="M171.356 75.8609L170.295 73.3619C168.845 73.9439 167.168 74.1265 166.038 73.8754L165.924 71.9698C167.065 72.1866 168.56 72.1067 169.941 71.5248C171.698 70.7831 172.451 69.254 171.858 67.8504C171.276 66.4925 169.952 66.0589 167.807 66.0932C164.863 66.173 162.82 65.6938 161.908 63.5485C161.04 61.4946 161.839 59.3151 163.95 57.98L162.889 55.481L164.429 54.8306L165.445 57.2269C166.951 56.6449 168.138 56.6107 169.028 56.7248L169.108 58.619C168.457 58.5391 167.214 58.425 165.628 59.0983C163.722 59.9084 163.482 61.3462 163.905 62.339C164.452 63.6284 165.639 63.8794 168.172 63.8566C171.162 63.811 172.999 64.5527 173.935 66.755C174.768 68.7063 174.186 71.1254 171.812 72.6202L172.908 75.1991L171.356 75.8609Z" fill="#FAFAF9"/>
<path d="M171.356 76.1124C171.322 76.1124 171.287 76.101 171.265 76.0895C171.207 76.0667 171.15 76.0211 171.128 75.9526L170.158 73.6818C168.743 74.2067 167.134 74.3779 165.993 74.1269C165.879 74.104 165.799 74.0128 165.799 73.8986L165.685 71.993C165.685 71.9131 165.707 71.8447 165.764 71.7876C165.822 71.742 165.901 71.7192 165.981 71.7306C167.236 71.9702 168.651 71.8104 169.85 71.2969C171.447 70.6237 172.177 69.243 171.63 67.9535C171.128 66.7782 170.032 66.3104 167.818 66.3446C165.251 66.4131 162.741 66.1392 161.679 63.6402C160.778 61.5292 161.554 59.2812 163.642 57.8777L162.661 55.5727C162.604 55.4472 162.661 55.2988 162.798 55.2418L164.327 54.5913C164.384 54.5685 164.452 54.5685 164.521 54.5913C164.578 54.6142 164.635 54.6598 164.658 54.7283L165.582 56.9078C166.791 56.4741 167.933 56.3372 169.062 56.4741C169.188 56.4856 169.279 56.5882 169.279 56.7138L169.359 58.608C169.359 58.6765 169.336 58.7563 169.279 58.802C169.222 58.8476 169.154 58.8818 169.074 58.8704C168.549 58.802 167.305 58.665 165.719 59.3383C163.95 60.0914 163.756 61.3808 164.133 62.2481C164.589 63.3321 165.502 63.6402 168.172 63.6174C171.436 63.5603 173.239 64.4846 174.163 66.6755C174.939 68.5013 174.597 71.0573 172.12 72.7347L173.136 75.1196C173.193 75.2451 173.136 75.3935 172.999 75.4505L171.436 76.1124C171.424 76.1124 171.39 76.1124 171.356 76.1124ZM170.295 73.1113C170.397 73.1113 170.489 73.1683 170.523 73.2596L171.481 75.5304L172.577 75.0626L171.584 72.7233C171.538 72.6092 171.573 72.4837 171.687 72.4152C174.072 70.8976 174.425 68.5355 173.718 66.8581C172.873 64.8612 171.265 64.0624 168.195 64.1081C165.628 64.1309 164.304 63.8913 163.688 62.4307C163.186 61.2553 163.574 59.692 165.536 58.859C166.997 58.2428 168.184 58.2657 168.845 58.3227L168.788 56.9306C167.75 56.8279 166.677 56.999 165.536 57.4441C165.411 57.4897 165.262 57.4327 165.217 57.3071L164.292 55.1391L163.22 55.5955L164.178 57.8663C164.224 57.9804 164.19 58.1059 164.076 58.1744C162.067 59.441 161.303 61.5064 162.124 63.4348C163.014 65.5344 165.034 65.911 167.784 65.8311C170.203 65.7969 171.481 66.3674 172.075 67.7481C172.737 69.3114 171.892 70.966 170.021 71.7534C168.823 72.2555 167.442 72.4494 166.175 72.2669L166.255 73.6704C167.351 73.853 168.891 73.6476 170.169 73.1341C170.238 73.1227 170.26 73.1113 170.295 73.1113Z" fill="#292524"/>
<path d="M151.79 54.5356C152.932 54.5127 154.084 54.6269 155.202 54.8779C155.796 55.0148 156.492 55.2773 156.629 55.8706C156.743 56.3499 156.423 56.8292 156.035 57.1259C155.214 57.7649 154.095 57.8447 153.057 57.9588C152.019 58.073 150.889 58.3126 150.25 59.1456L151.79 54.5356Z" fill="#FAFAF9"/>
<path d="M150.245 59.3965C150.188 59.3965 150.143 59.3737 150.097 59.3394C149.983 59.2596 149.972 59.0998 150.051 58.9857C150.759 58.0728 151.957 57.8218 153.03 57.7077L153.269 57.6848C154.205 57.5822 155.175 57.4795 155.882 56.9203C156.168 56.7035 156.464 56.3041 156.385 55.9162C156.305 55.5396 155.882 55.2771 155.152 55.1174C154.057 54.8778 152.927 54.7636 151.797 54.7865C151.66 54.7865 151.546 54.6838 151.546 54.5354C151.546 54.3985 151.649 54.2844 151.797 54.2844C152.961 54.2616 154.137 54.3871 155.266 54.6267C156.202 54.8321 156.75 55.2315 156.875 55.8135C157.012 56.4296 156.613 57.0002 156.191 57.3197C155.369 57.9587 154.331 58.0728 153.326 58.1869L153.087 58.2098C152.117 58.3239 151.033 58.5407 150.451 59.3052C150.394 59.3737 150.314 59.3965 150.245 59.3965Z" fill="#292524"/>
<path d="M122.073 71.2519C121.993 71.2519 121.913 71.2177 121.868 71.1378C121.788 71.0237 121.822 70.8639 121.936 70.7841L123.933 69.4376C124.047 69.3577 124.207 69.3919 124.287 69.506C124.367 69.6202 124.333 69.7799 124.218 69.8598L122.221 71.2063C122.176 71.2405 122.13 71.2519 122.073 71.2519Z" fill="#292524"/>
<path d="M95.8776 56.0982C81.7166 55.7445 83.5081 55.8358 83.5081 55.8358C83.5081 55.8358 55.4714 95.6029 49.6404 115.949C46.879 125.579 47.3012 131.251 48.5336 134.583C49.5948 137.447 52.6187 139.079 55.5969 138.405L97.5321 128.957C99.9398 128.409 101.788 126.492 102.245 124.073C104.55 111.795 111.499 75.1431 112.857 70.6586C114.477 65.2498 110.039 56.452 95.8776 56.0982Z" fill="#FAFAF9"/>
<path d="M54.4207 138.805C51.819 138.805 49.3885 137.196 48.4528 134.674C46.8439 130.361 47.2204 124.039 49.5482 115.892C51.3284 109.696 55.3222 101.103 61.4384 90.3313C61.5069 90.2057 61.6552 90.1715 61.7808 90.24C61.9063 90.3084 61.9405 90.4568 61.8721 90.5823C55.7786 101.32 51.7848 109.878 50.0275 116.029C47.7225 124.073 47.3459 130.292 48.9092 134.503C49.9248 137.23 52.8346 138.805 55.6759 138.166L97.6225 128.706C99.9275 128.181 101.708 126.344 102.141 124.016C102.506 122.099 102.963 119.646 103.488 116.839C106.306 101.754 111.019 76.5012 112.171 72.7014C112.217 72.5644 112.354 72.496 112.48 72.5302C112.616 72.5759 112.685 72.7128 112.651 72.8383C111.51 76.6153 106.797 101.845 103.978 116.919C103.454 119.714 102.997 122.179 102.632 124.096C102.153 126.618 100.236 128.615 97.7252 129.186L55.79 138.634C55.345 138.748 54.8772 138.805 54.4207 138.805Z" fill="#292524"/>
<path d="M59.4953 218.863C59.0617 222.001 61.5036 224.808 64.6645 224.808H93.3858C94.7893 224.808 95.5653 223.176 94.6866 222.092L89.392 215.565L89.4034 215.439H59.9746L59.4953 218.863Z" fill="#FAFAF9"/>
<path d="M96.248 100.155L70.4593 94.7915L68.2684 102.802L73.7457 116.004L59.9727 215.428H89.4015L101.326 107.15C101.702 103.863 99.5001 100.828 96.248 100.155Z" fill="#65A30D"/>
<path d="M93.4005 225.048H64.6792C63.0931 225.048 61.5868 224.363 60.5484 223.165C59.51 221.967 59.0308 220.392 59.259 218.818L59.7382 215.394C59.7611 215.257 59.8866 215.155 60.0235 215.178C60.1604 215.2 60.2517 215.326 60.2403 215.463L59.7611 218.886C59.5671 220.312 59.9893 221.75 60.9364 222.834C61.8835 223.918 63.2528 224.546 64.6906 224.546H93.4119C93.971 224.546 94.4503 224.249 94.6899 223.736C94.9296 223.234 94.8611 222.674 94.5074 222.229L89.2127 215.702C89.1214 215.6 89.1442 215.44 89.2469 215.349C89.3496 215.257 89.5094 215.28 89.6007 215.383L94.8953 221.91C95.3632 222.492 95.4545 223.268 95.135 223.941C94.8041 224.626 94.1422 225.048 93.4005 225.048Z" fill="#292524"/>
<path d="M29.6259 205.387C25.9173 200.719 22.3457 194.786 21.159 188.601C20.5656 189.046 19.9722 189.491 19.3674 189.936C16.2865 192.173 14.997 196.132 16.218 199.738C17.8384 204.508 20.4401 211.138 23.8862 216.592C27.1269 221.716 32.7981 224.797 38.8687 224.797H43.1364C44.0265 224.797 44.5285 223.781 43.9808 223.074L39.9071 215.428C39.9071 215.428 39.9299 215.405 39.9756 215.36C36.3469 212.359 31.7711 208.08 29.6259 205.387Z" fill="#FAFAF9"/>
<path d="M72.6466 102.904L70.4785 94.8027C70.4785 94.8027 55.7698 108.758 52.8943 130.097C50.2584 149.644 44.6442 170.788 21.1719 188.601C22.3472 194.785 25.9188 200.708 29.6274 205.386C31.7726 208.091 36.3484 212.358 39.9771 215.359C41.2779 214.013 60.8135 193.667 70.7638 174.782C81.0565 155.235 80.1892 120.318 90.1053 119.724L72.6466 102.904Z" fill="#65A30D"/>
<path d="M63.9755 186.227C63.9298 186.227 63.8728 186.216 63.8386 186.182C63.7245 186.102 63.6902 185.942 63.7701 185.828C66.4403 181.88 68.7224 178.126 70.5482 174.668C75.124 165.973 77.4974 154.197 79.5857 143.802C82.2786 130.405 84.4125 119.816 90.0951 119.473C90.2321 119.462 90.3576 119.576 90.3576 119.713C90.369 119.85 90.2549 119.976 90.118 119.976C84.8233 120.295 82.621 131.227 80.0763 143.893C77.9767 154.322 75.6032 166.144 70.9818 174.896C69.1446 178.377 66.8625 182.154 64.1809 186.102C64.1352 186.182 64.0554 186.227 63.9755 186.227Z" fill="#292524"/>
<path d="M43.127 225.048H38.8593C32.6404 225.048 26.9577 221.933 23.66 216.729C20.1796 211.206 17.5551 204.485 15.9804 199.818C14.7252 196.098 16.026 192.047 19.2211 189.731C19.3352 189.651 19.495 189.674 19.5748 189.788C19.6547 189.902 19.6319 190.062 19.5178 190.142C16.4939 192.333 15.2615 196.155 16.4597 199.658C18.0344 204.303 20.6361 210.978 24.105 216.467C27.3115 221.533 32.8344 224.557 38.8707 224.557H43.1384C43.4579 224.557 43.7318 224.386 43.8687 224.101C44.0057 223.815 43.9828 223.496 43.7889 223.245C43.7774 223.233 43.7774 223.222 43.766 223.211L39.6923 215.565C39.6239 215.44 39.6695 215.291 39.795 215.223C39.9205 215.154 40.0689 215.2 40.1374 215.326L44.1997 222.96C44.4963 223.359 44.542 223.884 44.3252 224.329C44.097 224.762 43.6405 225.048 43.127 225.048Z" fill="#292524"/>
<path d="M106.563 47.7458L101.531 56.5665L103.859 57.8331C103.859 57.8331 96.7042 63.3446 88.0547 55.9389L91.5464 55.8476L99.4542 44.9844L106.563 47.7458Z" fill="#FAFAF9"/>
<path d="M97.3687 60.0355C94.8127 60.0355 91.7089 59.214 88.3883 56.5438C88.2856 56.4525 88.2628 56.2928 88.3541 56.1901C88.4454 56.0874 88.5937 56.0645 88.7078 56.1558C96.8894 62.7513 103.645 57.6849 103.702 57.6392C103.816 57.5594 103.964 57.5708 104.056 57.6849C104.135 57.799 104.124 57.9473 104.01 58.0386C103.976 58.0614 101.34 60.0355 97.3687 60.0355Z" fill="#292524"/>
<path d="M99.3945 46.9477C99.3945 46.9477 102.11 51.147 106.458 49.6749C110.817 48.1915 110.224 43.2164 109.562 41.5275C108.9 39.8387 108.192 39.1997 108.192 39.1997C108.192 39.1997 103.765 43.6271 101.003 41.7786C100.855 41.6759 99.3945 46.9477 99.3945 46.9477Z" fill="#FAFAF9"/>
<path d="M104.641 50.245C101.264 50.245 99.2098 47.1298 99.1869 47.0956C99.1527 47.0385 99.1413 46.9587 99.1527 46.8902C100.59 41.664 100.773 41.5955 100.91 41.5499C100.99 41.527 101.081 41.527 101.15 41.5727C103.706 43.2843 107.973 39.0737 108.019 39.0281C108.11 38.9368 108.259 38.9254 108.361 39.0166C108.396 39.0395 109.126 39.7127 109.799 41.4358C110.267 42.6339 110.621 45.1671 109.685 47.1755C109.069 48.4877 108.019 49.412 106.547 49.9141C105.874 50.1423 105.235 50.245 104.641 50.245ZM99.6662 46.9016C100.088 47.5064 102.565 50.7243 106.376 49.4348C107.711 48.9784 108.669 48.1568 109.217 46.9701C110.096 45.0987 109.765 42.748 109.32 41.6183C108.875 40.4887 108.407 39.8382 108.179 39.5644C107.312 40.386 103.683 43.5354 101.093 42.1318C100.842 42.7937 100.214 44.9389 99.6662 46.9016Z" fill="#292524"/>
<path d="M104.351 39.1992C104.351 39.1992 99.1364 58.1185 89.2773 55.5397L95.1768 42.36L104.351 39.1992Z" fill="#292524"/>
<path d="M101.692 75.0975C101.692 75.0975 102.913 74.8351 102.422 73.6369C101.989 72.5529 95.69 69.9626 84.8725 75.5539C83.7656 76.1245 82.7729 76.6494 81.8828 77.1287C82.693 79.8901 84.553 85.1734 87.8165 88.6537C90.3497 85.7667 93.1226 83.108 96.3975 82.6287C102.183 81.7843 97.2762 80.5633 97.2762 80.5633C97.2762 80.5633 101.601 80.5177 101.601 79.525C101.601 78.2013 98.1092 78.0986 96.6257 78.11C96.2264 78.1214 95.9753 78.1214 95.9753 78.1214C95.9753 78.1214 96.2264 78.11 96.6257 78.11C98.2689 78.0529 102.48 77.8133 102.879 76.7977C103.37 75.5425 101.692 75.0975 101.692 75.0975Z" fill="#FAFAF9"/>
<path d="M87.8161 88.9055C87.7476 88.9055 87.6792 88.8712 87.6335 88.8256C84.3472 85.311 82.4644 80.0392 81.6428 77.1978C81.6085 77.0837 81.6656 76.9582 81.7683 76.9011C82.704 76.3991 83.7081 75.8742 84.7694 75.3264C94.0921 70.4996 99.615 71.9032 101.087 72.4395C101.931 72.759 102.513 73.1584 102.662 73.5349C102.833 73.9685 102.844 74.3565 102.673 74.676C102.582 74.8472 102.456 74.9841 102.319 75.0754C102.605 75.2237 102.913 75.4634 103.095 75.8057C103.266 76.1366 103.266 76.5018 103.118 76.8897C102.867 77.5288 101.543 77.8939 99.9345 78.1107C100.619 78.2476 101.213 78.4759 101.543 78.7954C101.749 79.0008 101.863 79.2518 101.863 79.5143C101.863 80.3473 100.106 80.6439 98.6451 80.758C99.1129 80.9863 99.5009 81.2715 99.4895 81.6367C99.4666 82.0361 99.0901 82.4925 96.4542 82.8691C93.2363 83.3369 90.4977 85.9957 88.0329 88.8142C87.9644 88.8712 87.896 88.9055 87.8161 88.9055ZM82.1791 77.2549C83.0007 80.0277 84.7808 84.923 87.8161 88.2779C90.3037 85.4708 93.0537 82.8577 96.3629 82.3784C98.8733 82.0132 98.9646 81.6253 98.9646 81.6139C98.9532 81.4427 98.1772 81.0433 97.2073 80.8037C97.0818 80.7695 97.0019 80.6553 97.0133 80.5298C97.0247 80.4043 97.1388 80.313 97.2643 80.313C99.3982 80.2902 101.338 79.9136 101.338 79.5257C101.338 79.3887 101.281 79.2746 101.167 79.1605C100.642 78.6356 98.9417 78.3389 96.6139 78.3617C96.2145 78.3732 95.9635 78.3732 95.9635 78.3732C95.8266 78.3732 95.7124 78.2705 95.7124 78.1335C95.7124 77.9966 95.8151 77.8825 95.9521 77.8711C95.9521 77.8711 96.2145 77.8597 96.6139 77.8597C100.037 77.7456 102.399 77.2891 102.627 76.7072C102.73 76.4561 102.73 76.2279 102.627 76.0339C102.422 75.6231 101.829 75.3949 101.623 75.3378C101.509 75.3036 101.429 75.2009 101.441 75.0868C101.441 74.9727 101.521 74.87 101.635 74.8472C101.646 74.8472 102.057 74.7445 102.217 74.4364C102.319 74.2538 102.308 74.0142 102.182 73.7175C102.125 73.5806 101.783 73.2382 100.893 72.9073C99.4781 72.3824 94.1263 71.0359 84.9862 75.7601C84.0048 76.285 83.0691 76.787 82.1791 77.2549Z" fill="#292524"/>
<path d="M95.3366 75.542C95.2225 75.542 95.1083 75.4621 95.0855 75.3366C95.0627 75.1997 95.154 75.0741 95.2909 75.0399C97.4476 74.6405 99.7754 74.7204 101.35 74.8573C101.487 74.8687 101.59 74.9943 101.578 75.1312C101.567 75.2681 101.441 75.3708 101.304 75.3594C99.764 75.2225 97.4818 75.154 95.3708 75.542C95.3708 75.542 95.3594 75.542 95.3366 75.542Z" fill="#292524"/>
<path d="M73.7133 82.2061L89.2778 58.0948L83.6636 55.8354C83.6636 55.8354 74.3295 55.2534 63.3407 70.6582C52.352 86.063 48.5179 94.9407 56.6311 101.342C64.7443 107.744 78.0836 98.4438 82.2486 94.7923C84.0516 93.2062 85.8659 90.867 87.8172 88.6532C84.5536 85.1729 82.6937 79.8896 81.8835 77.1282C74.3865 81.1563 73.7133 82.2061 73.7133 82.2061Z" fill="#FAFAF9"/>
<path d="M63.3167 103.773C60.8405 103.773 58.4899 103.122 56.4815 101.536C51.9514 97.9644 50.9358 93.594 53.2066 87.3865C53.2522 87.261 53.4006 87.1925 53.5261 87.2381C53.6516 87.2838 53.7201 87.4321 53.6744 87.5577C51.495 93.537 52.4535 97.7248 56.7896 101.148C58.7067 102.666 60.966 103.282 63.3395 103.282C70.1633 103.282 78.014 98.1926 82.0877 94.6096C83.3771 93.4685 84.6666 91.9509 86.0359 90.3419C86.5037 89.7942 86.9944 89.2236 87.4736 88.6645C84.2786 85.1614 82.4528 79.9922 81.6312 77.2079C81.597 77.071 81.6655 76.9341 81.8024 76.8998C81.9393 76.8656 82.0763 76.9341 82.1105 77.071C82.9207 79.8667 84.7692 85.0587 87.9871 88.4933C88.0784 88.5846 88.0784 88.733 87.9871 88.8357C87.4508 89.4519 86.9145 90.0795 86.401 90.6842C85.0203 92.3046 83.7194 93.8451 82.3958 94.9976C78.2764 98.6148 70.3002 103.773 63.3167 103.773Z" fill="#292524"/>
<path d="M67.9714 86.5538C67.8916 86.5538 67.8117 86.5196 67.766 86.4511C67.6862 86.337 67.709 86.1772 67.8231 86.0974L67.9258 86.0175C73.6313 81.9438 78.2869 78.8857 81.7558 76.9116C81.8814 76.8431 82.0297 76.8887 82.0982 77.0029C82.1666 77.1284 82.121 77.2767 82.0069 77.3452C78.5494 79.3079 73.9165 82.366 68.2225 86.4283L68.1198 86.5082C68.0741 86.531 68.0285 86.5538 67.9714 86.5538Z" fill="#292524"/>
<path d="M213.472 94.9096V86.3628H150.061V94.9096C150.061 101.345 145.793 107.005 139.609 108.774C133.424 110.543 129.156 116.202 129.156 122.638V210.616C129.156 218.581 135.615 225.04 143.58 225.04H219.976C227.941 225.04 234.399 218.581 234.399 210.616V122.638C234.399 116.202 230.132 110.543 223.947 108.774C217.739 107.005 213.472 101.345 213.472 94.9096Z" fill="#FAFAF9"/>
<path d="M219.965 225.291H143.569C135.479 225.291 128.895 218.707 128.895 210.617V122.638C128.895 116.123 133.265 110.326 139.53 108.534C145.577 106.8 149.799 101.197 149.799 94.9096V86.3629C149.799 86.2259 149.913 86.1118 150.05 86.1118H213.472C213.609 86.1118 213.723 86.2259 213.723 86.3629V94.9096C213.723 101.197 217.945 106.8 223.993 108.534C230.258 110.326 234.628 116.123 234.628 122.638V210.617C234.64 218.707 228.056 225.291 219.965 225.291ZM150.313 86.6139V94.9096C150.313 101.425 145.942 107.222 139.678 109.014C133.63 110.748 129.408 116.351 129.408 122.638V210.617C129.408 218.433 135.764 224.789 143.58 224.789H219.977C227.793 224.789 234.149 218.433 234.149 210.617V122.638C234.149 116.351 229.927 110.748 223.879 109.014C217.615 107.222 213.244 101.425 213.244 94.9096V86.6139H150.313Z" fill="#65A30D"/>
<path d="M224.836 121.953C224.676 121.953 224.528 121.85 224.471 121.679C223.113 117.035 219.507 113.463 214.851 112.128C208.53 110.325 204.125 104.472 204.125 97.8988V93.9278C204.125 93.7224 204.296 93.5513 204.502 93.5513C204.707 93.5513 204.878 93.7224 204.878 93.9278V97.8988C204.878 104.141 209.066 109.686 215.057 111.398C219.963 112.802 223.752 116.567 225.19 121.462C225.247 121.668 225.133 121.873 224.939 121.93C224.904 121.942 224.87 121.953 224.836 121.953Z" fill="#E7E5E4"/>
<path d="M225.42 153.219C225.214 153.219 225.043 153.048 225.043 152.842V129.199C225.043 128.993 225.214 128.822 225.42 128.822C225.625 128.822 225.796 128.993 225.796 129.199V152.842C225.796 153.048 225.625 153.219 225.42 153.219Z" fill="#E7E5E4"/>
<path d="M215.127 86.3628H148.476C146.536 86.3628 144.973 84.7881 144.973 82.8596C144.973 80.9197 146.547 79.3564 148.476 79.3564H215.127C217.067 79.3564 218.63 80.9312 218.63 82.8596C218.642 84.7881 217.067 86.3628 215.127 86.3628Z" fill="#FAFAF9"/>
<path d="M215.128 86.6139H148.477C146.4 86.6139 144.723 84.925 144.723 82.8597C144.723 80.7829 146.411 79.1055 148.477 79.1055H215.128C217.205 79.1055 218.882 80.7943 218.882 82.8597C218.894 84.925 217.205 86.6139 215.128 86.6139ZM148.477 79.5961C146.685 79.5961 145.225 81.0567 145.225 82.8483C145.225 84.6398 146.685 86.1004 148.477 86.1004H215.128C216.92 86.1004 218.38 84.6398 218.38 82.8483C218.38 81.0567 216.92 79.5961 215.128 79.5961H148.477Z" fill="#65A30D"/>
<path d="M220.686 192.263C228.494 184.456 228.494 171.798 220.686 163.991C212.879 156.183 200.221 156.183 192.414 163.991C184.606 171.798 184.606 184.456 192.414 192.263C200.221 200.071 212.879 200.071 220.686 192.263Z" fill="#FAFAF9"/>
<path d="M206.563 198.384C204.452 198.384 202.33 198.053 200.253 197.369C195.107 195.691 190.931 192.108 188.477 187.293C186.024 182.477 185.602 176.977 187.279 171.842C190.748 161.23 202.193 155.411 212.817 158.88C223.429 162.348 229.248 173.794 225.78 184.417C224.102 189.564 220.519 193.74 215.704 196.193C212.828 197.654 209.713 198.384 206.563 198.384ZM206.563 158.377C198.245 158.377 190.497 163.672 187.781 172.002C186.149 177.012 186.56 182.363 188.945 187.065C191.33 191.766 195.415 195.258 200.424 196.901C205.434 198.533 210.786 198.122 215.487 195.737C220.188 193.352 223.68 189.267 225.323 184.257C226.955 179.248 226.544 173.896 224.159 169.195C221.774 164.494 217.689 161.002 212.68 159.359C210.649 158.697 208.583 158.377 206.563 158.377Z" fill="#292524"/>
<path d="M217.668 189.245C223.809 183.104 223.809 173.148 217.668 167.008C211.528 160.867 201.572 160.867 195.431 167.008C189.29 173.148 189.29 183.104 195.431 189.245C201.572 195.386 211.528 195.386 217.668 189.245Z" fill="#FAFAF9"/>
<path d="M206.544 194.105C204.901 194.105 203.235 193.854 201.603 193.318C193.227 190.579 188.64 181.553 191.379 173.178C194.117 164.802 203.143 160.215 211.519 162.953C215.57 164.277 218.868 167.107 220.807 170.907C222.736 174.707 223.078 179.043 221.755 183.094C219.541 189.815 213.265 194.105 206.544 194.105ZM206.567 162.657C200.051 162.657 193.98 166.81 191.846 173.326C189.199 181.439 193.638 190.191 201.751 192.839C209.864 195.486 218.617 191.047 221.264 182.934C222.542 179.008 222.222 174.809 220.351 171.124C218.48 167.438 215.285 164.699 211.359 163.421C209.762 162.908 208.153 162.657 206.567 162.657Z" fill="#292524"/>
<path d="M201.719 189.622L202.666 186.712C201.011 186.141 199.448 185.057 198.684 184.007L200.007 182.307C200.817 183.334 202.13 184.373 203.75 184.898C205.793 185.559 207.561 184.841 208.098 183.197C208.611 181.611 207.812 180.276 205.964 178.713C203.408 176.602 202.027 174.685 202.837 172.186C203.613 169.801 205.907 168.546 208.691 168.968L209.638 166.058L211.418 166.64L210.505 169.424C212.217 170.041 213.244 170.885 213.917 171.649L212.582 173.315C212.091 172.768 211.122 171.752 209.273 171.159C207.059 170.44 205.793 171.49 205.416 172.642C204.925 174.137 205.747 175.232 207.915 177.081C210.483 179.261 211.487 181.235 210.654 183.802C209.912 186.073 207.63 187.682 204.515 187.203L203.533 190.192L201.719 189.622Z" fill="#FAFAF9"/>
<path d="M203.532 190.466C203.509 190.466 203.475 190.466 203.452 190.455L201.638 189.861C201.569 189.838 201.524 189.793 201.489 189.736C201.455 189.679 201.455 189.61 201.478 189.542L202.345 186.872C200.759 186.278 199.253 185.228 198.465 184.167C198.397 184.076 198.397 183.95 198.465 183.859L199.789 182.159C199.835 182.102 199.915 182.056 199.983 182.056C200.063 182.056 200.131 182.09 200.177 182.148C201.067 183.277 202.391 184.19 203.794 184.658C204.73 184.966 205.62 184.966 206.362 184.681C207.081 184.395 207.583 183.859 207.822 183.117C208.267 181.737 207.674 180.516 205.768 178.907C203.555 177.081 201.626 174.993 202.573 172.106C203.372 169.664 205.677 168.34 208.496 168.694L209.374 165.99C209.397 165.921 209.443 165.876 209.5 165.841C209.557 165.807 209.625 165.807 209.694 165.83L211.474 166.412C211.611 166.457 211.679 166.594 211.634 166.731L210.801 169.287C212.159 169.812 213.231 170.543 214.087 171.501C214.167 171.592 214.167 171.729 214.098 171.821L212.763 173.487C212.718 173.544 212.649 173.578 212.569 173.578C212.501 173.578 212.421 173.555 212.375 173.498C211.976 173.053 211.029 172.015 209.18 171.41C207.103 170.737 205.974 171.695 205.643 172.722C205.232 173.977 205.803 174.959 208.062 176.898C210.858 179.272 211.702 181.36 210.881 183.882C210.184 186.004 208.016 187.91 204.673 187.488L203.76 190.283C203.737 190.398 203.635 190.466 203.532 190.466ZM202.037 189.462L203.372 189.896L204.274 187.145C204.308 187.031 204.433 186.952 204.547 186.974C207.708 187.454 209.774 185.696 210.413 183.734C211.177 181.406 210.401 179.534 207.754 177.286C205.574 175.426 204.639 174.24 205.186 172.574C205.631 171.227 207.092 170.189 209.363 170.931C211.086 171.49 212.067 172.403 212.581 172.95L213.596 171.684C212.775 170.816 211.736 170.155 210.435 169.687C210.31 169.641 210.241 169.504 210.287 169.367L211.12 166.811L209.819 166.389L208.952 169.059C208.918 169.173 208.792 169.253 208.678 169.23C206.031 168.82 203.84 170.018 203.098 172.277C202.299 174.73 203.737 176.545 206.145 178.53C208.21 180.276 208.872 181.702 208.359 183.289C208.073 184.156 207.457 184.818 206.601 185.16C205.757 185.502 204.741 185.491 203.692 185.149C202.299 184.692 200.987 183.814 200.04 182.718L199.036 184.019C199.823 185 201.307 185.97 202.79 186.484C202.916 186.529 202.984 186.666 202.95 186.803L202.037 189.462Z" fill="#292524"/>
<path d="M226.157 215.728H185.203C184.165 215.728 183.32 214.884 183.32 213.845V208.847C183.32 207.809 184.165 206.964 185.203 206.964H226.157C227.195 206.964 228.04 207.809 228.04 208.847V213.845C228.04 214.884 227.195 215.728 226.157 215.728Z" fill="#FAFAF9"/>
<path d="M226.158 215.979H185.204C184.029 215.979 183.07 215.021 183.07 213.845V208.847C183.07 207.672 184.029 206.713 185.204 206.713H226.158C227.333 206.713 228.292 207.672 228.292 208.847V213.845C228.292 215.021 227.333 215.979 226.158 215.979ZM185.193 207.215C184.291 207.215 183.561 207.946 183.561 208.847V213.845C183.561 214.747 184.291 215.477 185.193 215.477H226.147C227.048 215.477 227.778 214.747 227.778 213.845V208.847C227.778 207.946 227.048 207.215 226.147 207.215H185.193Z" fill="#292524"/>
<path d="M223.259 214.518C223.122 214.518 223.008 214.404 223.008 214.267V208.71C223.008 208.573 223.122 208.459 223.259 208.459C223.396 208.459 223.51 208.573 223.51 208.71V214.267C223.51 214.404 223.407 214.518 223.259 214.518Z" fill="#292524"/>
<path d="M220.274 214.518C220.138 214.518 220.023 214.404 220.023 214.267V208.71C220.023 208.573 220.138 208.459 220.274 208.459C220.411 208.459 220.526 208.573 220.526 208.71V214.267C220.526 214.404 220.411 214.518 220.274 214.518Z" fill="#292524"/>
<path d="M214.29 214.518C214.153 214.518 214.039 214.404 214.039 214.267V208.71C214.039 208.573 214.153 208.459 214.29 208.459C214.427 208.459 214.541 208.573 214.541 208.71V214.267C214.541 214.404 214.427 214.518 214.29 214.518Z" fill="#292524"/>
<path d="M205.321 214.518C205.184 214.518 205.07 214.404 205.07 214.267V208.71C205.07 208.573 205.184 208.459 205.321 208.459C205.458 208.459 205.572 208.573 205.572 208.71V214.267C205.572 214.404 205.458 214.518 205.321 214.518Z" fill="#292524"/>
<path d="M202.333 214.518C202.196 214.518 202.082 214.404 202.082 214.267V208.71C202.082 208.573 202.196 208.459 202.333 208.459C202.47 208.459 202.584 208.573 202.584 208.71V214.267C202.584 214.404 202.47 214.518 202.333 214.518Z" fill="#292524"/>
<path d="M176.223 198.281H217.177C218.215 198.281 219.059 199.125 219.059 200.164V205.162C219.059 206.2 218.215 207.044 217.177 207.044H176.223C175.184 207.044 174.34 206.2 174.34 205.162V200.164C174.34 199.125 175.184 198.281 176.223 198.281Z" fill="#FAFAF9"/>
<path d="M217.178 207.307H176.224C175.048 207.307 174.09 206.349 174.09 205.173V200.175C174.09 199 175.048 198.042 176.224 198.042H217.178C218.353 198.042 219.311 199 219.311 200.175V205.173C219.311 206.349 218.364 207.307 217.178 207.307ZM176.224 198.532C175.322 198.532 174.592 199.262 174.592 200.164V205.162C174.592 206.063 175.322 206.794 176.224 206.794H217.178C218.079 206.794 218.809 206.063 218.809 205.162V200.164C218.809 199.262 218.079 198.532 217.178 198.532H176.224Z" fill="#292524"/>
<path d="M179.11 205.55C178.973 205.55 178.859 205.436 178.859 205.299V199.742C178.859 199.605 178.973 199.491 179.11 199.491C179.247 199.491 179.361 199.605 179.361 199.742V205.299C179.361 205.436 179.247 205.55 179.11 205.55Z" fill="#292524"/>
<path d="M182.099 205.55C181.962 205.55 181.848 205.436 181.848 205.299V199.742C181.848 199.605 181.962 199.491 182.099 199.491C182.236 199.491 182.35 199.605 182.35 199.742V205.299C182.35 205.436 182.247 205.55 182.099 205.55Z" fill="#292524"/>
<path d="M188.091 205.55C187.954 205.55 187.84 205.436 187.84 205.299V199.742C187.84 199.605 187.954 199.491 188.091 199.491C188.228 199.491 188.342 199.605 188.342 199.742V205.299C188.342 205.436 188.228 205.55 188.091 205.55Z" fill="#292524"/>
<path d="M197.06 205.55C196.923 205.55 196.809 205.436 196.809 205.299V199.742C196.809 199.605 196.923 199.491 197.06 199.491C197.197 199.491 197.311 199.605 197.311 199.742V205.299C197.311 205.436 197.197 205.55 197.06 205.55Z" fill="#292524"/>
<path d="M200.052 205.55C199.915 205.55 199.801 205.436 199.801 205.299V199.742C199.801 199.605 199.915 199.491 200.052 199.491C200.189 199.491 200.303 199.605 200.303 199.742V205.299C200.303 205.436 200.189 205.55 200.052 205.55Z" fill="#292524"/>
<path d="M223.164 198.383H182.199C181.161 198.383 180.316 197.539 180.316 196.5V191.502C180.316 190.464 181.161 189.62 182.199 189.62H223.164C224.203 189.62 225.047 190.464 225.047 191.502V196.5C225.047 197.539 224.203 198.383 223.164 198.383Z" fill="#FAFAF9"/>
<path d="M223.166 198.634H182.2C181.025 198.634 180.066 197.676 180.066 196.5V191.503C180.066 190.327 181.025 189.369 182.2 189.369H223.166C224.341 189.369 225.299 190.327 225.299 191.503V196.5C225.299 197.676 224.341 198.634 223.166 198.634ZM182.2 189.859C181.299 189.859 180.568 190.59 180.568 191.491V196.489C180.568 197.391 181.299 198.121 182.2 198.121H223.166C224.067 198.121 224.797 197.391 224.797 196.489V191.491C224.797 190.59 224.067 189.859 223.166 189.859H182.2Z" fill="#292524"/>
<path d="M220.267 197.173C220.13 197.173 220.016 197.059 220.016 196.922V191.365C220.016 191.228 220.13 191.114 220.267 191.114C220.404 191.114 220.518 191.228 220.518 191.365V196.922C220.518 197.059 220.404 197.173 220.267 197.173Z" fill="#292524"/>
<path d="M217.278 197.173C217.141 197.173 217.027 197.059 217.027 196.922V191.365C217.027 191.228 217.141 191.114 217.278 191.114C217.415 191.114 217.529 191.228 217.529 191.365V196.922C217.529 197.059 217.415 197.173 217.278 197.173Z" fill="#292524"/>
<path d="M211.298 197.173C211.161 197.173 211.047 197.059 211.047 196.922V191.365C211.047 191.228 211.161 191.114 211.298 191.114C211.435 191.114 211.549 191.228 211.549 191.365V196.922C211.549 197.059 211.435 197.173 211.298 197.173Z" fill="#292524"/>
<path d="M202.329 197.173C202.192 197.173 202.078 197.059 202.078 196.922V191.365C202.078 191.228 202.192 191.114 202.329 191.114C202.466 191.114 202.58 191.228 202.58 191.365V196.922C202.58 197.059 202.466 197.173 202.329 197.173Z" fill="#292524"/>
<path d="M199.329 197.173C199.192 197.173 199.078 197.059 199.078 196.922V191.365C199.078 191.228 199.192 191.114 199.329 191.114C199.466 191.114 199.58 191.228 199.58 191.365V196.922C199.58 197.059 199.478 197.173 199.329 197.173Z" fill="#292524"/>
<path d="M176.223 180.934H217.177C218.215 180.934 219.059 181.778 219.059 182.817V187.815C219.059 188.853 218.215 189.698 217.177 189.698H176.223C175.184 189.698 174.34 188.853 174.34 187.815V182.817C174.34 181.778 175.184 180.934 176.223 180.934Z" fill="#FAFAF9"/>
<path d="M217.178 189.961H176.224C175.048 189.961 174.09 189.002 174.09 187.827V182.829C174.09 181.653 175.048 180.695 176.224 180.695H217.178C218.353 180.695 219.311 181.653 219.311 182.829V187.827C219.311 189.002 218.364 189.961 217.178 189.961ZM176.224 181.186C175.322 181.186 174.592 181.916 174.592 182.817V187.815C174.592 188.717 175.322 189.447 176.224 189.447H217.178C218.079 189.447 218.809 188.717 218.809 187.815V182.817C218.809 181.916 218.079 181.186 217.178 181.186H176.224Z" fill="#292524"/>
<path d="M179.11 188.203C178.973 188.203 178.859 188.089 178.859 187.952V182.395C178.859 182.258 178.973 182.144 179.11 182.144C179.247 182.144 179.361 182.258 179.361 182.395V187.952C179.361 188.089 179.247 188.203 179.11 188.203Z" fill="#292524"/>
<path d="M182.099 188.203C181.962 188.203 181.848 188.089 181.848 187.952V182.395C181.848 182.258 181.962 182.144 182.099 182.144C182.236 182.144 182.35 182.258 182.35 182.395V187.952C182.35 188.089 182.247 188.203 182.099 188.203Z" fill="#292524"/>
<path d="M188.091 188.203C187.954 188.203 187.84 188.089 187.84 187.952V182.395C187.84 182.258 187.954 182.144 188.091 182.144C188.228 182.144 188.342 182.258 188.342 182.395V187.952C188.342 188.089 188.228 188.203 188.091 188.203Z" fill="#292524"/>
<path d="M197.06 188.203C196.923 188.203 196.809 188.089 196.809 187.952V182.395C196.809 182.258 196.923 182.144 197.06 182.144C197.197 182.144 197.311 182.258 197.311 182.395V187.952C197.311 188.089 197.197 188.203 197.06 188.203Z" fill="#292524"/>
<path d="M200.052 188.203C199.915 188.203 199.801 188.089 199.801 187.952V182.395C199.801 182.258 199.915 182.144 200.052 182.144C200.189 182.144 200.303 182.258 200.303 182.395V187.952C200.303 188.089 200.189 188.203 200.052 188.203Z" fill="#292524"/>
<path d="M145.51 211.769L167.225 177.045C167.772 176.167 168.936 175.893 169.826 176.452L174.071 179.099C174.95 179.647 175.224 180.811 174.664 181.701L152.949 216.424C152.402 217.303 151.238 217.577 150.348 217.018L146.103 214.37C145.224 213.811 144.95 212.647 145.51 211.769Z" fill="#FAFAF9"/>
<path d="M151.342 217.554C150.943 217.554 150.555 217.44 150.213 217.223L145.968 214.576C144.975 213.948 144.667 212.636 145.295 211.632L167.01 176.908C167.318 176.429 167.786 176.087 168.345 175.961C168.904 175.836 169.474 175.927 169.954 176.235L174.199 178.882C174.678 179.191 175.02 179.658 175.146 180.218C175.271 180.777 175.18 181.347 174.872 181.826L153.157 216.55C152.849 217.029 152.381 217.372 151.822 217.497C151.662 217.543 151.502 217.554 151.342 217.554ZM168.824 176.406C168.276 176.406 167.751 176.68 167.432 177.171L145.717 211.894C145.489 212.259 145.409 212.704 145.511 213.127C145.614 213.549 145.865 213.914 146.242 214.142L150.487 216.79C150.852 217.018 151.297 217.098 151.719 216.995C152.141 216.892 152.506 216.641 152.735 216.265L174.45 181.541C174.678 181.176 174.758 180.731 174.655 180.309C174.552 179.887 174.301 179.521 173.925 179.293L169.68 176.646C169.417 176.486 169.121 176.406 168.824 176.406Z" fill="#292524"/>
<path d="M152.984 213.287C152.939 213.287 152.893 213.275 152.847 213.252L148.135 210.308C148.02 210.24 147.986 210.08 148.055 209.966C148.123 209.852 148.283 209.818 148.397 209.886L153.11 212.83C153.224 212.899 153.258 213.058 153.19 213.173C153.155 213.252 153.064 213.287 152.984 213.287Z" fill="#292524"/>
<path d="M154.57 210.753C154.524 210.753 154.479 210.742 154.433 210.719L149.72 207.775C149.606 207.706 149.572 207.547 149.641 207.432C149.709 207.318 149.869 207.284 149.983 207.353L154.696 210.297C154.81 210.365 154.844 210.525 154.776 210.639C154.741 210.707 154.65 210.753 154.57 210.753Z" fill="#292524"/>
<path d="M157.742 205.687C157.696 205.687 157.651 205.676 157.605 205.653L152.892 202.709C152.778 202.64 152.744 202.481 152.812 202.366C152.881 202.252 153.041 202.218 153.155 202.287L157.868 205.231C157.982 205.299 158.016 205.459 157.947 205.573C157.913 205.641 157.822 205.687 157.742 205.687Z" fill="#292524"/>
<path d="M162.5 198.076C162.454 198.076 162.409 198.064 162.363 198.041L157.65 195.097C157.536 195.029 157.502 194.869 157.57 194.755C157.639 194.641 157.799 194.607 157.913 194.675L162.625 197.619C162.739 197.688 162.774 197.848 162.705 197.962C162.671 198.03 162.58 198.076 162.5 198.076Z" fill="#292524"/>
<path d="M164.09 195.543C164.044 195.543 163.998 195.531 163.953 195.508L159.24 192.564C159.126 192.496 159.092 192.336 159.16 192.222C159.229 192.108 159.388 192.074 159.502 192.142L164.215 195.086C164.329 195.155 164.364 195.314 164.295 195.428C164.261 195.497 164.17 195.543 164.09 195.543Z" fill="#292524"/>
<path d="M132.558 211.289L156.11 177.775C156.704 176.919 157.879 176.714 158.735 177.319L162.831 180.194C163.687 180.788 163.892 181.963 163.288 182.819L139.736 216.333C139.142 217.188 137.967 217.394 137.111 216.789L133.014 213.913C132.17 213.32 131.965 212.145 132.558 211.289Z" fill="#FAFAF9"/>
<path d="M138.194 217.383C137.76 217.383 137.338 217.246 136.973 216.995L132.876 214.119C131.918 213.446 131.678 212.111 132.351 211.141L155.904 177.627C156.577 176.668 157.912 176.429 158.882 177.102L162.978 179.978C163.937 180.651 164.177 181.986 163.503 182.956L139.951 216.47C139.62 216.938 139.13 217.246 138.57 217.348C138.434 217.371 138.308 217.383 138.194 217.383ZM132.762 211.437C132.249 212.179 132.42 213.195 133.162 213.708L137.258 216.584C137.612 216.835 138.046 216.926 138.479 216.858C138.913 216.778 139.278 216.55 139.529 216.184L163.081 182.671C163.595 181.929 163.423 180.913 162.682 180.4L158.585 177.524C157.844 177.011 156.828 177.182 156.314 177.924L132.762 211.437Z" fill="#292524"/>
<path d="M139.962 213.207C139.917 213.207 139.86 213.195 139.814 213.161L135.272 209.966C135.158 209.886 135.135 209.726 135.215 209.612C135.295 209.498 135.455 209.475 135.569 209.555L140.111 212.75C140.225 212.83 140.247 212.99 140.168 213.104C140.122 213.172 140.042 213.207 139.962 213.207Z" fill="#292524"/>
<path d="M141.685 210.765C141.639 210.765 141.582 210.753 141.537 210.719L136.995 207.524C136.881 207.444 136.858 207.284 136.938 207.17C137.018 207.056 137.178 207.033 137.292 207.113L141.833 210.308C141.947 210.388 141.97 210.548 141.89 210.662C141.833 210.73 141.753 210.765 141.685 210.765Z" fill="#292524"/>
<path d="M145.122 205.869C145.077 205.869 145.02 205.858 144.974 205.824L140.432 202.629C140.318 202.549 140.296 202.389 140.375 202.275C140.455 202.161 140.615 202.138 140.729 202.218L145.271 205.413C145.385 205.493 145.408 205.652 145.328 205.767C145.282 205.835 145.202 205.869 145.122 205.869Z" fill="#292524"/>
<path d="M150.279 198.532C150.233 198.532 150.176 198.521 150.13 198.487L145.589 195.292C145.475 195.212 145.452 195.052 145.532 194.938C145.612 194.824 145.771 194.801 145.885 194.881L150.427 198.076C150.541 198.156 150.564 198.315 150.484 198.43C150.438 198.487 150.358 198.532 150.279 198.532Z" fill="#292524"/>
<path d="M152.001 196.079C151.956 196.079 151.899 196.067 151.853 196.033L147.311 192.838C147.197 192.758 147.174 192.598 147.254 192.484C147.334 192.37 147.494 192.347 147.608 192.427L152.15 195.622C152.264 195.702 152.287 195.862 152.207 195.976C152.161 196.044 152.081 196.079 152.001 196.079Z" fill="#292524"/>
<path d="M168.886 159.915C176.127 152.674 176.127 140.933 168.886 133.692C161.644 126.451 149.904 126.451 142.662 133.692C135.421 140.933 135.421 152.674 142.662 159.915C149.904 167.157 161.644 167.157 168.886 159.915Z" fill="#FAFAF9"/>
<path d="M155.796 165.602C148.47 165.602 141.498 161.3 138.463 154.145C134.412 144.605 138.885 133.548 148.424 129.497C157.964 125.446 169.021 129.92 173.072 139.459C175.035 144.081 175.08 149.193 173.198 153.848C171.315 158.504 167.732 162.144 163.11 164.107C160.725 165.122 158.238 165.602 155.796 165.602ZM155.75 128.505C153.365 128.505 150.958 128.972 148.63 129.954C139.341 133.891 134.994 144.651 138.942 153.94C141.897 160.9 148.687 165.088 155.807 165.088C158.192 165.088 160.6 164.62 162.928 163.639C167.424 161.733 170.915 158.184 172.741 153.654C174.567 149.124 174.533 144.149 172.616 139.653C169.66 132.692 162.871 128.505 155.75 128.505Z" fill="#292524"/>
<path d="M155.775 161.39C163.829 161.39 170.358 154.861 170.358 146.807C170.358 138.753 163.829 132.224 155.775 132.224C147.721 132.224 141.191 138.753 141.191 146.807C141.191 154.861 147.721 161.39 155.775 161.39Z" fill="#FAFAF9"/>
<path d="M155.775 161.641C153.892 161.641 152.009 161.276 150.218 160.557C146.543 159.074 143.668 156.244 142.116 152.604C140.564 148.964 140.53 144.924 142.013 141.25C143.497 137.576 146.327 134.7 149.967 133.148C157.498 129.953 166.216 133.479 169.411 141.01C170.963 144.662 170.997 148.69 169.514 152.364C168.03 156.039 165.2 158.914 161.56 160.466C159.7 161.242 157.738 161.641 155.775 161.641ZM155.752 132.475C153.892 132.475 151.998 132.84 150.172 133.616C146.646 135.111 143.919 137.884 142.481 141.433C141.043 144.981 141.078 148.873 142.572 152.399C144.067 155.924 146.84 158.652 150.389 160.089C153.938 161.527 157.829 161.493 161.355 159.998C164.881 158.503 167.608 155.73 169.046 152.182C170.484 148.633 170.449 144.742 168.954 141.216C166.649 135.75 161.332 132.475 155.752 132.475Z" fill="#292524"/>
<path d="M159.388 157.772L158.281 155.159C156.775 155.764 155.029 155.958 153.842 155.695L153.728 153.698C154.926 153.927 156.478 153.847 157.916 153.231C159.753 152.455 160.54 150.868 159.913 149.396C159.308 147.981 157.927 147.525 155.691 147.559C152.621 147.639 150.487 147.148 149.529 144.901C148.616 142.755 149.449 140.485 151.663 139.081L150.556 136.468L152.153 135.783L153.215 138.294C154.789 137.689 156.022 137.655 156.957 137.769L157.037 139.743C156.364 139.663 155.063 139.549 153.409 140.245C151.423 141.089 151.172 142.596 151.617 143.634C152.188 144.98 153.431 145.243 156.067 145.22C159.194 145.174 161.1 145.95 162.081 148.244C162.948 150.286 162.332 152.797 159.867 154.372L161.008 157.053L159.388 157.772Z" fill="#FAFAF9"/>
<path d="M159.39 158.024C159.355 158.024 159.321 158.012 159.298 158.001C159.241 157.978 159.184 157.932 159.161 157.864L158.146 155.479C156.674 156.027 154.985 156.209 153.798 155.947C153.684 155.924 153.604 155.833 153.604 155.719L153.49 153.722C153.49 153.642 153.513 153.573 153.57 153.516C153.627 153.471 153.707 153.448 153.787 153.459C155.099 153.71 156.571 153.539 157.838 153.003C158.682 152.649 159.298 152.113 159.629 151.462C159.949 150.835 159.983 150.15 159.698 149.5C159.173 148.267 158.02 147.777 155.715 147.822C153.045 147.891 150.421 147.605 149.325 145.015C148.389 142.813 149.2 140.474 151.379 139.002L150.352 136.582C150.329 136.525 150.329 136.457 150.352 136.388C150.375 136.331 150.421 136.274 150.489 136.252L152.087 135.567C152.212 135.51 152.36 135.567 152.417 135.704L153.387 137.986C154.654 137.53 155.852 137.381 157.027 137.53C157.153 137.541 157.244 137.644 157.244 137.769L157.324 139.743C157.324 139.812 157.301 139.892 157.244 139.937C157.187 139.983 157.119 140.017 157.039 140.006C156.491 139.937 155.19 139.789 153.536 140.485C151.687 141.272 151.482 142.619 151.87 143.543C152.349 144.661 153.319 145.004 156.092 144.969C159.492 144.924 161.364 145.871 162.334 148.153C163.144 150.059 162.779 152.729 160.2 154.475L161.261 156.962C161.318 157.088 161.261 157.236 161.124 157.293L159.492 157.989C159.458 158.024 159.424 158.024 159.39 158.024ZM158.283 154.92C158.385 154.92 158.477 154.977 158.511 155.068L159.515 157.442L160.679 156.951L159.641 154.498C159.595 154.384 159.629 154.258 159.743 154.19C162.242 152.603 162.607 150.127 161.866 148.381C160.998 146.35 159.39 145.506 156.331 145.506C156.252 145.506 156.172 145.506 156.08 145.506C153.41 145.529 152.029 145.278 151.39 143.771C150.877 142.55 151.265 140.93 153.319 140.063C154.848 139.412 156.092 139.447 156.776 139.515L156.719 138.043C155.624 137.94 154.506 138.112 153.308 138.568C153.182 138.614 153.034 138.557 152.988 138.431L152.018 136.16L150.877 136.64L151.881 139.013C151.927 139.127 151.893 139.253 151.778 139.321C149.679 140.645 148.88 142.801 149.736 144.821C150.66 147.012 152.771 147.411 155.658 147.332C158.18 147.297 159.515 147.891 160.12 149.317C160.451 150.104 160.428 150.949 160.04 151.713C159.652 152.466 158.945 153.083 157.997 153.482C156.754 154.007 155.304 154.201 153.981 154.018L154.061 155.502C155.202 155.696 156.822 155.479 158.157 154.943C158.226 154.92 158.248 154.92 158.283 154.92Z" fill="#292524"/>
<path d="M162.714 144.957L191.344 174.238C192.074 174.979 192.063 176.177 191.31 176.896L187.738 180.388C186.997 181.118 185.798 181.107 185.079 180.354L156.449 151.073C155.719 150.332 155.731 149.133 156.484 148.415L160.055 144.923C160.797 144.204 161.984 144.215 162.714 144.957Z" fill="#FAFAF9"/>
<path d="M186.424 181.198C186.413 181.198 186.413 181.198 186.402 181.198C185.831 181.187 185.295 180.959 184.895 180.559L156.265 151.279C155.866 150.868 155.649 150.332 155.661 149.761C155.672 149.19 155.9 148.654 156.3 148.255L159.871 144.763C160.716 143.941 162.074 143.953 162.895 144.797L191.525 174.078C191.925 174.489 192.141 175.025 192.13 175.595C192.119 176.166 191.89 176.702 191.491 177.102L187.919 180.593C187.52 180.981 186.984 181.198 186.424 181.198ZM161.366 144.649C160.955 144.649 160.544 144.809 160.225 145.117L156.653 148.609C156.345 148.917 156.163 149.316 156.163 149.761C156.163 150.206 156.322 150.605 156.631 150.925L185.261 180.205C185.569 180.513 185.968 180.696 186.413 180.696C186.424 180.696 186.424 180.696 186.436 180.696C186.869 180.696 187.269 180.536 187.577 180.228L191.149 176.736C191.457 176.428 191.639 176.029 191.639 175.584C191.639 175.15 191.48 174.74 191.171 174.42L162.53 145.14C162.21 144.809 161.788 144.649 161.366 144.649Z" fill="#292524"/>
<path d="M159.724 152.18C159.656 152.18 159.599 152.157 159.542 152.1C159.439 151.998 159.45 151.838 159.542 151.746L163.513 147.867C163.615 147.764 163.775 147.775 163.866 147.867C163.969 147.969 163.958 148.129 163.866 148.22L159.895 152.1C159.85 152.157 159.781 152.18 159.724 152.18Z" fill="#292524"/>
<path d="M161.81 154.326C161.742 154.326 161.685 154.303 161.627 154.246C161.525 154.144 161.536 153.984 161.627 153.892L165.599 150.013C165.701 149.91 165.861 149.921 165.952 150.013C166.055 150.115 166.044 150.275 165.952 150.366L161.981 154.246C161.936 154.303 161.879 154.326 161.81 154.326Z" fill="#292524"/>
<path d="M165.99 158.605C165.921 158.605 165.864 158.582 165.807 158.525C165.704 158.422 165.716 158.263 165.807 158.171L169.778 154.292C169.881 154.189 170.041 154.2 170.132 154.292C170.235 154.394 170.223 154.554 170.132 154.645L166.161 158.525C166.127 158.571 166.058 158.605 165.99 158.605Z" fill="#292524"/>
<path d="M172.263 165.017C172.195 165.017 172.138 164.994 172.081 164.937C171.978 164.834 171.989 164.675 172.081 164.583L176.052 160.704C176.154 160.601 176.314 160.612 176.405 160.704C176.508 160.806 176.497 160.966 176.405 161.057L172.434 164.937C172.389 164.994 172.332 165.017 172.263 165.017Z" fill="#292524"/>
<path d="M174.353 167.151C174.285 167.151 174.228 167.128 174.17 167.071C174.068 166.969 174.079 166.809 174.17 166.718L178.141 162.838C178.244 162.735 178.404 162.747 178.495 162.838C178.598 162.941 178.586 163.1 178.495 163.192L174.524 167.071C174.49 167.128 174.422 167.151 174.353 167.151Z" fill="#292524"/>
<path d="M197.462 180.502L168.821 151.222C168.09 150.48 168.102 149.282 168.855 148.563L172.426 145.06C173.168 144.33 174.366 144.341 175.085 145.094L203.727 174.374C204.457 175.116 204.445 176.314 203.692 177.033L200.121 180.536C199.39 181.267 198.192 181.244 197.462 180.502Z" fill="#FAFAF9"/>
<path d="M198.817 181.324C198.806 181.324 198.806 181.324 198.795 181.324C198.224 181.312 197.688 181.084 197.288 180.685L168.647 151.404C167.825 150.56 167.837 149.213 168.681 148.38L172.253 144.877C172.663 144.478 173.2 144.261 173.77 144.272C174.341 144.284 174.877 144.512 175.277 144.911L203.918 174.192C204.317 174.603 204.534 175.139 204.523 175.71C204.511 176.28 204.283 176.816 203.884 177.216L200.312 180.719C199.901 181.107 199.376 181.324 198.817 181.324ZM173.748 144.786C173.314 144.786 172.915 144.946 172.606 145.254L169.035 148.757C168.396 149.384 168.384 150.423 169.012 151.062L197.653 180.342C197.962 180.65 198.361 180.833 198.806 180.833C199.24 180.844 199.65 180.673 199.97 180.365L203.541 176.862C204.18 176.234 204.192 175.196 203.564 174.557L174.923 145.277C174.615 144.968 174.215 144.786 173.77 144.786C173.759 144.786 173.748 144.786 173.748 144.786Z" fill="#292524"/>
<path d="M196.49 177.672C196.421 177.672 196.364 177.649 196.307 177.592C196.204 177.49 196.216 177.33 196.307 177.239L200.278 173.359C200.381 173.256 200.541 173.268 200.632 173.359C200.735 173.462 200.723 173.621 200.632 173.713L196.661 177.592C196.615 177.649 196.547 177.672 196.49 177.672Z" fill="#292524"/>
<path d="M194.4 175.527C194.331 175.527 194.274 175.504 194.217 175.447C194.115 175.345 194.126 175.185 194.217 175.094L198.188 171.214C198.291 171.111 198.451 171.123 198.542 171.214C198.645 171.317 198.633 171.476 198.542 171.568L194.571 175.447C194.525 175.504 194.457 175.527 194.4 175.527Z" fill="#292524"/>
<path d="M190.209 171.26C190.14 171.26 190.083 171.237 190.026 171.18C189.923 171.077 189.935 170.917 190.026 170.826L193.997 166.946C194.1 166.844 194.259 166.855 194.351 166.946C194.453 167.049 194.442 167.209 194.351 167.3L190.38 171.18C190.334 171.237 190.266 171.26 190.209 171.26Z" fill="#292524"/>
<path d="M183.935 164.846C183.867 164.846 183.81 164.823 183.752 164.766C183.65 164.664 183.661 164.504 183.752 164.412L187.724 160.533C187.826 160.43 187.986 160.441 188.077 160.533C188.18 160.635 188.169 160.795 188.077 160.887L184.106 164.766C184.061 164.812 184.004 164.846 183.935 164.846Z" fill="#292524"/>
<path d="M181.845 162.701C181.777 162.701 181.72 162.678 181.663 162.621C181.56 162.519 181.571 162.359 181.663 162.267L185.634 158.388C185.736 158.285 185.896 158.296 185.987 158.388C186.09 158.49 186.079 158.65 185.987 158.741L182.016 162.621C181.971 162.678 181.902 162.701 181.845 162.701Z" fill="#292524"/>
<path d="M192.193 151.005L231.275 163.261C232.268 163.569 232.816 164.63 232.507 165.623L231.013 170.392C230.705 171.385 229.643 171.933 228.651 171.625L189.568 159.369C188.575 159.061 188.028 158 188.336 157.007L189.831 152.238C190.139 151.245 191.2 150.697 192.193 151.005Z" fill="#FAFAF9"/>
<path d="M229.211 171.967C228.994 171.967 228.788 171.933 228.572 171.865L189.489 159.609C188.371 159.256 187.743 158.057 188.086 156.928L189.58 152.158C189.934 151.04 191.132 150.401 192.262 150.754L231.344 163.01C231.892 163.181 232.337 163.557 232.6 164.06C232.862 164.562 232.919 165.144 232.748 165.691L231.253 170.461C230.968 171.385 230.124 171.967 229.211 171.967ZM191.634 151.165C190.938 151.165 190.299 151.61 190.071 152.306L188.576 157.076C188.302 157.932 188.782 158.856 189.649 159.119L228.731 171.374C229.587 171.648 230.511 171.169 230.774 170.301L232.269 165.532C232.394 165.121 232.36 164.676 232.155 164.288C231.949 163.9 231.607 163.615 231.196 163.489L192.114 151.234C191.954 151.188 191.794 151.165 191.634 151.165Z" fill="#292524"/>
<path d="M192.851 158.81C192.829 158.81 192.806 158.81 192.771 158.799C192.635 158.753 192.566 158.616 192.612 158.479L194.278 153.185C194.323 153.048 194.46 152.979 194.597 153.025C194.734 153.07 194.803 153.207 194.757 153.344L193.091 158.639C193.057 158.742 192.954 158.81 192.851 158.81Z" fill="#292524"/>
<path d="M195.707 159.711C195.684 159.711 195.661 159.711 195.627 159.7C195.49 159.654 195.422 159.517 195.467 159.38L197.133 154.085C197.179 153.949 197.316 153.88 197.453 153.926C197.59 153.971 197.658 154.108 197.612 154.245L195.946 159.54C195.912 159.643 195.81 159.711 195.707 159.711Z" fill="#292524"/>
<path d="M201.41 161.503C201.387 161.503 201.364 161.503 201.33 161.492C201.193 161.446 201.125 161.309 201.17 161.172L202.836 155.877C202.882 155.741 203.019 155.672 203.156 155.718C203.293 155.763 203.361 155.9 203.316 156.037L201.65 161.332C201.615 161.435 201.513 161.503 201.41 161.503Z" fill="#292524"/>
<path d="M209.969 164.185C209.946 164.185 209.923 164.185 209.889 164.173C209.752 164.128 209.683 163.991 209.729 163.854L211.395 158.559C211.441 158.422 211.578 158.354 211.714 158.399C211.851 158.445 211.92 158.582 211.874 158.719L210.208 164.014C210.174 164.116 210.083 164.185 209.969 164.185Z" fill="#292524"/>
<path d="M212.824 165.086C212.801 165.086 212.778 165.086 212.744 165.075C212.607 165.029 212.539 164.892 212.584 164.755L214.25 159.46C214.296 159.324 214.433 159.255 214.57 159.301C214.707 159.346 214.775 159.483 214.73 159.62L213.064 164.915C213.029 165.018 212.938 165.086 212.824 165.086Z" fill="#292524"/>
<path d="M132.103 187.507L162.057 159.573C162.821 158.866 164.008 158.9 164.716 159.665L168.127 163.327C168.835 164.092 168.801 165.279 168.036 165.986L138.082 193.92C137.318 194.628 136.131 194.593 135.424 193.829L132.012 190.166C131.293 189.401 131.339 188.215 132.103 187.507Z" fill="#FAFAF9"/>
<path d="M136.794 194.673C136.223 194.673 135.652 194.445 135.23 194L131.818 190.337C131.43 189.915 131.225 189.379 131.248 188.808C131.271 188.237 131.51 187.713 131.921 187.325L161.875 159.391C162.297 159.003 162.833 158.797 163.404 158.82C163.974 158.843 164.499 159.083 164.887 159.493L168.299 163.156C168.687 163.578 168.892 164.115 168.87 164.685C168.847 165.256 168.607 165.781 168.196 166.169L138.243 194.103C137.843 194.479 137.318 194.673 136.794 194.673ZM163.335 159.311C162.925 159.311 162.525 159.47 162.229 159.744L132.275 187.678C131.955 187.975 131.773 188.374 131.761 188.819C131.75 189.253 131.898 189.675 132.195 189.995L135.607 193.658C136.223 194.319 137.25 194.354 137.912 193.738L167.866 165.804C168.185 165.507 168.368 165.107 168.379 164.662C168.39 164.229 168.242 163.807 167.945 163.487L164.534 159.824C164.237 159.505 163.837 159.322 163.392 159.311C163.381 159.311 163.358 159.311 163.335 159.311Z" fill="#292524"/>
<path d="M138.995 190.908C138.927 190.908 138.858 190.885 138.813 190.828L135.024 186.766C134.933 186.663 134.933 186.504 135.036 186.412C135.138 186.321 135.298 186.321 135.389 186.424L139.178 190.486C139.269 190.589 139.269 190.748 139.166 190.84C139.121 190.897 139.064 190.908 138.995 190.908Z" fill="#292524"/>
<path d="M141.187 188.877C141.118 188.877 141.05 188.855 141.004 188.798L137.216 184.735C137.124 184.633 137.124 184.473 137.227 184.382C137.33 184.29 137.489 184.29 137.581 184.393L141.369 188.455C141.46 188.558 141.46 188.718 141.358 188.809C141.312 188.855 141.244 188.877 141.187 188.877Z" fill="#292524"/>
<path d="M145.558 184.792C145.489 184.792 145.421 184.769 145.375 184.712L141.587 180.649C141.495 180.547 141.495 180.387 141.598 180.296C141.701 180.204 141.86 180.204 141.952 180.307L145.74 184.369C145.832 184.472 145.832 184.632 145.729 184.723C145.683 184.769 145.626 184.792 145.558 184.792Z" fill="#292524"/>
<path d="M152.116 178.676C152.048 178.676 151.979 178.653 151.934 178.596L148.145 174.534C148.054 174.431 148.054 174.271 148.157 174.18C148.259 174.089 148.419 174.089 148.51 174.191L152.299 178.254C152.39 178.356 152.39 178.516 152.287 178.607C152.242 178.653 152.185 178.676 152.116 178.676Z" fill="#292524"/>
<path d="M154.308 176.634C154.239 176.634 154.171 176.611 154.125 176.554L150.337 172.492C150.245 172.389 150.245 172.229 150.348 172.138C150.451 172.047 150.61 172.047 150.702 172.149L154.49 176.212C154.581 176.314 154.582 176.474 154.479 176.565C154.433 176.611 154.376 176.634 154.308 176.634Z" fill="#292524"/>
<path d="M215.198 142.879H140.559V199.934H215.198V142.879Z" fill="#FAFAF9"/>
<path d="M215.199 200.196H140.56C140.423 200.196 140.309 200.082 140.309 199.945V142.891C140.309 142.754 140.423 142.64 140.56 142.64H215.199C215.336 142.64 215.45 142.754 215.45 142.891V199.945C215.45 200.082 215.336 200.196 215.199 200.196ZM140.811 199.694H214.948V143.142H140.811V199.694Z" fill="#292524"/>
<path d="M147.005 190.007C146.937 190.007 146.88 189.984 146.823 189.927C146.72 189.824 146.732 189.664 146.823 189.573L171.973 164.96C172.075 164.868 172.224 164.868 172.326 164.96L184.616 176.987L207.438 154.644C207.54 154.541 207.7 154.553 207.791 154.644C207.894 154.747 207.883 154.907 207.791 154.998L184.787 177.512C184.684 177.603 184.536 177.603 184.433 177.512L172.144 165.484L147.177 189.938C147.131 189.984 147.062 190.007 147.005 190.007Z" fill="#292524"/>
<path d="M206.615 158.057L206.159 157.828L207.585 154.861L204.584 156.219L204.379 155.763L208.635 153.834L206.615 158.057Z" fill="#292524"/>
<path d="M196.754 58.1757L225.727 86.8856C226.457 87.6159 226.469 88.8027 225.738 89.533L222.224 93.0589C221.493 93.7892 220.307 93.8006 219.565 93.0703L190.593 64.3604C189.862 63.6301 189.851 62.4434 190.581 61.7131L194.096 58.1871C194.826 57.4454 196.013 57.4454 196.754 58.1757Z" fill="#FAFAF9"/>
<path d="M220.887 93.8692C220.34 93.8692 219.803 93.6638 219.381 93.253L190.409 64.5431C190.009 64.1437 189.781 63.6074 189.781 63.0368C189.781 62.4663 189.998 61.93 190.397 61.5306L193.912 58.0046C194.745 57.1716 196.091 57.1716 196.924 57.9932L225.897 86.7031C226.296 87.1025 226.524 87.6388 226.524 88.2093C226.524 88.7799 226.308 89.3162 225.908 89.7156L222.394 93.2416C221.971 93.6638 221.424 93.8692 220.887 93.8692ZM195.43 57.8791C195.007 57.8791 194.597 58.0388 194.277 58.3583L190.763 61.8843C190.454 62.1924 190.283 62.6032 190.295 63.0368C190.295 63.4704 190.466 63.8812 190.774 64.1779L219.746 92.8878C220.385 93.5154 221.412 93.5154 222.051 92.8764L225.566 89.3504C225.874 89.0423 226.045 88.6316 226.034 88.1979C226.034 87.7643 225.863 87.3535 225.555 87.0568L196.582 58.3469C196.263 58.0388 195.84 57.8791 195.43 57.8791Z" fill="#292524"/>
<path d="M193.865 65.399C193.797 65.399 193.74 65.3762 193.682 65.3306C193.58 65.2279 193.58 65.0681 193.682 64.9768L197.585 61.0629C197.688 60.9602 197.847 60.9602 197.939 61.0629C198.041 61.1656 198.041 61.3253 197.939 61.4166L194.036 65.3306C193.991 65.3762 193.934 65.399 193.865 65.399Z" fill="#292524"/>
<path d="M195.974 67.4986C195.906 67.4986 195.849 67.4758 195.792 67.4302C195.689 67.3275 195.689 67.1677 195.792 67.0764L199.694 63.1625C199.797 63.0598 199.957 63.0598 200.048 63.1625C200.151 63.2652 200.151 63.4249 200.048 63.5162L196.146 67.4302C196.111 67.4758 196.043 67.4986 195.974 67.4986Z" fill="#292524"/>
<path d="M200.213 71.6866C200.144 71.6866 200.087 71.6638 200.03 71.6182C199.927 71.5155 199.927 71.3557 200.03 71.2644L203.933 67.3505C204.035 67.2478 204.195 67.2478 204.286 67.3505C204.389 67.4532 204.389 67.6129 204.286 67.7042L200.384 71.6182C200.338 71.6638 200.281 71.6866 200.213 71.6866Z" fill="#292524"/>
<path d="M206.556 77.9845C206.488 77.9845 206.431 77.9616 206.374 77.916C206.271 77.8133 206.271 77.6536 206.374 77.5623L210.276 73.6483C210.379 73.5456 210.539 73.5456 210.63 73.6483C210.733 73.751 210.733 73.9108 210.63 74.0021L206.728 77.916C206.693 77.9502 206.625 77.9845 206.556 77.9845Z" fill="#292524"/>
<path d="M208.681 80.0733C208.613 80.0733 208.556 80.0505 208.499 80.0049C208.396 79.9022 208.396 79.7424 208.499 79.6511L212.401 75.7372C212.504 75.6345 212.664 75.6345 212.755 75.7372C212.858 75.8399 212.858 75.9996 212.755 76.0909L208.853 80.0049C208.807 80.0505 208.739 80.0733 208.681 80.0733Z" fill="#292524"/>
<path d="M266.02 38.0125C266.157 35.7645 265.461 33.4709 264.115 31.6794C263.533 30.9035 262.814 30.2074 261.935 29.808C261.057 29.4086 259.995 29.3288 259.128 29.7624C259.117 29.7624 259.105 29.7738 259.105 29.7738C258.147 30.2645 256.983 30.1846 256.184 29.4657C255.671 29.0093 255.066 28.6441 254.404 28.4159C252.749 27.8339 250.81 28.1306 249.406 29.1804C248.002 30.2302 247.169 31.9989 247.261 33.7448C247.375 36.0156 248.927 37.9668 250.661 39.4389C252.407 40.9109 254.415 42.0634 256.606 42.7024C258.386 43.2273 260.269 43.4099 262.106 43.1816C262.939 43.0789 263.567 43.0105 264.172 42.4285C264.719 41.915 265.13 41.2646 265.427 40.5799C265.781 39.7584 265.975 38.8797 266.02 38.0125Z" fill="#292524"/>
<path d="M262.966 44.563L269.425 54.9812L261.346 58.3018L254.91 46.1605L262.966 44.563Z" fill="#FAFAF9"/>
<path d="M260.928 45.6016C261.692 45.944 262.64 45.75 263.256 45.2023C263.872 44.6431 264.157 43.7645 264.054 42.9315C263.997 42.5093 263.838 42.0871 263.507 41.8132C263.085 41.4595 262.457 41.4367 261.943 41.6421C261.43 41.8475 261.031 42.2582 260.722 42.7147C260.722 42.7147 260.255 42.2582 258.771 40.9003C257.094 39.3599 259.524 36.7354 259.524 36.7354C257.06 37.8422 254.663 37.8879 252.347 36.8951C251.069 38.8464 250.567 41.2769 250.966 43.5705C251.194 44.9056 251.753 46.2293 252.78 47.1307C253.944 48.1577 255.633 48.5 257.151 48.1805C258.669 47.861 260.015 46.9139 260.974 45.6929L260.928 45.6016Z" fill="#FAFAF9"/>
<path d="M256.03 48.5344C254.752 48.5344 253.508 48.1008 252.595 47.3021C251.374 46.2294 250.895 44.7004 250.701 43.5935C250.29 41.2314 250.804 38.7324 252.116 36.7355C252.184 36.6328 252.31 36.5986 252.424 36.6442C254.672 37.6028 257.023 37.5571 259.407 36.4845C259.521 36.4388 259.647 36.4731 259.715 36.5644C259.784 36.6671 259.773 36.7926 259.693 36.8839C259.681 36.8953 258.369 38.3331 258.415 39.6111C258.437 40.0447 258.597 40.387 258.917 40.6951C259.864 41.5738 260.4 42.0758 260.674 42.3155C261.028 41.8704 261.416 41.5624 261.838 41.3912C262.477 41.1287 263.184 41.2086 263.652 41.5966C264.086 41.9617 264.234 42.4866 264.291 42.8746C264.417 43.8103 264.086 44.7688 263.413 45.3622C262.785 45.9327 261.849 46.1381 261.062 45.9099C260.024 47.2108 258.643 48.0894 257.159 48.4089C256.806 48.5002 256.418 48.5344 256.03 48.5344ZM252.435 37.192C251.271 39.0634 250.826 41.3455 251.203 43.5136C251.386 44.5292 251.819 45.9556 252.937 46.9255C253.999 47.8612 255.585 48.2378 257.091 47.9182C258.449 47.633 259.715 46.8114 260.685 45.6132C260.685 45.5676 260.685 45.5219 260.708 45.4877C260.765 45.3622 260.914 45.3051 261.039 45.3622C261.69 45.6589 262.534 45.5105 263.105 44.997C263.652 44.5064 263.926 43.719 263.812 42.9545C263.755 42.5323 263.595 42.19 263.356 41.996C263.036 41.7335 262.511 41.6765 262.055 41.8704C261.655 42.0302 261.279 42.3611 260.936 42.8518C260.891 42.9088 260.834 42.9545 260.754 42.9545C260.674 42.9659 260.606 42.9317 260.56 42.886C260.56 42.886 260.069 42.4182 258.609 41.0717C258.186 40.6837 257.958 40.2044 257.935 39.6453C257.901 38.7781 258.358 37.8994 258.768 37.2947C256.6 38.0592 254.478 38.025 252.435 37.192Z" fill="#292524"/>
<path d="M260.855 44.3801C260.775 44.3801 260.707 44.3459 260.65 44.2774C260.57 44.1633 260.593 44.0036 260.695 43.9237C261.163 43.57 261.745 43.3532 262.338 43.3075C262.475 43.2961 262.601 43.3988 262.612 43.5357C262.624 43.6727 262.521 43.7982 262.384 43.8096C261.893 43.8438 261.403 44.0264 261.015 44.3231C260.969 44.3573 260.912 44.3801 260.855 44.3801Z" fill="#292524"/>
<path d="M267.814 52.6308C267.735 52.6308 267.643 52.5852 267.598 52.5167L263.398 45.75C263.33 45.6359 263.364 45.4762 263.478 45.4077C263.592 45.3392 263.752 45.3735 263.821 45.4876L268.02 52.2542C268.088 52.3684 268.054 52.5281 267.94 52.5966C267.906 52.6194 267.86 52.6308 267.814 52.6308Z" fill="#292524"/>
<path d="M260.353 56.305C260.262 56.305 260.182 56.2594 260.136 56.1795L255.891 48.5113C255.823 48.3858 255.868 48.2375 255.994 48.169C256.119 48.1005 256.268 48.1462 256.336 48.2717L260.581 55.9399C260.65 56.0654 260.604 56.2137 260.478 56.2822C260.433 56.2936 260.387 56.305 260.353 56.305Z" fill="#292524"/>
<path d="M251.983 36.9627C251.937 36.9627 251.892 36.9513 251.846 36.9171C250.888 36.2895 250.192 35.2967 249.929 34.1784C249.895 34.0415 249.986 33.9046 250.112 33.8818C250.249 33.8475 250.386 33.9388 250.408 34.0643C250.637 35.0571 251.253 35.9357 252.109 36.4949C252.223 36.5747 252.257 36.7231 252.177 36.8486C252.143 36.9171 252.063 36.9627 251.983 36.9627Z" fill="#292524"/>
<path d="M287.553 97.8057C287.553 97.8057 301.121 154.347 325.951 179.462C328.073 181.608 329.066 184.62 328.61 187.61C327.297 196.202 322.824 213.467 307.625 222.984C305.947 224.033 303.791 222.698 303.985 220.724L305.48 206.301C305.48 206.301 296.031 195.78 290.566 190.075C290.566 190.075 290.611 208.309 290.143 218.853C289.984 222.413 287.051 225.232 283.468 225.232H250.73C249.178 225.232 248.334 223.429 249.326 222.242L257.885 211.983C257.885 211.983 255.911 133.351 252.407 97.8171H287.553V97.8057Z" fill="#FAFAF9"/>
<path d="M283.476 225.471H250.738C249.916 225.471 249.197 225.014 248.855 224.273C248.513 223.531 248.615 222.687 249.14 222.07L257.63 211.892C257.55 208.72 255.462 131.605 252.062 97.0408C252.05 96.9039 252.153 96.7784 252.29 96.767C252.427 96.7556 252.552 96.8583 252.564 96.9952C256.021 132.141 258.121 211.184 258.144 211.983C258.144 212.04 258.121 212.109 258.087 212.154L249.528 222.413C249.129 222.881 249.049 223.531 249.312 224.09C249.574 224.649 250.122 225.003 250.738 225.003H283.476C286.922 225.003 289.74 222.31 289.9 218.864C290.357 208.446 290.322 190.28 290.322 190.097C290.322 189.994 290.379 189.903 290.482 189.869C290.573 189.835 290.688 189.857 290.756 189.926C296.165 195.574 305.59 206.061 305.682 206.164C305.727 206.221 305.75 206.289 305.75 206.358L304.255 220.781C304.175 221.603 304.54 222.356 305.248 222.801C305.955 223.246 306.8 223.246 307.507 222.801C322.421 213.467 326.986 196.738 328.378 187.598C328.812 184.722 327.842 181.756 325.788 179.667C312.927 166.659 303.16 145.115 297.226 129.334C290.802 112.24 287.367 98.0336 287.333 97.8967C287.299 97.7597 287.378 97.6228 287.515 97.5886C287.652 97.5543 287.789 97.6342 287.823 97.7711C287.858 97.9081 291.292 112.092 297.705 129.163C303.628 144.898 313.361 166.374 326.153 179.314C328.321 181.516 329.348 184.643 328.891 187.678C327.488 196.898 322.878 213.786 307.793 223.223C306.937 223.759 305.864 223.759 304.997 223.223C304.141 222.687 303.673 221.728 303.776 220.724L305.259 206.403C304.381 205.433 296.051 196.168 290.859 190.713C290.859 194.022 290.847 209.553 290.437 218.875C290.231 222.561 287.196 225.471 283.476 225.471Z" fill="#292524"/>
<path d="M290.57 190.313C290.502 190.313 290.433 190.279 290.376 190.222C275.588 173.185 268.718 152.828 265.546 138.759C262.328 124.415 262.191 113.495 262.191 112.16L258.026 109.375C257.912 109.296 257.878 109.147 257.958 109.022C258.037 108.908 258.186 108.873 258.311 108.953L262.59 111.817C262.659 111.863 262.705 111.943 262.705 112.034C262.705 112.148 262.636 123.479 266.059 138.679C269.209 152.691 276.055 172.969 290.775 189.914C290.867 190.016 290.855 190.176 290.753 190.268C290.684 190.29 290.627 190.313 290.57 190.313Z" fill="#292524"/>
<path d="M288.484 213.603C288.472 213.603 288.472 213.603 288.484 213.603L259.705 212.713C259.568 212.713 259.454 212.587 259.466 212.451C259.466 212.314 259.591 212.211 259.728 212.211L288.495 213.101C288.632 213.101 288.746 213.227 288.735 213.363C288.723 213.5 288.609 213.603 288.484 213.603Z" fill="#292524"/>
<path d="M306.722 206.289C306.642 206.289 306.562 206.255 306.516 206.175C306.436 206.061 306.471 205.901 306.585 205.821C315.976 199.625 322.503 189.298 324.055 178.173C324.078 178.036 324.203 177.933 324.34 177.956C324.477 177.979 324.568 178.104 324.557 178.241C322.982 189.504 316.364 199.968 306.859 206.232C306.813 206.266 306.767 206.289 306.722 206.289Z" fill="#292524"/>
<path d="M290.175 97.8403L254.927 97.2355L252.861 79.5828L249.746 75.4064C249.746 75.4064 258.475 49.2183 269.807 52.4133C281.845 55.791 290.175 97.8403 290.175 97.8403Z" fill="#65A30D"/>
<path d="M265.298 85.1846C265.298 85.1846 258.429 93.7314 255.508 96.3788C250.43 100.966 242.898 101.673 236.953 98.1475L217.11 86.3486C216.334 85.8921 215.387 85.8351 214.577 86.2002C212.899 86.9762 209.921 87.889 208.746 85.3216C208.746 85.3216 206.247 84.8651 206.395 83.0052C206.395 83.0052 204.09 82.4004 204.238 80.6773C204.238 80.6773 202.915 80.4491 202.983 79.0798C203.052 77.7105 207.97 69.8483 218.182 72.3816C223.58 73.7167 230.061 76.3982 235.31 78.8288C247.349 84.4201 247.771 78.3951 249.95 75.3484C249.973 75.3484 257.47 77.1285 265.298 85.1846Z" fill="#FAFAF9"/>
<path d="M245.099 100.658C242.257 100.658 239.393 99.8817 236.814 98.3526L216.971 86.5537C216.263 86.1315 215.407 86.0859 214.677 86.4168C213.422 86.9988 211.63 87.5807 210.193 87.0444C209.485 86.782 208.937 86.2685 208.572 85.5267C207.648 85.3213 206.165 84.6139 206.142 83.1761C205.583 82.9821 204.008 82.3317 203.985 80.8597C203.437 80.6885 202.684 80.1636 202.741 79.0568C202.787 78.2238 204.076 75.8275 206.507 74.0131C208.686 72.3928 212.429 70.761 217.906 72.1189C223.886 73.6023 230.767 76.147 235.422 78.5889C245.007 83.6211 247.096 79.8213 248.784 76.7746C249.104 76.1926 249.412 75.6449 249.743 75.1884C249.823 75.0743 249.983 75.0515 250.097 75.1314C250.211 75.2113 250.234 75.371 250.154 75.4851C249.834 75.9187 249.538 76.4551 249.229 77.0256C247.529 80.0951 245.201 84.3058 235.194 79.0453C230.561 76.6148 223.726 74.093 217.781 72.6096C212.486 71.2973 208.892 72.872 206.804 74.4239C204.373 76.2268 203.266 78.4862 203.232 79.0796C203.175 80.2207 204.225 80.4032 204.27 80.4146C204.396 80.4375 204.487 80.5516 204.476 80.6885C204.35 82.1719 206.427 82.7425 206.438 82.7425C206.553 82.7767 206.632 82.8794 206.621 83.0049C206.496 84.6025 208.675 85.0361 208.766 85.0475C208.846 85.0589 208.915 85.116 208.949 85.1958C209.257 85.8805 209.725 86.3369 210.341 86.5651C211.608 87.033 213.274 86.4853 214.438 85.949C215.316 85.5382 216.355 85.5952 217.199 86.1087L237.043 97.9076C241.424 100.509 246.696 100.863 251.158 98.8319C254.695 97.223 255.654 96.7893 265.056 85.0133C265.148 84.9106 265.296 84.8877 265.41 84.979C265.524 85.0703 265.536 85.2187 265.444 85.3328C255.962 97.2001 254.981 97.6452 251.352 99.2997C249.412 100.213 247.267 100.658 245.099 100.658Z" fill="#292524"/>
<path d="M208.902 85.0935C208.868 85.0935 208.845 85.0935 208.811 85.0821C208.685 85.0364 208.617 84.8881 208.663 84.7626C209.085 83.6215 209.884 82.6515 210.933 82.0239C211.059 81.9555 211.207 81.9897 211.276 82.1152C211.344 82.2293 211.31 82.3891 211.184 82.4575C210.237 83.0167 209.507 83.9067 209.13 84.9337C209.096 85.0364 209.005 85.0935 208.902 85.0935Z" fill="#292524"/>
<path d="M206.565 82.891C206.542 82.891 206.519 82.891 206.496 82.8796C206.359 82.8339 206.291 82.697 206.325 82.5601C206.782 81.0766 207.797 79.7302 209.109 78.8857C209.224 78.8059 209.383 78.8401 209.452 78.9656C209.532 79.0797 209.497 79.2395 209.372 79.3079C208.162 80.0953 207.227 81.3277 206.793 82.7084C206.77 82.8225 206.667 82.891 206.565 82.891Z" fill="#292524"/>
<path d="M204.294 80.5057C204.271 80.5057 204.237 80.5057 204.214 80.4943C204.088 80.4487 204.009 80.3003 204.066 80.1748C204.533 78.8283 205.435 77.6187 206.576 76.7743C206.69 76.6945 206.85 76.7173 206.93 76.8314C207.01 76.9455 206.987 77.1053 206.873 77.1851C205.812 77.9725 204.979 79.0908 204.533 80.346C204.488 80.4372 204.397 80.5057 204.294 80.5057Z" fill="#292524"/>
<path d="M266.35 85.9047C266.316 85.9047 266.27 85.8933 266.236 85.8819C266.111 85.8134 266.065 85.6651 266.122 85.5396C268.53 80.7926 272.501 72.0176 272.535 71.9377C272.592 71.8122 272.74 71.7552 272.866 71.8122C272.991 71.8693 273.048 72.0176 272.991 72.1431C272.957 72.2344 268.986 81.0094 266.567 85.7678C266.533 85.8591 266.441 85.9047 266.35 85.9047Z" fill="#292524"/>
<path d="M230.538 23.4478C232.093 21.8926 232.093 19.3711 230.538 17.8159C228.983 16.2606 226.461 16.2607 224.906 17.8159C223.351 19.3711 223.351 21.8926 224.906 23.4478C226.461 25.003 228.983 25.003 230.538 23.4478Z" fill="#E7E5E4"/>
<path d="M217.638 24.3088C219.67 23.467 220.635 21.1374 219.793 19.1053C218.951 17.0733 216.622 16.1083 214.59 16.95C212.557 17.7918 211.593 20.1214 212.434 22.1535C213.276 24.1855 215.606 25.1505 217.638 24.3088Z" fill="#E7E5E4"/>
<path d="M208.374 21.5533C208.879 19.4128 207.554 17.2679 205.413 16.7624C203.273 16.257 201.128 17.5825 200.622 19.7229C200.117 21.8634 201.442 24.0084 203.583 24.5138C205.723 25.0192 207.868 23.6937 208.374 21.5533Z" fill="#E7E5E4"/>
<path d="M188.63 54.3987C188.493 54.3987 188.379 54.2846 188.379 54.1476V21.0445C188.379 20.9076 188.493 20.7935 188.63 20.7935H196.207C196.344 20.7935 196.458 20.9076 196.458 21.0445C196.458 21.1814 196.344 21.2955 196.207 21.2955H188.881V54.1476C188.881 54.2846 188.767 54.3987 188.63 54.3987Z" fill="#292524"/>
</svg>
