<svg width="64" height="64" viewBox="0 0 64 64" fill="none" xmlns="http://www.w3.org/2000/svg">
<g clip-path="url(#clip0_10490_17773)">
<rect width="64" height="64" rx="32" fill="white"/>
<path d="M4.11776 64.1032C4.02711 63.9332 3.85713 63.7519 3.86847 63.5933C3.93646 62.9247 4.03845 62.2448 4.18577 61.5875C4.25376 61.2816 4.27641 61.0776 4.0611 60.8056C3.30186 59.8197 3.33588 58.7319 3.93647 57.712C4.33309 57.0208 4.80903 56.3522 5.35296 55.7629C6.06688 54.9923 6.24817 54.0858 6.38416 53.1112C6.89409 49.1904 8.29926 45.6208 10.6903 42.4705C12.0048 40.7367 13.7499 39.5469 15.767 38.7537C16.7416 38.3797 17.7501 38.1077 18.736 37.7678C18.8946 37.7111 19.042 37.5185 19.0986 37.3485C19.5292 35.9207 20.5491 35.2974 21.9543 35.1841C22.4302 35.1388 22.8382 34.9801 23.2801 34.7648C24.1073 34.3569 25.0252 34.2889 25.9545 34.4475C26.1358 34.4815 26.3057 34.5155 26.6117 34.5835C25.9091 33.9716 25.2972 33.473 24.7306 32.929C23.9374 32.1698 23.4954 31.1953 23.1781 30.1754C22.9628 29.4615 22.9968 29.4728 22.2489 29.4955C21.603 29.5181 21.1044 29.1668 20.6284 28.7815C19.178 27.5804 18.6227 25.042 19.9598 23.4102C20.2205 23.0929 20.5944 22.8889 20.8891 22.651C18.9853 18.1975 19.5406 14.254 23.2688 10.9111C23.0308 10.6844 22.7475 10.4918 22.5549 10.2198C22.4076 10.0158 22.2829 9.69855 22.3396 9.48324C22.4189 9.17728 22.7475 9.24527 23.0195 9.31326C23.5294 9.42658 24.028 9.52857 24.538 9.63056C24.6286 9.64189 24.7306 9.60789 24.9119 9.58523C24.7646 9.34725 24.6286 9.15461 24.5266 8.95064C24.3567 8.63334 24.0167 8.30472 24.3113 7.95343C24.5833 7.63613 24.9346 7.91943 25.2519 8.01009C25.8978 8.20273 26.5437 8.37271 27.3596 8.59935C27.1783 8.21407 27.031 8.01008 26.997 7.77211C26.963 7.53414 26.9857 7.22818 27.1103 7.0582C27.1896 6.95622 27.5636 7.00154 27.7449 7.0922C28.2208 7.35283 28.7194 7.43216 29.2521 7.42083C30.9065 7.39816 32.5496 7.45482 34.2041 7.3755C35.224 7.31884 36.2325 7.20552 37.2637 7.4095C37.8643 7.53415 38.4083 7.74945 38.8616 8.16873C39.7115 8.95064 40.55 9.73254 41.0373 10.8204C41.1053 10.9677 41.2753 11.1037 41.4339 11.1604C43.3717 11.7496 44.1876 13.3361 44.7768 15.0586C45.4681 17.0983 45.4681 19.1721 44.8335 21.2345C44.6862 21.7217 44.4369 22.209 44.1423 22.6283C43.9383 22.9343 43.9383 23.0929 44.1762 23.3535C45.1168 24.4414 45.2754 25.6653 44.8562 27.0251C44.4255 28.4189 43.2244 29.3481 41.7626 29.3141C41.4679 29.3028 41.4113 29.4161 41.3659 29.6541C41.06 31.4445 39.9268 32.6797 38.5896 33.7903C38.3856 33.9602 38.1816 34.1302 38.0117 34.3229C37.9437 34.4022 37.955 34.5608 37.921 34.6855C38.0343 34.7081 38.1703 34.7648 38.2723 34.7308C39.1789 34.4588 40.0741 34.5382 40.9806 34.7875C41.1279 34.8328 41.2979 34.8555 41.4113 34.9575C41.7965 35.3087 42.2611 35.3201 42.7371 35.3654C43.5983 35.4334 44.3802 35.7054 44.9242 36.4193C45.1735 36.7479 45.3434 37.1332 45.5021 37.5185C45.6041 37.7678 45.6947 37.9038 46.012 37.9831C48.1764 38.5383 50.2615 39.3316 52.0293 40.7367C54.035 42.3459 55.3156 44.4876 56.3921 46.7993C57.4573 49.111 58.0239 51.5361 58.3412 54.0291C58.4318 54.777 58.8058 55.3436 59.2477 55.8989C59.769 56.5448 60.2903 57.2021 60.6982 57.9273C61.2648 58.9358 61.2875 59.9897 60.5509 60.9529C60.3469 61.2136 60.3469 61.4289 60.4149 61.7348C60.5623 62.3921 60.6529 63.072 60.7436 63.7406C60.7776 64.0012 60.7209 64.2619 60.4263 64.2619C60.3356 64.2619 60.2336 64.1939 60.143 64.1032C60.075 64.0466 60.0297 63.9786 59.9957 63.9106C59.8144 63.5366 59.6897 63.14 59.5197 62.6754C59.3611 62.8454 59.2591 63.0267 59.1004 63.1287C58.9645 63.2193 58.7831 63.2193 58.6132 63.2533C58.5905 63.072 58.4998 62.834 58.5792 62.7094C58.9078 62.1201 59.2364 61.5082 59.6784 60.9869C60.3696 60.1824 60.3809 59.3211 59.9843 58.4372C59.735 57.8933 59.4064 57.3494 58.9871 56.9301C57.9559 55.8876 57.4686 54.6637 57.3213 53.2245C57.14 51.4681 56.6867 49.7796 56.0295 48.1478C55.2476 46.2214 54.2843 44.397 52.9585 42.7878C51.7573 41.3487 50.2275 40.3741 48.5164 39.6602C47.7458 39.3316 46.9526 39.0596 46.1593 38.7763C45.9327 38.697 45.7174 38.5723 45.6607 39.037C45.4794 40.4081 44.5842 41.4393 43.689 42.3685C41.5586 44.5669 38.8502 45.7001 35.8926 46.3007C35.3373 46.414 34.7821 46.5274 34.1928 46.652C34.6121 47.8645 35.0654 49.0091 35.3827 50.1876C35.6886 51.3208 35.8472 52.4993 36.0739 53.6552C36.0739 53.6778 36.0739 53.7118 36.0739 53.7345C36.0172 53.9498 35.9492 54.1651 35.8812 54.3691C35.7566 54.1991 35.5753 54.0404 35.5186 53.8365C35.36 53.2812 35.2693 52.7033 35.1107 52.1594C34.6574 50.6295 34.1928 49.0997 33.6942 47.5812C33.5922 47.2866 33.3769 46.89 33.1276 46.8107C32.6176 46.652 32.0397 46.584 31.5184 46.652C31.2918 46.686 31.0425 47.1166 30.9518 47.4113C30.4759 48.8278 30.0453 50.2556 29.626 51.6834C29.422 52.386 29.2974 53.1112 29.1047 53.8251C29.0594 53.9725 28.8894 54.0858 28.7648 54.2218C28.6968 54.0631 28.5495 53.8931 28.5721 53.7572C28.7648 52.522 28.9234 51.2641 29.2407 50.0516C29.5467 48.8617 30.0226 47.7285 30.4306 46.5274C29.4787 46.3121 28.5381 46.1421 27.6089 45.8928C25.0706 45.2129 22.7135 44.1363 20.9004 42.1759C20.0278 41.2353 19.1099 40.2155 18.9626 38.833C18.9173 38.425 18.7133 38.5383 18.566 38.595C17.4215 39.0483 16.2543 39.4676 15.1438 39.9888C12.0955 41.4167 10.3843 44.0343 9.05851 46.9806C8.3106 48.6351 7.76666 50.3462 7.43803 52.1367C7.29072 52.9072 7.17741 53.6892 7.05276 54.4597C6.91677 55.2643 6.40684 55.8649 5.91956 56.4768C5.51161 56.9868 5.05834 57.4854 4.76371 58.0633C4.25377 59.0265 4.1971 59.9784 5.01301 60.8849C5.40962 61.3269 5.68159 61.8821 5.99888 62.3921C6.13486 62.6187 6.3275 62.902 6.02154 63.072C5.88555 63.14 5.59094 62.936 5.38697 62.8227C5.30764 62.7774 5.27365 62.6641 5.16033 62.4714C4.96768 62.9587 4.84303 63.378 4.65039 63.7519C4.52574 63.8992 4.28774 63.9899 4.11776 64.1032ZM44.6522 38.731C44.9468 37.6205 44.4595 36.6912 43.383 36.2833C43.0657 36.17 42.7257 36.1246 42.3971 36.034C41.9778 35.9207 41.7852 36.068 41.5472 36.4646C41.0373 37.3372 40.414 38.1417 39.7908 38.9463C39.6208 39.1616 39.3148 39.2636 39.0769 39.4222C39.0315 39.3769 38.9862 39.3202 38.9522 39.2749C39.0995 39.0143 39.2469 38.7423 39.4055 38.4817C39.8814 37.6998 40.38 36.9405 40.8333 36.1473C41.0939 35.6827 41.0373 35.5807 40.482 35.5127C39.8474 35.4447 39.2015 35.4334 38.5669 35.4107C38.4536 36.1133 38.4536 36.1133 38.9182 36.4419C39.4961 36.8499 39.5755 37.2578 39.1335 37.8244C38.5556 38.561 37.955 39.2863 37.3657 40.0228C36.1986 41.462 35.02 42.8898 33.8528 44.329C33.7735 44.4196 33.7169 44.5329 33.6829 44.6463C33.4789 45.2015 33.4562 45.2469 32.9689 44.8616C32.4477 44.465 32.0284 43.9324 31.4958 43.5697C29.2067 41.9946 27.7222 39.7509 26.2604 37.4845C26.0338 37.1332 25.8525 36.7819 26.1131 36.3173C26.2264 36.1133 26.1811 35.796 26.1698 35.5354C26.1698 35.4447 26.0451 35.2634 25.9884 35.2748C25.3425 35.2861 24.6966 35.3201 24.062 35.3654C23.6201 35.3994 23.6088 35.6374 23.8014 35.966C24.2773 36.7479 24.7646 37.5185 25.2292 38.3004C25.3992 38.5723 25.5465 38.8556 25.6938 39.1389C25.6485 39.1843 25.5918 39.2409 25.5352 39.2863C25.2972 39.1163 25.0366 38.969 24.8213 38.765C24.028 38.0511 23.4954 37.1445 23.0421 36.204C22.8948 35.898 22.7249 35.7847 22.4416 35.8527C21.9543 35.9547 21.4557 36.0567 21.0024 36.238C20.2545 36.5553 19.7672 37.4392 19.9145 38.2211C20.0958 39.2636 20.5265 40.2268 21.161 41.0767C21.9543 42.1306 23.0761 42.7312 24.2093 43.3657C26.3397 44.5783 28.6175 45.2922 31.0198 45.6548C31.8471 45.7795 32.697 45.8701 33.5242 45.8021C34.4761 45.7228 35.428 45.4735 36.3685 45.2355C38.0117 44.8276 39.4622 43.9663 40.9693 43.2298C42.8957 42.2892 44.0969 40.7934 44.6522 38.731ZM42.2045 28.5662C44.1196 28.0563 44.8108 25.6653 43.6776 24.1354C43.485 23.8748 43.1904 23.6708 42.9071 23.5122C42.5558 23.3195 41.7512 23.5348 41.6605 23.8295C41.5359 24.2148 41.4453 24.6227 41.3659 24.9513C41.7512 24.7474 42.1365 24.4867 42.5558 24.3394C42.7598 24.2714 43.1224 24.2828 43.179 24.6454C43.2357 24.9967 42.9864 25.0307 42.7031 25.1213C41.9892 25.348 41.8079 25.9939 42.2725 26.5605C42.3745 26.6851 42.5218 26.7871 42.5671 26.9231C42.6238 27.1271 42.6918 27.4104 42.6011 27.5577C42.5104 27.6823 42.2045 27.6823 42.0005 27.6823C41.8532 27.6823 41.7059 27.603 41.5246 27.5577C41.5132 27.7163 41.4906 27.841 41.4906 27.9656C41.4452 28.7022 41.4906 28.7589 42.2045 28.5662ZM40.7653 23.7388C40.992 22.9909 40.788 22.379 40.2781 21.7897C39.7568 21.1891 39.0995 20.6225 39.0202 19.7726C38.9522 18.9907 38.9409 18.1975 38.9975 17.4156C39.0542 16.7244 38.8162 16.2144 38.2836 15.8518C37.3091 15.1832 36.3119 14.5826 35.122 14.3446C33.8642 14.0953 33.3316 14.3106 32.595 15.3645C32.255 15.8631 31.8811 16.3391 31.4731 16.781C31.1445 17.1436 30.8725 17.121 30.5439 16.7584C30.4306 16.6337 30.3739 16.475 30.2379 16.2371C29.9093 16.713 29.626 17.1436 29.3314 17.5742C28.8214 18.3335 28.2322 18.2995 27.7902 17.5063C27.7449 17.4156 27.6996 17.3249 27.6316 17.1663C27.2576 17.7669 26.9177 18.3108 26.5664 18.8548C26.4644 19.0021 26.3511 19.1721 26.2038 19.2514C26.0338 19.342 25.7731 19.4214 25.6258 19.3647C25.4785 19.2967 25.3765 19.0474 25.3539 18.8548C25.3085 18.5828 25.3425 18.2995 25.3425 17.9709C25.2065 18.0615 25.1272 18.0842 25.0932 18.1408C23.9374 19.8293 23.3934 21.6537 23.8241 23.7162C23.9374 24.2714 24.0847 24.872 23.9714 25.4046C23.7221 26.6058 23.5521 27.807 23.7334 29.0308C24.062 31.1726 25.1952 32.7251 27.0877 33.7336C27.3596 33.8809 27.7109 33.9942 27.9829 33.9262C28.1529 33.8923 28.2322 33.4843 28.3568 33.2463C28.3795 33.201 28.3682 33.1217 28.4022 33.099C28.5381 32.997 28.6968 32.9064 28.8441 32.8157C28.9348 32.963 29.0481 33.099 29.0821 33.2577C29.1161 33.371 29.0594 33.5183 29.0254 33.6429C28.8668 34.2662 28.8668 34.2662 29.49 34.3115C29.592 34.3229 29.694 34.3115 29.8187 34.3115C29.8187 33.8923 29.7846 33.5523 29.8413 33.2237C29.864 33.099 30.0906 32.9744 30.2379 32.929C30.2946 32.9177 30.4646 33.1217 30.4986 33.2463C30.5779 33.5183 30.6006 33.8129 30.6459 34.0962C30.7139 34.4928 31.0425 34.6968 31.4505 34.5835C31.8584 34.4815 31.5751 34.2095 31.5751 34.0056C31.5751 33.8469 31.4731 33.6769 31.5184 33.541C31.5864 33.3483 31.7451 33.1783 31.8584 33.0084C31.9944 33.1443 32.1984 33.2577 32.255 33.4163C32.3457 33.6769 32.323 33.9829 32.391 34.2549C32.425 34.3909 32.5723 34.5608 32.697 34.5722C33.1616 34.6628 33.2522 34.5608 33.1616 33.9942C33.1276 33.7563 33.0143 33.473 33.3542 33.439C33.5129 33.4276 33.7168 33.6543 33.8415 33.8129C33.9888 34.0056 34.0228 34.2889 34.1701 34.4702C34.4874 34.8555 34.4987 34.9461 34.0681 35.1274C33.8302 35.2294 33.5695 35.3201 33.3202 35.3201C32.6403 35.3201 31.9944 35.4447 31.3372 35.6714C30.102 36.0907 28.8101 36.034 27.5183 35.8753C27.3709 35.8527 27.1783 35.8413 27.0877 35.9093C26.9064 36.0567 26.9403 37.3938 27.1216 37.6205C28.4135 39.2636 29.5127 41.0767 31.2351 42.3459C31.3938 42.4705 31.5638 42.6405 31.6204 42.8218C31.7791 43.4111 32.3117 43.5697 32.7423 43.853C32.8443 43.921 33.0936 43.8644 33.2296 43.7737C33.4222 43.6491 33.5922 43.4677 33.7395 43.2864C34.6347 42.1532 35.5073 41.0087 36.3912 39.8755C36.9691 39.1389 37.5811 38.4137 38.159 37.6771C38.2496 37.5525 38.261 37.3712 38.295 37.2125C38.1476 37.1785 38.0003 37.1219 37.853 37.1105C37.785 37.1105 37.7284 37.2012 37.649 37.2238C37.1958 37.3598 36.9804 37.2012 36.9804 36.7139C36.9804 36.0227 37.0031 35.3427 37.0371 34.6515C37.0711 33.9942 37.3317 33.4616 37.9437 33.099C38.7936 32.6004 39.3715 31.8072 39.8928 30.9913C40.7993 29.5861 40.7653 28.113 40.2894 26.5718C40.1534 26.1299 40.2554 25.5973 40.3347 25.1213C40.4367 24.6794 40.6293 24.2148 40.7653 23.7388ZM23.1215 24.736C23.0535 24.5661 23.0308 24.4527 22.9742 24.3734C22.5549 23.7728 22.0109 23.4102 21.2517 23.5349C20.5831 23.6482 20.2771 24.1921 20.1525 24.736C19.8692 25.9486 20.1298 27.0591 20.9797 28.011C21.3197 28.3849 21.7503 28.5322 22.2149 28.6116C22.6795 28.6796 22.8042 28.5322 22.8268 28.0563C22.8495 27.6937 22.7702 27.4897 22.3396 27.4557C22.1243 27.433 21.7843 27.1951 21.773 27.0364C21.7616 26.8098 21.9883 26.5718 22.1243 26.3452C22.1583 26.2772 22.2376 26.2319 22.2942 26.1865C22.7249 25.8692 22.7362 25.6426 22.3169 25.3253C22.2149 25.246 22.0676 25.2233 21.9769 25.144C21.875 25.042 21.8183 24.906 21.739 24.7814C21.8636 24.702 21.9996 24.5661 22.1243 24.5661C22.4416 24.5774 22.7362 24.6567 23.1215 24.736Z" fill="#78716C"/>
<path d="M60.142 64.1028H51.677C51.7677 64.0461 51.847 63.9782 51.8583 63.8988C51.9037 63.6495 51.8697 63.3776 51.8697 63.1169C51.881 63.1169 51.8923 63.1169 51.9037 63.1169C51.881 62.879 51.8697 62.6523 51.847 62.4144C51.711 60.9072 51.5864 59.3887 51.4504 57.8816C51.3824 57.1563 51.3597 56.4197 51.2691 55.6945C51.0311 53.8021 50.7818 51.921 50.5098 50.0285C50.3512 48.9407 50.1472 47.8641 49.9545 46.7876C49.8979 46.493 49.7393 46.289 49.3993 46.4023C49.0933 46.5043 49.1953 46.7309 49.2293 46.9802C49.5806 49.6432 49.8752 52.3289 50.2492 54.9919C50.6005 57.4963 50.5212 60.0573 51.1557 62.539C51.2691 62.9696 51.2351 63.4229 51.3031 63.8648C51.3144 63.9555 51.3824 64.0235 51.4504 64.1028H4.10547C4.27545 63.9782 4.51341 63.8988 4.60406 63.7289C4.80804 63.3549 4.92136 62.9356 5.114 62.4483C5.22732 62.641 5.26132 62.7543 5.34064 62.7996C5.54462 62.9129 5.85059 63.1169 5.97524 63.0489C6.2812 62.8903 6.08857 62.5957 5.95258 62.369C5.63529 61.8591 5.3633 61.3038 4.96668 60.8619C4.16211 59.9553 4.20745 59.0034 4.71738 58.0402C5.02335 57.4736 5.46529 56.9637 5.87324 56.4537C6.37184 55.8418 6.87045 55.2412 7.00643 54.4367C7.14242 53.6661 7.25575 52.8842 7.39174 52.1136C7.72036 50.3345 8.2643 48.6234 9.01221 46.9576C10.3494 44.0113 12.0492 41.3936 15.0975 39.9658C16.208 39.4445 17.3752 39.0252 18.5197 38.5719C18.667 38.5153 18.871 38.3906 18.9163 38.8099C19.0636 40.1924 19.9815 41.2123 20.8541 42.1528C22.6672 44.1019 25.0243 45.1898 27.5626 45.8697C28.4918 46.119 29.4324 46.289 30.3843 46.5043C29.9763 47.7055 29.5004 48.85 29.1944 50.0285C28.8771 51.241 28.7298 52.4989 28.5258 53.7341C28.5032 53.8814 28.6505 54.04 28.7185 54.1987C28.8318 54.0627 29.0131 53.9607 29.0584 53.8021C29.2511 53.0882 29.3757 52.3629 29.5797 51.6603C29.999 50.2325 30.4409 48.8047 30.9055 47.3882C31.0075 47.0936 31.2568 46.6629 31.4721 46.6289C31.9934 46.561 32.5713 46.6176 33.0813 46.7876C33.3306 46.8669 33.5459 47.2635 33.6479 47.5582C34.1465 49.0766 34.6111 50.6065 35.0644 52.1363C35.223 52.6915 35.3137 53.2695 35.4723 53.8134C35.529 54.006 35.7103 54.1647 35.8349 54.346C35.9029 54.1307 35.9596 53.9267 36.0276 53.7114C36.0389 53.6887 36.0389 53.6548 36.0276 53.6321C35.8009 52.4762 35.6423 51.2977 35.3363 50.1645C35.019 48.986 34.5544 47.8415 34.1465 46.6289C34.7244 46.5043 35.2797 46.391 35.8463 46.2777C38.8039 45.6771 41.5122 44.5439 43.6427 42.3455C44.5379 41.4162 45.4331 40.385 45.6144 39.0139C45.6824 38.5493 45.8864 38.6626 46.113 38.7532C46.9063 39.0365 47.6995 39.3198 48.4701 39.6371C50.1812 40.3511 51.711 41.3256 52.9122 42.7648C54.2494 44.3739 55.2126 46.187 55.9832 48.1248C56.6404 49.7566 57.0937 51.4564 57.275 53.2015C57.4223 54.6406 57.9096 55.8645 58.9408 56.907C59.3601 57.3263 59.6887 57.8702 59.938 58.4142C60.3346 59.2981 60.3233 60.1593 59.6321 60.9639C59.1901 61.4738 58.8728 62.0857 58.5329 62.6863C58.4535 62.8223 58.5555 63.0489 58.5668 63.2302C58.7255 63.1963 58.9181 63.1963 59.0541 63.1056C59.2128 63.0036 59.3147 62.8336 59.4734 62.6523C59.6434 63.1169 59.768 63.5249 59.9494 63.8875C60.0173 63.9782 60.074 64.0461 60.142 64.1028ZM37.2854 56.7257C37.6141 56.3064 37.5801 55.8305 37.3988 55.3885C37.3308 55.2299 37.0475 55.1506 36.8548 55.0372C36.7982 55.1846 36.7415 55.3319 36.6848 55.4792C36.7415 55.5019 36.7982 55.5245 36.8548 55.5585C36.7188 55.8418 36.6735 56.2611 36.4469 56.3857C36.0842 56.6011 35.6876 56.3744 35.4043 56.0685C35.3477 56.0118 35.325 55.9325 35.2684 55.8758C35.189 55.8192 35.0417 55.7172 35.0191 55.7398C34.9284 55.8192 34.8717 55.9325 34.8377 56.0345C34.8151 56.1251 34.8151 56.2498 34.8491 56.3404C35.053 56.7937 35.393 57.1223 35.8916 57.213C36.4355 57.3263 36.9342 57.179 37.2854 56.7257ZM29.727 56.2271C29.7837 56.0345 29.659 55.7965 29.625 55.5812C29.489 55.6832 29.3531 55.7738 29.2171 55.8758C29.1377 55.9438 29.0811 56.0685 28.9904 56.0798C28.6958 56.1478 28.3559 56.2838 28.1066 56.1931C27.9479 56.1251 27.8912 55.7172 27.8459 55.4452C27.8119 55.2752 27.8686 55.0826 27.8799 54.9126C27.4946 54.7653 27.2907 54.9466 27.166 55.2299C26.8714 55.8871 27.2453 56.7597 27.9026 56.9863C28.6165 57.2583 29.5457 56.8844 29.727 56.2271ZM14.6782 46.7876C14.7009 46.6289 14.6215 46.357 14.5082 46.289C14.2702 46.153 14.0549 46.2777 13.9869 46.5723C13.9643 46.6516 13.9076 46.7083 13.8963 46.7876C13.7716 47.4562 13.6356 48.1248 13.545 48.7933C13.3863 49.9605 13.2504 51.1277 13.1144 52.2949C12.9331 53.8247 12.7404 55.3545 12.5704 56.8844C12.4684 57.8476 12.3891 58.8108 12.3098 59.774C12.2078 60.8392 12.1058 61.9044 12.0038 62.981C12.0152 62.981 12.0152 62.981 12.0265 62.981C12.0265 63.2189 11.9812 63.4682 12.0378 63.6835C12.0718 63.8308 12.2531 63.9442 12.3665 64.0688C12.4571 63.9328 12.6044 63.8082 12.6271 63.6609C12.8311 62.4257 13.035 61.1905 13.1823 59.944C13.3297 58.7768 13.3977 57.5983 13.511 56.4311C13.613 55.4225 13.715 54.4027 13.8283 53.3941C13.9756 52.0909 14.1116 50.7991 14.2816 49.5073C14.3836 48.5894 14.5649 47.6942 14.6782 46.7876Z" fill="#A8A29E"/>
<path d="M51.9141 63.1177C51.9028 63.1177 51.8914 63.1177 51.8801 63.1177C51.8801 63.3783 51.9141 63.6503 51.8688 63.8996C51.8575 63.9789 51.7668 64.0356 51.6875 64.1036H51.4722C51.4042 64.0243 51.3362 63.9449 51.3248 63.8656C51.2569 63.4237 51.2908 62.9704 51.1775 62.5398C50.5316 60.0694 50.6223 57.5084 50.271 54.9927C49.897 52.3297 49.6024 49.6553 49.2511 46.981C49.2171 46.7317 49.1264 46.5051 49.4211 46.4031C49.7497 46.2898 49.9197 46.4937 49.9764 46.7884C50.169 47.8649 50.3843 48.9414 50.5316 50.0293C50.8036 51.9104 51.0529 53.8028 51.2908 55.6953C51.3815 56.4205 51.4155 57.1571 51.4722 57.8823C51.5968 59.3895 51.7328 60.908 51.8688 62.4151C51.8801 62.6531 51.8914 62.8911 51.9141 63.1177Z" fill="#78716C"/>
<path d="M43.3737 36.2952C44.4502 36.6918 44.9375 37.6324 44.6429 38.7429C44.0989 40.8053 42.8864 42.3011 40.9373 43.253C39.4302 43.9896 37.9797 44.8508 36.3365 45.2588C35.396 45.4967 34.4441 45.746 33.4922 45.8254C32.665 45.8934 31.8151 45.8027 30.9878 45.678C28.5855 45.3154 26.3077 44.6015 24.1773 43.389C23.0555 42.7544 21.9223 42.1538 21.129 41.0999C20.4945 40.25 20.0638 39.2868 19.8825 38.2443C19.7465 37.4624 20.2225 36.5785 20.9704 36.2612C21.4237 36.0686 21.9223 35.9779 22.4096 35.8759C22.6815 35.8193 22.8628 35.9212 23.0102 36.2272C23.4634 37.1678 23.996 38.0743 24.7893 38.7882C25.0046 38.9809 25.2652 39.1282 25.5032 39.3095C25.5598 39.2642 25.6052 39.2075 25.6618 39.1622C25.5032 38.8789 25.3559 38.5956 25.1972 38.3236C24.7213 37.5417 24.2453 36.7711 23.7694 35.9892C23.5768 35.6719 23.5881 35.4226 24.03 35.3886C24.676 35.3433 25.3219 35.3093 25.9565 35.298C26.0245 35.298 26.1378 35.468 26.1378 35.5586C26.1491 35.8193 26.1944 36.1252 26.0811 36.3405C25.8318 36.7938 26.0018 37.1564 26.2284 37.5077C27.7016 39.7741 29.1747 42.0178 31.4638 43.593C31.9964 43.9669 32.4157 44.4882 32.9369 44.8848C33.4242 45.2588 33.4469 45.2248 33.6509 44.6695C33.6849 44.5562 33.7415 44.4429 33.8208 44.3522C34.988 42.9131 36.1666 41.4852 37.3337 40.0461C37.923 39.3208 38.5236 38.5956 39.1015 37.8477C39.5435 37.2811 39.4641 36.8731 38.8862 36.4652C38.4216 36.1366 38.4216 36.1365 38.5349 35.434C39.1695 35.468 39.8154 35.468 40.45 35.536C41.0166 35.6039 41.0733 35.6946 40.8013 36.1705C40.3481 36.9638 39.8494 37.723 39.3735 38.5049C39.2148 38.7656 39.0789 39.0375 38.9202 39.2982C38.9655 39.3435 39.0109 39.4002 39.0449 39.4455C39.2829 39.2868 39.5888 39.1848 39.7588 38.9695C40.382 38.165 41.0053 37.3604 41.5152 36.4878C41.7532 36.0912 41.9458 35.9439 42.3651 36.0572C42.7164 36.1365 43.0564 36.1819 43.3737 36.2952Z" fill="#A8A29E"/>
<path d="M43.666 24.1356C44.8105 25.6655 44.108 28.0565 42.1929 28.5664C41.479 28.7591 41.445 28.7138 41.445 27.9545C41.445 27.8299 41.4676 27.6939 41.479 27.5466C41.6603 27.5919 41.8076 27.6712 41.9549 27.6712C42.1702 27.6712 42.4649 27.6712 42.5555 27.5466C42.6575 27.4106 42.5895 27.1159 42.5215 26.912C42.4875 26.776 42.3289 26.674 42.2269 26.5493C41.7623 25.9827 41.9436 25.3255 42.6575 25.1102C42.9408 25.0195 43.1901 24.9969 43.1334 24.6343C43.0768 24.2603 42.7141 24.2603 42.5102 24.3283C42.0909 24.4756 41.7169 24.7249 41.3203 24.9402C41.411 24.6116 41.4903 24.2036 41.615 23.8184C41.7169 23.5237 42.5215 23.3084 42.8615 23.5011C43.1788 23.671 43.4734 23.875 43.666 24.1356Z" fill="white"/>
<path d="M40.2889 21.8015C40.7875 22.3908 41.0028 23.0027 40.7762 23.7506C40.6288 24.2265 40.4476 24.6911 40.3682 25.1784C40.2889 25.6544 40.1869 26.1983 40.3229 26.6289C40.7988 28.1701 40.8328 29.6432 39.9263 31.0484C39.405 31.8643 38.8271 32.6462 37.9772 33.1561C37.3652 33.5187 37.1046 34.04 37.0706 34.7086C37.0366 35.3998 37.0026 36.0798 37.014 36.771C37.014 37.2583 37.2406 37.4169 37.6826 37.2809C37.7506 37.2583 37.8185 37.1676 37.8865 37.1676C38.0338 37.179 38.1812 37.2356 38.3285 37.2696C38.2831 37.4283 38.2832 37.6096 38.1925 37.7342C37.6146 38.4821 37.014 39.196 36.4247 39.9326C35.5295 41.0658 34.6569 42.2103 33.773 43.3435C33.6257 43.5248 33.4557 43.7062 33.2631 43.8308C33.1384 43.9101 32.8891 43.9781 32.7758 43.9101C32.3565 43.6268 31.8239 43.4682 31.6539 42.8789C31.6086 42.6976 31.4273 42.5163 31.2687 42.403C29.5462 41.1225 28.447 39.3207 27.1552 37.6776C26.9738 37.4509 26.9398 36.1138 27.1212 35.9664C27.2118 35.8871 27.4158 35.9098 27.5518 35.9324C28.8436 36.0911 30.1355 36.1477 31.3706 35.7285C32.0279 35.5018 32.6738 35.3772 33.3537 35.3772C33.603 35.3772 33.875 35.2865 34.1017 35.1845C34.5323 34.9919 34.5209 34.9012 34.2036 34.5273C34.045 34.346 34.011 34.0627 33.875 33.87C33.7504 33.7 33.5464 33.4847 33.3877 33.4961C33.0478 33.5301 33.1611 33.8134 33.1951 34.0513C33.2857 34.6179 33.2064 34.7199 32.7305 34.6293C32.6058 34.6066 32.4585 34.4366 32.4245 34.312C32.3452 34.04 32.3792 33.734 32.2885 33.4734C32.2319 33.3148 32.0279 33.2014 31.8919 33.0655C31.7673 33.2468 31.62 33.4054 31.552 33.5981C31.5066 33.734 31.6086 33.904 31.6086 34.0627C31.6086 34.2553 31.8919 34.5273 31.484 34.6406C31.0647 34.7426 30.7474 34.5499 30.6794 34.1533C30.6341 33.87 30.6114 33.5754 30.5321 33.3034C30.4981 33.1788 30.3281 32.9748 30.2714 32.9861C30.1128 33.0315 29.8975 33.1561 29.8748 33.2808C29.8182 33.6094 29.8522 33.9494 29.8522 34.3686C29.7275 34.3686 29.6255 34.38 29.5235 34.3686C28.9003 34.3233 28.9003 34.3233 29.0589 33.7C29.0929 33.5754 29.1496 33.4281 29.1156 33.3148C29.0703 33.1561 28.9569 33.0201 28.8776 32.8728C28.7303 32.9635 28.583 33.0541 28.4357 33.1561C28.4017 33.1788 28.4017 33.2581 28.3904 33.3034C28.2657 33.5414 28.1864 33.9493 28.0164 33.9833C27.7444 34.0513 27.3818 33.9267 27.1212 33.7907C25.2287 32.7822 24.0842 31.2183 23.7669 29.0879C23.5856 27.8641 23.7556 26.6629 24.0049 25.4617C24.1182 24.9291 23.9709 24.3285 23.8576 23.7733C23.427 21.7108 23.9709 19.8864 25.1267 18.1979C25.1607 18.1413 25.2401 18.1186 25.376 18.028C25.376 18.3679 25.3421 18.6512 25.3874 18.9119C25.4214 19.0932 25.5234 19.3538 25.6593 19.4218C25.8067 19.4898 26.0673 19.3991 26.2373 19.3085C26.3846 19.2292 26.5092 19.0592 26.5999 18.9119C26.9512 18.3679 27.2911 17.824 27.6651 17.2234C27.7444 17.382 27.7784 17.4727 27.8238 17.5634C28.2657 18.3679 28.8549 18.3906 29.3649 17.6313C29.6595 17.2007 29.9428 16.7701 30.2714 16.2942C30.4074 16.5321 30.4641 16.6908 30.5774 16.8154C30.906 17.1781 31.178 17.2007 31.5066 16.8381C31.9146 16.3962 32.2885 15.9202 32.6285 15.4216C33.3651 14.3677 33.8863 14.1524 35.1555 14.4017C36.3454 14.6397 37.3426 15.2403 38.3171 15.9089C38.8497 16.2715 39.0764 16.7815 39.0311 17.4727C38.9631 18.2546 38.9857 19.0478 39.0537 19.8297C39.099 20.6343 39.7676 21.1896 40.2889 21.8015ZM37.3199 22.4134C37.6825 22.4021 37.8639 22.1415 37.8525 21.8468C37.8525 21.6768 37.6485 21.4049 37.4899 21.3369C36.674 21.0196 35.8354 21.0989 35.0535 21.4389C34.8835 21.5069 34.7249 21.8242 34.7363 22.0055C34.7589 22.1641 35.0195 22.3794 35.2008 22.4134C35.5521 22.4814 35.9261 22.4361 36.2887 22.4361C36.2887 22.4248 36.2887 22.4248 36.2887 22.4134C36.64 22.4134 36.98 22.4134 37.3199 22.4134ZM36.8666 24.3512C36.9686 23.8639 36.7193 23.1613 36.402 23.1727C36.1981 23.1727 35.9714 23.354 35.8128 23.524C35.7335 23.6146 35.7788 23.8186 35.7674 23.9772C35.7334 24.4985 35.8694 24.7365 36.2434 24.7818C36.572 24.8158 36.7986 24.7025 36.8666 24.3512ZM32.5378 29.9945C32.7191 29.9378 32.8438 29.7225 33.0025 29.5752C32.8211 29.5072 32.6512 29.3826 32.4699 29.3712C31.8466 29.3259 31.2233 29.3032 30.6114 29.3259C30.4528 29.3372 30.2941 29.5299 30.1241 29.6319C30.2261 29.7679 30.2941 29.9832 30.4188 30.0285C30.7247 30.1418 31.0647 30.1758 31.4046 30.2325C31.7899 30.1532 32.1865 30.1078 32.5378 29.9945ZM31.9259 24.2832C31.8919 24.2719 31.8579 24.2492 31.8239 24.2379C31.8239 24.1359 31.8239 24.0226 31.8239 23.9206C31.8239 23.6486 31.8239 23.3426 31.4613 23.3426C31.144 23.354 31.0194 23.6146 31.0534 23.9092C31.11 24.3285 30.906 24.6458 30.7134 25.0084C30.5321 25.3597 30.4414 25.8017 30.4074 26.2096C30.3621 26.8216 30.8834 27.3088 31.5066 27.2862C31.6653 27.2862 31.8239 27.1615 31.9712 27.0935C31.8919 26.9235 31.8579 26.6856 31.7333 26.5836C31.0987 26.085 31.0987 26.0963 31.45 25.4051C31.6426 25.0538 31.7673 24.6685 31.9259 24.2832ZM29.3875 22.1641C29.4669 21.9828 29.3762 21.6202 29.2289 21.4729C28.9909 21.2349 28.6396 21.1216 28.379 20.9743C27.9597 21.0536 27.6311 21.0763 27.3478 21.1896C27.1551 21.2689 26.9059 21.4615 26.8832 21.6202C26.8605 21.7788 27.0758 22.0621 27.2572 22.1188C27.7444 22.3001 28.243 22.4474 28.753 22.5041C28.9683 22.5494 29.2969 22.3568 29.3875 22.1641ZM28.8096 24.2492C28.9116 23.7619 28.6623 23.0593 28.345 23.0707C28.141 23.0707 27.9144 23.252 27.7558 23.422C27.6764 23.5126 27.7218 23.7166 27.7104 23.8752C27.6764 24.3965 27.8124 24.6345 28.1864 24.6798C28.515 24.7138 28.7416 24.6005 28.8096 24.2492Z" fill="white"/>
<path d="M37.8527 21.8469C37.864 22.1416 37.6827 22.4022 37.3201 22.4135C36.9801 22.4249 36.6402 22.4135 36.2889 22.4135C36.2889 22.4249 36.2889 22.4249 36.2889 22.4362C35.9263 22.4362 35.5523 22.4815 35.201 22.4135C35.0197 22.3795 34.7477 22.1642 34.7364 22.0056C34.7138 21.8243 34.8837 21.507 35.0537 21.439C35.8469 21.099 36.6742 21.031 37.4901 21.337C37.6487 21.405 37.8527 21.6656 37.8527 21.8469Z" fill="#78716C"/>
<path d="M37.4097 55.3772C37.591 55.8191 37.625 56.3064 37.2963 56.7143C36.9337 57.1676 36.4464 57.3149 35.9025 57.213C35.4039 57.1223 35.0639 56.7937 34.86 56.3404C34.826 56.2497 34.8147 56.1251 34.8487 56.0344C34.8827 55.9211 34.9506 55.8078 35.03 55.7398C35.0526 55.7171 35.1999 55.8191 35.2793 55.8758C35.3359 55.9211 35.3699 56.0118 35.4153 56.0684C35.7099 56.3744 36.0952 56.601 36.4578 56.3857C36.6844 56.2497 36.7411 55.8418 36.8657 55.5585C36.8091 55.5358 36.7524 55.5132 36.6957 55.4792C36.7524 55.3318 36.8091 55.1845 36.8657 55.0372C37.047 55.1392 37.3417 55.2185 37.4097 55.3772Z" fill="#78716C"/>
<path d="M36.4014 23.1729C36.7186 23.1729 36.9679 23.8641 36.8659 24.3514C36.798 24.7027 36.5713 24.816 36.2427 24.782C35.8687 24.7367 35.7328 24.4987 35.7668 23.9774C35.7781 23.8188 35.7328 23.6148 35.8121 23.5241C35.9707 23.3542 36.1974 23.1729 36.4014 23.1729Z" fill="#78716C"/>
<path d="M32.9994 29.5639C32.8521 29.7112 32.7161 29.9265 32.5348 29.9831C32.1722 30.1078 31.7869 30.1418 31.4016 30.2211C31.0617 30.1531 30.7217 30.1191 30.4157 30.0171C30.2911 29.9718 30.2231 29.7565 30.1211 29.6205C30.2797 29.5185 30.4384 29.3146 30.6084 29.3146C31.2316 29.2919 31.8549 29.3146 32.4668 29.3599C32.6481 29.3712 32.8181 29.4959 32.9994 29.5639Z" fill="#78716C"/>
<path d="M31.8243 24.2484C31.8583 24.2597 31.8923 24.2824 31.9263 24.2937C31.7677 24.6676 31.643 25.0643 31.4504 25.4269C31.0991 26.1181 31.0991 26.1068 31.7337 26.6054C31.8697 26.7074 31.9036 26.9454 31.9716 27.1153C31.813 27.1833 31.6657 27.308 31.507 27.308C30.8951 27.3193 30.3738 26.832 30.4078 26.2314C30.4305 25.8235 30.5212 25.3929 30.7138 25.0303C30.8951 24.679 31.0991 24.3617 31.0538 23.9311C31.0198 23.6364 31.1331 23.3645 31.4617 23.3645C31.8243 23.3531 31.8243 23.6704 31.8243 23.9424C31.8243 24.033 31.8243 24.135 31.8243 24.2484Z" fill="#78716C"/>
<path d="M29.6258 55.582C29.6598 55.7973 29.7844 56.0353 29.7277 56.2279C29.5464 56.8852 28.6172 57.2591 27.9033 57.0098C27.2347 56.7719 26.8608 55.8993 27.1667 55.2534C27.2914 54.9701 27.4954 54.7775 27.8806 54.9361C27.8693 55.1061 27.8126 55.2987 27.8466 55.4687C27.892 55.7293 27.9486 56.1486 28.1073 56.2166C28.3453 56.3073 28.6965 56.1713 28.9912 56.1033C29.0818 56.0806 29.1385 55.956 29.2178 55.8993C29.3538 55.7747 29.4898 55.684 29.6258 55.582Z" fill="#78716C"/>
<path d="M29.2294 21.4726C29.3767 21.6199 29.4673 21.9826 29.388 22.1639C29.3087 22.3452 28.9687 22.5378 28.7647 22.5152C28.2548 22.4585 27.7449 22.3112 27.2689 22.1299C27.0989 22.0619 26.8836 21.7899 26.895 21.6313C26.9176 21.4613 27.1669 21.2686 27.3596 21.2007C27.6429 21.0873 27.9602 21.0647 28.3908 20.9854C28.6401 21.1213 28.9914 21.246 29.2294 21.4726Z" fill="#78716C"/>
<path d="M28.3466 23.0596C28.6753 23.0596 28.9132 23.7508 28.8113 24.2381C28.7433 24.5894 28.5166 24.7027 28.188 24.6687C27.814 24.6234 27.6781 24.3854 27.7121 23.8641C27.7234 23.7055 27.6781 23.5015 27.7574 23.4109C27.916 23.2522 28.1427 23.0709 28.3466 23.0596Z" fill="#78716C"/>
<path d="M22.9714 24.3741C23.028 24.4534 23.0507 24.5667 23.1187 24.7367C22.7447 24.6687 22.4501 24.578 22.1441 24.5667C22.0195 24.5554 21.8835 24.7027 21.7589 24.782C21.8382 24.9067 21.8948 25.0427 21.9968 25.1446C22.0875 25.2353 22.2348 25.2466 22.3368 25.326C22.756 25.6432 22.7447 25.8585 22.3141 26.1872C22.2461 26.2325 22.1781 26.2778 22.1441 26.3458C22.0081 26.5725 21.7702 26.8104 21.7928 27.0371C21.8042 27.1957 22.1441 27.4337 22.3594 27.4564C22.79 27.4904 22.8694 27.6943 22.8467 28.0569C22.824 28.5442 22.6994 28.6915 22.2348 28.6122C21.7702 28.5442 21.3395 28.3969 20.9996 28.0116C20.1497 27.0597 19.8891 25.9492 20.1724 24.7367C20.297 24.1928 20.603 23.6375 21.2716 23.5355C22.0082 23.4109 22.5521 23.7621 22.9714 24.3741Z" fill="white"/>
<path d="M14.5081 46.2894C14.6215 46.3574 14.7008 46.6294 14.6781 46.788C14.5648 47.6946 14.3835 48.5898 14.2702 49.4963C14.1002 50.7882 13.9642 52.0914 13.8169 53.3832C13.7036 54.3917 13.5902 55.4116 13.4996 56.4202C13.3863 57.5874 13.3183 58.7659 13.171 59.9331C13.0237 61.1796 12.8197 62.4148 12.6157 63.6499C12.593 63.7973 12.4457 63.9219 12.3551 64.0579C12.2418 63.9332 12.0604 63.8199 12.0264 63.6726C11.9698 63.446 12.0151 63.208 12.0151 62.97C12.0038 62.97 11.9924 62.97 11.9924 62.97C12.0944 61.9048 12.2078 60.8396 12.2984 59.7631C12.3891 58.7999 12.457 57.8367 12.559 56.8734C12.729 55.3436 12.9217 53.8138 13.103 52.284C13.239 51.1168 13.3749 49.9496 13.5336 48.7824C13.6242 48.1138 13.7602 47.4453 13.8849 46.7767C13.8962 46.6974 13.9642 46.6407 13.9755 46.5614C14.0548 46.2781 14.2588 46.1534 14.5081 46.2894Z" fill="#78716C"/>
</g>
<defs>
<clipPath id="clip0_10490_17773">
<rect width="64" height="64" rx="32" fill="white"/>
</clipPath>
</defs>
</svg>
