<svg width="88" height="98" viewBox="0 0 88 98" fill="none" xmlns="http://www.w3.org/2000/svg">
<path d="M61.0211 1H18.2435C15.0179 1 12.3875 3.6112 12.3875 6.856V91.144C12.3875 94.3696 14.9987 97 18.2435 97H80.9699C84.1955 97 86.8259 94.3888 86.8259 91.144V20.4304L61.0211 1Z" fill="#F5F5F4" stroke="#D4D4D4" stroke-width="1.33333" stroke-miterlimit="10"/>
<path d="M64.6151 20.545L86.8295 20.4298L61.1015 1.01855L60.9863 17.8186C60.9863 19.2586 63.0023 20.545 64.6151 20.545Z" fill="#D4D4D4"/>
<path d="M43.5466 44.3542H6.47143C2.99623 44.3542 0.173828 41.5318 0.173828 38.0566V27.9958C0.173828 24.5206 2.99623 21.6982 6.47143 21.6982H43.5466C47.0218 21.6982 49.8442 24.5206 49.8442 27.9958V38.0566C49.8442 41.5318 47.0218 44.3542 43.5466 44.3542Z" fill="#65A30D"/>
<path d="M17.1255 39.4776L14.3799 35.4264L12.0183 39.4776H8.40865L12.5751 32.7768L8.29346 26.46H12.0375L14.7063 30.3768L17.0103 26.46H20.5815L16.4727 33.0072L20.8503 39.4584H17.1255V39.4776Z" fill="#F5F5F4"/>
<path d="M25.2286 37.0574H29.4142V39.4766H22.0798V26.459H25.2286V37.0574Z" fill="#F5F5F4"/>
<path d="M39.7041 37.7111C39.3585 38.2871 38.8401 38.7479 38.1489 39.0935C37.4769 39.4391 36.6513 39.6119 35.6721 39.6119C34.2129 39.6119 33.0033 39.2471 32.0625 38.5367C31.1217 37.8263 30.6033 36.8279 30.5073 35.5607H33.8481C33.9057 36.0599 34.0785 36.4439 34.3665 36.7127C34.6737 37.0007 35.0577 37.1351 35.5185 37.1351C35.9217 37.1351 36.2481 37.0199 36.4785 36.8087C36.7089 36.5975 36.8241 36.2903 36.8241 35.9255C36.8241 35.5991 36.7089 35.3111 36.4977 35.0999C36.2865 34.8695 36.0177 34.6967 35.6913 34.5623C35.3649 34.4279 34.9233 34.2551 34.3665 34.0631C33.5409 33.7751 32.8689 33.5063 32.3505 33.2375C31.8321 32.9687 31.3905 32.5847 31.0065 32.0663C30.6225 31.5479 30.4497 30.8759 30.4497 30.0311C30.4497 29.2631 30.6417 28.5911 31.0449 28.0343C31.4289 27.4775 31.9857 27.0359 32.6769 26.7287C33.3681 26.4215 34.1553 26.2871 35.0577 26.2871C36.4977 26.2871 37.6497 26.6327 38.5137 27.3239C39.3585 28.0151 39.8385 28.9559 39.9537 30.1655H36.5553C36.4977 29.7431 36.3441 29.3975 36.0945 29.1479C35.8449 28.8983 35.4993 28.7639 35.0769 28.7639C34.7121 28.7639 34.4049 28.8599 34.1937 29.0519C33.9633 29.2439 33.8481 29.5319 33.8481 29.9159C33.8481 30.2231 33.9441 30.4919 34.1553 30.7031C34.3665 30.9143 34.6161 31.0871 34.9233 31.2215C35.2305 31.3559 35.6721 31.5287 36.2481 31.7399C37.0737 32.0279 37.7649 32.2967 38.2833 32.5847C38.8017 32.8535 39.2625 33.2567 39.6465 33.7943C40.0305 34.3127 40.2225 35.0039 40.2225 35.8487C40.2225 36.5015 40.0497 37.1351 39.7041 37.7111Z" fill="#F5F5F4"/>
<path d="M71.1968 54.4524H48.9632V51.0156L29.2832 57.678V79.0092L48.9632 85.0572V81.294H71.1968V54.4524ZM44.144 74.67L40.976 74.094L37.7696 69.5244L35.2736 73.0572L33.4304 72.7308L36.7328 68.0268L33.4112 63.3036L35.2736 62.958L37.9808 66.51L41.0336 61.902L44.1824 61.326L39.1136 68.0076L44.144 74.67ZM58.3328 77.3388H49.5968V72.4044H58.3328V77.3388ZM58.3328 70.254H49.5968V65.3196H58.3328V70.254ZM58.3328 63.1884H49.5968V58.254H58.3328V63.1884ZM68.9312 77.3388H60.1952V72.4044H68.9312V77.3388ZM68.9312 70.254H60.1952V65.3196H68.9312V70.254ZM68.9312 63.1884H60.1952V58.254H68.9312V63.1884Z" fill="#D4D4D4"/>
</svg>
