<svg width="291" height="195" viewBox="0 0 291 195" fill="none" xmlns="http://www.w3.org/2000/svg">
<path d="M162.641 88.1899L152.16 182.489L157.866 189.684C158.88 190.962 157.971 192.843 156.334 192.843H131.103C126.898 192.843 123.939 188.701 125.313 184.729L126.454 181.422L135.561 121.968L120.738 143.575L126.285 164.062C126.739 165.605 126.665 167.242 126.084 168.743L116.448 192.938H106.559C105.058 192.938 104.16 191.734 104.984 190.476L108.239 185.542L97.9265 143.385C96.6586 138.187 97.7152 132.682 100.832 128.329L131.092 86.0557L162.641 88.1899Z" fill="white"/>
<path d="M116.448 193.139H106.559C105.682 193.139 104.964 192.769 104.625 192.135C104.33 191.586 104.393 190.92 104.795 190.318L107.985 185.469L97.6944 143.407C96.4054 138.134 97.4725 132.577 100.642 128.16L130.892 85.8975C130.934 85.8341 131.019 85.7918 131.092 85.8024L162.642 87.9578C162.705 87.9578 162.768 87.9895 162.8 88.0423C162.842 88.0952 162.864 88.1585 162.853 88.2219L152.382 182.426L158.024 189.547C158.553 190.213 158.648 191.089 158.278 191.85C157.908 192.611 157.158 193.086 156.313 193.086H131.082C129 193.086 127.12 192.114 125.905 190.424C124.7 188.733 124.394 186.631 125.07 184.666L126.201 181.38L135.15 122.951L120.981 143.607L126.507 163.988C126.972 165.563 126.898 167.274 126.296 168.806L116.66 193.002C116.628 193.086 116.544 193.139 116.448 193.139ZM131.198 86.2779L101.012 128.446C97.9268 132.746 96.8808 138.166 98.1381 143.311L108.45 185.469C108.461 185.532 108.45 185.595 108.419 185.648L105.164 190.582C104.858 191.047 104.805 191.533 105.016 191.924C105.27 192.389 105.851 192.674 106.538 192.674H116.269L125.841 168.627C126.401 167.19 126.475 165.584 126.032 164.105L120.474 143.618C120.453 143.554 120.463 143.48 120.506 143.428L135.329 121.821C135.393 121.736 135.509 121.694 135.604 121.736C135.71 121.779 135.763 121.884 135.752 121.99L126.644 181.443C126.644 181.454 126.634 181.475 126.634 181.485L125.493 184.792C124.869 186.62 125.144 188.564 126.264 190.128C127.384 191.702 129.127 192.6 131.061 192.6H156.292C156.968 192.6 157.549 192.241 157.834 191.628C158.13 191.015 158.056 190.339 157.634 189.811L151.928 182.616C151.886 182.563 151.875 182.51 151.875 182.447L162.325 88.391L131.198 86.2779Z" fill="#292524"/>
<path d="M118.414 147.37C118.372 147.37 118.33 147.359 118.287 147.328C118.182 147.254 118.15 147.116 118.224 147L120.548 143.429C120.622 143.323 120.76 143.292 120.876 143.366C120.982 143.439 121.013 143.577 120.939 143.693L118.615 147.264C118.562 147.328 118.488 147.37 118.414 147.37Z" fill="#292524"/>
<path d="M118.773 172.6C118.699 172.6 118.636 172.569 118.583 172.505C118.509 172.4 118.53 172.252 118.636 172.178C122.577 169.283 125.07 160.608 125.091 160.513C125.123 160.386 125.26 160.312 125.377 160.355C125.503 160.386 125.577 160.524 125.535 160.64C125.429 160.999 122.968 169.557 118.9 172.548C118.868 172.59 118.815 172.6 118.773 172.6Z" fill="#292524"/>
<path d="M139.864 184.074C134.391 184.074 128.252 183.018 127.893 182.954C127.766 182.933 127.681 182.806 127.702 182.68C127.724 182.553 127.85 182.468 127.977 182.49C128.104 182.511 140.244 184.603 145.601 182.976C151.053 181.317 152.204 182.204 152.321 182.31C152.416 182.394 152.416 182.542 152.331 182.637C152.247 182.733 152.099 182.733 152.004 182.659C151.972 182.627 150.831 181.866 145.738 183.419C144.164 183.905 142.072 184.074 139.864 184.074Z" fill="#292524"/>
<path d="M152.527 38.1212C152.527 38.1212 153.045 47.6092 164.435 50.9374C174.779 53.9697 178.318 51.8777 178.318 51.8777C178.318 51.8777 175.434 49.0461 176.036 46.8273C177.124 42.7912 179.597 31.4965 173.13 31.8557C173.13 31.8557 166.802 26.3299 162.089 32.7221C157.895 38.417 156.775 39.4525 152.527 38.1212Z" fill="#292524"/>
<path d="M164.066 76.2632L136.236 57.4141L129.305 89.2379L163.041 89.8718L164.066 76.2632Z" fill="#65A30D"/>
<path d="M176.682 52.5645C181.109 57.9742 175.287 69.8289 175.287 69.8289L160.633 67.0923L149.296 77.4044C149.296 77.4044 140.811 77.098 127.161 66.7648C127.161 66.7648 126.97 47.7571 135.254 42.2313C139.818 39.1884 155.286 40.3823 159.808 42.0305C163.855 43.5097 170.152 44.598 176.682 52.5645Z" fill="#65A30D"/>
<path d="M156.91 61.9363C156.826 61.9363 156.741 61.894 156.699 61.8095C156.636 61.6932 156.688 61.5559 156.805 61.4925L164.94 57.3402L164.486 54.5297C164.475 54.4557 164.496 54.3818 164.549 54.329C164.602 54.2761 164.676 54.255 164.75 54.2656L169.42 54.9312L171.047 47.2605C171.079 47.1337 171.195 47.0492 171.322 47.0809C171.449 47.1126 171.533 47.2288 171.502 47.3556L169.832 55.2376C169.811 55.3538 169.695 55.4384 169.568 55.4172L165.004 54.7622L165.437 57.4247C165.458 57.5198 165.405 57.6255 165.31 57.6677L157.027 61.894C156.984 61.9257 156.942 61.9363 156.91 61.9363Z" fill="#292524"/>
<path d="M158.389 66.5853C158.294 66.5853 158.199 66.5219 158.167 66.4268L154.269 54.2023C154.237 54.1178 154.269 54.0227 154.332 53.9593L157.132 51.2967L154.311 47.9791C154.237 47.8946 154.237 47.7784 154.3 47.6833L158.273 42.4216C158.347 42.3159 158.495 42.2948 158.6 42.3793C158.706 42.4533 158.727 42.6012 158.643 42.7068L154.776 47.8206L157.618 51.1594C157.702 51.2545 157.692 51.3918 157.597 51.4764L154.744 54.1917L158.6 66.2789C158.643 66.4057 158.569 66.5325 158.453 66.5747C158.442 66.5853 158.421 66.5853 158.389 66.5853Z" fill="#292524"/>
<path d="M167.106 51.3078L170.297 44.5669L162.246 41.3232L159.129 47.557C159.129 47.557 160.46 52.9349 160.904 53.1462C161.284 53.347 167.106 51.3078 167.106 51.3078Z" fill="white"/>
<path d="M172.854 39.9503C172.717 39.8975 172.569 39.9186 172.411 39.9926C172.611 37.404 170.71 39.2107 170.488 35.0479C168.871 38.3021 164.983 34.6147 163.472 36.6961C163.398 36.5799 163.314 36.4953 163.197 36.4531C162.701 36.2735 161.972 37.0025 161.581 38.0908C161.19 39.179 161.274 40.2039 161.782 40.3835C161.856 40.4152 161.94 40.4152 162.025 40.4047C161.676 43.1412 162.838 45.6558 165.004 46.4482C167.191 47.2407 169.706 46.0362 171.185 43.6906C171.248 43.7857 171.333 43.8491 171.428 43.8913C171.925 44.0709 172.654 43.3419 173.045 42.2536C173.446 41.1548 173.362 40.1299 172.854 39.9503Z" fill="white"/>
<path d="M166.379 46.9129C165.883 46.9129 165.397 46.8284 164.921 46.6593C162.766 45.8774 161.487 43.4156 161.762 40.6157C161.741 40.6052 161.72 40.6052 161.699 40.5946C161.054 40.3622 160.906 39.2422 161.361 38.006C161.561 37.446 161.857 36.96 162.185 36.6325C162.555 36.2521 162.946 36.1148 163.284 36.231C163.358 36.2521 163.421 36.2944 163.474 36.3366C164.245 35.5442 165.428 35.7767 166.57 35.9985C168.059 36.2944 169.465 36.5691 170.278 34.942C170.32 34.8469 170.426 34.794 170.532 34.8152C170.637 34.8363 170.711 34.9208 170.722 35.0265C170.838 37.1925 171.398 37.6362 171.884 38.0166C172.286 38.3335 172.677 38.6399 172.655 39.6754C172.75 39.6754 172.846 39.686 172.93 39.7176C173.575 39.9501 173.723 41.0701 173.268 42.3062C172.814 43.553 171.99 44.3137 171.345 44.0813C171.303 44.0707 171.261 44.0496 171.218 44.0179C169.993 45.8563 168.154 46.9129 166.379 46.9129ZM162.026 40.1614C162.09 40.1614 162.143 40.1825 162.185 40.2248C162.238 40.2776 162.259 40.3516 162.259 40.4256C161.921 43.1092 163.083 45.4865 165.09 46.2155C167.108 46.9446 169.539 45.8563 170.997 43.553C171.039 43.4896 171.113 43.4473 171.187 43.4473C171.261 43.4473 171.335 43.479 171.388 43.5424C171.43 43.5953 171.472 43.6375 171.525 43.6587C171.852 43.7749 172.486 43.1621 172.846 42.1583C173.205 41.1546 173.11 40.2776 172.793 40.1614C172.719 40.1403 172.634 40.1508 172.529 40.1931C172.455 40.2248 172.37 40.2248 172.296 40.172C172.233 40.1297 172.191 40.0452 172.201 39.9607C172.286 38.9147 172.011 38.7033 171.62 38.3864C171.134 38.006 170.553 37.5411 170.342 35.7555C169.338 37.0128 167.848 36.717 166.506 36.4529C165.312 36.2204 164.277 36.0091 163.685 36.8227C163.643 36.886 163.569 36.9283 163.484 36.9177C163.41 36.9177 163.336 36.8755 163.294 36.8015C163.252 36.7276 163.199 36.6747 163.136 36.6536C162.988 36.6008 162.766 36.7064 162.533 36.9389C162.248 37.2241 161.995 37.6573 161.815 38.1434C161.456 39.1471 161.551 40.0241 161.868 40.1403C161.91 40.1508 161.952 40.1614 161.995 40.1508C161.995 40.1614 162.016 40.1614 162.026 40.1614Z" fill="#292524"/>
<path d="M224.606 92.3115H179.12C177.007 92.3115 175.285 94.0232 175.285 96.1469V97.214C175.285 99.3271 176.997 101.049 179.12 101.049H224.606V92.3115Z" fill="white"/>
<path d="M224.604 101.271H179.119C176.879 101.271 175.051 99.4434 175.051 97.2035V96.1469C175.051 93.907 176.879 92.0791 179.119 92.0791H224.604C224.731 92.0791 224.836 92.1848 224.836 92.3115V101.039C224.836 101.176 224.731 101.271 224.604 101.271ZM179.119 92.544C177.132 92.544 175.526 94.1605 175.526 96.1363V97.2035C175.526 99.1898 177.143 100.796 179.119 100.796H224.371V92.5334H179.119V92.544Z" fill="#292524"/>
<path d="M196.022 100.511C195.028 100.511 194.215 99.6972 194.215 98.704V94.6573C194.215 93.6641 195.028 92.8506 196.022 92.8506C196.148 92.8506 196.254 92.9562 196.254 93.083C196.254 93.2098 196.148 93.3155 196.022 93.3155C195.282 93.3155 194.68 93.9177 194.68 94.6573V98.704C194.68 99.4436 195.282 100.046 196.022 100.046C196.148 100.046 196.254 100.151 196.254 100.278C196.254 100.405 196.148 100.511 196.022 100.511Z" fill="#292524"/>
<path d="M203.672 98.7149H196.244C196.117 98.7149 196.012 98.6092 196.012 98.4824C196.012 98.3557 196.117 98.25 196.244 98.25H203.672C203.799 98.25 203.904 98.3557 203.904 98.4824C203.904 98.6092 203.799 98.7149 203.672 98.7149Z" fill="#292524"/>
<path d="M209.008 95.1006H198.537C198.41 95.1006 198.305 94.995 198.305 94.8682C198.305 94.7414 198.41 94.6357 198.537 94.6357H209.018C209.145 94.6357 209.251 94.7414 209.251 94.8682C209.251 94.995 209.135 95.1006 209.008 95.1006Z" fill="#292524"/>
<path d="M224.606 101.039H178.782C176.849 101.039 175.285 102.603 175.285 104.536V105.508C175.285 107.442 176.849 109.006 178.782 109.006H224.606V101.039Z" fill="white"/>
<path d="M224.604 109.238H178.78C176.72 109.238 175.051 107.569 175.051 105.508V104.536C175.051 102.476 176.72 100.807 178.78 100.807H224.604C224.731 100.807 224.836 100.912 224.836 101.039V109.006C224.836 109.132 224.731 109.238 224.604 109.238ZM178.78 101.272C176.984 101.272 175.516 102.73 175.516 104.536V105.508C175.516 107.305 176.974 108.773 178.78 108.773H224.371V101.282H178.78V101.272Z" fill="#292524"/>
<path d="M196.022 108.478C195.028 108.478 194.215 107.664 194.215 106.671V103.396C194.215 102.402 195.028 101.589 196.022 101.589C196.148 101.589 196.254 101.695 196.254 101.821C196.254 101.948 196.148 102.054 196.022 102.054C195.282 102.054 194.68 102.656 194.68 103.396V106.671C194.68 107.411 195.282 108.013 196.022 108.013C196.148 108.013 196.254 108.118 196.254 108.245C196.254 108.372 196.148 108.478 196.022 108.478Z" fill="#292524"/>
<path d="M191.755 102.846H178.094V107.378H191.755V102.846Z" fill="#E7E5E4"/>
<path d="M122.713 109.026L122.058 107.23C121.878 106.744 121.413 106.416 120.896 106.416H95.2422L95.3584 109.026H122.713Z" fill="#292524"/>
<path d="M105.026 106.531H112.707V94.5075H105.026V106.531Z" fill="#292524"/>
<path d="M151.567 95.6711H72.2291C71.7748 95.6711 71.3838 95.333 71.3204 94.8787L69.9575 40.8247C69.8835 40.2753 70.3167 39.7998 70.8661 39.7998H150.204C150.658 39.7998 151.049 40.1379 151.112 40.5922L152.475 94.6463C152.539 95.1851 152.116 95.6711 151.567 95.6711Z" fill="#292524"/>
<path d="M149.381 92.8398L148.515 42.6211H73.0547L73.9211 92.8398H149.381Z" fill="white"/>
<path d="M87.6421 48.21H79.7812V62.854H87.6421V48.21Z" fill="#65A30D"/>
<path d="M109.6 54.6445H101.031V73.5677H109.6V54.6445Z" fill="white"/>
<path d="M109.598 73.8001H101.029C100.903 73.8001 100.797 73.6945 100.797 73.5677V54.6446C100.797 54.5178 100.903 54.4121 101.029 54.4121H109.598C109.725 54.4121 109.831 54.5178 109.831 54.6446V73.5677C109.831 73.6945 109.725 73.8001 109.598 73.8001ZM101.262 73.3352H109.366V54.877H101.262V73.3352Z" fill="#292524"/>
<path d="M138.136 64.3857H126.207V90.2505H138.136V64.3857Z" fill="#E7E5E4"/>
<path d="M87.3249 52.6896C87.2615 52.6896 87.1981 52.6684 87.1559 52.6156C87.0714 52.5205 87.0714 52.3726 87.1664 52.2881L92.3965 47.3222C92.4387 47.2799 92.5021 47.2588 92.5549 47.2588H97.1722C97.2989 47.2588 97.4046 47.3644 97.4046 47.4912C97.4046 47.618 97.2989 47.7237 97.1722 47.7237H92.65L87.4834 52.6262C87.4412 52.6684 87.3778 52.6896 87.3249 52.6896Z" fill="#292524"/>
<path d="M86.5449 80.488C86.4182 80.488 86.3125 80.3824 86.3125 80.2556V69.0137C86.3125 68.8869 86.4182 68.7812 86.5449 68.7812H103.535C103.661 68.7812 103.767 68.8869 103.767 69.0137C103.767 69.1405 103.661 69.2461 103.535 69.2461H86.7774V80.2556C86.7774 80.3824 86.6717 80.488 86.5449 80.488Z" fill="#292524"/>
<path d="M115.378 57.3067H108.404C108.278 57.3067 108.172 57.201 108.172 57.0742C108.172 56.9475 108.278 56.8418 108.404 56.8418H115.378C115.504 56.8418 115.61 56.9475 115.61 57.0742C115.61 57.201 115.515 57.3067 115.378 57.3067Z" fill="#292524"/>
<path d="M133.33 64.8819C133.203 64.8819 133.098 64.7763 133.098 64.6495V50.7979C133.098 50.6711 133.203 50.5654 133.33 50.5654H139.078C139.205 50.5654 139.31 50.6711 139.31 50.7979C139.31 50.9247 139.205 51.0303 139.078 51.0303H133.563V64.6495C133.563 64.7763 133.457 64.8819 133.33 64.8819Z" fill="#292524"/>
<path d="M128.888 80.837H117.826C117.699 80.837 117.594 80.7313 117.594 80.6045C117.594 80.4777 117.699 80.3721 117.826 80.3721H128.888C129.015 80.3721 129.121 80.4777 129.121 80.6045C129.121 80.7313 129.015 80.837 128.888 80.837Z" fill="#292524"/>
<path d="M140.387 74.8145H137.334C137.207 74.8145 137.102 74.7088 137.102 74.5821C137.102 74.4553 137.207 74.3496 137.334 74.3496H140.387C140.514 74.3496 140.62 74.4553 140.62 74.5821C140.62 74.7194 140.514 74.8145 140.387 74.8145Z" fill="#292524"/>
<path d="M99.7811 49.2136C98.9781 49.2136 98.3125 48.5586 98.3125 47.745C98.3125 46.942 98.9676 46.2764 99.7811 46.2764C100.584 46.2764 101.25 46.9314 101.25 47.745C101.25 48.5586 100.595 49.2136 99.7811 49.2136ZM99.7811 46.7518C99.2317 46.7518 98.7774 47.1956 98.7774 47.7556C98.7774 48.3155 99.2212 48.7593 99.7811 48.7593C100.331 48.7593 100.785 48.3155 100.785 47.7556C100.785 47.1956 100.331 46.7518 99.7811 46.7518Z" fill="#292524"/>
<path d="M118.082 58.7126C117.279 58.7126 116.613 58.0576 116.613 57.244C116.613 56.441 117.268 55.7754 118.082 55.7754C118.885 55.7754 119.551 56.4305 119.551 57.244C119.551 58.0576 118.895 58.7126 118.082 58.7126ZM118.082 56.2508C117.532 56.2508 117.078 56.6946 117.078 57.2546C117.078 57.8146 117.522 58.2583 118.082 58.2583C118.642 58.2583 119.086 57.8146 119.086 57.2546C119.086 56.6946 118.631 56.2508 118.082 56.2508Z" fill="#292524"/>
<path d="M86.5428 84.3337C85.7399 84.3337 85.0742 83.6787 85.0742 82.8651C85.0742 82.0621 85.7293 81.3965 86.5428 81.3965C87.3458 81.3965 88.0115 82.0516 88.0115 82.8651C88.0009 83.6681 87.3458 84.3337 86.5428 84.3337ZM86.5428 81.8614C85.9934 81.8614 85.5391 82.3051 85.5391 82.8651C85.5391 83.4145 85.9829 83.8689 86.5428 83.8689C87.0923 83.8689 87.5466 83.4251 87.5466 82.8651C87.536 82.3157 87.0923 81.8614 86.5428 81.8614Z" fill="#292524"/>
<path d="M115.207 82.1472C114.404 82.1472 113.738 81.4921 113.738 80.6786C113.738 79.8756 114.393 79.21 115.207 79.21C116.01 79.21 116.676 79.865 116.676 80.6786C116.676 81.4921 116.01 82.1472 115.207 82.1472ZM115.207 79.6854C114.657 79.6854 114.203 80.1292 114.203 80.6892C114.203 81.2491 114.647 81.6929 115.207 81.6929C115.756 81.6929 116.211 81.2491 116.211 80.6892C116.211 80.1292 115.756 79.6854 115.207 79.6854Z" fill="#292524"/>
<path d="M142.914 76.2302C142.111 76.2302 141.445 75.5752 141.445 74.7616C141.445 73.9586 142.1 73.293 142.914 73.293C143.717 73.293 144.383 73.948 144.383 74.7616C144.383 75.5646 143.728 76.2302 142.914 76.2302ZM142.914 73.7579C142.365 73.7579 141.91 74.2016 141.91 74.7616C141.91 75.311 142.354 75.7653 142.914 75.7653C143.463 75.7653 143.918 75.3216 143.918 74.7616C143.918 74.2122 143.474 73.7579 142.914 73.7579Z" fill="#292524"/>
<path d="M141.348 52.5212C140.545 52.5212 139.879 51.8662 139.879 51.0526C139.879 50.2496 140.534 49.584 141.348 49.584C142.151 49.584 142.816 50.2391 142.816 51.0526C142.816 51.8662 142.161 52.5212 141.348 52.5212ZM141.348 50.0594C140.798 50.0594 140.344 50.5032 140.344 51.0632C140.344 51.6126 140.788 52.0669 141.348 52.0669C141.897 52.0669 142.351 51.6232 142.351 51.0632C142.351 50.5138 141.897 50.0594 141.348 50.0594Z" fill="#292524"/>
<path d="M42.5 113.591L209.227 113.411V109.09L42.5 109.28V113.591Z" fill="white"/>
<path d="M42.5086 113.865C42.3818 113.865 42.2762 113.76 42.2762 113.633L42.2656 109.217C42.2656 109.153 42.2868 109.1 42.329 109.048C42.3713 109.005 42.4347 108.984 42.4981 108.984L209.129 108.794C209.193 108.794 209.246 108.815 209.299 108.857C209.341 108.9 209.362 108.963 209.362 109.026V113.453C209.362 113.58 209.256 113.686 209.129 113.686L42.5086 113.865ZM42.7305 109.438L42.7411 113.39L208.897 113.21V109.248L42.7305 109.438Z" fill="#292524"/>
<path d="M209.131 193.076C209.004 193.076 208.898 192.97 208.898 192.844V113.442C208.898 113.316 209.004 113.21 209.131 113.21C209.258 113.21 209.363 113.316 209.363 113.442V192.844C209.363 192.97 209.258 193.076 209.131 193.076Z" fill="#292524"/>
<path d="M209.506 193.288C210.392 193.079 210.941 192.191 210.731 191.306C210.522 190.42 209.635 189.871 208.749 190.08C207.863 190.289 207.314 191.177 207.523 192.063C207.732 192.949 208.62 193.498 209.506 193.288Z" fill="#292524"/>
<path d="M159.124 107.801H167.746C169.246 107.801 170.166 106.903 170.472 105.075L172.226 95.8934C172.226 94.0233 170.694 94.2029 168.824 94.2029H158.047C156.177 94.2029 154.645 94.0233 154.645 95.8934L156.398 105.075C156.768 106.808 157.624 107.801 159.124 107.801Z" fill="white"/>
<path d="M167.747 108.034H159.125C157.572 108.034 156.579 107.051 156.167 105.128L154.402 95.9466C154.402 95.936 154.402 95.9149 154.402 95.9043C154.402 95.2915 154.561 94.8372 154.867 94.5308C155.438 93.9602 156.431 93.9708 157.583 93.9814C157.731 93.9814 157.878 93.9814 158.037 93.9814H168.814C168.972 93.9814 169.12 93.9814 169.268 93.9814C170.42 93.9708 171.413 93.9602 171.984 94.5308C172.301 94.8478 172.449 95.2915 172.449 95.9043C172.449 95.9149 172.449 95.936 172.449 95.9466L170.695 105.128C170.378 107.051 169.384 108.034 167.747 108.034ZM154.878 95.8726L156.632 105.023C156.991 106.724 157.815 107.558 159.125 107.558H167.747C169.141 107.558 169.955 106.734 170.24 105.023L171.994 95.8621C171.994 95.3866 171.878 95.0591 171.667 94.8372C171.233 94.404 170.325 94.4146 169.279 94.4146C169.131 94.4146 168.972 94.4146 168.825 94.4146H158.048C157.889 94.4146 157.741 94.4146 157.593 94.4146C156.547 94.404 155.649 94.404 155.205 94.8372C154.983 95.0696 154.878 95.4077 154.878 95.8726Z" fill="#292524"/>
<path d="M173.346 105.952H153.43L155.025 109.048L171.444 109.058L173.346 105.952Z" fill="white"/>
<path d="M171.444 109.292L155.036 109.27C154.951 109.27 154.867 109.218 154.824 109.144L153.218 106.048C153.176 105.974 153.187 105.889 153.229 105.815C153.271 105.741 153.345 105.699 153.43 105.699H173.346C173.43 105.699 173.504 105.741 173.547 105.815C173.589 105.889 173.589 105.974 173.547 106.048L171.634 109.165C171.592 109.249 171.518 109.292 171.444 109.292ZM155.173 108.816L171.307 108.837L172.934 106.185H153.81L155.173 108.816Z" fill="#292524"/>
<path d="M170.809 104.663H169.361C169.235 104.663 169.129 104.558 169.129 104.431C169.129 104.304 169.235 104.198 169.361 104.198H170.809C172.034 104.198 173.038 103.195 173.038 101.969V99.6552C173.038 98.4296 172.034 97.4258 170.809 97.4258H169.446C169.319 97.4258 169.213 97.3202 169.213 97.1934C169.213 97.0666 169.319 96.9609 169.446 96.9609H170.809C172.299 96.9609 173.503 98.1654 173.503 99.6552V101.969C173.503 103.448 172.288 104.663 170.809 104.663Z" fill="#292524"/>
<path d="M33.2476 147.126H25.3867V161.77H33.2476V147.126Z" fill="white"/>
<path d="M33.2457 162.002H25.3848C25.258 162.002 25.1523 161.897 25.1523 161.77V147.126C25.1523 146.999 25.258 146.894 25.3848 146.894H33.2457C33.3724 146.894 33.4781 146.999 33.4781 147.126V161.77C33.4781 161.897 33.3724 162.002 33.2457 162.002ZM25.6172 161.538H33.0026V147.358H25.6172V161.538Z" fill="#292524"/>
<path d="M2.36161 193.276C3.24752 193.066 3.7961 192.179 3.58691 191.293C3.37773 190.407 2.48998 189.858 1.60407 190.068C0.718168 190.277 0.169579 191.164 0.378767 192.05C0.587954 192.936 1.4757 193.485 2.36161 193.276Z" fill="#292524"/>
<path d="M53.9613 192.847C54.6049 192.203 54.6049 191.16 53.9613 190.516C53.3176 189.872 52.274 189.872 51.6303 190.516C50.9866 191.16 50.9866 192.203 51.6303 192.847C52.274 193.491 53.3176 193.491 53.9613 192.847Z" fill="#292524"/>
<path d="M22.5608 193.275C23.4467 193.066 23.9953 192.178 23.7861 191.292C23.5769 190.406 22.6892 189.857 21.8033 190.067C20.9174 190.276 20.3688 191.163 20.578 192.049C20.7872 192.935 21.6749 193.484 22.5608 193.275Z" fill="#292524"/>
<path d="M22.1747 191.29C22.1641 191.29 22.1641 191.29 22.1535 191.29C22.0267 191.279 21.9316 191.174 21.9422 191.036C22.6078 181.485 28.1971 175.6 28.905 174.882V162.118C28.905 161.991 29.0107 161.886 29.1374 161.886C29.2642 161.886 29.3699 161.991 29.3699 162.118V174.977C29.3699 175.04 29.3382 175.103 29.2959 175.146C29.2325 175.209 23.1044 181.105 22.4071 191.058C22.3965 191.195 22.2909 191.29 22.1747 191.29Z" fill="#292524"/>
<path d="M52.7122 191.469C52.6066 191.469 52.5009 191.395 52.4798 191.279C50.9372 183.449 44.6823 179.508 39.7164 177.575C34.4336 175.525 29.436 175.24 29.1508 175.219C28.8338 175.24 23.2023 175.694 17.1798 177.818C11.5166 179.815 4.35309 183.745 2.35618 191.11C2.32448 191.236 2.19769 191.31 2.0709 191.279C1.94412 191.247 1.87016 191.12 1.90185 190.993C3.52897 185.003 8.75898 180.29 17.0319 177.374C23.2551 175.177 29.0768 174.754 29.1296 174.754C29.1402 174.754 29.1508 174.754 29.1508 174.754C29.2036 174.754 34.3913 175.007 39.8749 177.131C47.1652 179.963 51.6874 184.823 52.9447 191.184C52.9658 191.31 52.8918 191.437 52.7651 191.458C52.7439 191.469 52.7228 191.469 52.7122 191.469Z" fill="#292524"/>
<path d="M50.0364 142.731V145.129C50.0364 147.443 48.1557 149.324 45.8418 149.324H13.0036C10.2143 149.324 7.86871 147.253 7.50947 144.495L0.652344 91.8569V75.4801C0.652344 71.3066 4.04393 67.915 8.21737 67.915H28.5669C32.7403 67.915 36.1319 71.3066 36.1319 75.4801V90.3566L43.4434 142.424L50.0364 142.731Z" fill="white"/>
<path d="M45.8398 149.546H13.0017C10.1067 149.546 7.6449 147.38 7.2751 144.516L0.417969 91.8886C0.417969 91.878 0.417969 91.8675 0.417969 91.8569V75.4801C0.417969 71.1799 3.91521 67.6826 8.21544 67.6826H28.565C32.8652 67.6826 36.3624 71.1799 36.3624 75.4801V90.346L43.6422 142.213L50.0344 142.498C50.1612 142.509 50.2563 142.604 50.2563 142.731V145.129C50.2669 147.57 48.2805 149.546 45.8398 149.546ZM0.882859 91.8463L7.72942 144.463C8.06752 147.105 10.3391 149.091 12.9911 149.091H45.8293C48.0058 149.091 49.7808 147.316 49.7808 145.14V142.953L43.4203 142.667C43.3041 142.667 43.2196 142.583 43.1984 142.467L35.887 90.3988C35.887 90.3883 35.887 90.3777 35.887 90.3671V75.4801C35.887 71.4334 32.601 68.1475 28.5544 68.1475H8.21544C4.16879 68.1475 0.882859 71.4334 0.882859 75.4801V91.8463Z" fill="#292524"/>
<path d="M28.8381 142.911H13.4968C13.3805 142.911 13.2854 142.826 13.2643 142.71L5.42457 92.4915C5.414 92.4281 5.43513 92.3541 5.4774 92.3013C5.51966 92.2485 5.58305 92.2168 5.65701 92.2168H22.0444C22.1712 92.2168 22.2768 92.3225 22.2768 92.4492C22.2768 92.576 22.1712 92.6817 22.0444 92.6817H5.92115L13.6975 142.435H28.8381C28.9649 142.435 29.0706 142.541 29.0706 142.668C29.0706 142.805 28.9755 142.911 28.8381 142.911Z" fill="#292524"/>
<path d="M5.65854 92.6811C5.53176 92.6811 5.4261 92.5754 5.4261 92.4487V76.6847C5.4261 76.6107 5.37327 74.6244 6.63059 73.3248C7.31736 72.6063 8.26827 72.2471 9.44106 72.2471C9.56785 72.2471 9.6735 72.3527 9.6735 72.4795C9.6735 72.6063 9.56785 72.712 9.44106 72.712C8.39506 72.712 7.56037 73.0289 6.96869 73.6417C5.84873 74.804 5.89099 76.653 5.89099 76.6741V92.4381C5.89099 92.5755 5.78533 92.6811 5.65854 92.6811Z" fill="#292524"/>
<path d="M55.6919 159.36L40.4351 187.032C38.9348 189.726 40.8789 193.033 43.9535 193.033H83.522C84.4729 193.033 84.9061 191.85 84.1876 191.237L75.9781 180.65L87.8328 151.689L55.6919 159.36Z" fill="white"/>
<path d="M83.5223 193.265H43.9538C42.4218 193.265 41.0482 192.483 40.2769 191.163C39.5056 189.842 39.4845 188.257 40.2241 186.926L55.4809 159.254C55.5126 159.201 55.5655 159.159 55.6289 159.138L87.7803 151.457C87.8648 151.436 87.9599 151.467 88.0127 151.531C88.0655 151.594 88.0867 151.689 88.055 151.774L76.2531 180.618L84.3675 191.089C84.7585 191.437 84.8853 191.966 84.7056 192.462C84.5155 192.948 84.0611 193.265 83.5223 193.265ZM55.8402 159.561L40.6362 187.148C39.9705 188.342 39.9917 189.747 40.6784 190.93C41.3652 192.103 42.5908 192.8 43.9538 192.8H83.5223C83.9238 192.8 84.1668 192.536 84.2619 192.283C84.357 192.029 84.3464 191.67 84.04 191.406C84.0294 191.395 84.0189 191.384 84.0083 191.374L75.7988 180.787C75.7459 180.724 75.7354 180.629 75.7671 180.555L87.4527 152.006L55.8402 159.561Z" fill="#292524"/>
<path d="M55.2388 183.429C50.8963 183.429 47.0081 183.007 43.4264 182.161C43.2996 182.13 43.2256 182.003 43.2573 181.876C43.289 181.749 43.4158 181.675 43.5426 181.707C48.0647 182.785 53.0834 183.165 58.884 182.869C64.04 182.616 69.2383 181.855 74.2676 181.126C74.3944 181.105 74.5106 181.2 74.5317 181.327C74.5529 181.454 74.4578 181.57 74.331 181.591C69.2912 182.32 64.0823 183.081 58.9051 183.334C57.6372 183.398 56.4222 183.429 55.2388 183.429Z" fill="#292524"/>
<path d="M76.9453 149.493L95.0655 188.713C96.4813 191.407 99.2812 193.098 102.324 193.098H134.254C135.141 193.098 135.543 191.978 134.856 191.407L121.363 180.081L111.495 159.974L76.9453 149.493Z" fill="white"/>
<path d="M134.241 193.33H102.312C99.1738 193.33 96.3105 191.597 94.8418 188.819L76.7217 149.588C76.6794 149.504 76.7006 149.409 76.7534 149.335C76.8168 149.261 76.9119 149.24 76.9964 149.261L111.536 159.752C111.599 159.774 111.652 159.816 111.673 159.869L121.52 179.933L134.97 191.228C135.361 191.545 135.509 192.062 135.33 192.538C135.182 193.024 134.748 193.33 134.241 193.33ZM77.3662 149.863L95.2645 188.618C96.638 191.238 99.3428 192.865 102.312 192.865H134.241C134.611 192.865 134.833 192.622 134.917 192.39C135.002 192.157 134.981 191.83 134.696 191.597L121.203 180.271C121.182 180.25 121.161 180.229 121.14 180.197L111.314 160.175L77.3662 149.863Z" fill="#292524"/>
<path d="M100.433 182.859C97.6226 182.859 94.8967 182.711 92.1496 182.426C92.0228 182.415 91.9277 182.299 91.9383 182.172C91.9489 182.046 92.0651 181.95 92.1919 181.961C100.613 182.849 108.917 182.394 119.969 180.429C120.096 180.408 120.212 180.492 120.244 180.619C120.265 180.746 120.18 180.862 120.054 180.894C112.563 182.215 106.308 182.859 100.433 182.859Z" fill="#292524"/>
<path d="M50.2384 165.034C50.2384 165.034 81.5446 174.385 113.104 160.84C113.104 160.84 104.071 139.434 97.2663 128.054C93.0295 120.965 85.3693 116.633 77.107 116.633H22.0175L19.7247 124.694C17.4109 135.345 23.9933 142.815 37.7604 142.825C45.4311 142.825 55.7643 142.952 59.3566 142.91L50.2384 165.034Z" fill="#65A30D"/>
<path d="M83.2256 167.116C83.1939 167.116 83.1517 167.105 83.12 167.094C83.0038 167.031 82.9615 166.894 83.0143 166.778C84.9795 162.974 86.2791 156.286 87.4202 150.38C87.9696 147.537 88.4979 144.854 89.0368 142.815C90.1884 138.461 91.2344 132.851 89.1319 128.086C87.7266 124.906 84.9373 122.095 80.5948 119.517C80.4891 119.454 80.4469 119.306 80.5103 119.2C80.5736 119.095 80.7216 119.052 80.8272 119.116C85.2542 121.747 88.107 124.62 89.5439 127.896C91.7099 132.798 90.6427 138.504 89.47 142.931C88.9311 144.949 88.4134 147.633 87.864 150.464C86.7123 156.391 85.4022 163.122 83.4053 166.978C83.3947 167.073 83.3102 167.116 83.2256 167.116Z" fill="#292524"/>
<path d="M59.6114 143.058C59.4846 143.058 59.3789 142.963 59.3789 142.837C59.3789 142.71 59.474 142.604 59.6008 142.593L66.1621 142.403C66.1621 142.403 66.1621 142.403 66.1726 142.403C66.2994 142.403 66.4051 142.498 66.4051 142.625C66.4051 142.752 66.31 142.858 66.1832 142.868L59.6114 143.058C59.6219 143.058 59.6219 143.058 59.6114 143.058Z" fill="#292524"/>
<path d="M36.1584 149.503C36.0528 149.503 35.9471 149.429 35.926 149.313L30.7805 123.322C30.1254 120.004 27.1987 117.606 23.8177 117.606H4.0176C3.89081 117.606 3.78516 117.5 3.78516 117.373C3.78516 117.246 3.89081 117.141 4.0176 117.141H23.8283C27.4312 117.141 30.548 119.708 31.2454 123.237L36.3909 149.229C36.412 149.355 36.338 149.482 36.2112 149.503C36.1901 149.503 36.169 149.503 36.1584 149.503Z" fill="#292524"/>
<path d="M45.4057 86.6795C45.4057 86.6795 48.8078 83.2985 47.2969 81.8193C45.786 80.3401 39.0979 82.6223 43.0918 76.3463C47.075 70.0703 44.1695 67.2598 42.2571 65.527C40.6511 64.0689 33.1178 61.3958 27.3066 69.7744C21.4955 78.1424 25.0773 79.8329 11.7962 86.352C-1.48485 92.871 24.6969 105.941 45.4057 86.6795Z" fill="#292524"/>
<path d="M38.0631 85.2007C36.3092 85.338 22.3731 87.6625 17.6502 92.7446C10.7403 100.183 22.8486 117.458 22.8486 117.458H43.2192L45.5119 104.42C45.5119 104.42 45.607 104.303 45.6599 104.251C47.5194 102.571 47.5194 100.415 47.5194 100.415C47.5194 100.415 61.9521 102.972 68.2599 98.3549C73.0567 94.8471 73.754 82.1366 73.754 82.1366L64.1604 78.7979C64.1604 78.7979 60.7794 87.4617 59.9658 87.9477C56.9017 89.7756 52.0204 86.9968 45.2901 85.7818C44.392 85.6444 43.5679 85.5599 42.7332 85.4754C41.2328 85.3274 39.7114 85.0633 38.0631 85.2007Z" fill="#65A30D"/>
<path d="M47.4677 100.426C47.3303 100.426 47.2352 100.309 47.2352 100.183C47.2669 99.1789 47.1296 98.154 46.9922 97.1714C46.9288 96.7171 46.8654 96.2522 46.8126 95.7873C46.7281 95.0266 46.7281 94.0757 47.362 93.484C47.4571 93.3995 47.605 93.3995 47.6896 93.4946C47.7741 93.5897 47.7741 93.7376 47.679 93.8221C47.193 94.2659 47.2035 95.0794 47.2775 95.7345C47.3303 96.1888 47.3937 96.6537 47.4571 97.108C47.5945 98.1223 47.7424 99.1683 47.7107 100.204C47.7001 100.32 47.5945 100.426 47.4677 100.426Z" fill="#292524"/>
<path d="M33.0039 100.879H43.5696L41.784 115.29H34.8001L33.0039 100.879Z" fill="#292524"/>
<path d="M33.6799 99.0724L34.7999 97.5615H41.7838L42.9038 99.0724H44.5837V100.879H32V99.0724H33.6799Z" fill="white"/>
<path d="M15.3908 106.269C15.3063 106.269 15.2217 106.226 15.1795 106.142C15.1161 106.026 15.1689 105.888 15.2851 105.825C16.384 105.254 17.5673 104.874 18.7824 104.694C18.9091 104.673 19.0254 104.768 19.0465 104.895C19.0676 105.022 18.9725 105.138 18.8458 105.159C17.673 105.339 16.5424 105.698 15.4859 106.237C15.4647 106.258 15.433 106.269 15.3908 106.269Z" fill="#292524"/>
<path d="M30.7562 105.042C36.9055 105.243 44.3543 105.686 44.5867 106.606C44.8509 107.683 44.0479 107.969 44.0479 107.969C44.0479 107.969 44.9037 108.825 43.7732 109.955C43.7732 109.955 44.3015 111.17 43.4034 111.846C43.4034 111.846 43.4879 113.537 41.9136 113.547C40.6986 113.547 36.1131 114.963 31.274 116.062C30.154 112.522 29.9638 108.677 30.7562 105.042Z" fill="white"/>
<path d="M32.2039 116.094C32.0983 116.094 32.0032 116.02 31.9821 115.914C31.9504 115.787 32.0349 115.66 32.1511 115.629C33.8205 115.238 35.437 114.815 36.8634 114.445C39.3675 113.801 41.1636 113.325 41.9138 113.325C42.2942 113.325 42.59 113.209 42.8013 112.998C43.2028 112.575 43.1711 111.878 43.1711 111.878C43.1711 111.804 43.2028 111.73 43.2662 111.677C44.0058 111.117 43.5726 110.082 43.5621 110.071C43.5198 109.987 43.5409 109.881 43.6149 109.818C44.5658 108.867 43.9107 108.19 43.8896 108.159C43.8368 108.106 43.8156 108.021 43.8262 107.947C43.8473 107.874 43.9002 107.81 43.9741 107.778C44.0375 107.757 44.5658 107.525 44.365 106.69C44.2594 106.479 43.0232 105.739 31.496 105.327C31.3693 105.327 31.2636 105.211 31.2742 105.084C31.2742 104.957 31.3798 104.862 31.5066 104.862H31.5172C44.513 105.327 44.7349 106.204 44.8194 106.585C45.0096 107.366 44.7032 107.842 44.3967 108.085C44.6081 108.444 44.8405 109.184 44.0586 110.05C44.2277 110.557 44.3017 111.434 43.6466 111.994C43.636 112.258 43.5726 112.892 43.15 113.336C42.8542 113.653 42.4421 113.811 41.9244 113.811C41.2376 113.811 39.3675 114.297 36.9902 114.921C35.5638 115.291 33.9367 115.713 32.2673 116.115C32.2462 116.083 32.2251 116.094 32.2039 116.094Z" fill="#292524"/>
<path d="M7.86896 107.79C9.83418 102.496 13.1835 95.9455 16.4272 90.4091C17.8852 87.9156 20.6006 86.6371 23.4322 86.1088C26.0419 85.6334 29.5286 85.2002 32.7512 85.2002C38.277 85.2002 22.6715 104.873 22.6715 104.873C22.6715 104.873 26.38 104.895 30.7437 105.043C29.9407 108.677 30.1309 112.523 31.2614 116.073C29.835 116.401 28.3981 116.696 27.0034 116.918C24.3937 117.341 19.375 117.785 15.2121 117.954C9.85531 118.165 5.99884 112.84 7.86896 107.79Z" fill="#65A30D"/>
<path d="M43.5502 108.043H43.5397L42.9797 108.001C42.8529 107.99 42.7578 107.885 42.7578 107.758C42.7684 107.631 42.8846 107.536 43.0008 107.536L43.5608 107.578C43.6876 107.589 43.7827 107.695 43.7827 107.821C43.7721 107.948 43.6665 108.043 43.5502 108.043Z" fill="#292524"/>
<path d="M43.3163 110.03L42.6718 110.009C42.545 110.009 42.4394 109.892 42.4499 109.766C42.4499 109.639 42.5662 109.533 42.693 109.544L43.3269 109.565C43.4537 109.565 43.5593 109.681 43.5488 109.808C43.5488 109.924 43.4431 110.03 43.3163 110.03Z" fill="#292524"/>
<path d="M42.7131 112.069C42.7025 112.069 42.692 112.069 42.6814 112.069L42.0474 111.995C41.9207 111.985 41.8256 111.869 41.8467 111.742C41.8573 111.615 41.9735 111.52 42.1003 111.541L42.7342 111.615C42.861 111.626 42.9561 111.742 42.935 111.869C42.935 111.985 42.8293 112.069 42.7131 112.069Z" fill="#292524"/>
<path d="M20.388 105.306C20.2718 105.306 20.1767 105.222 20.1556 105.105C20.1344 104.979 20.219 104.862 20.3458 104.841C22.5329 104.493 29.4428 104.641 29.7281 104.641C29.8549 104.641 29.9605 104.746 29.9605 104.884C29.9605 105.01 29.8549 105.116 29.7175 105.116C29.6436 105.116 22.5646 104.968 20.4197 105.306C20.4092 105.306 20.3986 105.306 20.388 105.306Z" fill="#292524"/>
<path d="M22.6802 105.106C22.6591 105.106 22.6274 105.106 22.6063 105.095C22.4795 105.053 22.4161 104.926 22.4584 104.8L24.8356 97.4881C24.8779 97.3613 25.0047 97.2979 25.1315 97.3402C25.2583 97.3824 25.3217 97.5092 25.2794 97.636L22.9021 104.947C22.8704 105.043 22.7753 105.106 22.6802 105.106Z" fill="#292524"/>
<path d="M21.1707 117.932C21.0545 117.932 20.9489 117.837 20.9383 117.721C20.9277 117.594 21.0228 117.478 21.1496 117.467C23.5269 117.235 30.9123 115.914 30.9863 115.904C31.1131 115.882 31.2293 115.967 31.261 116.094C31.2821 116.221 31.1976 116.337 31.0708 116.369C30.9968 116.379 23.6009 117.7 21.2024 117.943C21.1919 117.932 21.1813 117.932 21.1707 117.932Z" fill="#292524"/>
<path d="M63.9736 79.1774L66.2769 73.3663C66.2769 73.3663 62.3042 72.6267 63.1072 70.6931C63.9102 68.7596 68.5696 70.598 69.7107 69.6154C69.7107 69.6154 72.648 66.9106 73.5355 65.6744C74.423 64.4382 75.5958 62.5998 76.8426 63.4451C76.8426 63.4451 78.5436 62.0821 78.998 64.3749C78.998 64.3749 80.3926 65.7273 75.4479 71.0629C75.2577 71.2742 74.9513 76.4197 73.7996 82.3893C70.3764 81.8611 67.0482 80.7728 63.9736 79.1774Z" fill="white"/>
<path d="M73.7482 81.914C73.7377 81.914 73.7271 81.914 73.706 81.914C73.5792 81.8928 73.4946 81.7766 73.5158 81.6498C73.9912 78.8394 74.3505 76.3353 74.6252 74.5074C75.0478 71.6019 75.1323 71.0736 75.2803 70.9257C79.9186 65.9175 78.8409 64.5651 78.8303 64.5546C78.7986 64.5229 78.7775 64.4806 78.7669 64.4383C78.6401 63.815 78.4183 63.4452 78.1119 63.3289C77.6153 63.1493 77.0025 63.6353 76.9919 63.6353C76.9179 63.6987 76.8017 63.6987 76.7172 63.6459C75.8085 63.0331 74.8999 64.1531 73.9067 65.5689L73.7271 65.8119C72.8396 67.0586 69.9974 69.6789 69.8706 69.7846C69.3106 70.2706 68.2012 70.1755 66.9122 70.0804C65.4119 69.9642 63.7214 69.8268 63.3199 70.7777C63.1931 71.0842 63.2037 71.3589 63.341 71.623C63.8165 72.5 65.6443 73.0071 66.31 73.1339C66.3734 73.1445 66.4368 73.1867 66.4685 73.2501C66.5002 73.3135 66.5107 73.3769 66.4896 73.4403L64.5561 78.9345C64.5138 79.0612 64.3765 79.1246 64.2602 79.0824C64.1334 79.0401 64.0701 78.9028 64.1123 78.7865L65.9507 73.546C65.264 73.3875 63.4678 72.8803 62.9184 71.8554C62.7071 71.4645 62.6965 71.0419 62.8761 70.6087C63.4044 69.3302 65.2851 69.4887 66.9334 69.6155C68.0111 69.7 69.131 69.7951 69.5431 69.4359C69.5642 69.4148 72.4698 66.7417 73.3256 65.5372L73.4946 65.2942C74.3505 64.0897 75.5021 62.452 76.8123 63.1705C77.0764 63.0014 77.6787 62.6739 78.2492 62.8852C78.7141 63.0542 79.0311 63.5297 79.1896 64.2799C79.4537 64.6285 80.151 66.2979 75.6078 71.2109C75.5127 71.4434 75.3014 72.8909 75.0584 74.5603C74.7942 76.3881 74.4244 78.8922 73.949 81.7132C73.9595 81.84 73.8644 81.914 73.7482 81.914Z" fill="#292524"/>
<path d="M71.6044 69.8056C71.4882 69.8056 71.3825 69.721 71.372 69.5942C71.3614 69.4675 71.4459 69.3512 71.5727 69.3407C72.0271 69.2878 72.4497 69.0343 72.83 68.7596C73.9923 67.946 75.0277 66.974 75.9047 65.8646C75.9575 65.8012 76.0103 65.7272 76.0631 65.6638C76.3273 65.3257 76.602 64.9665 76.9507 64.6812C77.2465 64.4382 77.8382 64.0367 78.5461 64.1424C78.6729 64.1635 78.7574 64.2797 78.7468 64.4065C78.7257 64.5333 78.6095 64.6284 78.4827 64.6072C78.0918 64.5544 77.648 64.7129 77.2571 65.0404C76.9507 65.294 76.7077 65.611 76.4435 65.9491C76.3907 66.023 76.3379 66.0864 76.285 66.1604C75.3764 67.3121 74.3092 68.3158 73.1153 69.1505C72.6716 69.4569 72.1961 69.7527 71.6361 69.8161C71.6256 69.8056 71.615 69.8056 71.6044 69.8056Z" fill="#292524"/>
<path d="M73.2422 68.1258C73.1682 68.1258 73.0943 68.0941 73.052 68.0202C72.9781 67.9145 73.0098 67.7666 73.1154 67.6926C73.9818 67.1115 74.5946 66.224 75.1969 65.3682L76.2957 63.7939C76.3697 63.6882 76.5176 63.6671 76.6232 63.7411C76.7289 63.815 76.75 63.9629 76.6761 64.0686L75.5772 65.6429C74.9855 66.4881 74.3093 67.4496 73.369 68.0836C73.3267 68.1047 73.2845 68.1258 73.2422 68.1258Z" fill="#292524"/>
<path d="M41.0028 77.4249L38.6467 85.0533C38.6467 85.0533 41.6579 85.2858 42.6617 85.402C43.3167 85.4759 45.2819 85.7718 45.2819 85.7718C45.2819 85.7718 42.3024 89.4064 35.6038 89.3324C25.7143 89.2373 24.9219 85.8457 24.9219 85.8457C24.9219 85.8457 26.5596 85.6133 27.109 85.5499C28.2606 85.4126 31.7367 85.0745 31.7367 85.0745L35.0438 76.4951L41.0028 77.4249Z" fill="white"/>
<path d="M44.1249 73.02C44.5687 74.6472 44.3891 76.5384 43.248 77.7852C42.4239 78.6833 41.1771 79.1376 39.9621 79.0953C38.747 79.053 37.5742 78.5353 36.6444 77.7429C36.0633 78.3768 35.123 78.6938 34.2988 78.4402C33.4747 78.1867 32.8513 77.3308 32.957 76.475C33.0521 75.6192 33.9396 74.9113 34.7849 75.0698C35.0068 75.112 35.2286 75.2071 35.4505 75.2071C35.8943 75.1966 36.2324 74.8162 36.4226 74.4147C36.8029 73.6223 36.7924 72.6397 36.3697 71.8578C37.4474 71.6782 38.5568 71.5303 39.5183 71.0231C41.3673 70.03 41.7582 68.7832 41.7582 68.7832C41.7582 68.7832 43.734 71.6254 44.1249 73.02Z" fill="white"/>
<path d="M40.1207 79.327C40.0679 79.327 40.0045 79.327 39.9516 79.327C38.8 79.2847 37.6377 78.841 36.6551 78.0591C35.9895 78.6719 35.0492 78.9149 34.225 78.6719C33.2741 78.3761 32.6085 77.404 32.7141 76.4531C32.767 75.9565 33.0522 75.4917 33.4854 75.1747C33.8869 74.8789 34.373 74.7626 34.8167 74.8472C34.9012 74.8683 34.9858 74.8894 35.0597 74.9105C35.1865 74.9422 35.3239 74.9845 35.4295 74.9739C35.7676 74.9634 36.0529 74.6253 36.2008 74.3189C36.5495 73.5898 36.5389 72.6918 36.1586 71.9733C36.1269 71.9099 36.1269 71.8254 36.1586 71.762C36.1903 71.6986 36.2536 71.6458 36.3276 71.6352L36.6551 71.5824C37.5955 71.4239 38.5675 71.2654 39.4022 70.8216C41.1244 69.8918 41.5259 68.7296 41.5259 68.7191C41.5576 68.6345 41.621 68.5711 41.7161 68.5606C41.8006 68.55 41.8957 68.5817 41.938 68.6557C42.0225 68.7719 43.9455 71.5295 44.3364 72.9453C44.8541 74.826 44.4949 76.7384 43.4066 77.9323C42.6142 78.8199 41.3886 79.327 40.1207 79.327ZM36.634 77.5097C36.6868 77.5097 36.7397 77.5308 36.7819 77.5625C37.7223 78.355 38.8528 78.8199 39.9622 78.8515C41.1561 78.8938 42.3183 78.4289 43.0685 77.6154C44.2413 76.3263 44.2624 74.4245 43.8926 73.0721C43.5968 72.0155 42.3183 70.0398 41.7901 69.2579C41.5259 69.7334 40.9025 70.5469 39.6241 71.2337C38.726 71.7091 37.7117 71.8782 36.7397 72.0367H36.708C37.0249 72.8291 36.9932 73.7483 36.6234 74.5091C36.3487 75.0796 35.905 75.4177 35.4401 75.4283C35.2605 75.4283 35.0914 75.386 34.9329 75.3437C34.859 75.3226 34.7956 75.3015 34.7216 75.2909C34.4047 75.2275 34.056 75.3226 33.7601 75.5339C33.4432 75.7664 33.2213 76.1256 33.179 76.4848C33.0945 77.2033 33.6228 77.9746 34.3624 78.1965C35.0597 78.4184 35.9261 78.1542 36.465 77.5625C36.5072 77.5414 36.5706 77.5097 36.634 77.5097Z" fill="#292524"/>
<path d="M35.9501 77.1183C35.8973 77.1183 35.8445 77.0972 35.8022 77.0655C35.443 76.7591 34.9147 76.6746 34.4815 76.8542C34.3653 76.907 34.2279 76.8436 34.1751 76.7274C34.1223 76.6112 34.1856 76.4738 34.3019 76.421C34.8936 76.1885 35.612 76.3048 36.098 76.7168C36.1931 76.8014 36.2037 76.9493 36.1297 77.0444C36.0875 77.0972 36.0241 77.1183 35.9501 77.1183Z" fill="#292524"/>
<path d="M128.477 40.1072C127.927 40.1072 127.473 39.7057 127.399 39.1668L126.987 35.9971C126.892 35.2892 127.452 34.6553 128.16 34.6553C128.783 34.6553 129.301 35.1413 129.343 35.7647L129.555 38.9555C129.597 39.5683 129.1 40.1072 128.477 40.1072Z" fill="white"/>
<path d="M128.476 40.3395C127.821 40.3395 127.251 39.8429 127.166 39.1878L126.754 36.0181C126.701 35.6166 126.828 35.2045 127.092 34.8981C127.367 34.5917 127.747 34.4121 128.159 34.4121C128.909 34.4121 129.533 34.9932 129.575 35.7434L129.786 38.9342C129.807 39.2935 129.681 39.6527 129.438 39.9168C129.195 40.181 128.835 40.3395 128.476 40.3395ZM128.17 34.8876C127.895 34.8876 127.631 35.0038 127.451 35.2151C127.272 35.4264 127.187 35.6906 127.219 35.9653L127.631 39.135C127.684 39.5576 128.054 39.8746 128.476 39.8746C128.719 39.8746 128.931 39.7795 129.1 39.6104C129.258 39.4414 129.343 39.2089 129.332 38.9765L129.121 35.7856C129.089 35.2785 128.666 34.8876 128.17 34.8876Z" fill="#292524"/>
<path d="M130.938 41.7554C130.273 41.7554 129.713 41.2376 129.67 40.572L129.343 35.7752C129.29 34.9511 129.945 34.2432 130.769 34.2432C131.562 34.2432 132.206 34.8877 132.206 35.6801V40.4875C132.217 41.1848 131.646 41.7554 130.938 41.7554Z" fill="white"/>
<path d="M130.937 41.9878C130.145 41.9878 129.49 41.375 129.437 40.5826L129.109 35.7858C129.078 35.3315 129.236 34.8666 129.553 34.539C129.87 34.2009 130.314 34.0107 130.768 34.0107C131.687 34.0107 132.438 34.7609 132.438 35.6801V40.4875C132.448 41.3116 131.772 41.9878 130.937 41.9878ZM130.779 34.4756C130.441 34.4756 130.134 34.613 129.902 34.856C129.669 35.099 129.564 35.416 129.585 35.7541L129.912 40.5509C129.944 41.0898 130.409 41.5229 130.948 41.5229C131.518 41.5229 131.983 41.0581 131.983 40.4875V35.6801C131.983 35.0145 131.444 34.4756 130.779 34.4756Z" fill="#292524"/>
<path d="M133.455 41.7554C132.758 41.7554 132.188 41.1848 132.188 40.4875V35.6801C132.188 34.8877 132.832 34.2432 133.624 34.2432C134.449 34.2432 135.114 34.9405 135.051 35.7752L134.723 40.572C134.681 41.2376 134.121 41.7554 133.455 41.7554Z" fill="white"/>
<path d="M133.453 41.9878C132.619 41.9878 131.953 41.3116 131.953 40.4875V35.6801C131.953 34.7609 132.703 34.0107 133.622 34.0107C134.087 34.0107 134.521 34.2009 134.838 34.539C135.155 34.8771 135.313 35.3315 135.281 35.7858L134.954 40.5826C134.901 41.375 134.246 41.9878 133.453 41.9878ZM133.612 34.4756C132.946 34.4756 132.407 35.0145 132.407 35.6801V40.4875C132.407 41.0581 132.872 41.5229 133.443 41.5229C133.992 41.5229 134.447 41.1003 134.478 40.5509L134.806 35.7541C134.827 35.416 134.711 35.099 134.489 34.856C134.267 34.613 133.95 34.4756 133.612 34.4756Z" fill="#292524"/>
<path d="M135.922 40.9736C135.267 40.9736 134.749 40.4241 134.791 39.7691L135.045 35.8492C135.087 35.173 135.647 34.6553 136.324 34.6553C137.095 34.6553 137.697 35.342 137.591 36.1028L137.063 40.0015C136.968 40.5615 136.482 40.9736 135.922 40.9736Z" fill="white"/>
<path d="M135.923 41.2166C135.542 41.2166 135.183 41.0581 134.919 40.7834C134.665 40.5087 134.528 40.1389 134.549 39.7585L134.803 35.8387C134.855 35.0462 135.51 34.4229 136.313 34.4229C136.747 34.4229 137.159 34.613 137.455 34.9406C137.74 35.2681 137.867 35.7013 137.814 36.1345L137.286 40.0332C137.18 40.6989 136.599 41.2166 135.923 41.2166ZM136.313 34.8877C135.764 34.8877 135.31 35.3209 135.267 35.8598L135.014 39.7797C134.993 40.0332 135.088 40.2762 135.257 40.4559C135.426 40.6355 135.658 40.7411 135.912 40.7411C136.366 40.7411 136.747 40.403 136.81 39.9593L137.338 36.0605C137.381 35.7647 137.286 35.4583 137.095 35.2364C136.895 35.0145 136.609 34.8877 136.313 34.8877Z" fill="#292524"/>
<path d="M140.515 78.4711C134.989 81.4823 131.196 84.895 131.08 86.0361C130.964 87.1772 132.57 87.2934 134.609 85.5501C134.609 85.5501 134.461 87.6526 136.205 87.8428C136.205 87.8428 135.75 89.2164 137.811 89.5967C137.811 89.5967 138.096 91.4457 140.072 91.3612C142.047 91.2767 142.776 89.3643 142.776 89.3643C142.776 89.3643 158.171 82.4121 164.943 77.8583C176.365 70.177 177.368 68.5605 177.876 63.6157C178.129 61.1539 176.46 56.9699 175.53 55.2266C175.53 55.2266 146.041 75.4493 140.515 78.4711Z" fill="white"/>
<path d="M163.569 78.9893C163.495 78.9893 163.411 78.947 163.368 78.8836C163.305 78.778 163.337 78.6301 163.442 78.5667C163.939 78.2603 164.404 77.9644 164.816 77.6792C176.068 70.1141 177.146 68.4976 177.653 63.6057C177.664 63.4789 177.78 63.3838 177.907 63.3944C178.034 63.4049 178.129 63.5211 178.118 63.6479C177.6 68.7195 176.502 70.3888 165.08 78.0701C164.668 78.3448 164.203 78.6512 163.696 78.9576C163.654 78.9787 163.611 78.9893 163.569 78.9893Z" fill="#292524"/>
<path d="M139.944 91.604C138.264 91.604 137.747 90.2728 137.62 89.7973C136.891 89.6388 136.394 89.3324 136.13 88.8887C135.94 88.5717 135.919 88.2547 135.94 88.0328C134.852 87.7898 134.471 86.7967 134.397 86.0254C133.182 86.9551 132.01 87.3355 131.333 86.9763C130.985 86.7967 130.816 86.448 130.858 86.0042C130.985 84.7364 134.936 81.2497 140.409 78.2596C140.832 78.0271 141.181 77.837 141.498 77.6679C143.547 76.5691 143.864 76.4 151.609 71.1594C151.715 71.0855 151.863 71.1172 151.936 71.2228C152.01 71.3285 151.979 71.4764 151.873 71.5504C144.107 76.8121 143.79 76.9811 141.719 78.0905C141.413 78.2596 141.054 78.4498 140.642 78.6716C135.105 81.6934 131.428 85.0639 131.323 86.0571C131.302 86.3106 131.376 86.4797 131.545 86.5642C131.999 86.8072 133.108 86.5325 134.461 85.3703C134.535 85.3069 134.63 85.2963 134.714 85.3386C134.799 85.3809 134.852 85.4654 134.841 85.5605C134.841 85.6344 134.736 87.4412 136.225 87.6102C136.299 87.6208 136.363 87.6525 136.394 87.7159C136.437 87.7793 136.437 87.8427 136.415 87.9166C136.415 87.9272 136.299 88.297 136.521 88.6562C136.732 89.0049 137.176 89.2479 137.842 89.3747C137.937 89.3958 138.011 89.4698 138.032 89.5649C138.043 89.6283 138.328 91.2026 140.05 91.1392C141.857 91.0652 142.544 89.3113 142.544 89.3007C142.565 89.2373 142.607 89.1951 142.67 89.1739C142.713 89.1528 147.33 87.1559 151.905 84.916C152.021 84.8631 152.158 84.9054 152.222 85.0216C152.275 85.1379 152.232 85.2752 152.116 85.3386C147.879 87.42 143.6 89.2902 142.945 89.5754C142.765 89.9875 141.941 91.5512 140.071 91.6252C140.029 91.5935 139.987 91.604 139.944 91.604Z" fill="#292524"/>
<path d="M139.837 90.2406C139.721 90.2406 139.626 90.1561 139.605 90.0399C139.584 89.9131 139.668 89.7968 139.795 89.7757C140.809 89.6172 141.824 89.3954 142.817 89.1206C142.944 89.0889 143.07 89.1629 143.102 89.2791C143.134 89.4059 143.06 89.5327 142.944 89.5644C141.94 89.8391 140.904 90.0716 139.88 90.23C139.869 90.2406 139.848 90.2406 139.837 90.2406Z" fill="#292524"/>
<path d="M137.82 89.9033C137.799 89.9033 137.778 89.9033 137.756 89.8928C137.63 89.8505 137.566 89.7237 137.598 89.5969C137.841 88.7834 138.411 88.0755 139.151 87.6528C139.267 87.5894 139.405 87.6317 139.468 87.7374C139.531 87.8536 139.489 87.9909 139.384 88.0543C138.75 88.4136 138.253 89.0264 138.042 89.7237C138.021 89.8399 137.925 89.9033 137.82 89.9033Z" fill="#292524"/>
<path d="M136.234 88.0545C136.202 88.0545 136.16 88.044 136.128 88.0334C136.012 87.97 135.97 87.8327 136.022 87.7164C136.477 86.8183 137.227 86.0682 138.125 85.6033C138.241 85.5399 138.379 85.5927 138.442 85.7089C138.505 85.8252 138.453 85.9625 138.336 86.0259C137.523 86.438 136.847 87.1142 136.435 87.9277C136.403 88.0123 136.318 88.0545 136.234 88.0545Z" fill="#292524"/>
<path d="M134.641 85.8565C134.589 85.8565 134.525 85.8354 134.483 85.7931C134.388 85.7086 134.388 85.5607 134.472 85.4656C135.106 84.7894 135.825 84.1977 136.617 83.6905C136.723 83.6166 136.871 83.6588 136.934 83.7645C137.008 83.8702 136.966 84.0181 136.86 84.0815C136.11 84.5569 135.423 85.1275 134.81 85.7825C134.768 85.8354 134.705 85.8565 134.641 85.8565Z" fill="#292524"/>
<path d="M164.16 62.929C164.636 63.5101 170.098 74.7942 170.098 74.7942C170.098 74.7942 178.72 70.4412 179.301 64.3976C179.966 57.4665 177.071 53.3564 177.071 53.3564L164.16 62.929Z" fill="#65A30D"/>
<path d="M164.321 63.0763C164.247 63.0763 164.183 63.0446 164.13 62.9812C164.056 62.8755 164.078 62.7276 164.173 62.6536L165.884 61.354C165.99 61.2801 166.138 61.3012 166.212 61.3963C166.286 61.502 166.265 61.6499 166.17 61.7238L164.458 63.0234C164.426 63.0551 164.373 63.0763 164.321 63.0763Z" fill="#292524"/>
<path d="M207.375 58.2477C207.375 58.2477 199.969 58.8394 195.457 55.9761L203.793 35.7111C203.793 35.7111 203.149 34.8976 203.487 33.7459C203.836 32.5943 204.649 31.1573 205.896 32.0131C205.896 32.0131 206.805 30.6819 207.66 32.3513C207.66 32.3513 209.002 30.4917 210.323 33.0591L211.887 29.7521C212.14 29.2132 212.764 28.9597 213.324 29.171C213.862 29.3717 214.158 29.9423 214.031 30.5023L212.531 36.8522C212.531 36.8522 213.841 38.7963 213.429 40.3706C213.007 41.9238 207.375 58.2477 207.375 58.2477Z" fill="white"/>
<path d="M207.375 58.4801C207.354 58.4801 207.322 58.4802 207.301 58.4696C207.174 58.4273 207.111 58.29 207.153 58.1737C207.206 58.0153 212.784 41.8392 213.186 40.2966C213.566 38.8491 212.33 36.9895 212.32 36.9684C212.288 36.9156 212.267 36.8522 212.288 36.7888L213.788 30.4388C213.894 29.9951 213.651 29.5407 213.228 29.3823C212.784 29.2132 212.288 29.414 212.087 29.8471L210.523 33.1542C210.481 33.2387 210.407 33.281 210.312 33.2916C210.228 33.3021 210.143 33.2493 210.101 33.1648C209.699 32.3935 209.266 31.9708 208.833 31.9391C208.283 31.8969 207.84 32.4886 207.84 32.4886C207.787 32.552 207.713 32.5942 207.628 32.5837C207.544 32.5731 207.48 32.5308 207.438 32.4569C207.28 32.1399 207.026 31.7595 206.709 31.7384C206.424 31.7173 206.139 32.0342 206.065 32.1399C205.991 32.2456 205.843 32.2773 205.737 32.2033C205.431 31.992 205.156 31.9392 204.892 32.0342C204.416 32.2033 203.973 32.8689 203.687 33.8198C203.381 34.8341 203.93 35.5421 203.952 35.5737C204.004 35.6371 204.015 35.7322 203.983 35.8062L195.679 56.0712C195.626 56.1874 195.488 56.2508 195.372 56.198C195.256 56.1451 195.193 56.0078 195.245 55.8916L203.529 35.7428C203.349 35.4575 202.969 34.6862 203.265 33.6825C203.423 33.1542 203.888 31.9075 204.765 31.5905C205.114 31.4637 205.473 31.506 205.843 31.7067C206.022 31.5165 206.35 31.2524 206.762 31.2735C207.111 31.2946 207.428 31.5271 207.702 31.9497C207.945 31.7173 208.357 31.4214 208.875 31.4637C209.393 31.506 209.868 31.8652 210.301 32.5414L211.675 29.6358C211.981 28.9913 212.732 28.6849 213.397 28.9385C214.042 29.1815 214.412 29.8683 214.253 30.5445L212.774 36.7994C213.027 37.2114 214.031 38.9442 213.651 40.4128C213.239 41.9766 207.829 57.656 207.607 58.3217C207.565 58.4273 207.48 58.4801 207.375 58.4801Z" fill="#292524"/>
<path d="M209.035 42.5999C209.004 42.5999 208.972 42.5893 208.951 42.5788C208.391 42.3569 208.201 41.6807 208.253 41.1524C208.285 40.8671 208.359 40.603 208.444 40.3494C208.507 40.1487 208.56 39.9585 208.592 39.7683C208.75 38.8913 208.338 37.9299 207.609 37.4227C207.503 37.3487 207.376 37.2748 207.26 37.2114C207.07 37.1057 206.869 36.9895 206.69 36.831C206.309 36.5035 206.13 36.0386 206.246 35.6477C206.341 35.3307 206.616 35.0666 206.986 34.9503C207.292 34.8552 207.598 34.8658 207.894 34.8975C209.426 35.0349 210.525 35.1933 211.888 36.1865C211.994 36.2605 212.015 36.4084 211.941 36.5141C211.867 36.6197 211.719 36.6408 211.613 36.5669C210.335 35.6477 209.342 35.4998 207.841 35.3624C207.556 35.3413 207.324 35.3307 207.112 35.3941C206.943 35.4469 206.743 35.5737 206.679 35.7745C206.605 36.0175 206.785 36.3027 206.986 36.4718C207.133 36.5986 207.303 36.6937 207.482 36.7993C207.609 36.8733 207.736 36.9472 207.862 37.0318C208.75 37.6446 209.225 38.7751 209.035 39.8422C208.993 40.0641 208.93 40.2754 208.866 40.4762C208.792 40.7192 208.718 40.9516 208.697 41.1947C208.655 41.5645 208.782 42.0082 209.109 42.1456C209.225 42.1984 209.289 42.3252 209.236 42.452C209.215 42.5365 209.13 42.5999 209.035 42.5999Z" fill="#292524"/>
<path d="M209.697 35.6687C209.686 35.6687 209.665 35.6687 209.654 35.6687C209.528 35.6476 209.443 35.5208 209.464 35.394C209.612 34.591 209.834 33.788 210.13 33.0167C210.172 32.9005 210.309 32.8371 210.436 32.8793C210.552 32.9216 210.616 33.059 210.574 33.1858C210.288 33.9253 210.066 34.6966 209.929 35.4785C209.908 35.5842 209.802 35.6687 209.697 35.6687Z" fill="#292524"/>
<path d="M206.867 35.4045C206.846 35.4045 206.824 35.4045 206.803 35.394C206.676 35.3517 206.613 35.2249 206.645 35.0981L207.469 32.4039C207.511 32.2771 207.638 32.2137 207.765 32.2454C207.892 32.2876 207.955 32.4144 207.923 32.5412L207.099 35.2355C207.067 35.3411 206.972 35.4045 206.867 35.4045Z" fill="#292524"/>
<path d="M205.811 37.423C205.79 37.423 205.758 37.423 205.737 37.423C205.304 37.3807 204.902 37.0637 204.712 36.6094C204.543 36.1973 204.543 35.743 204.564 35.3944C204.649 34.2427 204.997 33.1016 205.6 32.119C205.663 32.0133 205.811 31.9711 205.917 32.045C206.022 32.1084 206.065 32.2563 205.991 32.362C205.431 33.2918 205.093 34.3483 205.019 35.4366C204.997 35.7536 204.997 36.1234 205.124 36.4404C205.23 36.6834 205.462 36.9475 205.758 36.9686C205.885 36.9792 206.033 36.9264 206.139 36.8313C206.181 36.789 206.265 36.6939 206.255 36.5671C206.244 36.4404 206.35 36.3347 206.477 36.3241C206.603 36.3136 206.72 36.4192 206.72 36.546C206.73 36.7785 206.635 36.9898 206.456 37.1694C206.297 37.3173 206.054 37.423 205.811 37.423Z" fill="#292524"/>
<path d="M204.808 36.6199C204.385 36.6199 203.973 36.3874 203.751 36.0282C203.688 35.9226 203.72 35.7746 203.825 35.7112C203.931 35.6478 204.079 35.6795 204.142 35.7852C204.28 36.0071 204.544 36.155 204.808 36.155C204.935 36.155 205.04 36.2607 205.04 36.3874C205.04 36.5142 204.935 36.6199 204.808 36.6199C204.818 36.6199 204.818 36.6199 204.808 36.6199Z" fill="#292524"/>
<path d="M256.204 103.28C247.814 103.639 229.504 104.199 218.801 102.794C216.572 102.498 214.987 100.628 214.839 98.3982C214.533 93.8338 214.342 85.7511 214.247 74.1288C214.247 74.1288 207.285 79.1264 200.596 78.4396C189.83 77.3197 189.946 66.4581 192.905 60.2983L200.438 43.9004C200.438 43.9004 205.985 46.1509 212.462 47.2603L206.862 60.6998L216.065 53.5891C218.41 51.7824 221.242 50.7153 224.2 50.5356C229.948 50.187 240.059 49.9123 248.956 51.4126C252.041 51.9303 254.672 53.9378 255.971 56.7694C258.348 61.9571 262.363 70.8957 265.068 77.9642C266.886 82.7082 264.973 88.5193 260.176 90.2309C259.88 90.3366 259.532 90.4739 259.247 90.5585C259.247 90.5585 262.036 93.781 261.729 97.9439C261.508 100.871 259.13 103.163 256.204 103.28Z" fill="white"/>
<path d="M237.965 103.934C231.139 103.934 224.018 103.723 218.767 103.036C216.474 102.74 214.762 100.838 214.604 98.4187C214.308 93.9495 214.107 86.1414 214.012 74.5614C212.48 75.5652 206.394 79.2632 200.573 78.6609C196.716 78.2594 193.948 76.6217 192.363 73.7901C190.06 69.6695 190.863 63.9957 192.691 60.1921L200.213 43.8047C200.266 43.6885 200.393 43.6357 200.509 43.6885C200.562 43.7096 206.109 45.9496 212.48 47.0378C212.554 47.0484 212.607 47.0906 212.649 47.154C212.691 47.2174 212.691 47.2914 212.66 47.3548L207.398 59.9808L215.903 53.4089C218.291 51.5599 221.155 50.4928 224.166 50.3026C229.544 49.9751 239.919 49.6581 248.974 51.1796C252.144 51.7078 254.838 53.7682 256.169 56.6737C258.388 61.5022 262.519 70.6944 265.277 77.8896C266.281 80.5099 266.196 83.4577 265.044 85.9618C264.062 88.1066 262.35 89.7126 260.248 90.4628C260.152 90.4945 260.047 90.5367 259.941 90.579C259.835 90.6213 259.74 90.653 259.635 90.6952C260.3 91.5616 262.223 94.4143 261.959 97.9855C261.737 101.018 259.265 103.395 256.211 103.522C252.26 103.691 245.287 103.934 237.965 103.934ZM214.245 73.8958C214.276 73.8958 214.319 73.9063 214.35 73.9169C214.424 73.9592 214.477 74.0331 214.477 74.1177C214.572 85.9301 214.773 93.8649 215.069 98.3765C215.217 100.574 216.759 102.296 218.83 102.56C229.67 103.976 248.572 103.374 256.19 103.047C259.001 102.93 261.283 100.733 261.494 97.9327C261.801 93.9072 259.096 90.7481 259.075 90.7164C259.022 90.653 259.001 90.579 259.022 90.4945C259.043 90.41 259.106 90.3571 259.18 90.336C259.36 90.2832 259.571 90.1986 259.783 90.1247C259.888 90.0824 259.994 90.0402 260.1 90.0085C262.086 89.3006 263.692 87.7897 264.632 85.7505C265.721 83.3943 265.795 80.5099 264.854 78.0375C262.107 70.8529 257.976 61.6819 255.757 56.8533C254.489 54.0851 251.932 52.1305 248.911 51.6233C239.898 50.1124 229.565 50.4294 224.208 50.7569C221.281 50.9366 218.513 51.972 216.199 53.7682L206.996 60.8789C206.912 60.9423 206.796 60.9423 206.711 60.8789C206.627 60.8155 206.595 60.6992 206.637 60.6042L212.121 47.4287C206.521 46.4356 201.597 44.5971 200.551 44.1851L193.113 60.3823C191.338 64.0803 190.546 69.585 192.775 73.5577C194.286 76.2519 196.927 77.8157 200.625 78.196C207.144 78.8722 214.044 73.9803 214.118 73.9275C214.149 73.9064 214.192 73.8958 214.245 73.8958Z" fill="#292524"/>
<path d="M204.715 66.0669C204.683 66.0669 204.651 66.0563 204.63 66.0458C204.514 65.9929 204.45 65.8556 204.503 65.7394L206.299 61.3546C206.352 61.2384 206.49 61.175 206.606 61.2278C206.722 61.2806 206.785 61.418 206.733 61.5342L204.936 65.919C204.894 66.0141 204.81 66.0669 204.715 66.0669Z" fill="#292524"/>
<path d="M250.567 77.7942C250.483 77.7942 250.398 77.7413 250.356 77.6674L247.007 70.8736C246.954 70.7574 246.996 70.6201 247.113 70.5567C247.229 70.5038 247.366 70.5461 247.429 70.6623L250.779 77.4561C250.832 77.5723 250.789 77.7096 250.673 77.773C250.631 77.7942 250.599 77.7942 250.567 77.7942Z" fill="#292524"/>
<path d="M259.242 90.5482C254.879 91.7527 248.169 91.2033 243.732 89.6502C238.174 87.7166 236.832 86.4171 233.515 83.4904C232.67 82.7508 231.349 81.5674 229.986 80.7644C229.119 80.2573 227.83 79.972 226.837 79.9086C218.385 79.3592 217.899 75.6189 217.899 75.6189C217.677 75.3231 217.645 74.9427 217.709 74.5624C217.878 73.5692 218.828 73.4847 220.086 73.6643C222.019 73.939 224.629 73.4635 229.394 72.4809C232.839 71.773 234.74 71.9421 236.515 73.5798C237.318 74.3194 239.22 75.714 240.456 76.2317C243.489 77.4996 245.76 77.8272 250.8 78.0702L259.242 90.5482Z" fill="white"/>
<path d="M253.591 91.4355C250.231 91.4355 246.576 90.8967 243.659 89.8823C238.271 88.0017 236.749 86.6704 233.728 84.0078L233.252 83.5852C232.418 82.8456 231.15 81.7362 229.861 80.9755C228.973 80.4472 227.663 80.2042 226.807 80.1513C218.746 79.6231 217.763 76.242 217.668 75.7243C217.457 75.4074 217.393 75.0164 217.478 74.541C217.721 73.104 219.401 73.3471 220.119 73.4527C221.968 73.7169 224.472 73.2731 229.353 72.2694C233.073 71.5086 234.922 71.8045 236.686 73.421C237.51 74.1817 239.38 75.5447 240.564 76.0307C243.617 77.3092 245.91 77.6156 250.823 77.848C250.95 77.8586 251.055 77.9643 251.045 78.091C251.034 78.2178 250.918 78.3235 250.802 78.3129C245.825 78.0805 243.501 77.7635 240.384 76.4639C239.116 75.9356 237.204 74.5304 236.38 73.7697C234.742 72.2694 232.999 72.0052 229.459 72.7342C224.525 73.7485 221.989 74.1923 220.066 73.9176C218.45 73.6851 218.048 74.0338 217.953 74.6255C217.89 74.9953 217.943 75.2911 218.101 75.5024C218.122 75.5341 218.143 75.5764 218.143 75.6081C218.143 75.6398 218.746 79.1582 226.86 79.6865C227.811 79.7499 229.163 80.014 230.114 80.5845C231.445 81.3664 232.724 82.4969 233.569 83.2471L234.045 83.6697C237.119 86.3745 238.514 87.6107 243.818 89.4597C248.498 91.0868 255.113 91.4778 259.191 90.3472C259.318 90.3155 259.445 90.3895 259.476 90.5057C259.508 90.6325 259.434 90.7593 259.318 90.791C257.691 91.2242 255.704 91.4355 253.591 91.4355Z" fill="#292524"/>
<path d="M224.642 77.3829C221.969 77.3829 219.402 76.8018 217.774 75.8297C217.669 75.7663 217.627 75.6184 217.69 75.5127C217.753 75.4071 217.901 75.3648 218.007 75.4282C219.56 76.358 222.032 76.918 224.632 76.918C224.642 76.918 224.653 76.918 224.663 76.918C224.79 76.918 224.896 77.0236 224.896 77.1504C224.896 77.2772 224.79 77.3829 224.663 77.3829C224.663 77.3829 224.653 77.3829 224.642 77.3829Z" fill="#292524"/>
<path d="M242.282 88.7394C242.261 88.7394 242.229 88.7394 242.208 88.7289C242.081 88.6866 242.018 88.5492 242.06 88.433C243.169 85.2422 244.131 81.9563 244.934 78.6598C244.965 78.533 245.092 78.459 245.219 78.4907C245.346 78.5224 245.42 78.6492 245.388 78.776C244.585 82.0725 243.613 85.3795 242.504 88.5915C242.472 88.676 242.377 88.7394 242.282 88.7394Z" fill="#292524"/>
<path d="M237.539 86.1195C237.496 86.1195 237.454 86.109 237.412 86.0878C237.306 86.0244 237.264 85.8765 237.338 85.7709C238.331 84.1543 240.001 82.9815 241.86 82.5906C240.962 80.9318 240.561 79.0088 240.719 77.1281C240.73 77.0013 240.846 76.9063 240.973 76.9168C241.099 76.9274 241.194 77.0436 241.184 77.1704C241.025 79.0617 241.469 81.0057 242.42 82.6434C242.462 82.7068 242.462 82.7913 242.431 82.8653C242.399 82.9393 242.336 82.9815 242.262 82.9921C240.413 83.2879 238.722 84.4185 237.74 86.0139C237.697 86.0773 237.613 86.1195 237.539 86.1195Z" fill="#292524"/>
<path d="M213.981 73.5729L239.762 73.5732L239.762 59.7322L213.982 59.7318L213.981 73.5729Z" fill="white"/>
<path d="M239.751 73.8011H213.971C213.907 73.8011 213.855 73.7799 213.802 73.7377C213.749 73.6954 213.738 73.632 213.738 73.5686V59.7276C213.738 59.6008 213.844 59.4951 213.971 59.4951H239.751C239.814 59.4951 239.867 59.5163 239.92 59.5585C239.962 59.6008 239.983 59.6642 239.983 59.7276V73.5686C239.983 73.6954 239.888 73.8011 239.751 73.8011ZM214.203 73.3362H239.519V59.96H214.203V73.3362Z" fill="#292524"/>
<path d="M213.156 62.2555L240.246 62.2559L240.246 58.8748L213.156 58.8744L213.156 62.2555Z" fill="white"/>
<path d="M240.249 62.4846H213.158C213.095 62.4846 213.042 62.4634 212.989 62.4212C212.936 62.3789 212.926 62.3155 212.926 62.2521V58.8711C212.926 58.7443 213.031 58.6387 213.158 58.6387H240.249C240.312 58.6387 240.365 58.6598 240.418 58.7021C240.46 58.7443 240.481 58.8077 240.481 58.8711V62.2521C240.481 62.3789 240.375 62.4846 240.249 62.4846ZM213.391 62.0197H240.016V59.1036H213.391V62.0197Z" fill="#292524"/>
<path d="M225.086 73.5673L227.875 73.5674L227.875 58.5641L225.086 58.5641L225.086 73.5673Z" fill="#65A30D"/>
<path d="M232.597 65.2514C232.481 65.2514 232.375 65.1563 232.364 65.0401C232.026 60.4652 228.719 58.8169 228.687 58.8064C228.571 58.7535 228.518 58.6162 228.582 58.5C228.635 58.3837 228.783 58.3309 228.888 58.3943C229.036 58.4683 232.47 60.1799 232.829 65.019C232.84 65.1458 232.745 65.262 232.618 65.2726C232.618 65.2514 232.607 65.2514 232.597 65.2514Z" fill="#E7E5E4"/>
<path d="M229.5 66.7197L232.047 70.0902C232.374 70.5234 232.997 70.6079 233.431 70.2804L236.801 67.734C237.234 67.4065 237.319 66.7831 236.991 66.3499L234.445 62.9795C234.117 62.5463 233.494 62.4617 233.061 62.7893L229.69 65.3356C229.257 65.6737 229.173 66.2865 229.5 66.7197ZM233.557 65.7371L232.437 66.5824L231.592 65.4624L232.712 64.6171L233.557 65.7371Z" fill="#65A30D"/>
<path d="M232.533 65.5362C232.501 65.5362 232.469 65.5257 232.438 65.5151C230.821 64.7861 231.149 61.3522 231.17 61.2043C231.18 61.0775 231.297 60.9824 231.423 60.993C231.55 61.0036 231.645 61.1198 231.635 61.2466C231.54 62.1447 231.55 64.5959 232.639 65.0819C232.755 65.1347 232.808 65.2721 232.755 65.3883C232.712 65.4834 232.628 65.5362 232.533 65.5362Z" fill="#E7E5E4"/>
<path d="M237.482 41.7451L238.147 50.5358C239.035 51.0746 238.961 52.4059 237.999 52.8285C236.404 53.5259 233.71 54.2443 231.311 52.6806C230.582 52.2051 230.476 51.1697 231.1 50.5675L231.459 43.7737L237.482 41.7451Z" fill="white"/>
<path d="M234.521 53.8536C233.433 53.8536 232.281 53.6 231.183 52.8921C230.771 52.628 230.506 52.1948 230.464 51.7088C230.422 51.2544 230.57 50.8212 230.876 50.4831L231.225 43.7739C231.225 43.6788 231.288 43.5943 231.383 43.5626L237.406 41.534C237.48 41.5129 237.554 41.5234 237.607 41.5657C237.67 41.608 237.702 41.6714 237.712 41.7453L238.367 50.4303C238.79 50.7367 239.033 51.2439 239.001 51.7722C238.959 52.3533 238.621 52.8287 238.093 53.0612C237.247 53.4204 235.948 53.843 234.521 53.8536ZM231.69 43.943L231.341 50.5782C231.341 50.6416 231.309 50.6945 231.267 50.7367C231.024 50.9797 230.897 51.3073 230.929 51.6454C230.961 51.994 231.151 52.3004 231.436 52.4906C233.676 53.9487 236.191 53.3676 237.902 52.6174C238.272 52.4589 238.505 52.1208 238.526 51.7193C238.557 51.3178 238.367 50.948 238.019 50.7367C237.955 50.6945 237.913 50.6311 237.902 50.5571L237.258 42.0623L231.69 43.943Z" fill="#292524"/>
<path d="M243.35 38.2161C244.364 34.4758 242.589 32.5106 241.173 31.9718C239.123 31.1794 238.902 31.4752 236.165 29.2458C234.57 27.9463 233.513 27.1221 232.361 27.0904C230.998 27.0482 229.709 27.8723 229.371 28.3689C227.11 31.7076 227.829 35.9656 230.407 39.3995C230.914 40.0757 232.097 41.6077 234.242 42.4741C234.887 42.7276 236.26 43.2771 237.961 43.0235C240.286 42.6537 242.642 40.8153 243.35 38.2161Z" fill="#292524"/>
<path d="M238.313 40.4777C238.883 40.7101 239.232 41.3546 239.2 41.9675C239.169 42.5803 238.799 43.1508 238.302 43.51C237.795 43.8693 237.172 44.0383 236.559 44.07C236.242 44.0912 235.893 44.0806 235.629 44.2496C235.259 44.5032 235.185 44.9998 235.027 45.4119C234.657 46.3311 233.685 46.9016 232.703 47.0495C231.72 47.1975 230.727 46.9756 229.776 46.6903C229.163 46.5107 228.561 46.2994 228.022 45.9719C227.483 45.6337 227.008 45.1689 226.775 44.5772C226.353 43.5206 226.765 42.3373 227.177 41.2701C228.043 38.9985 228.909 36.7374 229.786 34.4658C231.287 35.7126 233.189 36.4627 235.133 36.5895C235.502 36.6107 235.946 36.6635 236.105 36.991C236.21 37.2129 236.147 37.477 236.073 37.7095C235.872 38.3646 235.672 39.0196 235.471 39.6853C235.365 40.0128 235.27 40.372 235.355 40.7101C235.418 40.9426 235.619 41.2173 235.872 41.2596C236.2 41.3124 236.337 41.0271 236.57 40.8475C237.045 40.4671 237.711 40.2241 238.313 40.4777Z" fill="white"/>
<path d="M232.07 47.3238C231.235 47.3238 230.421 47.123 229.703 46.9117C229.101 46.7321 228.467 46.5208 227.886 46.1616C227.442 45.8868 226.84 45.4008 226.544 44.6507C226.111 43.5413 226.501 42.3262 226.945 41.1746L229.555 34.3703C229.587 34.2963 229.639 34.2435 229.713 34.2329C229.787 34.2118 229.861 34.2329 229.925 34.2752C231.383 35.4902 233.232 36.2298 235.134 36.346C235.461 36.3672 236.063 36.4094 236.296 36.8743C236.433 37.1702 236.359 37.4766 236.275 37.7618L235.672 39.7376C235.588 40.0229 235.482 40.3504 235.556 40.6357C235.599 40.7942 235.736 40.9844 235.884 41.0055C235.989 41.0266 236.053 40.9738 236.201 40.8259C236.264 40.7625 236.328 40.6991 236.412 40.6357C237.078 40.1391 237.796 39.9912 238.398 40.2448C239.043 40.5089 239.466 41.2168 239.434 41.967C239.402 42.6221 239.022 43.2666 238.43 43.6892C237.934 44.0379 237.289 44.2492 236.56 44.2914L236.433 44.302C236.169 44.3126 235.926 44.3231 235.746 44.4394C235.535 44.5767 235.44 44.862 235.345 45.1684C235.303 45.2846 235.271 45.4008 235.229 45.5065C234.859 46.4363 233.897 47.1125 232.725 47.2815C232.513 47.3132 232.291 47.3238 232.07 47.3238ZM229.872 34.8351L227.378 41.3436C226.956 42.453 226.607 43.5307 226.977 44.4816C227.22 45.105 227.738 45.5276 228.129 45.7706C228.657 46.0982 229.259 46.2989 229.83 46.468C230.685 46.7215 231.689 46.9646 232.661 46.8166C233.654 46.6687 234.489 46.0876 234.796 45.3269C234.838 45.2318 234.869 45.1261 234.901 45.0205C235.017 44.6718 235.144 44.2809 235.482 44.059C235.768 43.8688 236.106 43.8477 236.412 43.8371L236.528 43.8265C237.162 43.7948 237.722 43.6152 238.145 43.3194C238.62 42.9813 238.927 42.4636 238.948 41.9564C238.98 41.4176 238.663 40.8787 238.198 40.6885C237.564 40.4244 236.919 40.8365 236.666 41.0266C236.613 41.0689 236.56 41.1217 236.507 41.1746C236.349 41.333 236.137 41.5444 235.789 41.481C235.429 41.4176 235.155 41.0689 235.081 40.7625C234.975 40.3504 235.102 39.9489 235.208 39.6214L235.81 37.6456C235.873 37.4343 235.926 37.2336 235.852 37.0962C235.746 36.8849 235.398 36.8426 235.081 36.8215C233.211 36.6947 231.372 35.9974 229.872 34.8351Z" fill="#292524"/>
<path d="M235.901 43.0874C235.827 43.0874 235.743 43.0451 235.7 42.9817C235.637 42.8761 235.669 42.7282 235.774 42.6648C236.292 42.3478 236.905 42.2104 237.518 42.295C237.645 42.3161 237.74 42.4323 237.719 42.5591C237.697 42.6859 237.581 42.7704 237.454 42.7599C236.968 42.6965 236.44 42.8021 236.028 43.0663C235.986 43.0768 235.943 43.0874 235.901 43.0874Z" fill="#292524"/>
<path d="M253.315 188.028C253.685 190.669 251.625 193.025 248.941 193.025H224.693C223.509 193.025 222.854 191.652 223.594 190.733L228.063 185.238L228.053 185.133H252.914L253.315 188.028Z" fill="white"/>
<path d="M248.953 193.258H224.694C224.049 193.258 223.489 192.898 223.215 192.317C222.94 191.747 223.025 191.081 223.426 190.585L227.895 185.09C227.98 184.995 228.128 184.974 228.223 185.059C228.318 185.143 228.339 185.291 228.255 185.386L223.785 190.88C223.489 191.24 223.437 191.705 223.637 192.117C223.838 192.539 224.229 192.782 224.704 192.782H248.963C250.178 192.782 251.319 192.265 252.122 191.345C252.915 190.437 253.274 189.232 253.105 188.038L252.703 185.154C252.682 185.027 252.777 184.911 252.904 184.89C253.031 184.869 253.147 184.964 253.168 185.09L253.57 187.975C253.749 189.296 253.359 190.637 252.482 191.652C251.573 192.677 250.295 193.258 248.953 193.258Z" fill="#292524"/>
<path d="M219.716 91.4565C229.004 90.5901 246.744 95.7462 246.744 95.7462L240.848 101.853L252.481 185.576H227.62L218.48 99.7083C218.174 96.9401 216.927 91.7207 219.716 91.4565Z" fill="#65A30D"/>
<path d="M240.205 93.5166L252.43 96.5278C252.43 96.5278 256.593 100.87 258.907 113.264C261.96 129.598 265.87 147.528 285.701 162.532C284.698 167.741 281.686 172.738 278.559 176.669C276.752 178.94 272.885 182.543 269.821 185.068C268.722 183.938 252.229 166.8 243.819 150.899C235.123 134.437 235.863 105.033 227.484 104.526L240.205 93.5166Z" fill="#65A30D"/>
<path d="M249.542 160.566C249.468 160.566 249.395 160.534 249.352 160.46C247.081 157.122 245.147 153.952 243.605 151.015C239.706 143.64 237.698 133.687 235.923 124.896C233.768 114.235 231.919 105.033 227.46 104.769C227.333 104.758 227.238 104.652 227.238 104.526C227.249 104.399 227.355 104.304 227.481 104.304C232.299 104.589 234.095 113.506 236.378 124.801C238.142 133.56 240.15 143.481 244.006 150.793C245.549 153.709 247.472 156.868 249.733 160.196C249.807 160.302 249.775 160.45 249.669 160.524C249.638 160.545 249.595 160.566 249.542 160.566Z" fill="#292524"/>
<path d="M278.547 176.679C281.675 172.748 284.697 167.751 285.69 162.542C286.186 162.922 286.693 163.292 287.211 163.662C289.81 165.543 290.909 168.881 289.874 171.914C288.511 175.929 286.313 181.507 283.397 186.114C280.66 190.435 275.864 193.024 270.739 193.024H267.136C266.386 193.024 265.964 192.168 266.418 191.576L269.862 185.142C269.862 185.142 269.841 185.121 269.799 185.079C272.874 182.553 276.741 178.95 278.547 176.679Z" fill="white"/>
<path d="M270.75 193.257H267.147C266.714 193.257 266.323 193.014 266.122 192.623C265.932 192.243 265.974 191.788 266.228 191.45L269.662 185.026C269.725 184.91 269.862 184.868 269.979 184.931C270.095 184.995 270.137 185.132 270.074 185.248L266.629 191.683C266.619 191.693 266.619 191.704 266.608 191.714C266.45 191.915 266.429 192.179 266.534 192.412C266.65 192.644 266.872 192.782 267.136 192.782H270.739C275.843 192.782 280.491 190.235 283.196 185.977C286.123 181.36 288.321 175.739 289.652 171.83C290.656 168.882 289.62 165.681 287.074 163.842C286.968 163.768 286.947 163.62 287.021 163.515C287.095 163.409 287.243 163.388 287.349 163.462C290.064 165.416 291.163 168.84 290.096 171.978C288.754 175.908 286.546 181.571 283.598 186.22C280.808 190.637 276.001 193.257 270.75 193.257Z" fill="#292524"/>
<path d="M38.2134 16.0599H34.378C32.8354 16.0599 31.5781 14.8026 31.5781 13.26V9.7628C31.5781 8.22021 32.8354 6.96289 34.378 6.96289H38.2134C39.756 6.96289 41.0133 8.22021 41.0133 9.7628V13.26C41.0133 14.8026 39.7454 16.0599 38.2134 16.0599Z" fill="white"/>
<path d="M38.2114 16.2924H34.3761C32.7067 16.2924 31.3438 14.9294 31.3438 13.2601V9.76282C31.3438 8.09344 32.7067 6.73047 34.3761 6.73047H38.2114C39.8808 6.73047 41.2438 8.09344 41.2438 9.76282V13.2601C41.2438 14.9294 39.8808 16.2924 38.2114 16.2924ZM34.3761 7.19536C32.9603 7.19536 31.8086 8.34702 31.8086 9.76282V13.2601C31.8086 14.6759 32.9603 15.8275 34.3761 15.8275H38.2114C39.6272 15.8275 40.7789 14.6759 40.7789 13.2601V9.76282C40.7789 8.34702 39.6272 7.19536 38.2114 7.19536H34.3761Z" fill="#292524"/>
<path d="M0.925781 25.3571C0.925781 17.4645 16.9962 11.0723 36.8174 11.0723C56.6386 11.0723 72.6985 17.4645 72.6985 25.3571H0.925781Z" fill="white"/>
<path d="M72.6965 25.5895H0.923851C0.797063 25.5895 0.691406 25.4839 0.691406 25.3571C0.691406 21.4372 4.47392 17.7709 11.3522 15.045C18.1565 12.3402 27.2007 10.8398 36.8155 10.8398C46.4303 10.8398 55.4745 12.3296 62.2788 15.045C69.157 17.7815 72.9396 21.4478 72.9396 25.3571C72.9396 25.4839 72.8339 25.5895 72.6965 25.5895ZM1.1563 25.1247H72.4641C72.1471 17.4857 56.2775 11.3047 36.8155 11.3047C17.3535 11.3047 1.48383 17.4857 1.1563 25.1247Z" fill="#292524"/>
<path d="M5.8015 22.3572C5.7381 22.3572 5.67471 22.3361 5.63244 22.2833C5.54792 22.1882 5.54792 22.0403 5.64301 21.9558C10.387 17.5287 20.2659 14.359 32.0678 13.4715C32.1946 13.4609 32.3108 13.556 32.3214 13.6828C32.3319 13.8096 32.2368 13.9258 32.1101 13.9364C20.4138 14.8239 10.6406 17.9514 5.97055 22.3044C5.91772 22.3361 5.85432 22.3572 5.8015 22.3572Z" fill="#292524"/>
<path d="M36.4551 7.19523C36.3283 7.19523 36.2227 7.08957 36.2227 6.96279V0.232445C36.2227 0.105657 36.3283 0 36.4551 0C36.5819 0 36.6875 0.105657 36.6875 0.232445V6.96279C36.6875 7.10014 36.5925 7.19523 36.4551 7.19523Z" fill="#292524"/>
<path d="M146.956 16.0599H143.12C141.578 16.0599 140.32 14.8026 140.32 13.26V9.7628C140.32 8.22021 141.578 6.96289 143.12 6.96289H146.956C148.498 6.96289 149.755 8.22021 149.755 9.7628V13.26C149.745 14.8026 148.488 16.0599 146.956 16.0599Z" fill="white"/>
<path d="M146.954 16.2924H143.118C141.449 16.2924 140.086 14.9294 140.086 13.2601V9.76282C140.086 8.09344 141.449 6.73047 143.118 6.73047H146.954C148.623 6.73047 149.986 8.09344 149.986 9.76282V13.2601C149.975 14.9294 148.623 16.2924 146.954 16.2924ZM143.118 7.19536C141.702 7.19536 140.551 8.34702 140.551 9.76282V13.2601C140.551 14.6759 141.702 15.8275 143.118 15.8275H146.954C148.369 15.8275 149.521 14.6759 149.521 13.2601V9.76282C149.521 8.34702 148.369 7.19536 146.954 7.19536H143.118Z" fill="#292524"/>
<path d="M109.664 25.3571C109.664 17.4645 125.734 11.0723 145.556 11.0723C165.377 11.0723 181.447 17.4645 181.447 25.3571H109.664Z" fill="white"/>
<path d="M181.438 25.5895H109.654C109.528 25.5895 109.422 25.4839 109.422 25.3571C109.422 21.4372 113.204 17.7709 120.083 15.045C126.887 12.3402 135.931 10.8398 145.546 10.8398C155.161 10.8398 164.205 12.3296 171.009 15.045C177.888 17.7815 181.67 21.4478 181.67 25.3571C181.67 25.4839 181.564 25.5895 181.438 25.5895ZM109.897 25.1247H181.205C180.888 17.4857 165.019 11.3047 145.557 11.3047C126.084 11.3047 110.214 17.4857 109.897 25.1247Z" fill="#292524"/>
<path d="M114.544 22.3572C114.48 22.3572 114.417 22.3361 114.375 22.2833C114.29 22.1882 114.29 22.0403 114.385 21.9558C119.129 17.5287 129.008 14.359 140.81 13.4715C140.937 13.4609 141.053 13.556 141.064 13.6828C141.074 13.8096 140.979 13.9258 140.852 13.9364C129.156 14.8239 119.383 17.9514 114.713 22.3044C114.649 22.3361 114.597 22.3572 114.544 22.3572Z" fill="#292524"/>
<path d="M145.197 7.19523C145.07 7.19523 144.965 7.08957 144.965 6.96279V0.232445C144.965 0.105657 145.07 0 145.197 0C145.324 0 145.43 0.105657 145.43 0.232445V6.96279C145.43 7.10014 145.324 7.19523 145.197 7.19523Z" fill="#292524"/>
<path d="M255.69 16.0599H251.855C250.312 16.0599 249.055 14.8026 249.055 13.26V9.7628C249.055 8.22021 250.312 6.96289 251.855 6.96289H255.69C257.233 6.96289 258.49 8.22021 258.49 9.7628V13.26C258.49 14.8026 257.233 16.0599 255.69 16.0599Z" fill="white"/>
<path d="M255.688 16.2924H251.853C250.183 16.2924 248.82 14.9294 248.82 13.2601V9.76282C248.82 8.09344 250.183 6.73047 251.853 6.73047H255.688C257.357 6.73047 258.72 8.09344 258.72 9.76282V13.2601C258.72 14.9294 257.357 16.2924 255.688 16.2924ZM251.863 7.19536C250.447 7.19536 249.296 8.34702 249.296 9.76282V13.2601C249.296 14.6759 250.447 15.8275 251.863 15.8275H255.699C257.114 15.8275 258.266 14.6759 258.266 13.2601V9.76282C258.266 8.34702 257.114 7.19536 255.699 7.19536H251.863Z" fill="#292524"/>
<path d="M218.402 25.3571C218.402 17.4645 234.473 11.0723 254.294 11.0723C274.115 11.0723 290.186 17.4645 290.186 25.3571H218.402Z" fill="white"/>
<path d="M290.184 25.5895H218.4C218.274 25.5895 218.168 25.4839 218.168 25.3571C218.168 21.4372 221.95 17.7709 228.829 15.045C235.633 12.3402 244.677 10.8398 254.292 10.8398C263.907 10.8398 272.951 12.3296 279.755 15.045C286.634 17.7815 290.416 21.4478 290.416 25.3571C290.416 25.4839 290.31 25.5895 290.184 25.5895ZM218.643 25.1247H289.951C289.634 17.4857 273.765 11.3047 254.303 11.3047C234.83 11.3047 218.96 17.4857 218.643 25.1247Z" fill="#292524"/>
<path d="M223.278 22.3572C223.215 22.3572 223.151 22.3361 223.109 22.2833C223.024 22.1882 223.024 22.0403 223.12 21.9558C227.864 17.5287 237.742 14.359 249.544 13.4715C249.671 13.4609 249.787 13.556 249.798 13.6828C249.808 13.8096 249.713 13.9258 249.587 13.9364C237.89 14.8239 228.117 17.9514 223.447 22.3044C223.394 22.3361 223.341 22.3572 223.278 22.3572Z" fill="#292524"/>
<path d="M253.939 7.19523C253.813 7.19523 253.707 7.08957 253.707 6.96279V0.232445C253.707 0.105657 253.813 0 253.939 0C254.066 0 254.172 0.105657 254.172 0.232445V6.96279C254.172 7.10014 254.066 7.19523 253.939 7.19523Z" fill="#292524"/>
</svg>
