<svg width="343" height="285" viewBox="0 0 343 285" fill="none" xmlns="http://www.w3.org/2000/svg">
<path d="M75.1564 36.9299L74.2534 28.8341L69.2091 29.3946C68.5708 27.5886 67.6367 25.9383 66.5001 24.4748L69.6606 20.5047L63.3085 15.4137L60.148 19.3837C58.4666 18.5897 56.645 18.0448 54.7456 17.8269L54.1851 12.7825L46.1049 13.6855L46.6653 18.7299C44.8593 19.3682 43.209 20.3023 41.7456 21.4388L37.7911 18.2628L32.7156 24.6305L36.6701 27.8065C35.8761 29.488 35.3312 31.3095 35.1132 33.2089L29.9443 34.003L30.9719 41.8652L36.0162 41.3048C36.6545 43.1108 37.5887 44.7611 38.7252 46.2245L35.5647 50.1946L41.9168 55.2701L45.0773 51.3C46.7588 52.094 48.5803 52.6389 50.4797 52.8569L51.0402 57.9012L59.1205 56.9982L58.56 51.9539C60.366 51.3156 62.0163 50.3814 63.4798 49.2449L67.4343 52.421L72.5097 46.0533L68.5552 42.8772C69.3492 41.1958 69.8941 39.3742 70.1121 37.4748L75.1564 36.9299ZM53.7492 45.5551C48.1132 46.1778 43.0378 42.1299 42.415 36.494C41.7923 30.858 45.8402 25.7826 51.4761 25.1598C57.1121 24.5371 62.1875 28.585 62.8103 34.2209C63.433 39.8413 59.3851 44.9168 53.7492 45.5551Z" fill="white"/>
<path d="M51.0385 58.2437C50.9607 58.2437 50.8828 58.2125 50.8205 58.1658C50.7427 58.1035 50.696 58.0257 50.696 57.9323L50.1666 53.1526C48.4385 52.9191 46.7726 52.4365 45.1846 51.7047L42.1798 55.4568C42.1175 55.5347 42.0397 55.5814 41.9463 55.5814C41.8528 55.5969 41.7594 55.5658 41.6972 55.5035L35.345 50.4436C35.2049 50.3191 35.1738 50.1167 35.2983 49.961L38.3031 46.2089C37.2444 44.8233 36.4037 43.2975 35.7965 41.6628L31.0169 42.1921C30.8301 42.2077 30.6588 42.0831 30.6432 41.8963L29.6157 34.034C29.5845 33.8472 29.7247 33.6759 29.8959 33.6448L34.8157 32.8819C35.0492 31.1538 35.5319 29.4723 36.2636 27.8843L32.5115 24.8795C32.3714 24.7549 32.3402 24.5525 32.4648 24.3969L37.5247 18.0603C37.587 17.9825 37.6648 17.9513 37.7582 17.9358C37.8516 17.9202 37.9451 17.9513 38.0073 18.0136L41.7594 21.0028C43.1451 19.9442 44.6708 19.1034 46.3056 18.4962L45.7762 13.7166C45.7606 13.5298 45.8852 13.3585 46.072 13.3429L54.1523 12.4399C54.2457 12.4244 54.3391 12.4555 54.4014 12.5178C54.4792 12.5801 54.5259 12.6579 54.5259 12.7513L55.0553 17.531C56.7834 17.7645 58.4493 18.2471 60.0373 18.9789L63.0421 15.2268C63.1044 15.1489 63.1822 15.1178 63.2757 15.1022C63.3691 15.0867 63.4625 15.1178 63.5248 15.1801L69.8769 20.2711C70.017 20.3957 70.0481 20.598 69.9236 20.7537L66.9188 24.5058C67.9775 25.8915 68.8182 27.4172 69.4254 29.052L74.1895 28.5226C74.2829 28.507 74.3763 28.5382 74.4386 28.6005C74.5164 28.6627 74.5631 28.7406 74.5631 28.834L75.4661 36.9298C75.4817 37.1167 75.3571 37.2879 75.1703 37.3035L70.4062 37.8328C70.1727 39.561 69.69 41.2268 68.9583 42.8149L72.7104 45.8197C72.8505 45.9442 72.8817 46.1466 72.7571 46.3023L67.7128 52.6233C67.6505 52.7011 67.5727 52.7323 67.4793 52.7478C67.3858 52.7634 67.2924 52.7323 67.2302 52.67L63.4781 49.6652C62.0924 50.7239 60.5667 51.5646 58.9319 52.1718L59.4613 56.9514C59.4768 57.1383 59.3523 57.3095 59.1655 57.3251L51.0852 58.2281C51.0541 58.2437 51.0541 58.2437 51.0385 58.2437ZM45.0756 50.9574C45.1223 50.9574 45.169 50.973 45.2157 50.9885C46.8972 51.7826 48.672 52.2963 50.5092 52.5299C50.6648 52.5454 50.7894 52.67 50.805 52.8257L51.3343 57.5275L58.7451 56.7023L58.2158 52.0005C58.2002 51.8448 58.2936 51.6892 58.4337 51.6424C60.1774 51.0197 61.7966 50.1323 63.2601 48.9802C63.3846 48.8867 63.5559 48.8867 63.6805 48.9802L67.3703 51.9383L72.0254 46.1155L68.3355 43.1574C68.211 43.064 68.1643 42.8927 68.2421 42.737C69.0362 41.0556 69.5499 39.2807 69.7679 37.4436C69.7835 37.2879 69.908 37.1634 70.0637 37.1478L74.7655 36.6185L73.9404 29.2077L69.2385 29.737C69.0829 29.7526 68.9272 29.6592 68.8805 29.519C68.2577 27.7753 67.3703 26.1561 66.2182 24.6927C66.1248 24.5681 66.1248 24.3969 66.2182 24.2723L69.1763 20.5669L63.3535 15.9118L60.3954 19.6016C60.302 19.7262 60.1307 19.7729 59.975 19.6951C58.2936 18.901 56.5188 18.3873 54.6816 18.1537C54.5259 18.1382 54.4014 18.0136 54.3858 17.8579L53.8565 13.1561L46.4457 13.9813L46.975 18.6831C46.9906 18.8388 46.8972 18.9945 46.757 19.0412C45.0133 19.6639 43.3942 20.5513 41.9307 21.7034C41.8061 21.7969 41.6349 21.7969 41.5103 21.7034L37.8205 18.7453L33.1965 24.5837L36.8864 27.5418C37.0109 27.6352 37.0576 27.8065 36.9798 27.9621C36.1858 29.6436 35.672 31.4184 35.454 33.2556C35.4385 33.4113 35.3139 33.5358 35.1582 33.5514L30.3163 34.2987L31.266 41.4915L35.9678 40.9622C36.1235 40.9466 36.2792 41.04 36.3259 41.1801C36.9486 42.9239 37.8361 44.543 38.9882 46.0065C39.0816 46.1311 39.0816 46.3023 38.9882 46.4269L36.0301 50.1323L41.8528 54.7874L44.8109 51.0975C44.8732 51.0041 44.9822 50.9574 45.0756 50.9574ZM52.5954 45.9598C50.1978 45.9598 47.8936 45.1502 45.9942 43.64C43.7834 41.8652 42.3978 39.343 42.0708 36.525C41.4169 30.7178 45.6205 25.4555 51.4277 24.8017C54.2457 24.4903 57.017 25.2843 59.2277 27.0591C61.4385 28.834 62.8242 31.3562 63.1511 34.1741C63.805 39.9813 59.6014 45.2436 53.7942 45.8975C53.3894 45.9287 52.9846 45.9598 52.5954 45.9598ZM52.6265 25.4244C52.2529 25.4244 51.8792 25.44 51.5056 25.4867C46.072 26.0939 42.1487 31.0136 42.7558 36.4472C43.0517 39.0783 44.3439 41.4448 46.4145 43.0951C48.4852 44.7454 51.0696 45.5083 53.7008 45.2125C59.1343 44.6053 63.0577 39.6855 62.4505 34.252C62.1547 31.6208 60.8625 29.2544 58.7918 27.6041C57.0325 26.1717 54.8684 25.4244 52.6265 25.4244Z" fill="#292524"/>
<path d="M102.996 15.7402L103.011 10.9294H100.022C99.7575 9.82399 99.3372 8.79644 98.7611 7.86231L100.878 5.74494L97.4689 2.33535L95.3515 4.45272C94.4174 3.87667 93.3898 3.44074 92.2844 3.17607V0.17127L87.4737 0.155701V3.1605C86.3683 3.42517 85.3407 3.84553 84.4066 4.42158L82.2892 2.30421L78.8796 5.69823L80.997 7.8156C80.4209 8.74974 79.985 9.77728 79.7203 10.8827L76.6377 11.0072L76.7155 15.6935H79.7048C79.9694 16.7989 80.3898 17.8264 80.9658 18.7605L78.8485 20.8779L82.2425 24.2875L84.3599 22.1701C85.294 22.7462 86.3216 23.1821 87.4269 23.4468V26.4516L92.2377 26.4672V23.4624C93.3431 23.1977 94.3707 22.7773 95.3048 22.2013L97.4222 24.3186L100.832 20.9246L98.7144 18.8073C99.2904 17.8731 99.7264 16.8456 99.9911 15.7402H102.996ZM89.8557 19.3833C86.5084 19.3833 83.7994 16.6587 83.7994 13.3114C83.7994 9.96411 86.5239 7.25512 89.8713 7.25512C93.2186 7.25512 95.9276 9.97968 95.9276 13.327C95.9276 16.6743 93.203 19.3833 89.8557 19.3833Z" fill="#D4D4D4"/>
<path d="M92.422 26.6384L87.2687 26.6228V23.5869C86.2568 23.3378 85.2915 22.933 84.4041 22.3881L82.2556 24.5366L78.628 20.8935L80.7765 18.745C80.2472 17.842 79.8424 16.8767 79.5933 15.8803H76.5573L76.4795 10.8515L79.6088 10.727C79.8579 9.715 80.2627 8.74972 80.8076 7.84673L78.6591 5.71379L82.3023 2.07066L84.4508 4.21917C85.3538 3.68983 86.3035 3.28504 87.3155 3.03594V0L92.4688 0.0155689V3.05151C93.4807 3.30061 94.446 3.7054 95.3334 4.25031L97.4819 2.1018L101.11 5.74493L98.961 7.89343C99.4903 8.79643 99.8951 9.7617 100.144 10.7581H103.18L103.165 15.9114H100.129C99.8796 16.9234 99.4748 17.8887 98.9299 18.7761L101.063 20.9246L97.4197 24.5677L95.2867 22.4192C94.3993 22.9486 93.434 23.3534 92.422 23.6025V26.6384ZM87.6113 26.2803H92.0795V23.3222L92.2041 23.2911C93.2628 23.042 94.2903 22.6216 95.2245 22.0456L95.3334 21.9677L97.4197 24.0695L100.58 20.9246L98.4939 18.8228L98.5718 18.7138C99.1478 17.7797 99.5682 16.7677 99.8328 15.6935L99.864 15.5689H102.822V11.1006H99.864L99.8328 10.9761C99.5837 9.90182 99.1634 8.88984 98.5873 7.95571L98.5095 7.84673L100.611 5.76049L97.4664 2.60001L95.3801 4.67067L95.2712 4.59283C94.337 4.01678 93.325 3.59642 92.2664 3.33175L92.1418 3.30061V0.342516H87.6735V3.30061L87.549 3.33175C86.4903 3.58085 85.4628 4.00121 84.5286 4.57726L84.4196 4.6551L82.3334 2.5533L79.1729 5.69822L81.2591 7.80002L81.1813 7.909C80.6053 8.84314 80.1849 9.85511 79.9202 10.9294L79.8891 11.0539L76.8376 11.1785L76.9154 15.5222H79.8735L79.9047 15.6467C80.1538 16.7054 80.5741 17.733 81.1502 18.6671L81.228 18.7761L79.1262 20.8623L82.2711 24.0228L84.3729 21.9366L84.4819 22.0144C85.416 22.5905 86.428 23.0108 87.4867 23.2755L87.6113 23.3066V26.2803ZM89.8688 19.5545C86.428 19.5545 83.6256 16.7521 83.6412 13.3114C83.6412 9.87068 86.4436 7.08385 89.8688 7.08385C89.8688 7.08385 89.8688 7.08385 89.8843 7.08385C93.325 7.08385 96.1119 9.88625 96.0963 13.327C96.0963 16.7677 93.2939 19.5545 89.8688 19.5545ZM89.8688 7.42637C86.6304 7.42637 83.9837 10.0575 83.9837 13.3114C83.9837 16.5653 86.6148 19.212 89.8688 19.212C89.8688 19.212 89.8688 19.212 89.8843 19.212C93.1227 19.212 95.7694 16.5809 95.7694 13.327C95.7538 10.0731 93.1227 7.42637 89.8688 7.42637Z" fill="#D4D4D4"/>
<path d="M285.469 82.0172C284.363 70.9944 280.985 62.1357 271.067 55.083C257.227 45.259 239.369 39.95 219.41 39.7165C204.432 39.5453 193.612 42.2387 193.161 42.3477C191.137 42.8614 189.907 44.9165 190.42 46.9561C190.934 48.98 192.989 50.21 195.013 49.6962C195.138 49.665 205.522 47.0962 219.55 47.2986C232.332 47.4698 250.89 50.0543 266.724 61.3106C274.337 66.7286 277.42 73.3453 278.54 81.3945L285.469 82.0172Z" fill="white"/>
<path d="M285.469 82.3599C285.298 82.3599 285.143 82.2354 285.127 82.0485C283.881 69.5467 279.616 61.5754 270.866 55.3634C257.087 45.5862 239.292 40.2927 219.411 40.0592C204.464 39.8724 193.706 42.5658 193.255 42.6904C191.418 43.1574 190.297 45.0413 190.764 46.8784C191.231 48.7155 193.099 49.8365 194.952 49.3694C195.061 49.3383 205.476 46.7538 219.582 46.9562C232.411 47.1431 251.047 49.7275 266.958 61.0305C273.964 66.0126 277.654 72.2713 278.915 81.3479C278.946 81.5348 278.806 81.706 278.619 81.7372C278.432 81.7683 278.261 81.6282 278.23 81.4414C276.984 72.5671 273.388 66.4485 266.553 61.591C250.798 50.397 232.302 47.8281 219.566 47.6413C205.539 47.4389 195.217 50.0077 195.108 50.0389C192.897 50.5994 190.655 49.2604 190.094 47.0497C189.534 44.8389 190.873 42.5814 193.084 42.0209C193.535 41.9119 204.402 39.2029 219.426 39.3742C239.448 39.6077 257.383 44.9478 271.271 54.803C280.192 61.1395 284.551 69.2665 285.828 81.9707C285.843 82.1575 285.703 82.3288 285.516 82.3444C285.485 82.3599 285.469 82.3599 285.469 82.3599Z" fill="#292524"/>
<path d="M278.555 81.3951C280.267 93.6946 277.403 109.326 279.162 128.958C279.349 131.013 302.126 134.47 304.181 134.345C304.212 134.345 283.241 132.399 283.272 132.399C285.358 132.212 286.9 130.375 286.697 128.289C285.062 110.12 286.744 94.8623 285.452 82.0335L278.555 81.3951Z" fill="white"/>
<path d="M304.055 134.687C303.51 134.687 302.296 134.563 300.676 134.36C298.855 134.189 296.519 133.971 294.215 133.753L284.204 132.819C283.8 132.788 283.519 132.757 283.333 132.726H283.317C282.943 132.663 282.943 132.601 282.943 132.383C282.943 132.212 283.084 132.056 283.255 132.04C283.815 131.994 284.345 131.807 284.781 131.527C278.927 130.126 278.864 129.331 278.833 128.989C277.915 118.822 278.242 109.684 278.537 101.634C278.818 93.9745 279.051 87.3577 278.226 81.4415C278.195 81.2547 278.335 81.0835 278.522 81.0523C278.709 81.0212 278.88 81.1613 278.911 81.3481C279.752 87.3266 279.503 93.9745 279.238 101.666C278.958 109.699 278.631 118.807 279.534 128.942C279.627 129.254 281.091 129.97 285.466 130.997C286.119 130.297 286.478 129.347 286.384 128.32C285.512 118.667 285.59 109.684 285.637 101.759C285.684 94.7218 285.73 88.0739 285.139 82.0643C285.123 81.8775 285.263 81.7062 285.45 81.6906C285.637 81.6751 285.808 81.8152 285.824 82.002C286.431 88.0428 286.384 94.7062 286.322 101.759C286.26 109.668 286.197 118.636 287.054 128.257C287.147 129.347 286.82 130.359 286.197 131.169C287.598 131.48 289.249 131.823 291.226 132.181C294.651 132.803 298.201 133.364 300.739 133.691L303.993 133.987C304.257 134.018 304.522 134.033 304.522 134.36C304.522 134.547 304.382 134.687 304.195 134.703C304.148 134.687 304.102 134.687 304.055 134.687ZM284.983 132.212C286.306 132.336 288.284 132.523 290.432 132.726C288.548 132.367 286.976 132.04 285.652 131.745C285.434 131.916 285.216 132.072 284.983 132.212Z" fill="#292524"/>
<path d="M187.672 113.077C208.076 113.077 224.617 96.5642 224.617 76.1944C224.617 55.8247 208.076 39.3117 187.672 39.3117C167.267 39.3117 150.727 55.8247 150.727 76.1944C150.727 96.5642 167.267 113.077 187.672 113.077Z" fill="#292524"/>
<path d="M184.885 110.134C205.29 110.134 221.83 93.6215 221.83 73.2517C221.83 52.8819 205.29 36.369 184.885 36.369C164.481 36.369 147.94 52.8819 147.94 73.2517C147.94 93.6215 164.481 110.134 184.885 110.134Z" fill="#FCD34D"/>
<path d="M184.887 110.477C164.321 110.477 147.6 93.7712 147.6 73.2514C147.6 52.7316 164.336 36.0261 184.887 36.0261C205.454 36.0261 222.175 52.7316 222.175 73.2514C222.175 93.7712 205.438 110.477 184.887 110.477ZM184.887 36.7267C164.694 36.7267 148.285 53.1208 148.285 73.2669C148.285 93.4131 164.71 109.807 184.887 109.807C205.064 109.807 221.49 93.4131 221.49 73.2669C221.49 53.1052 205.064 36.7267 184.887 36.7267Z" fill="#292524"/>
<path d="M215.747 77.8751C215.731 77.8751 215.716 77.8751 215.7 77.8751C215.513 77.844 215.389 77.6727 215.405 77.4859C215.591 76.1002 215.7 74.6679 215.7 73.2511C215.7 62.493 209.94 52.3732 200.692 46.8463C200.536 46.7528 200.474 46.5349 200.567 46.3792C200.661 46.2235 200.879 46.1612 201.034 46.2546C210.5 51.9062 216.385 62.2439 216.385 73.2511C216.385 74.699 216.292 76.1469 216.09 77.5793C216.058 77.7505 215.903 77.8751 215.747 77.8751Z" fill="#292524"/>
<path d="M201.921 99.6401C201.812 99.6401 201.703 99.5778 201.64 99.4844C201.531 99.3287 201.578 99.1108 201.734 99.0018C207.276 95.3742 211.589 89.9718 213.846 83.7754C213.909 83.6041 214.111 83.5107 214.282 83.573C214.454 83.6353 214.547 83.8377 214.485 84.0089C212.181 90.3455 207.775 95.8724 202.108 99.5778C202.045 99.6245 201.983 99.6401 201.921 99.6401Z" fill="#292524"/>
<path d="M184.887 104.685C173.241 104.685 162.592 98.3017 157.096 88.0418C157.003 87.8705 157.065 87.6681 157.236 87.5747C157.408 87.4813 157.61 87.5436 157.703 87.7148C163.059 97.7723 173.49 104 184.887 104C189.261 104 193.481 103.097 197.451 101.338C197.622 101.26 197.824 101.338 197.902 101.509C197.98 101.68 197.902 101.883 197.731 101.96C193.667 103.782 189.355 104.685 184.887 104.685Z" fill="#292524"/>
<path d="M154.685 81.269C154.529 81.269 154.389 81.16 154.358 81.0043C153.72 78.4821 153.393 75.8821 153.393 73.251C153.393 64.8594 156.662 56.9659 162.609 51.0186C162.749 50.8785 162.967 50.8785 163.092 51.0186C163.232 51.1587 163.232 51.3767 163.092 51.5012C157.269 57.3084 154.062 65.0306 154.062 73.2354C154.062 75.8043 154.373 78.3576 155.012 80.8175C155.058 81.0043 154.949 81.1911 154.763 81.2378C154.747 81.269 154.716 81.269 154.685 81.269Z" fill="#292524"/>
<path d="M167.464 47.8268C167.355 47.8268 167.246 47.7801 167.183 47.6711C167.074 47.5154 167.121 47.2975 167.277 47.1885C172.492 43.6699 178.58 41.8172 184.885 41.8172C187.657 41.8172 190.397 42.1753 193.059 42.8915C193.246 42.9382 193.355 43.125 193.308 43.3118C193.261 43.4986 193.075 43.6076 192.888 43.5609C190.288 42.8759 187.61 42.5178 184.901 42.5178C178.72 42.5178 172.773 44.3394 167.682 47.7645C167.588 47.7957 167.526 47.8268 167.464 47.8268Z" fill="#292524"/>
<path d="M184.184 96.1536L183.904 90.8913C180.245 91.0314 176.649 90.3152 174.516 89.2721L175.808 82.6553C178.159 83.7452 181.444 84.6326 184.994 84.3524C188.108 84.1032 190.163 82.702 190.038 80.4913C189.929 78.3895 188.108 77.2062 183.998 76.1475C178.05 74.6374 173.924 72.193 173.644 66.8218C173.38 61.9487 176.556 57.8541 182.332 56.2038L182.051 50.9415L187.392 50.5056L187.656 55.3786C191.315 55.2385 193.806 55.8145 195.659 56.5619L194.413 62.9451C192.965 62.4469 190.381 61.3882 186.457 61.7152C182.908 62.011 181.849 63.6457 181.942 65.2026C182.036 67.0242 184.013 68.0361 188.746 69.4218C195.363 71.2122 198.134 74.0457 198.399 79.0278C198.663 83.9476 195.456 88.447 189.244 90.0661L189.556 95.7177L184.184 96.1536Z" fill="white"/>
<path d="M249.933 212.56H260.052V151.732C260.052 148.93 257.779 146.673 254.993 146.673C252.206 146.673 249.933 148.946 249.933 151.732V212.56Z" fill="white"/>
<path d="M260.054 212.903H249.934C249.747 212.903 249.592 212.747 249.592 212.56V151.733C249.592 148.759 252.021 146.33 254.994 146.33C257.968 146.33 260.397 148.759 260.397 151.733V212.56C260.397 212.747 260.241 212.903 260.054 212.903ZM250.277 212.218H259.712V151.733C259.712 149.133 257.594 147.015 254.994 147.015C252.394 147.015 250.277 149.133 250.277 151.733V212.218Z" fill="#292524"/>
<path d="M249.937 212.561H260.057L269.585 224.456H240.315L249.937 212.561Z" fill="#292524"/>
<path d="M260.054 162.741H249.934C249.747 162.741 249.592 162.585 249.592 162.398C249.592 162.211 249.747 162.056 249.934 162.056H260.054C260.241 162.056 260.397 162.211 260.397 162.398C260.397 162.585 260.241 162.741 260.054 162.741Z" fill="#292524"/>
<path d="M260.054 169.715H249.934C249.747 169.715 249.592 169.559 249.592 169.372C249.592 169.185 249.747 169.029 249.934 169.029H260.054C260.241 169.029 260.397 169.185 260.397 169.372C260.397 169.559 260.241 169.715 260.054 169.715Z" fill="#292524"/>
<path d="M260.054 176.705H249.934C249.747 176.705 249.592 176.55 249.592 176.363C249.592 176.176 249.747 176.02 249.934 176.02H260.054C260.241 176.02 260.397 176.176 260.397 176.363C260.397 176.55 260.241 176.705 260.054 176.705Z" fill="#292524"/>
<path d="M260.054 183.68H249.934C249.747 183.68 249.592 183.524 249.592 183.338C249.592 183.151 249.747 182.995 249.934 182.995H260.054C260.241 182.995 260.397 183.151 260.397 183.338C260.397 183.524 260.241 183.68 260.054 183.68Z" fill="#292524"/>
<path d="M260.054 190.671H249.934C249.747 190.671 249.592 190.516 249.592 190.329C249.592 190.142 249.747 189.986 249.934 189.986H260.054C260.241 189.986 260.397 190.142 260.397 190.329C260.397 190.516 260.241 190.671 260.054 190.671Z" fill="#292524"/>
<path d="M260.054 197.645H249.934C249.747 197.645 249.592 197.489 249.592 197.303C249.592 197.116 249.747 196.96 249.934 196.96H260.054C260.241 196.96 260.397 197.116 260.397 197.303C260.397 197.489 260.241 197.645 260.054 197.645Z" fill="#292524"/>
<path d="M260.054 204.636H249.934C249.747 204.636 249.592 204.481 249.592 204.294C249.592 204.107 249.747 203.951 249.934 203.951H260.054C260.241 203.951 260.397 204.107 260.397 204.294C260.397 204.481 260.241 204.636 260.054 204.636Z" fill="#292524"/>
<path d="M260.054 211.611H249.934C249.747 211.611 249.592 211.456 249.592 211.269C249.592 211.082 249.747 210.926 249.934 210.926H260.054C260.241 210.926 260.397 211.082 260.397 211.269C260.397 211.471 260.241 211.611 260.054 211.611Z" fill="#292524"/>
<path d="M277.851 212.56H287.97V151.732C287.97 148.93 285.697 146.673 282.91 146.673C280.124 146.673 277.851 148.946 277.851 151.732V212.56Z" fill="white"/>
<path d="M287.972 212.903H277.852C277.665 212.903 277.51 212.747 277.51 212.56V151.733C277.51 148.759 279.939 146.33 282.912 146.33C285.886 146.33 288.315 148.759 288.315 151.733V212.56C288.315 212.747 288.159 212.903 287.972 212.903ZM278.195 212.218H287.63V151.733C287.63 149.133 285.512 147.015 282.912 147.015C280.312 147.015 278.195 149.133 278.195 151.733V212.218Z" fill="#292524"/>
<path d="M277.855 212.561H287.975L297.503 224.456H268.233L277.855 212.561Z" fill="#292524"/>
<path d="M287.972 157.851H277.852C277.665 157.851 277.51 157.695 277.51 157.509C277.51 157.322 277.665 157.166 277.852 157.166H287.972C288.159 157.166 288.315 157.322 288.315 157.509C288.315 157.695 288.159 157.851 287.972 157.851Z" fill="#292524"/>
<path d="M288.315 150.862H278.195C278.008 150.862 277.853 150.706 277.853 150.52C277.853 150.333 278.008 150.177 278.195 150.177H288.315C288.502 150.177 288.657 150.333 288.657 150.52C288.657 150.706 288.502 150.862 288.315 150.862Z" fill="#292524"/>
<path d="M287.972 164.826H277.852C277.665 164.826 277.51 164.671 277.51 164.484C277.51 164.297 277.665 164.141 277.852 164.141H287.972C288.159 164.141 288.315 164.297 288.315 164.484C288.315 164.671 288.159 164.826 287.972 164.826Z" fill="#292524"/>
<path d="M287.972 171.817H277.852C277.665 171.817 277.51 171.662 277.51 171.475C277.51 171.288 277.665 171.132 277.852 171.132H287.972C288.159 171.132 288.315 171.288 288.315 171.475C288.315 171.662 288.159 171.817 287.972 171.817Z" fill="#292524"/>
<path d="M287.972 178.792H277.852C277.665 178.792 277.51 178.636 277.51 178.449C277.51 178.262 277.665 178.107 277.852 178.107H287.972C288.159 178.107 288.315 178.262 288.315 178.449C288.315 178.651 288.159 178.792 287.972 178.792Z" fill="#292524"/>
<path d="M287.972 185.782H277.852C277.665 185.782 277.51 185.627 277.51 185.44C277.51 185.253 277.665 185.097 277.852 185.097H287.972C288.159 185.097 288.315 185.253 288.315 185.44C288.315 185.627 288.159 185.782 287.972 185.782Z" fill="#292524"/>
<path d="M287.972 192.757H277.852C277.665 192.757 277.51 192.602 277.51 192.415C277.51 192.228 277.665 192.072 277.852 192.072H287.972C288.159 192.072 288.315 192.228 288.315 192.415C288.315 192.617 288.159 192.757 287.972 192.757Z" fill="#292524"/>
<path d="M287.972 199.747H277.852C277.665 199.747 277.51 199.592 277.51 199.405C277.51 199.218 277.665 199.062 277.852 199.062H287.972C288.159 199.062 288.315 199.218 288.315 199.405C288.315 199.592 288.159 199.747 287.972 199.747Z" fill="#292524"/>
<path d="M287.972 206.723H277.852C277.665 206.723 277.51 206.567 277.51 206.38C277.51 206.194 277.665 206.038 277.852 206.038H287.972C288.159 206.038 288.315 206.194 288.315 206.38C288.315 206.583 288.159 206.723 287.972 206.723Z" fill="#292524"/>
<path d="M229.675 83.4965H301.105V64.6893C301.105 44.9635 285.116 28.9742 265.39 28.9742C245.664 28.9742 229.675 44.9635 229.675 64.6893V83.4965Z" fill="#E7E5E4"/>
<path d="M265.39 28.9742C266.495 28.9742 267.601 29.0209 268.675 29.1299C250.49 30.7958 236.245 46.1 236.245 64.7205V83.4965H229.675V64.7205C229.675 44.9791 245.664 28.9742 265.39 28.9742Z" fill="#292524"/>
<path d="M242.551 66.4483H269.376C273.875 66.4483 277.534 62.8052 277.534 58.2902V58.2746C277.534 53.7752 273.891 50.1165 269.376 50.1165H242.551C238.051 50.1165 234.393 53.7596 234.393 58.2746V58.2902C234.408 62.7896 238.051 66.4483 242.551 66.4483Z" fill="#292524"/>
<path d="M291.606 83.8387C291.419 83.8387 291.263 83.6831 291.263 83.4962V64.7201C291.263 45.1967 276.784 29.3164 258.989 29.3164C258.802 29.3164 258.646 29.1608 258.646 28.9739C258.646 28.7871 258.802 28.6314 258.989 28.6314C277.158 28.6314 291.948 44.8231 291.948 64.7201V83.4962C291.948 83.6831 291.793 83.8387 291.606 83.8387Z" fill="#292524"/>
<path d="M232.676 66.4483H259.501C264 66.4483 267.659 62.8052 267.659 58.2902V58.2746C267.659 53.7752 264.016 50.1165 259.501 50.1165H232.676C228.176 50.1165 224.518 53.7596 224.518 58.2746V58.2902C224.518 62.7896 228.176 66.4483 232.676 66.4483Z" fill="#D4D4D4"/>
<path d="M259.503 66.791H232.677C227.991 66.791 224.177 62.9767 224.177 58.2904C224.177 53.5886 227.991 49.7742 232.677 49.7742H259.503C264.189 49.7742 268.003 53.5886 268.003 58.2748C268.003 62.9767 264.189 66.791 259.503 66.791ZM232.677 50.4748C228.365 50.4748 224.862 53.9778 224.862 58.2904C224.862 62.603 228.365 66.106 232.677 66.106H259.503C263.815 66.106 267.318 62.603 267.318 58.2904C267.318 53.9778 263.815 50.4748 259.503 50.4748H232.677Z" fill="#292524"/>
<path d="M301.107 83.8387H229.676C229.49 83.8387 229.334 83.6831 229.334 83.4962V65.8722C229.334 65.6854 229.49 65.5297 229.676 65.5297C229.863 65.5297 230.019 65.6854 230.019 65.8722V83.1537H300.764V64.7201C300.764 45.1967 284.899 29.3164 265.392 29.3164C251.442 29.3164 238.753 37.5524 233.071 50.3033C232.993 50.4746 232.79 50.5524 232.619 50.4746C232.448 50.3967 232.37 50.1943 232.448 50.0231C238.239 37.023 251.177 28.6314 265.392 28.6314C285.273 28.6314 301.449 44.8231 301.449 64.7201V83.4962C301.449 83.6831 301.293 83.8387 301.107 83.8387Z" fill="#292524"/>
<path d="M255.349 30.5442L275.479 30.5442V23.5538L255.349 23.5538V30.5442Z" fill="white"/>
<path d="M275.469 30.8893H255.339C255.152 30.8893 254.996 30.7336 254.996 30.5468V23.5563C254.996 23.3695 255.152 23.2138 255.339 23.2138H275.469C275.656 23.2138 275.812 23.3695 275.812 23.5563V30.5468C275.812 30.7336 275.672 30.8893 275.469 30.8893ZM255.681 30.2042H275.127V23.8988H255.681V30.2042Z" fill="#292524"/>
<path d="M265.58 23.8988C265.393 23.8988 265.237 23.7431 265.237 23.5563V6.89757C265.237 6.71074 265.393 6.55505 265.58 6.55505C265.767 6.55505 265.922 6.71074 265.922 6.89757V23.5563C265.922 23.7431 265.767 23.8988 265.58 23.8988Z" fill="#292524"/>
<path d="M265.578 10.198C267.469 10.198 269.003 8.65758 269.003 6.75732C269.003 4.85706 267.469 3.31659 265.578 3.31659C263.686 3.31659 262.152 4.85706 262.152 6.75732C262.152 8.65758 263.686 10.198 265.578 10.198Z" fill="white"/>
<path d="M265.577 10.5247C263.491 10.5247 261.794 8.82773 261.794 6.7415C261.794 4.65526 263.491 2.95825 265.577 2.95825C267.663 2.95825 269.36 4.65526 269.36 6.7415C269.345 8.82773 267.663 10.5247 265.577 10.5247ZM265.577 3.65885C263.88 3.65885 262.495 5.04449 262.495 6.75706C262.495 8.46964 263.88 9.85528 265.577 9.85528C267.274 9.85528 268.66 8.46964 268.66 6.75706C268.66 5.04449 267.274 3.65885 265.577 3.65885Z" fill="#292524"/>
<path d="M229.672 151.089H301.103V88.284H229.672V151.089Z" fill="#E7E5E4"/>
<path d="M229.679 151.089H237.853V88.284H229.679V151.089Z" fill="#292524"/>
<path d="M291.604 151.44C291.417 151.44 291.262 151.284 291.262 151.097V88.5567C291.262 88.3699 291.417 88.2142 291.604 88.2142C291.791 88.2142 291.947 88.3699 291.947 88.5567V151.097C291.947 151.284 291.791 151.44 291.604 151.44Z" fill="#292524"/>
<path d="M301.103 151.439H229.673C229.486 151.439 229.33 151.284 229.33 151.097V88.292C229.33 88.1051 229.486 87.9495 229.673 87.9495H301.103C301.29 87.9495 301.445 88.1051 301.445 88.292V151.097C301.445 151.284 301.29 151.439 301.103 151.439ZM230.015 150.754H300.76V88.6345H230.015V150.754Z" fill="#292524"/>
<path d="M284.352 113.632C288.835 113.101 291.895 107.819 291.186 101.833C290.477 95.8467 286.268 91.4245 281.785 91.9553C277.302 92.4862 274.243 97.7691 274.951 103.755C275.66 109.741 279.869 114.163 284.352 113.632Z" fill="#292524"/>
<path d="M202.5 102.583C202.033 103.735 202.593 105.043 203.745 105.51L213.227 109.309C214.379 109.776 215.687 109.216 216.154 108.048C216.621 106.896 216.06 105.588 214.908 105.121L205.427 101.322C204.275 100.871 202.967 101.431 202.5 102.583Z" fill="white"/>
<path d="M214.068 109.823C213.741 109.823 213.414 109.76 213.102 109.636L203.621 105.837C202.298 105.308 201.644 103.798 202.173 102.459C202.438 101.82 202.92 101.307 203.559 101.042C204.197 100.762 204.898 100.762 205.552 101.011L215.033 104.81C216.356 105.339 217.01 106.849 216.481 108.188C216.216 108.826 215.734 109.34 215.095 109.605C214.768 109.745 214.41 109.823 214.068 109.823ZM204.586 101.525C204.337 101.525 204.072 101.571 203.839 101.68C203.372 101.883 203.014 102.256 202.811 102.723C202.811 102.739 202.811 102.739 202.796 102.754C202.422 103.704 202.889 104.825 203.87 105.214L213.352 109.013C213.819 109.2 214.348 109.2 214.815 108.998C215.282 108.795 215.64 108.422 215.843 107.954C216.232 106.974 215.765 105.868 214.784 105.479L205.302 101.68C205.069 101.556 204.835 101.525 204.586 101.525Z" fill="#292524"/>
<path d="M219.672 101.712C220.403 100.715 220.201 99.2987 219.204 98.567L211 92.4795C210.003 91.7322 208.586 91.9502 207.855 92.9466C207.123 93.943 207.325 95.3598 208.322 96.0915L216.527 102.179C217.523 102.926 218.924 102.708 219.672 101.712Z" fill="white"/>
<path d="M217.852 102.957C217.307 102.957 216.762 102.786 216.311 102.443L208.106 96.356C206.954 95.4997 206.72 93.8805 207.561 92.7284C207.561 92.7284 207.561 92.7285 207.561 92.7129C207.966 92.1524 208.573 91.7943 209.258 91.7009C209.943 91.5919 210.628 91.7632 211.188 92.1835L219.393 98.271C220.545 99.1273 220.779 100.746 219.938 101.899C219.518 102.459 218.926 102.817 218.241 102.926C218.117 102.957 217.992 102.957 217.852 102.957ZM208.121 93.1644C207.499 94.0051 207.685 95.2039 208.526 95.8267L216.731 101.914C217.136 102.225 217.649 102.35 218.148 102.272C218.646 102.194 219.097 101.93 219.393 101.525C220.016 100.684 219.845 99.4854 218.988 98.8626L210.784 92.7752C210.379 92.4638 209.865 92.3392 209.367 92.4171C208.884 92.4793 208.433 92.744 208.121 93.1644C208.121 93.1488 208.121 93.1488 208.121 93.1644Z" fill="#292524"/>
<path d="M222.878 96.3557L226.038 106.771L222.551 112.75L211.606 113.388C211.621 113.388 209.862 100.731 222.878 96.3557Z" fill="white"/>
<path d="M211.621 113.731C211.45 113.731 211.31 113.606 211.279 113.435C211.263 113.311 209.628 100.451 222.768 96.0447C222.862 96.0135 222.955 96.0291 223.033 96.0602C223.111 96.107 223.173 96.1692 223.204 96.2626L226.365 106.678C226.396 106.772 226.38 106.865 226.334 106.958L222.846 112.937C222.784 113.03 222.691 113.093 222.566 113.108L211.621 113.747C211.637 113.731 211.621 113.731 211.621 113.731ZM222.659 96.8076C211.528 100.746 211.777 111.1 211.932 113.03L222.364 112.423L225.68 106.741L222.659 96.8076Z" fill="#292524"/>
<path d="M286.434 140.619C286.637 140.681 286.855 140.728 287.057 140.79C295.745 143.203 307.795 145.57 312.31 138.346C314.567 134.734 314.147 130.234 311.049 124.988C308.978 121.469 305.631 117.499 301.116 113.155C293.612 105.963 285.407 100.202 285.064 99.953C283.492 98.8632 281.343 99.2368 280.254 100.809C279.164 102.382 279.537 104.53 281.11 105.636C281.188 105.698 289.268 111.365 296.383 118.2C305.771 127.199 307.733 132.617 306.456 134.672C306.067 135.279 303.436 138.144 288.925 134.111C279.709 131.542 267.534 126.716 252.79 119.757C227.506 107.815 226.338 106.897 226.089 106.757C224.439 105.791 222.322 106.352 221.356 108.002C220.391 109.652 220.905 111.848 222.602 112.735C235.82 119.679 224.283 113.949 249.847 126.015C264.591 133.006 276.906 137.91 286.434 140.619Z" fill="white"/>
<path d="M301.18 143.53C296.493 143.53 291.293 142.331 286.95 141.132C286.747 141.07 286.545 141.023 286.327 140.961C276.783 138.252 264.453 133.332 249.647 126.342C241.675 122.574 237.3 120.535 234.685 119.32C230.684 117.452 230.684 117.452 228.099 116.066C226.932 115.444 225.235 114.541 222.401 113.046C221.545 112.595 220.922 111.816 220.642 110.866C220.346 109.854 220.486 108.749 221.015 107.846C221.529 106.974 222.354 106.336 223.335 106.087C224.316 105.822 225.343 105.978 226.215 106.476L226.262 106.507C227.025 106.974 231.135 109.185 252.885 119.46C267.582 126.404 279.726 131.231 288.974 133.799C303.546 137.847 305.897 134.858 306.131 134.516C307.283 132.663 305.368 127.338 296.12 118.464C288.974 111.614 280.956 105.978 280.878 105.931C279.165 104.732 278.745 102.35 279.944 100.638C280.52 99.8125 281.392 99.252 282.388 99.0652C283.384 98.894 284.396 99.1119 285.222 99.688C285.564 99.9371 293.8 105.713 301.32 112.922C305.866 117.281 309.229 121.282 311.315 124.832C314.475 130.203 314.896 134.811 312.576 138.548C310.256 142.285 305.975 143.53 301.18 143.53ZM286.529 140.292C286.732 140.354 286.934 140.401 287.152 140.463C295.73 142.845 307.641 145.196 312.016 138.174C314.195 134.671 313.775 130.312 310.755 125.174C308.699 121.687 305.383 117.732 300.868 113.42C293.38 106.258 285.206 100.498 284.863 100.264C284.178 99.7814 283.353 99.6101 282.544 99.7502C281.718 99.8904 281.018 100.357 280.535 101.027C279.554 102.428 279.897 104.39 281.298 105.371C281.376 105.433 289.441 111.084 296.618 117.966C304.714 125.735 308.497 132.056 306.738 134.874C306.162 135.792 303.188 138.455 288.818 134.453C279.539 131.869 267.364 127.027 252.62 120.083C230.839 109.808 226.698 107.581 225.935 107.099L225.904 107.083C225.188 106.663 224.347 106.554 223.537 106.756C222.728 106.974 222.058 107.472 221.638 108.204C221.202 108.951 221.093 109.854 221.327 110.695C221.545 111.474 222.058 112.096 222.743 112.454C225.577 113.949 227.274 114.852 228.442 115.475C231.011 116.845 231.011 116.845 234.996 118.713C237.612 119.928 241.987 121.967 249.973 125.735C264.717 132.678 277.017 137.583 286.529 140.292Z" fill="#292524"/>
<path d="M187.673 42.0203C188.981 42.5185 190.429 41.8646 190.927 40.5568L192.577 36.1975C193.076 34.8897 192.422 33.4418 191.114 32.9436C189.806 32.4454 188.358 33.0993 187.86 34.4071L186.21 38.7664C185.727 40.0742 186.381 41.5221 187.673 42.0203Z" fill="white"/>
<path d="M188.576 42.5342C188.233 42.5342 187.891 42.4719 187.548 42.3473C186.069 41.7869 185.322 40.121 185.883 38.6419L187.533 34.2827C187.798 33.5665 188.342 33.006 189.043 32.6791C189.744 32.3677 190.522 32.3365 191.238 32.6168C192.717 33.1773 193.465 34.8431 192.904 36.3222L191.254 40.6815C190.989 41.3976 190.444 41.9581 189.744 42.2851C189.37 42.4563 188.981 42.5342 188.576 42.5342ZM187.798 41.709C188.342 41.9114 188.934 41.8959 189.463 41.6623C189.993 41.4288 190.398 40.9929 190.615 40.4479L192.266 36.0886C192.686 34.9677 192.126 33.7066 191.005 33.2707C190.46 33.0683 189.868 33.0839 189.339 33.3174C188.81 33.5509 188.405 33.9868 188.187 34.5318L186.536 38.8911C186.116 40.012 186.677 41.2731 187.798 41.709Z" fill="#292524"/>
<path d="M199.379 46.1301C200.687 46.6284 202.135 45.9745 202.633 44.6667L204.283 40.3074C204.782 38.9996 204.128 37.5517 202.82 37.0535C201.512 36.5553 200.064 37.2092 199.566 38.517L197.916 42.8762C197.433 44.184 198.087 45.6319 199.379 46.1301Z" fill="white"/>
<path d="M200.282 46.644C199.94 46.644 199.597 46.5818 199.254 46.4572C197.775 45.8967 197.028 44.2309 197.589 42.7518L199.239 38.3925C199.504 37.6764 200.048 37.1159 200.749 36.7889C201.45 36.4775 202.228 36.4464 202.944 36.7266C204.423 37.2871 205.171 38.953 204.61 40.432L202.96 44.7913C202.695 45.5075 202.15 46.068 201.45 46.3949C201.076 46.5662 200.687 46.644 200.282 46.644ZM199.504 45.8189C200.048 46.0213 200.64 46.0057 201.169 45.7722C201.699 45.5386 202.104 45.1027 202.322 44.5578L203.972 40.1985C204.392 39.0776 203.832 37.8165 202.711 37.3805C202.166 37.1781 201.574 37.1937 201.045 37.4272C200.516 37.6608 200.111 38.0967 199.893 38.6416L198.242 43.0009C197.822 44.1219 198.383 45.383 199.504 45.8189Z" fill="#292524"/>
<path d="M29.3389 109.699V201.727C29.3389 247.484 66.3929 284.569 112.103 284.569H161.83C190.275 284.569 213.348 261.48 213.348 233.005V232.335C213.348 205.027 191.224 182.888 163.948 182.888H135.114C115.17 182.888 95.9738 175.368 81.3234 161.823C58.6395 140.837 29.3389 109.699 29.3389 109.699Z" fill="white"/>
<path d="M161.848 284.911H112.12C89.9192 284.911 69.0413 276.255 53.3478 260.546C37.6544 244.836 28.998 223.943 28.998 201.726V109.698C28.998 109.558 29.0915 109.434 29.216 109.387C29.3406 109.34 29.4963 109.371 29.5897 109.465C29.8855 109.776 59.1394 140.836 81.5587 161.574C96.1779 175.103 115.203 182.545 135.116 182.545H163.965C191.397 182.545 213.708 204.887 213.708 232.335V233.004C213.708 261.635 190.448 284.911 161.848 284.911ZM29.6831 110.555V201.726C29.6831 247.219 66.6592 284.226 112.105 284.226H161.832C190.043 284.226 213.007 261.246 213.007 233.004V232.335C213.007 205.26 190.992 183.23 163.949 183.23H135.116C115.032 183.23 95.8509 175.711 81.1072 162.072C60.4317 142.954 33.9645 115.085 29.6831 110.555Z" fill="#292524"/>
<path d="M60.1049 113.849C69.618 110.106 74.3816 99.5792 70.7448 90.3382C67.1079 81.0972 56.4479 76.6409 46.9348 80.3848C37.4218 84.1286 32.6582 94.655 36.295 103.896C39.9318 113.137 50.5919 117.593 60.1049 113.849Z" fill="#292524"/>
<path d="M59.8216 105.542H52.8623V121.656H59.8216V105.542Z" fill="#E7E5E4"/>
<path d="M52.8796 121.998C52.6927 121.998 52.5371 121.842 52.5371 121.655L52.5215 105.542C52.5215 105.355 52.6772 105.199 52.864 105.199H59.8233C59.9167 105.199 59.9946 105.23 60.0724 105.293C60.1347 105.355 60.1658 105.448 60.1658 105.542L60.1814 121.655C60.1814 121.749 60.1502 121.827 60.088 121.905C60.0257 121.967 59.9323 121.998 59.8389 121.998H52.8796ZM53.2065 105.884L53.2221 121.313H59.4964L59.4808 105.884H53.2065Z" fill="#292524"/>
<path d="M59.0153 112.205C62.3516 112.205 65.0561 109.236 65.0561 105.573C65.0561 101.91 62.3516 98.9406 59.0153 98.9406C55.6791 98.9406 52.9746 101.91 52.9746 105.573C52.9746 109.236 55.6791 112.205 59.0153 112.205Z" fill="#E7E5E4"/>
<path d="M57.6494 109.31C58.0853 109.714 58.6458 109.979 59.2841 110.041C60.7009 110.181 61.9776 109.263 62.3357 107.924L57.6494 109.31Z" fill="white"/>
<path d="M59.1379 112.532C58.4995 112.532 57.8768 112.423 57.2696 112.221C57.0828 112.159 56.9894 111.972 57.0516 111.785C57.1139 111.598 57.3007 111.505 57.4876 111.567C58.0169 111.754 58.5774 111.847 59.1379 111.847C60.6325 111.847 62.0181 111.209 63.0768 110.057C64.1355 108.889 64.7271 107.332 64.7271 105.682C64.7271 102.288 62.2205 99.5324 59.1379 99.5324C56.2576 99.5324 53.8756 101.914 53.5798 105.059C53.5642 105.246 53.3929 105.386 53.2061 105.371C53.0193 105.355 52.8792 105.184 52.8947 104.997C53.2217 101.494 55.8995 98.8474 59.1379 98.8474C62.5942 98.8474 65.4121 101.914 65.4121 105.682C65.4121 107.504 64.7738 109.216 63.5906 110.508C62.4073 111.816 60.8193 112.532 59.1379 112.532Z" fill="#292524"/>
<path d="M59.2804 103.082L65.0409 105.915C65.0564 105.744 65.0564 105.573 65.0564 105.402C65.0564 101.758 62.363 98.8003 59.0313 98.8159C55.7151 98.8159 52.8037 101.914 52.8037 105.557C52.8037 105.806 52.8193 106.04 52.8504 106.289L59.2804 103.082Z" fill="#292524"/>
<path d="M89.7327 238.749L77.8848 262.865H96.7854L108.556 238.889L89.7327 238.749Z" fill="#E7E5E4"/>
<path d="M96.7844 263.208H77.8837C77.7592 263.208 77.6502 263.145 77.5879 263.052C77.5256 262.958 77.5256 262.818 77.5724 262.725L89.4203 238.609C89.4826 238.484 89.5916 238.422 89.7317 238.422L108.57 238.562C108.695 238.562 108.804 238.624 108.866 238.718C108.928 238.811 108.928 238.951 108.881 239.045L97.0958 263.021C97.0335 263.13 96.9089 263.208 96.7844 263.208ZM78.4286 262.523H96.5664L108.01 239.231L89.9341 239.107L78.4286 262.523Z" fill="#292524"/>
<path d="M140.19 260.389H120.386L105.051 248.183H102.482C100.645 248.183 99.0412 249.444 98.6208 251.235L98.5118 251.671C97.6867 255.143 95.3047 258.054 92.0508 259.549L90.6963 260.171L81.5262 252.48L65.21 284.35H93.7633C94.9777 282.201 99.6484 280.582 105.253 280.582C110.842 280.582 115.529 282.186 116.743 284.35H133.168L144.907 277.204C152.738 272.455 149.36 260.389 140.19 260.389Z" fill="white"/>
<path d="M133.167 284.708H116.742C116.617 284.708 116.508 284.646 116.446 284.537C115.279 282.466 110.577 280.956 105.268 280.956C99.9587 280.956 95.2569 282.466 94.0892 284.537C94.027 284.646 93.918 284.708 93.7934 284.708H65.2089C65.0844 284.708 64.9754 284.646 64.9131 284.537C64.8508 284.428 64.8508 284.304 64.8976 284.195L81.2138 252.325C81.2605 252.232 81.3539 252.169 81.4473 252.138C81.5407 252.123 81.6497 252.138 81.7431 252.216L90.7419 259.767L91.894 259.238C95.0701 257.774 97.3431 254.987 98.1683 251.578L98.2773 251.142C98.7444 249.196 100.472 247.826 102.481 247.826H105.034C105.112 247.826 105.19 247.857 105.252 247.903L120.494 260.032H140.173C144.501 260.032 148.067 262.725 149.234 266.897C150.402 271.07 148.767 275.227 145.062 277.484L133.323 284.63C133.292 284.693 133.229 284.708 133.167 284.708ZM116.929 284.023H133.058L144.719 276.924C148.16 274.838 149.67 270.977 148.58 267.1C147.491 263.223 144.19 260.732 140.173 260.732H120.385C120.307 260.732 120.229 260.701 120.167 260.654L104.925 248.526H102.481C100.799 248.526 99.336 249.678 98.9467 251.313L98.8378 251.749C97.9815 255.361 95.5527 258.319 92.1898 259.86L90.8353 260.483C90.7108 260.545 90.5707 260.514 90.4773 260.436L81.6341 253.026L65.7694 284.008H93.5755C95.0234 281.781 99.7563 280.24 105.252 280.24C110.748 280.256 115.481 281.797 116.929 284.023Z" fill="#292524"/>
<path d="M70.843 273.374L65.2227 284.366H93.7605C94.9748 282.217 99.6455 280.598 105.25 280.598C110.84 280.598 115.526 282.202 116.74 284.366H133.165L144.904 277.22C146.57 276.208 147.722 274.853 148.423 273.374H70.843Z" fill="#292524"/>
<path d="M116.047 257.774H107.888C107.702 257.774 107.546 257.618 107.546 257.431C107.546 257.244 107.702 257.089 107.888 257.089H116.047C116.233 257.089 116.389 257.244 116.389 257.431C116.389 257.634 116.233 257.774 116.047 257.774Z" fill="#292524"/>
<path d="M112.366 254.582H104.208C104.021 254.582 103.865 254.427 103.865 254.24C103.865 254.053 104.021 253.897 104.208 253.897H112.366C112.553 253.897 112.708 254.053 112.708 254.24C112.708 254.427 112.553 254.582 112.366 254.582Z" fill="#292524"/>
<path d="M187.476 259.486L207.514 251.702L178.197 206.365L164.668 224.223L187.476 259.486Z" fill="#E7E5E4"/>
<path d="M187.479 259.829C187.37 259.829 187.261 259.766 187.183 259.673L164.375 224.409C164.297 224.285 164.297 224.129 164.39 224.02L177.904 206.163C177.967 206.069 178.076 206.022 178.185 206.022C178.294 206.022 178.403 206.085 178.465 206.178L207.797 251.515C207.859 251.608 207.859 251.702 207.828 251.811C207.797 251.904 207.719 251.982 207.625 252.029L187.588 259.813C187.573 259.829 187.526 259.829 187.479 259.829ZM165.091 224.238L187.619 259.066L207.003 251.53L178.169 206.957L165.091 224.238Z" fill="#292524"/>
<path d="M234.887 228.395L217.31 237.534L198.082 233.782L195.669 235.043C194.128 235.853 193.334 237.612 193.754 239.309L193.972 240.165C194.797 243.466 194.05 246.953 191.979 249.647L190.905 251.048L179.229 248.448L179.415 284.256L204.762 271.085C204.839 268.61 208.265 265.029 213.215 262.444C218.166 259.86 223.071 259.128 225.141 260.483L239.714 252.901L246.844 241.146C251.577 233.315 243.03 224.16 234.887 228.395Z" fill="white"/>
<path d="M179.387 284.599C179.324 284.599 179.262 284.584 179.216 284.552C179.107 284.49 179.044 284.381 179.044 284.257L178.857 248.448C178.857 248.339 178.904 248.246 178.982 248.183C179.06 248.121 179.169 248.09 179.278 248.121L190.737 250.674L191.686 249.445C193.71 246.829 194.426 243.466 193.617 240.259L193.399 239.403C192.932 237.55 193.804 235.635 195.501 234.748L197.914 233.486C197.976 233.455 198.054 233.44 198.132 233.455L217.25 237.176L234.719 228.1C238.564 226.107 242.955 226.854 245.928 230.015C248.902 233.191 249.353 237.628 247.112 241.349L239.981 253.103C239.95 253.15 239.903 253.197 239.841 253.228L225.268 260.81C225.159 260.872 225.019 260.857 224.926 260.794C222.933 259.486 218.06 260.327 213.343 262.772C208.625 265.216 205.153 268.734 205.06 271.116C205.06 271.241 204.982 271.35 204.873 271.412L179.527 284.584C179.496 284.584 179.449 284.599 179.387 284.599ZM179.542 248.869L179.729 283.696L204.406 270.867C204.655 268.236 208.158 264.671 213.031 262.149C217.904 259.611 222.824 258.786 225.128 260.094L239.452 252.652L246.535 240.975C248.622 237.534 248.201 233.409 245.446 230.466C242.705 227.539 238.626 226.839 235.061 228.691L217.484 237.83C217.422 237.861 217.344 237.877 217.266 237.861L198.147 234.14L195.843 235.339C194.426 236.071 193.71 237.674 194.099 239.216L194.317 240.072C195.174 243.497 194.411 247.063 192.262 249.849L191.188 251.251C191.11 251.36 190.97 251.406 190.845 251.375L179.542 248.869Z" fill="#292524"/>
<path d="M179.326 271.91L179.388 284.256L204.735 271.085C204.812 268.61 208.238 265.029 213.189 262.444C218.155 259.86 223.044 259.128 225.114 260.483L239.687 252.901L246.817 241.146C247.829 239.48 248.234 237.752 248.172 236.102L179.326 271.91Z" fill="#292524"/>
<path d="M204.858 241.022C204.733 241.022 204.608 240.959 204.546 240.835C204.453 240.664 204.531 240.461 204.686 240.368L211.926 236.6C212.097 236.507 212.3 236.584 212.393 236.74C212.486 236.911 212.409 237.114 212.253 237.207L205.013 240.975C204.967 241.006 204.92 241.022 204.858 241.022Z" fill="#292524"/>
<path d="M200.123 239.869C199.999 239.869 199.874 239.807 199.812 239.683C199.718 239.511 199.796 239.309 199.952 239.216L207.192 235.448C207.363 235.354 207.565 235.432 207.659 235.588C207.752 235.759 207.674 235.962 207.518 236.055L200.279 239.823C200.232 239.854 200.185 239.869 200.123 239.869Z" fill="#292524"/>
<path d="M64.2188 153.182H142.032C149.832 153.182 154.861 161.465 151.249 168.393L111.688 244.463H75.2104L108.357 180.786C109.244 179.089 108.014 177.065 106.099 177.065H64.2188V153.182Z" fill="#292524"/>
<path d="M136.834 164.486H42.2998V174.107C42.2998 186.702 52.4974 196.916 65.0927 196.916H128.443C132.413 196.916 136.102 198.924 138.267 202.24L167.038 246.503L195.84 231.541L160.25 177.143C155.081 169.25 146.269 164.486 136.834 164.486Z" fill="#292524"/>
<path d="M167.022 246.845C166.913 246.845 166.804 246.783 166.726 246.689L137.955 202.427C135.853 199.189 132.288 197.258 128.427 197.258H65.0768C52.3259 197.258 41.9414 186.874 41.9414 174.107V167.319C41.9414 167.132 42.0971 166.977 42.2839 166.977C42.4707 166.977 42.6264 167.132 42.6264 167.319V174.107C42.6264 186.5 52.6995 196.573 65.0768 196.573H128.427C132.521 196.573 136.305 198.628 138.531 202.053L167.131 246.051L195.326 231.401L159.969 177.33C157.992 174.31 155.47 171.725 152.496 169.686C152.341 169.577 152.294 169.359 152.403 169.203C152.512 169.047 152.73 169.001 152.885 169.11C155.937 171.211 158.521 173.843 160.545 176.956L196.12 231.338C196.167 231.416 196.183 231.525 196.167 231.619C196.136 231.712 196.074 231.79 195.996 231.837L167.193 246.798C167.131 246.83 167.069 246.845 167.022 246.845Z" fill="white"/>
<path d="M88.8075 155.035L74.4062 136.633H90.271L96.9033 144.401C99.4566 147.391 103.193 149.119 107.132 149.119H118.529V160.188H99.3788C95.2686 160.188 91.3608 158.289 88.8075 155.035Z" fill="#E7E5E4"/>
<path d="M138.988 154.412L138.568 155.253L134.411 154.988L131.141 151.314H104.207V149.196H113.688C115.059 149.196 118.826 147.001 121.909 147.001H127.514C129.304 147.001 131.079 147.422 132.698 148.216L137.742 150.707C139.097 151.376 139.657 153.042 138.988 154.412Z" fill="#E7E5E4"/>
<path d="M134.019 156.826L138.659 159.099C139.64 159.581 140.839 159.177 141.321 158.18L141.337 158.165C141.913 156.966 141.43 155.533 140.231 154.942L134.845 152.295C133.225 151.501 131.466 151.081 129.66 151.081H104.189V158.865H123.168L125.114 157.012C126.406 155.783 128.212 155.207 129.972 155.518C131.124 155.705 132.525 156.094 134.019 156.826Z" fill="#E7E5E4"/>
<path d="M125.287 156.779C125.707 156.856 126.158 156.888 126.672 156.888C126.859 156.903 127.637 156.903 130.362 156.888C131.732 156.888 132.837 157.993 132.837 159.363V159.394C132.837 160.764 131.732 161.854 130.378 161.854H120.024C112.785 161.854 113.112 156.343 113.112 156.343V153.556H115.416C120.631 153.571 121.846 156.203 125.287 156.779Z" fill="#E7E5E4"/>
<path d="M139.551 159.644C139.193 159.644 138.85 159.566 138.523 159.395L133.884 157.122C132.607 156.499 131.268 156.063 129.914 155.83C128.325 155.565 126.722 156.032 125.508 157.106C125.367 157.231 125.149 157.215 125.025 157.075C124.9 156.935 124.916 156.717 125.056 156.593C126.426 155.378 128.248 154.849 130.038 155.16C131.455 155.409 132.856 155.861 134.195 156.515L138.835 158.788C139.224 158.99 139.675 159.006 140.096 158.866C140.516 158.726 140.843 158.43 141.045 158.025C141.559 156.982 141.123 155.752 140.111 155.238L134.724 152.591C133.167 151.829 131.424 151.424 129.696 151.424H127.718C127.531 151.424 127.376 151.268 127.376 151.081C127.376 150.894 127.531 150.739 127.718 150.739H129.696C131.533 150.739 133.385 151.175 135.036 151.984L140.423 154.631C141.777 155.3 142.338 156.951 141.684 158.321C141.403 158.897 140.921 159.317 140.329 159.52C140.049 159.597 139.8 159.644 139.551 159.644Z" fill="#292524"/>
<path d="M130.307 162.197H120.763C117.883 162.197 115.905 161.668 114.52 160.547H99.418C95.2299 160.547 91.1665 158.554 88.5509 155.222L74.1496 136.851C74.0718 136.742 74.0562 136.602 74.1185 136.493C74.1808 136.369 74.2898 136.306 74.4299 136.306H90.2946C90.388 136.306 90.497 136.353 90.5593 136.431L97.1916 144.2C99.7294 147.173 103.357 148.87 107.156 148.87H113.664C114.146 148.87 115.065 148.528 116.139 148.123C117.852 147.469 119.969 146.675 121.884 146.675H127.489C129.326 146.675 131.179 147.111 132.829 147.921L137.873 150.412C139.399 151.159 140.037 152.965 139.337 154.506C139.259 154.678 139.056 154.755 138.885 154.678C138.714 154.6 138.636 154.397 138.714 154.226C139.259 153.027 138.761 151.611 137.577 151.034L132.533 148.543C130.976 147.781 129.232 147.376 127.504 147.376H121.899C120.109 147.376 118.054 148.154 116.404 148.777C115.22 149.228 114.302 149.571 113.695 149.571H107.187C103.186 149.571 99.3713 147.781 96.6934 144.651L90.1545 136.991H75.1616L89.1269 154.833C91.6024 157.994 95.4635 159.893 99.4491 159.893H114.644C114.722 159.893 114.8 159.924 114.862 159.971C116.108 161.03 117.976 161.528 120.747 161.528H130.291C131.459 161.528 132.408 160.578 132.408 159.411V159.379C132.408 158.803 132.191 158.274 131.786 157.869C131.381 157.464 130.852 157.246 130.291 157.246H128.937C127.333 157.246 126.944 157.246 126.773 157.231C126.056 157.231 125.387 157.153 124.749 156.997C124.562 156.951 124.453 156.764 124.499 156.577C124.546 156.39 124.733 156.281 124.92 156.328C125.511 156.468 126.134 156.546 126.804 156.546C126.819 156.546 126.835 156.546 126.835 156.546C126.959 156.561 127.458 156.561 128.937 156.561H130.291C131.038 156.561 131.739 156.857 132.268 157.387C132.798 157.916 133.094 158.632 133.094 159.379V159.411C133.109 160.952 131.848 162.197 130.307 162.197Z" fill="#292524"/>
<path d="M92.0565 167.536H37.2539L40.7102 134.795H79.8504L92.0565 167.536Z" fill="white"/>
<path d="M92.0581 167.895H37.2556C37.1622 167.895 37.0688 167.848 37.0065 167.786C36.9442 167.708 36.9131 167.614 36.9131 167.521L40.3694 134.764C40.385 134.593 40.5406 134.453 40.7119 134.453H79.8366C79.9767 134.453 80.1012 134.546 80.1635 134.671L92.3695 167.412C92.4162 167.521 92.4007 167.63 92.3228 167.723C92.2761 167.832 92.1671 167.895 92.0581 167.895ZM37.6448 167.194H91.5755L79.603 135.138H41.0233L37.6448 167.194Z" fill="#292524"/>
<path d="M30.8379 153.446V130.513H48.1817V144.821C48.1817 146.658 49.6763 148.153 51.5134 148.153L80.0201 148.137V163.784H41.1756C35.4619 163.8 30.8379 159.16 30.8379 153.446Z" fill="#E7E5E4"/>
<path d="M97.1782 153.011L98.8752 154.848C99.7315 155.766 99.8249 157.168 99.0776 158.195L97.4117 160.515L93.3794 156.016H68.0332V150.707H91.8848C93.8776 150.691 95.8081 151.532 97.1782 153.011Z" fill="#E7E5E4"/>
<path d="M96.3842 149.71L97.3495 150.753C98.2057 151.672 98.2992 153.073 97.5518 154.1L95.886 156.42L91.8536 151.921H68.0332V148.231H72.0811C73.747 148.231 76.7362 146.612 80.5195 146.612H89.2848C91.9782 146.596 94.547 147.717 96.3842 149.71Z" fill="#E7E5E4"/>
<path d="M97.7688 156.591L99.8084 158.787C100.665 159.705 100.758 161.106 100.011 162.134L98.3449 164.454L94.3125 159.954H78.6035V154.645H93.3006C94.9976 154.63 96.6167 155.346 97.7688 156.591Z" fill="#E7E5E4"/>
<path d="M97.0212 160.452L99.1386 162.741C99.9326 163.597 100.01 164.874 99.3254 165.824C98.4224 167.085 96.5697 167.178 95.5422 166.026L94.3901 164.734C93.8451 164.127 93.0511 163.769 92.226 163.769H79.0391C75.5984 163.769 73.1696 163.566 69.8379 158.46H92.4595C94.2032 158.46 95.8535 159.176 97.0212 160.452Z" fill="#E7E5E4"/>
<path d="M30.8369 147.608V130.513H48.1807V143.747C47.013 143.7 45.4405 143.56 44.195 143.171C42.3579 142.595 40.5363 142.346 38.7615 144.774C36.4417 147.966 33.4525 148.309 30.8369 147.608Z" fill="#292524"/>
<path d="M99.0761 158.537C99.0139 158.537 98.936 158.522 98.8737 158.475C98.7181 158.366 98.6869 158.148 98.7959 157.992C99.4342 157.105 99.3564 155.875 98.6246 155.081L96.9276 153.244C95.6354 151.843 93.7983 151.033 91.8833 151.033H87.2126C87.0258 151.033 86.8701 150.877 86.8701 150.691C86.8701 150.504 87.0258 150.348 87.2126 150.348H91.8833C93.9851 150.348 96.0091 151.236 97.4258 152.777L99.1228 154.614C100.088 155.657 100.182 157.245 99.3564 158.397C99.2785 158.491 99.1696 158.537 99.0761 158.537Z" fill="#292524"/>
<path d="M99.3601 163.379C99.2978 163.379 99.22 163.363 99.1577 163.317C99.002 163.208 98.9709 162.99 99.0799 162.834L99.7338 161.931C100.372 161.044 100.294 159.814 99.5469 159.02L97.5074 156.825C96.4176 155.657 94.8918 154.987 93.3038 154.987H87.1697C86.9828 154.987 86.8271 154.832 86.8271 154.645C86.8271 154.458 86.9828 154.302 87.1697 154.302H93.3038C95.0942 154.302 96.8068 155.05 98.0212 156.357L100.061 158.553C101.026 159.596 101.119 161.184 100.294 162.336L99.6404 163.239C99.5625 163.332 99.4691 163.379 99.3601 163.379Z" fill="#292524"/>
<path d="M97.3503 167.178C96.5563 167.178 95.809 166.851 95.2796 166.259L94.1275 164.967C93.6449 164.422 92.9443 164.111 92.2281 164.111H77.64C74.9933 164.111 72.5179 162.803 71.0233 160.592C70.9143 160.437 70.961 160.219 71.1167 160.11C71.2724 160.001 71.4903 160.047 71.5993 160.203C72.9694 162.212 75.2269 163.41 77.64 163.41H92.2281C93.1467 163.41 94.0341 163.8 94.6413 164.485L95.7934 165.777C96.2138 166.244 96.8209 166.509 97.4593 166.477C98.0976 166.446 98.6736 166.135 99.0473 165.606C99.6233 164.796 99.5611 163.691 98.8916 162.959L96.7742 160.67C95.6688 159.471 94.112 158.786 92.4772 158.786H87.3706C87.1838 158.786 87.0281 158.631 87.0281 158.444C87.0281 158.257 87.1838 158.101 87.3706 158.101H92.4772C94.2988 158.101 96.0425 158.864 97.2724 160.203L99.3898 162.492C100.277 163.457 100.371 164.936 99.6078 166.01C99.1096 166.695 98.3467 167.116 97.506 167.162C97.4593 167.178 97.397 167.178 97.3503 167.178Z" fill="#292524"/>
<path d="M41.1764 164.142C38.3273 164.142 35.6494 163.037 33.6254 161.013C31.6015 158.989 30.4961 156.311 30.4961 153.462V130.513C30.4961 130.327 30.6518 130.171 30.8386 130.171H48.1668C48.3536 130.171 48.5093 130.327 48.5093 130.513V144.821C48.5093 145.615 48.8207 146.378 49.3812 146.939C49.9417 147.499 50.689 147.811 51.4985 147.811H71.3022C72.7812 147.811 73.9022 147.499 75.21 147.141C76.7357 146.721 78.4639 146.238 81.0795 146.238H89.2687C92.0555 146.238 94.749 147.406 96.6328 149.461L97.5981 150.504C98.4232 151.407 98.6256 152.699 98.1118 153.805C98.034 153.976 97.8316 154.054 97.6603 153.976C97.4891 153.898 97.4112 153.696 97.4891 153.524C97.8939 152.668 97.7382 151.672 97.0999 150.971L96.1346 149.928C94.3753 148.013 91.8687 146.923 89.2687 146.923H81.0795C78.5729 146.923 76.9537 147.375 75.3968 147.795C74.1046 148.153 72.8747 148.496 71.3022 148.496H51.5141C50.5333 148.496 49.6147 148.106 48.9141 147.421C48.2135 146.721 47.8399 145.802 47.8399 144.821V130.856H31.1811V153.446C31.1811 156.124 32.2242 158.631 34.1081 160.515C35.9919 162.399 38.4985 163.442 41.1764 163.442H82.6831C82.8699 163.442 83.0256 163.597 83.0256 163.784C83.0256 163.971 82.8699 164.127 82.6831 164.127H41.1764C41.1764 164.142 41.1764 164.142 41.1764 164.142Z" fill="#292524"/>
<path d="M94.7974 140.151H81.7195C81.5326 140.151 81.377 139.995 81.377 139.808C81.377 139.621 81.5326 139.466 81.7195 139.466H94.7974C94.9842 139.466 95.1399 139.621 95.1399 139.808C95.1399 139.995 94.9842 140.151 94.7974 140.151Z" fill="#292524"/>
<path d="M29.3428 139.808V134.904C29.3428 125.843 36.6757 118.51 45.7213 118.51H68.1872C75.2088 118.51 81.8255 121.842 86.0136 127.478L95.1525 139.793H80.7824H29.3428V139.808Z" fill="white"/>
<path d="M37.2535 140.493H29.3445C29.1576 140.493 29.002 140.337 29.002 140.15V134.904C29.002 125.671 36.5062 118.167 45.723 118.167H68.1889C75.2883 118.167 82.0608 121.577 86.2955 127.275L95.4345 139.59C95.5123 139.699 95.5279 139.839 95.4656 139.948C95.4033 140.057 95.2943 140.135 95.1542 140.135H81.9518C81.765 140.135 81.6093 139.979 81.6093 139.792C81.6093 139.606 81.765 139.45 81.9518 139.45H94.4692L85.735 127.68C81.6249 122.153 75.0703 118.837 68.1889 118.837H45.723C36.8798 118.837 29.687 126.029 29.687 134.888V139.808H37.2535C37.4403 139.808 37.596 139.964 37.596 140.15C37.596 140.337 37.4403 140.493 37.2535 140.493Z" fill="#292524"/>
<path d="M50.5486 140.119C50.3617 140.119 50.2061 139.964 50.2061 139.777V130.529C50.2061 130.342 50.3617 130.186 50.5486 130.186C50.7354 130.186 50.8911 130.342 50.8911 130.529V139.777C50.8911 139.964 50.7354 140.119 50.5486 140.119Z" fill="#292524"/>
<path d="M155.249 164.143C155.171 164.143 155.078 164.112 155.015 164.05C154.875 163.925 154.875 163.707 155 163.567L179.163 138.314H133.203L108.589 164.05C108.464 164.19 108.246 164.19 108.106 164.065C107.966 163.941 107.966 163.723 108.091 163.582L132.798 137.738C132.861 137.676 132.954 137.629 133.048 137.629H179.941C180.081 137.629 180.206 137.707 180.252 137.831C180.299 137.956 180.284 138.112 180.19 138.205L155.482 164.05C155.42 164.112 155.327 164.143 155.249 164.143Z" fill="#292524"/>
<path d="M152.278 164.143H99.8572C99.6703 164.143 99.5146 163.988 99.5146 163.801C99.5146 163.614 99.6703 163.458 99.8572 163.458H152.293C152.48 163.458 152.636 163.614 152.636 163.801C152.62 163.988 152.464 164.143 152.278 164.143Z" fill="white"/>
<path d="M155.189 167.864H151.265C151.079 167.864 150.923 167.708 150.923 167.522C150.923 167.335 151.079 167.179 151.265 167.179H154.846V164.143H152.293C152.106 164.143 151.95 163.988 151.95 163.801C151.95 163.614 152.106 163.458 152.293 163.458H155.189C155.376 163.458 155.531 163.614 155.531 163.801V167.522C155.531 167.708 155.376 167.864 155.189 167.864Z" fill="#292524"/>
<path d="M151.264 167.864H80.9861C80.7992 167.864 80.6436 167.708 80.6436 167.521C80.6436 167.335 80.7992 167.179 80.9861 167.179H151.264C151.451 167.179 151.607 167.335 151.607 167.521C151.607 167.708 151.451 167.864 151.264 167.864Z" fill="white"/>
<path d="M80.9861 167.864C80.7992 167.864 80.6436 167.708 80.6436 167.522V163.801C80.6436 163.614 80.7992 163.458 80.9861 163.458H91.6196C91.8065 163.458 91.9621 163.614 91.9621 163.801C91.9621 163.988 91.8065 164.143 91.6196 164.143H81.3286V167.522C81.3286 167.708 81.1729 167.864 80.9861 167.864Z" fill="#292524"/>
<path d="M148.618 152.046C147.279 152.046 146.205 150.956 146.205 149.633C146.205 148.309 147.295 147.22 148.618 147.22C149.957 147.22 151.031 148.309 151.031 149.633C151.031 150.956 149.957 152.046 148.618 152.046ZM148.618 147.905C147.669 147.905 146.89 148.683 146.89 149.633C146.89 150.583 147.669 151.361 148.618 151.361C149.568 151.361 150.346 150.583 150.346 149.633C150.346 148.683 149.584 147.905 148.618 147.905Z" fill="#292524"/>
<path d="M111.276 36.555C111.167 36.555 111.058 36.5083 110.996 36.3993C110.887 36.2436 110.934 36.0257 111.089 35.9167L123.529 27.5095C123.685 27.4161 123.887 27.4472 123.996 27.5873L129.18 34.2197L142.367 23.2747C142.507 23.1657 142.694 23.1658 142.819 23.2903L151.413 31.5885L157.376 25.937C157.5 25.8125 157.687 25.8125 157.827 25.9214L162.716 29.8759L169.955 21.0951C170.018 21.0172 170.095 20.9705 170.189 20.9705C170.282 20.9705 170.376 21.0017 170.438 21.0639L174.517 24.7693L180.028 18.4017C180.153 18.2615 180.371 18.246 180.511 18.3705C180.651 18.4951 180.667 18.713 180.542 18.8532L174.797 25.4855C174.735 25.5478 174.657 25.5945 174.564 25.6101C174.47 25.6101 174.377 25.5789 174.315 25.5167L170.236 21.8268L163.012 30.5921C162.887 30.7322 162.685 30.7634 162.529 30.6388L157.609 26.6532L151.631 32.3203C151.491 32.4448 151.288 32.4448 151.164 32.3203L142.554 24.0065L129.336 34.9825C129.258 35.0448 129.165 35.076 129.087 35.0604C128.994 35.0448 128.916 34.9981 128.853 34.9358L123.638 28.2879L111.463 36.5239C111.401 36.5394 111.338 36.555 111.276 36.555Z" fill="#292524"/>
<path d="M121.646 34.827C121.568 34.827 121.474 34.7958 121.412 34.7335L111.043 25.3766C110.903 25.2521 110.888 25.0341 111.012 24.894C111.137 24.7539 111.355 24.7383 111.495 24.8629L121.646 34.0329L135.222 23.2748C135.362 23.1658 135.564 23.1814 135.689 23.3215L140.873 29.1443L158.451 13.8712C158.513 13.8089 158.606 13.7778 158.7 13.7934C158.793 13.8089 158.871 13.8401 158.933 13.9179L163.76 19.8808L180.045 4.66998C180.185 4.54543 180.403 4.54543 180.527 4.68555C180.652 4.82567 180.652 5.04364 180.512 5.16819L163.978 20.6281C163.915 20.6904 163.822 20.7215 163.713 20.7215C163.62 20.7215 163.526 20.6748 163.464 20.597L158.622 14.6341L141.076 29.8916C140.936 30.0162 140.718 30.0006 140.593 29.8605L135.409 24.0221L121.864 34.7491C121.786 34.7958 121.724 34.827 121.646 34.827Z" fill="#292524"/>
<path d="M180.317 42.5336H141.426C141.239 42.5336 141.083 42.378 141.083 42.1911C141.083 42.0043 141.239 41.8486 141.426 41.8486H179.974V14.93C179.974 14.7432 180.13 14.5875 180.317 14.5875C180.503 14.5875 180.659 14.7432 180.659 14.93V42.1911C180.659 42.378 180.503 42.5336 180.317 42.5336Z" fill="#292524"/>
<path d="M111.281 38.3608C111.094 38.3608 110.938 38.2051 110.938 38.0183V4.90325C110.938 4.71642 111.094 4.56073 111.281 4.56073H151.2C151.387 4.56073 151.542 4.71642 151.542 4.90325C151.542 5.09007 151.387 5.24576 151.2 5.24576H111.624V38.0183C111.624 38.2051 111.468 38.3608 111.281 38.3608Z" fill="#292524"/>
<path d="M74.905 103.596C76.1816 97.6171 82.4403 92.1212 86.6439 93.0087C90.0535 93.7248 90.0068 98.2087 92.9182 98.4578C96.8104 98.7692 98.9745 90.8446 102.882 91.1093C106.276 91.3272 106.915 97.4458 109.951 97.5859C114.17 97.7728 116.178 86.1272 121.207 85.9715C124.959 85.847 126.376 92.2769 130.206 92.4482C132.79 92.5572 136.293 89.8015 140.808 78.7631C140.808 88.3224 140.808 97.8973 140.808 107.457C118.794 107.457 96.7793 107.457 74.7493 107.457C74.6247 106.491 74.578 105.152 74.905 103.596Z" fill="#D4D4D4"/>
<path d="M74.657 94.6276C74.4701 94.6276 74.3145 94.4719 74.3145 94.2851V71.8659C74.3145 71.6791 74.4701 71.5234 74.657 71.5234H105.094C105.281 71.5234 105.437 71.6791 105.437 71.8659C105.437 72.0527 105.281 72.2084 105.094 72.2084H74.9995V94.2851C74.9995 94.4719 74.8438 94.6276 74.657 94.6276Z" fill="#292524"/>
<path d="M140.795 107.768H109.937C109.75 107.768 109.595 107.612 109.595 107.425C109.595 107.239 109.75 107.083 109.937 107.083H140.452V78.7319C140.452 78.545 140.608 78.3893 140.795 78.3893C140.982 78.3893 141.137 78.545 141.137 78.7319V107.425C141.137 107.612 140.982 107.768 140.795 107.768Z" fill="#292524"/>
<path d="M123.996 46.6446C126.456 46.6446 128.729 47.4074 130.597 48.7152L134.521 43.3128C131.547 41.211 127.904 39.9655 123.981 39.9655C120.976 39.9655 118.142 40.6973 115.636 41.9739L118.812 47.8434C120.4 47.0805 122.144 46.6446 123.996 46.6446Z" fill="#D4D4D4"/>
<path d="M113.13 72.7225L117.053 67.3201C114.266 65.2183 112.46 61.8865 112.46 58.1344C112.46 54.3668 114.282 51.0194 117.084 48.9332L113.877 43.017C108.988 46.2709 105.766 51.829 105.766 58.1344C105.781 64.1129 108.661 69.4219 113.13 72.7225Z" fill="#D4D4D4"/>
<path d="M142.132 56.2038C141.65 51.5954 139.439 47.5164 136.154 44.5894L132.199 50.0385C134.036 51.8757 135.235 54.32 135.5 57.0445L142.132 56.2038Z" fill="#E7E5E4"/>
<path d="M135.505 59.1153C135.007 65.0159 130.056 69.6398 124.015 69.6398C122.147 69.6398 120.387 69.1883 118.83 68.4099L114.86 73.859C117.554 75.4159 120.668 76.3033 124.015 76.3033C134.041 76.3033 142.184 68.2386 142.246 58.259L135.505 59.1153Z" fill="#E7E5E4"/>
<path d="M213.789 194.159C212.901 202.831 205.164 209.152 196.507 208.28C187.851 207.408 181.545 199.686 182.433 191.03C182.573 189.597 182.916 188.212 183.414 186.935C185.92 180.474 192.49 176.193 199.714 176.909C208.371 177.765 214.676 185.487 213.789 194.159Z" fill="#292524"/>
<path d="M211.777 203.068C217.472 196.466 216.753 186.511 210.17 180.833C203.588 175.154 193.635 175.903 187.94 182.505C182.245 189.107 182.964 199.062 189.546 204.74C196.129 210.418 206.082 209.67 211.777 203.068Z" fill="#FDE68A"/>
<path d="M195.741 201.508L196.489 199.406C195.025 198.861 193.733 198.005 193.063 197.242L194.651 194.86C195.399 195.669 196.535 196.557 197.983 197.008C199.244 197.413 200.287 197.195 200.599 196.308C200.895 195.467 200.381 194.704 198.933 193.63C196.847 192.073 195.617 190.438 196.395 188.29C197.096 186.344 199.011 185.238 201.549 185.534L202.296 183.432L204.46 184.133L203.759 186.079C205.223 186.624 206.11 187.247 206.717 187.838L205.176 190.142C204.693 189.707 203.853 188.881 202.249 188.368C200.801 187.901 200.116 188.383 199.898 189.006C199.634 189.738 200.241 190.454 201.875 191.762C204.18 193.536 204.818 195.093 204.102 197.102C203.401 199.079 201.408 200.325 198.699 199.951L197.89 202.208L195.741 201.508Z" fill="white"/>
<path d="M226.839 176.088C230.89 168.916 228.347 159.811 221.16 155.753C213.972 151.694 204.863 154.218 200.812 161.39C196.762 168.562 199.305 177.667 206.492 181.726C213.679 185.784 222.789 183.26 226.839 176.088Z" fill="#292524"/>
<path d="M226.903 177.648C230.953 170.476 228.41 161.371 221.223 157.312C214.036 153.253 204.926 155.777 200.876 162.95C196.825 170.122 199.368 179.226 206.556 183.285C213.743 187.344 222.853 184.82 226.903 177.648Z" fill="white"/>
<path d="M213.944 185.55C208.043 185.55 202.407 182.125 199.901 176.38C198.266 172.644 198.188 168.487 199.667 164.688C201.162 160.889 204.026 157.916 207.763 156.281C215.485 152.918 224.515 156.468 227.894 164.174C229.528 167.911 229.606 172.068 228.127 175.866C226.632 179.665 223.768 182.639 220.031 184.274C218.054 185.146 215.983 185.55 213.944 185.55ZM208.043 156.919C204.478 158.476 201.722 161.325 200.305 164.953C198.889 168.58 198.967 172.535 200.523 176.116C203.746 183.48 212.371 186.874 219.751 183.651C223.316 182.094 226.072 179.245 227.489 175.617C228.906 171.99 228.828 168.035 227.271 164.454C224.048 157.09 215.423 153.712 208.043 156.919Z" fill="#292524"/>
<path d="M217.957 178.295L216.774 176.535C215.544 177.345 214.158 177.843 213.193 177.937L212.274 175.383C213.318 175.274 214.625 174.901 215.793 174.06C216.805 173.328 217.241 172.41 216.743 171.678C216.276 170.977 215.404 170.946 213.769 171.429C211.403 172.145 209.488 172.161 208.273 170.37C207.183 168.735 207.417 166.665 209.067 164.89L207.884 163.131L209.628 161.869L210.717 163.504C211.947 162.695 212.928 162.368 213.722 162.243L214.61 164.703C214.003 164.828 212.897 164.999 211.621 165.933C210.453 166.774 210.437 167.568 210.78 168.081C211.185 168.689 212.072 168.626 214.003 168.128C216.649 167.365 218.191 167.77 219.312 169.436C220.417 171.086 220.246 173.297 218.44 175.165L219.716 177.049L217.957 178.295Z" fill="#292524"/>
<path d="M190.814 131.058C196.792 134.577 198.801 142.299 195.298 148.293C191.795 154.287 184.104 156.296 178.125 152.777C175.369 151.158 173.454 148.651 172.536 145.818C172.52 145.771 172.505 145.74 172.489 145.693C171.711 143.218 171.695 140.509 172.536 137.955C172.567 137.878 172.614 137.722 172.614 137.722C172.614 137.722 173.205 136.258 173.626 135.542C177.144 129.548 184.835 127.54 190.814 131.058Z" fill="#292524"/>
<path d="M188.142 154.305C194.94 152.955 199.353 146.33 197.999 139.507C196.644 132.683 190.036 128.246 183.238 129.595C176.44 130.945 172.027 137.57 173.381 144.393C174.735 151.216 181.344 155.654 188.142 154.305Z" fill="#FDE68A"/>
<path d="M186.295 149.523L185.953 147.764C184.723 147.982 183.493 147.92 182.73 147.67L182.855 145.382C183.695 145.631 184.832 145.787 186.015 145.522C187.043 145.288 187.681 144.728 187.541 143.981C187.401 143.28 186.747 142.969 185.314 142.813C183.244 142.579 181.749 141.957 181.407 140.166C181.095 138.547 181.967 137.021 183.835 136.196L183.493 134.437L185.268 134.032L185.579 135.651C186.809 135.433 187.665 135.511 188.319 135.667L188.195 137.878C187.681 137.784 186.778 137.551 185.47 137.831C184.287 138.096 184.007 138.703 184.116 139.216C184.24 139.824 184.941 140.073 186.591 140.306C188.895 140.602 189.954 141.412 190.281 143.078C190.592 144.728 189.72 146.378 187.712 147.219L188.07 149.103L186.295 149.523Z" fill="white"/>
</svg>
