<svg width="58" height="40" viewBox="0 0 58 40" fill="none" xmlns="http://www.w3.org/2000/svg">
<rect x="0.5" y="0.5" width="57" height="39" rx="5.5" fill="white"/>
<rect x="0.5" y="0.5" width="57" height="39" rx="5.5" stroke="#F5F5F4"/>
<path d="M34.7518 24.0831V17.9058H35.7734V18.4C36.0997 17.9907 36.5967 17.7616 37.1138 17.7848C38.286 17.7848 39.1218 18.7449 39.1218 20.1219C39.1218 21.4989 38.2759 22.477 37.1138 22.477C36.5992 22.5001 36.1022 22.2762 35.7734 21.8695V24.0831H34.7518ZM35.7734 19.5531V20.6881C35.9692 21.172 36.4285 21.486 36.9381 21.4835C37.6158 21.4835 38.0676 20.9687 38.0676 20.1167C38.0676 19.2648 37.6158 18.7654 36.9381 18.7654C36.4285 18.7552 35.9642 19.0692 35.7734 19.5531Z" fill="#00C48C"/>
<path d="M39.7895 21.0966C39.7569 20.3785 40.294 19.7685 40.9943 19.7299L42.7288 19.5034V19.2692C42.7564 19.0761 42.6284 18.8934 42.4376 18.8651C42.41 18.8599 42.3799 18.8599 42.3523 18.8625H40.1736V17.9102H42.395C43.2735 17.9102 43.7579 18.3529 43.7579 19.1405V22.3501H42.7288V21.8044C42.3924 22.26 41.8553 22.5148 41.2981 22.4813C40.402 22.4813 39.792 21.9177 39.792 21.0863M41.5491 21.632C42.0511 21.6448 42.5129 21.354 42.7288 20.8881V20.3244L41.406 20.5149C41.037 20.569 40.8362 20.7723 40.8362 21.0863C40.8362 21.4003 41.0872 21.632 41.5491 21.632Z" fill="#00C48C"/>
<path d="M44.5009 23.13H45.2539C45.4949 23.1531 45.7133 22.9858 45.7559 22.7413L45.8915 22.3501L44.3177 17.9102H45.3619L46.3433 20.9988H46.3684L47.3047 17.9102H48.3739L46.6495 23.009C46.4161 23.7091 46.1048 24.0823 45.3443 24.0823H44.5135L44.5009 23.13Z" fill="#00C48C"/>
<path d="M13.3786 27.1353C14.5659 27.1353 15.5423 26.7544 16.1823 26.1058C16.6743 25.5987 16.9454 24.9115 16.9354 24.1959C16.9454 23.5345 16.6969 22.8961 16.2451 22.4225C15.7054 21.9001 15.0252 21.5577 14.2923 21.4393L12.9268 21.1665C12.3595 21.0584 12.0407 20.7675 12.0407 20.366C12.0407 19.8512 12.5427 19.4755 13.3359 19.4755C13.7802 19.4574 14.2144 19.6222 14.5408 19.931C14.7265 20.1369 14.8445 20.3995 14.8796 20.6775L16.8475 20.2219C16.7873 19.6453 16.5287 19.11 16.1196 18.711C15.3565 17.9878 14.3475 17.6017 13.3083 17.6377C12.352 17.6068 11.4207 17.944 10.6978 18.5849C10.1632 19.0894 9.86199 19.8023 9.8645 20.5488C9.84442 21.1742 10.0753 21.7791 10.5046 22.2218C11.0267 22.7134 11.6717 23.048 12.367 23.187L13.7149 23.5139C14.3902 23.6786 14.6914 23.9334 14.6914 24.389C14.6914 24.9527 14.1893 25.2795 13.3786 25.2795C12.8741 25.3079 12.3796 25.12 12.0131 24.7648C11.7973 24.5408 11.6692 24.2423 11.6567 23.9283L9.63358 24.3838C9.69382 24.9913 9.95988 25.5601 10.3866 25.9848C11.0618 26.7106 12.1436 27.1482 13.3686 27.1482M28.3436 27.1482C29.4606 27.1791 30.5424 26.7544 31.3557 25.9668C31.8652 25.4623 32.2317 24.8291 32.42 24.129L30.3592 23.4135C30.1132 24.3324 29.2799 24.9578 28.3511 24.9243C27.7638 24.9218 27.204 24.685 26.7874 24.2603C26.333 23.7507 26.0921 23.0763 26.1172 22.3839C26.0896 21.6941 26.3305 21.0198 26.7874 20.5127C27.204 20.0932 27.7663 19.8641 28.3486 19.877C28.8707 19.8512 29.3778 20.0494 29.7518 20.4226C30.0003 20.6955 30.1835 21.0249 30.2839 21.3853L32.3949 20.6594C32.2166 19.9799 31.8703 19.3596 31.3908 18.8577C30.5575 18.0444 29.443 17.6043 28.2934 17.6377C27.0936 17.6249 25.9365 18.1036 25.0805 18.9658C24.2146 19.8796 23.7401 21.1099 23.7577 22.3839C23.7401 23.6657 24.2271 24.8986 25.1081 25.8072C25.9741 26.6746 27.1438 27.1533 28.3537 27.1353M21.1849 27.1353C22.1086 27.1353 22.7637 26.8445 23.0499 26.5896V24.6258C22.6985 24.8677 22.2843 24.9964 21.8601 24.9887C21.5388 25.0144 21.22 24.9115 20.9715 24.7004C20.7733 24.443 20.6779 24.1162 20.7055 23.7893V15.4551H18.3636V17.9106H23.0499V20.2399H18.3636V24.3581C18.331 25.0865 18.5795 25.7995 19.0564 26.34C19.5584 26.8548 20.2813 27.1121 21.1849 27.1121" fill="#4F008C"/>
</svg>
