<svg width="58" height="40" viewBox="0 0 58 40" fill="none" xmlns="http://www.w3.org/2000/svg">
<rect x="0.5" y="0.5" width="57" height="39" rx="5.5" fill="white"/>
<rect x="0.5" y="0.5" width="57" height="39" rx="5.5" stroke="#F5F5F4"/>
<path d="M26.1446 20.2959H7.87755V26.9867H26.1446V20.2959Z" fill="#84B740"/>
<path d="M26.1446 11.167H7.87755V17.8638H26.1446V11.167Z" fill="#259BD6"/>
<path d="M44.4117 25.6287L44.3304 25.6466C44.0484 25.7063 43.9453 25.7301 43.7392 25.7301C43.2619 25.7301 42.6978 25.4618 42.6978 24.1976C42.6978 23.5476 42.7955 22.6829 43.685 22.6829H43.6904C43.8423 22.6948 44.0158 22.7127 44.3412 22.82L44.4117 22.8439V25.6287ZM44.5582 19.3255L44.4117 19.3554V21.693L44.2816 21.6512L44.2436 21.6393C44.0972 21.5916 43.7609 21.4843 43.4355 21.4843C41.6565 21.4843 41.2823 22.9632 41.2823 24.2035C41.2823 25.9031 42.1501 26.881 43.6633 26.881C44.3033 26.881 44.7751 26.8095 45.2524 26.6365C45.6917 26.4815 45.849 26.2609 45.849 25.7898V19.0811C45.426 19.1645 44.9867 19.248 44.5582 19.3255Z" fill="#27292D"/>
<path d="M49.6998 25.6711L49.6239 25.695L49.3527 25.7725C49.0978 25.8441 48.87 25.8858 48.6965 25.8858C48.2788 25.8858 48.0293 25.6592 48.0293 25.2716C48.0293 25.0211 48.1324 24.5977 48.8158 24.5977H49.6998V25.6711ZM49.0761 21.4551C48.5283 21.4551 47.9642 21.5624 47.2646 21.8009L46.809 21.95L46.9609 23.0831L47.4056 22.922C47.872 22.7551 48.4524 22.6477 48.8863 22.6477C49.0815 22.6477 49.6781 22.6477 49.6781 23.3574V23.6675H48.8483C47.3351 23.6675 46.6354 24.1982 46.6354 25.3372C46.6354 26.3092 47.2809 26.8936 48.3656 26.8936C48.7019 26.8936 49.1683 26.822 49.5697 26.7147L49.5914 26.7087L49.6131 26.7147L49.7487 26.7386C50.1717 26.822 50.611 26.9055 51.0395 26.995V23.2739C51.0395 22.0693 50.3778 21.4551 49.0761 21.4551Z" fill="#27292D"/>
<path d="M39.1616 25.6711L39.0856 25.695L38.8144 25.7725C38.5595 25.8441 38.3371 25.8858 38.1582 25.8858C37.7405 25.8858 37.491 25.6592 37.491 25.2716C37.491 25.0211 37.5941 24.5977 38.2721 24.5977H39.1561V25.6711H39.1616ZM38.5432 21.4551C37.99 21.4551 37.4314 21.5624 36.7317 21.8009L36.2761 21.95L36.428 23.0831L36.8727 22.922C37.3392 22.7551 37.9195 22.6477 38.3534 22.6477C38.5487 22.6477 39.1453 22.6477 39.1453 23.3574V23.6675H38.3155C36.8022 23.6675 36.0972 24.1982 36.0972 25.3372C36.0972 26.3092 36.7426 26.8936 37.8327 26.8936C38.169 26.8936 38.6355 26.822 39.0368 26.7147L39.0585 26.7087L39.0802 26.7147L39.2104 26.7386C39.6388 26.822 40.0727 26.9055 40.5012 27.0009V23.2798C40.5066 22.0633 39.8449 21.4551 38.5432 21.4551Z" fill="#27292D"/>
<path d="M33.4504 21.4649C32.7616 21.4649 32.1921 21.7154 31.9806 21.8227L31.9263 21.8526L31.8775 21.8108C31.5846 21.5782 31.1561 21.459 30.5595 21.459C30.0334 21.459 29.5399 21.5425 29.0029 21.7154C28.5419 21.8705 28.3629 22.1149 28.3629 22.5741V26.8259H29.8056V22.8961L29.8761 22.8723C30.169 22.7649 30.3426 22.7471 30.5107 22.7471C30.9284 22.7471 31.1399 22.9915 31.1399 23.4686V26.8319H32.5609V23.403C32.5609 23.2003 32.5229 23.081 32.5175 23.0571L32.4687 22.9558L32.5663 22.9081C32.7833 22.8007 33.0219 22.7471 33.2714 22.7471C33.5589 22.7471 33.9006 22.8723 33.9006 23.4686V26.8319H35.3161V23.3136C35.3161 22.0672 34.7087 21.4649 33.4504 21.4649Z" fill="#27292D"/>
<path d="M48.6368 15.5321C48.4253 15.5321 48.0728 15.5083 47.7961 15.4486L47.7148 15.4307V13.1349C47.7148 12.9441 47.6823 12.8248 47.6768 12.8069L47.6334 12.7115L47.7256 12.6697C47.7473 12.6578 47.769 12.6519 47.7961 12.6399L47.8124 12.628C47.845 12.6161 47.8775 12.6041 47.91 12.5922C47.9263 12.5863 47.9372 12.5803 47.948 12.5803C48.268 12.4849 48.5609 12.4968 48.6911 12.4849H48.6965C49.5806 12.4849 49.6836 13.3496 49.6836 13.9996C49.6782 15.2638 49.1087 15.5321 48.6368 15.5321ZM48.6314 11.167C48.6206 11.167 48.6043 11.167 48.5934 11.167C47.7636 11.167 46.9121 11.4175 46.6084 11.9064C46.4456 12.145 46.3534 12.4431 46.348 12.795V15.1624C46.348 15.3651 46.31 15.4427 46.3046 15.4606L46.2558 15.5619H43.6362V13.9161H43.6307C43.5982 12.1808 42.6653 11.2266 41.3148 11.2266H41.1575H39.9968C39.9426 11.65 39.8992 11.9482 39.845 12.3716H41.1575C41.8463 12.3716 42.2097 13.0156 42.2097 14.0055V15.6633L42.1175 15.6096C42.1012 15.6037 41.9873 15.5619 41.8084 15.5619H39.5412C39.4979 15.878 39.4436 16.2895 39.384 16.7009H46.3534C46.5921 16.6473 46.8687 16.5996 47.1073 16.5578C47.4599 16.7486 48.1161 16.85 48.5663 16.85C50.0795 16.85 51.0612 15.7349 51.0612 14.0174C51.0558 12.3179 50.1067 11.2028 48.6314 11.167Z" fill="#27292D"/>
<path d="M36.4117 17.3985H36.4768C37.99 17.3985 38.6951 16.8498 38.6951 15.4962C38.6951 14.5242 38.0497 13.7489 36.965 13.7489H35.5711C35.1534 13.7489 34.9039 13.4865 34.9039 13.0453C34.9039 12.7471 35.007 12.3774 35.6904 12.3774H38.7385C38.8036 11.9421 38.8361 11.6677 38.8958 11.2324H35.7283C34.2531 11.2324 33.51 11.9122 33.51 13.0453C33.51 14.1664 34.1555 14.7508 35.2402 14.7508H36.6341C37.0517 14.7508 37.3012 15.1145 37.3012 15.4962C37.3012 15.7466 37.1982 16.2654 36.5202 16.2654H36.287L31.8233 16.2535H31.0097C30.3209 16.2535 29.8382 15.8242 29.8382 14.8283V14.1425C29.8382 13.1049 30.2124 12.4609 31.0097 12.4609H32.3331C32.3928 12.0196 32.4307 11.7393 32.485 11.3219H30.8361H30.6789C29.3284 11.3219 28.3955 12.3177 28.3629 14.0531V14.1187V14.8283C28.3955 16.5636 29.3284 17.3925 30.6789 17.3925H30.8361H31.9968L34.4158 17.3985H35.8585H36.4117Z" fill="#27292D"/>
</svg>
