<svg width="107" height="142" viewBox="0 0 107 142" fill="none" xmlns="http://www.w3.org/2000/svg">
<path d="M0.517578 31.6211C0.517578 123.474 53.4988 141.152 53.4988 141.152C53.4988 141.152 106.48 117.892 106.48 31.6211L53.4988 0.621094L0.517578 31.6211Z" fill="white"/>
<path d="M53.5005 141.58C53.462 141.58 53.4042 141.58 53.3657 141.56C53.231 141.521 39.8509 136.912 26.6826 121.121C18.9626 111.844 12.802 100.584 8.39328 87.6507C2.88723 71.4895 0.0957031 52.6444 0.0957031 31.6407C0.0957031 31.4851 0.172712 31.3489 0.307475 31.2712L53.2887 0.251703C53.4235 0.173911 53.5775 0.173911 53.7123 0.251703L106.694 31.2517C106.828 31.3295 106.905 31.4656 106.905 31.6212C106.905 51.3414 104.114 69.3891 98.6077 85.278C94.199 97.9775 88.0384 109.335 80.3184 119.001C67.1693 135.493 53.8085 141.483 53.6738 141.541C53.616 141.56 53.5583 141.58 53.5005 141.58ZM0.962039 31.874C1.01979 79.0353 15.324 106.126 27.3564 120.557C39.6199 135.279 51.9796 140.141 53.5005 140.685C55.0021 139.985 67.4389 133.84 79.7023 118.417C91.6963 103.365 106 76.1375 106.058 31.874L53.5005 1.10741L0.962039 31.874Z" fill="#292524"/>
<path d="M53.5 129.211C53.5 129.211 97.4714 109.899 97.4714 38.292L53.5 12.543V129.211Z" fill="#E7E5E4"/>
<path d="M53.5013 129.367C53.4628 129.367 53.4051 129.367 53.3666 129.347C53.2511 129.308 42.1235 125.555 31.1884 112.486C24.7775 104.823 19.6565 95.4885 15.9986 84.7727C11.4167 71.373 9.10645 55.7369 9.10645 38.2921C9.10645 38.1365 9.18345 38.0004 9.31822 37.9226L53.2896 12.6208C53.4243 12.5431 53.5784 12.5431 53.7131 12.6208C53.8479 12.6986 53.9249 12.8348 53.9249 12.9904V128.939C53.9249 129.075 53.8671 129.211 53.7516 129.289C53.6746 129.347 53.5976 129.367 53.5013 129.367ZM9.95353 38.5449C10.0113 77.6547 21.8705 100.039 31.8429 111.941C41.2379 123.163 50.7291 127.403 53.0778 128.336V13.7294L9.95353 38.5449Z" fill="#292524"/>
<path d="M40.1943 74.6008V53.5971C40.1943 48.6184 44.218 44.5732 49.1465 44.5732H58.1564C63.0848 44.5732 67.1085 48.6184 67.1085 53.5971V74.5814C67.1085 76.04 65.9341 77.2263 64.471 77.2263H42.8318C41.3687 77.2458 40.1943 76.0594 40.1943 74.6008ZM61.8335 53.5971C61.8335 51.555 60.1778 49.8825 58.1564 49.8825H49.1465C47.1058 49.8825 45.4694 51.555 45.4694 53.5971V71.9365H61.8527V53.5971H61.8335Z" fill="#FCD34D"/>
<path d="M40.1943 74.6008V53.5971C40.1943 48.6184 44.218 44.5732 49.1465 44.5732H58.1564C63.0848 44.5732 67.1085 48.6184 67.1085 53.5971V74.5814C67.1085 76.04 65.9341 77.2263 64.471 77.2263H42.8318C41.3687 77.2458 40.1943 76.0594 40.1943 74.6008ZM61.8335 53.5971C61.8335 51.555 60.1778 49.8825 58.1564 49.8825H49.1465C47.1058 49.8825 45.4694 51.555 45.4694 53.5971V71.9365H61.8527V53.5971H61.8335Z" fill="#292524"/>
<path d="M74.2121 66.9971C74.2313 67.4055 74.2313 67.8333 74.2313 68.2612C74.2313 82.7888 64.9519 94.5548 53.497 94.5548C42.0421 94.5548 32.7627 82.7888 32.7627 68.2612C32.7627 67.8333 32.7627 67.4249 32.7819 66.9971H74.2121Z" fill="#292524"/>
<path d="M53.4987 94.9632C41.832 94.9632 32.3408 82.9833 32.3408 68.2418C32.3408 67.8139 32.3601 67.3861 32.3601 66.9582C32.3601 66.7248 32.5526 66.5498 32.7836 66.5498H74.1945C74.4255 66.5498 74.618 66.7248 74.618 66.9582C74.6373 67.3861 74.6373 67.8139 74.6373 68.2418C74.6565 82.9833 65.1653 94.9632 53.4987 94.9632ZM33.2072 67.425C33.2072 67.6972 33.1879 67.9695 33.1879 68.2612C33.1879 82.5166 42.2941 94.127 53.4987 94.127C64.7033 94.127 73.8094 82.5166 73.8094 68.2612C73.8094 67.9889 73.8094 67.7167 73.7902 67.425H33.2072Z" fill="#292524"/>
<path d="M49.3984 85.7639L51.4776 77.1874C50.4188 76.5456 49.7065 75.3593 49.7065 74.0368C49.7065 71.9948 51.3429 70.3223 53.3836 70.3223C55.405 70.3223 57.0607 71.9753 57.0607 74.0368C57.0607 75.3787 56.3484 76.5456 55.2895 77.1874L57.3687 85.7639H49.3984Z" fill="white"/>
</svg>
