<svg width="222" height="221" viewBox="0 0 222 221" fill="none" xmlns="http://www.w3.org/2000/svg">
<path d="M204.641 156.348H17.4275C8.00882 156.348 0.343262 148.716 0.343262 139.338V27.2637C0.343262 17.886 8.00882 10.2539 17.4275 10.2539H204.641C214.06 10.2539 221.726 17.886 221.726 27.2637V139.35C221.713 148.716 214.06 156.348 204.641 156.348ZM17.4275 10.7836C8.299 10.7836 0.875256 18.175 0.875256 27.2637V139.35C0.875256 148.439 8.299 155.83 17.4275 155.83H204.641C213.77 155.83 221.194 148.439 221.194 139.35V27.2637C221.194 18.175 213.77 10.7836 204.641 10.7836H17.4275Z" fill="#292524"/>
<path d="M221.401 129.972H0.671759C0.52667 129.972 0.405762 129.852 0.405762 129.707C0.405762 129.563 0.52667 129.442 0.671759 129.442H221.401C221.546 129.442 221.667 129.563 221.667 129.707C221.667 129.852 221.546 129.972 221.401 129.972Z" fill="#292524"/>
<path d="M148.127 194.737H73.938C73.8655 194.737 73.7808 194.701 73.7325 194.641C73.6841 194.581 73.6599 194.509 73.672 194.424L80.2373 156.035C80.2615 155.903 80.3703 155.818 80.5033 155.818H141.562C141.695 155.818 141.804 155.915 141.828 156.035L148.393 194.436C148.405 194.509 148.381 194.593 148.333 194.653C148.284 194.713 148.2 194.737 148.127 194.737ZM74.2524 194.208H147.813L141.344 156.348H80.721L74.2524 194.208Z" fill="#292524"/>
<path d="M158.115 202.201H63.9521C61.7395 202.201 59.938 200.408 59.938 198.205C59.938 196.002 61.7395 194.208 63.9521 194.208H158.115C160.328 194.208 162.129 196.002 162.129 198.205C162.129 200.408 160.328 202.201 158.115 202.201ZM63.9521 194.738C62.0297 194.738 60.47 196.291 60.47 198.205C60.47 200.119 62.0297 201.672 63.9521 201.672H158.115C160.038 201.672 161.597 200.119 161.597 198.205C161.597 196.291 160.038 194.738 158.115 194.738H63.9521Z" fill="#292524"/>
<path d="M111.033 150.292C109.244 150.292 107.781 148.835 107.781 147.054C107.781 145.272 109.244 143.815 111.033 143.815C112.823 143.815 114.286 145.272 114.286 147.054C114.286 148.847 112.823 150.292 111.033 150.292ZM111.033 144.357C109.534 144.357 108.313 145.573 108.313 147.066C108.313 148.558 109.534 149.774 111.033 149.774C112.532 149.774 113.754 148.558 113.754 147.066C113.754 145.573 112.532 144.357 111.033 144.357Z" fill="#292524"/>
<path d="M171.475 97.8306C171.415 97.8306 171.354 97.8065 171.306 97.7704L163.193 91.005L159.965 94.8452C159.868 94.9535 159.699 94.9776 159.59 94.8813C159.481 94.785 159.457 94.6164 159.554 94.5081L162.951 90.4754C163 90.4272 163.06 90.3911 163.133 90.379C163.205 90.367 163.278 90.3911 163.326 90.4392L171.645 97.3732C171.753 97.4695 171.778 97.638 171.681 97.7463C171.62 97.7945 171.548 97.8306 171.475 97.8306Z" fill="#292524"/>
<path d="M145.333 111.807L93.9956 172.804L124.247 198.035L129.385 191.932L145.333 111.807Z" fill="white"/>
<path d="M124.246 198.3C124.185 198.3 124.125 198.276 124.077 198.24L93.8254 173.008C93.777 172.96 93.7408 172.9 93.7287 172.828C93.7166 172.756 93.7408 172.683 93.7891 172.635L145.127 111.638C145.223 111.53 145.393 111.506 145.501 111.602C145.61 111.699 145.634 111.867 145.538 111.976L94.3816 172.768L124.222 197.662L129.191 191.764C129.288 191.655 129.457 191.631 129.566 191.728C129.675 191.824 129.699 191.993 129.602 192.101L124.463 198.204C124.391 198.264 124.318 198.3 124.246 198.3Z" fill="#292524"/>
<path d="M136.741 175.252L114.341 156.563L101.597 171.705L123.997 190.394L136.741 175.252Z" fill="#D4D4D4"/>
<path d="M151.177 158.097L128.777 139.408L116.033 154.55L138.433 173.238L151.177 158.097Z" fill="#E7E5E4"/>
<path d="M165.608 140.94L143.208 122.252L130.464 137.394L152.864 156.082L165.608 140.94Z" fill="white"/>
<path d="M162.434 107.509C162.398 107.509 162.374 107.509 162.337 107.497C162.204 107.448 162.132 107.292 162.18 107.16L165.033 99.6237C165.058 99.5635 165.106 99.5033 165.179 99.4793C165.239 99.4552 165.312 99.4431 165.384 99.4672L176.242 103.548C176.375 103.596 176.447 103.753 176.399 103.885C176.35 104.018 176.193 104.09 176.06 104.042L165.445 100.057L162.688 107.352C162.64 107.448 162.531 107.509 162.434 107.509Z" fill="#292524"/>
<path d="M200.656 117.946C200.62 117.946 200.596 117.946 200.56 117.934C200.427 117.886 200.354 117.729 200.402 117.597L201.865 113.733L200.33 113.155C200.197 113.107 200.124 112.95 200.173 112.818C200.221 112.686 200.378 112.613 200.511 112.661L202.301 113.336C202.434 113.384 202.506 113.54 202.458 113.673L200.898 117.778C200.862 117.886 200.765 117.946 200.656 117.946Z" fill="#292524"/>
<path d="M159.351 115.369L127.286 200.021L164.199 213.889L170.148 198.215L159.351 115.369Z" fill="white"/>
<path d="M164.199 214.153C164.162 214.153 164.138 214.153 164.102 214.141L127.177 200.273C127.044 200.225 126.971 200.069 127.019 199.936L159.084 115.285C159.133 115.152 159.29 115.08 159.423 115.128C159.556 115.176 159.628 115.333 159.58 115.465L127.612 199.864L164.041 213.551L169.893 198.119C169.942 197.986 170.099 197.914 170.232 197.962C170.365 198.01 170.437 198.167 170.389 198.299L164.452 213.985C164.428 214.045 164.38 214.105 164.307 214.129C164.283 214.153 164.247 214.153 164.199 214.153Z" fill="#292524"/>
<path d="M168.437 188.262L141.095 177.991L134.091 196.473L161.433 206.744L168.437 188.262Z" fill="#D4D4D4"/>
<path d="M176.366 167.328L149.025 157.057L142.021 175.539L169.362 185.81L176.366 167.328Z" fill="#E7E5E4"/>
<path d="M184.299 146.381L156.958 136.11L149.954 154.593L177.296 164.864L184.299 146.381Z" fill="#D4D4D4"/>
<path d="M209.643 210.844L200.357 104.019L161.05 107.401L170.336 214.227L209.643 210.844Z" fill="white"/>
<path d="M161.978 118.091L170.332 214.227L209.639 210.844L202.578 129.623L161.978 118.091Z" fill="white"/>
<path d="M170.329 214.492C170.196 214.492 170.075 214.383 170.063 214.251L161.708 118.115C161.696 117.971 161.805 117.838 161.95 117.826C162.095 117.814 162.228 117.922 162.24 118.067L170.571 213.938L209.358 210.603L202.321 129.647C202.309 129.503 202.418 129.371 202.563 129.359C202.708 129.347 202.841 129.455 202.853 129.599L209.914 210.82C209.927 210.892 209.902 210.965 209.854 211.013C209.806 211.061 209.745 211.097 209.673 211.109L170.365 214.492C170.341 214.492 170.329 214.492 170.329 214.492Z" fill="#292524"/>
<path d="M202.343 185.916L173.228 188.42L174.935 208.101L204.051 205.598L202.343 185.916Z" fill="#D4D4D4"/>
<path d="M200.407 163.61L171.292 166.113L172.999 185.795L202.115 183.291L200.407 163.61Z" fill="#E7E5E4"/>
<path d="M198.475 141.314L169.359 143.817L171.067 163.499L200.182 160.995L198.475 141.314Z" fill="#D4D4D4"/>
<path d="M205.875 129.973H121.07C120.925 129.973 120.804 129.853 120.804 129.708C120.804 129.564 120.925 129.443 121.07 129.443H205.875C206.02 129.443 206.141 129.564 206.141 129.708C206.141 129.853 206.02 129.973 205.875 129.973Z" fill="#292524"/>
<path d="M204.971 119.678H82.2378C78.3083 119.678 75.1284 116.512 75.1284 112.6V36.4954C75.1284 32.583 78.3083 29.417 82.2378 29.417H204.971C208.901 29.417 212.081 32.583 212.081 36.4954V112.6C212.081 116.512 208.901 119.678 204.971 119.678Z" fill="white"/>
<path d="M212.081 43.6333H75.1284V35.6039C75.1284 32.1851 77.9093 29.4043 81.3552 29.4043H205.866C209.3 29.4043 212.093 32.1731 212.093 35.6039V43.6333H212.081Z" fill="#D4D4D4"/>
<path d="M206.346 119.943H80.8437C77.5429 119.943 74.8467 117.27 74.8467 113.972V35.1105C74.8467 31.8241 77.5308 29.1396 80.8437 29.1396H206.346C209.647 29.1396 212.343 31.8121 212.343 35.1105V113.972C212.343 117.27 209.647 119.943 206.346 119.943ZM80.8558 29.6814C77.8452 29.6814 75.3908 32.1251 75.3908 35.1226V113.984C75.3908 116.981 77.8452 119.425 80.8558 119.425H206.358C209.369 119.425 211.823 116.981 211.823 113.984V35.1105C211.823 32.1131 209.369 29.6693 206.358 29.6693H80.8558V29.6814Z" fill="#292524"/>
<path d="M212.077 43.8978H75.1244C74.9793 43.8978 74.8584 43.7775 74.8584 43.633C74.8584 43.4885 74.9793 43.3682 75.1244 43.3682H212.077C212.222 43.3682 212.343 43.4885 212.343 43.633C212.343 43.7775 212.222 43.8978 212.077 43.8978Z" fill="#292524"/>
<path d="M196.272 43.898C196.128 43.898 196.007 43.7776 196.007 43.6332V29.4162C196.007 29.2717 196.128 29.1514 196.272 29.1514C196.417 29.1514 196.537 29.2717 196.537 29.4162V43.6452C196.537 43.7776 196.417 43.898 196.272 43.898Z" fill="#292524"/>
<path d="M180.53 43.898C180.386 43.898 180.266 43.7776 180.266 43.6332V29.4162C180.266 29.2717 180.386 29.1514 180.53 29.1514C180.675 29.1514 180.795 29.2717 180.795 29.4162V43.6452C180.795 43.7776 180.687 43.898 180.53 43.898Z" fill="#292524"/>
<path d="M175.918 40.0228H169.594C169.449 40.0228 169.328 39.9025 169.328 39.758C169.328 39.6135 169.449 39.4932 169.594 39.4932H175.918C176.063 39.4932 176.184 39.6135 176.184 39.758C176.184 39.9025 176.063 40.0228 175.918 40.0228Z" fill="white"/>
<path d="M206.982 40.0218C206.909 40.0218 206.849 39.9978 206.788 39.9496L200.537 33.7259C200.428 33.6176 200.428 33.449 200.537 33.3527C200.646 33.2444 200.815 33.2444 200.912 33.3527L207.163 39.5764C207.272 39.6848 207.272 39.8533 207.163 39.9496C207.115 39.9978 207.042 40.0218 206.982 40.0218Z" fill="white"/>
<path d="M200.731 40.0218C200.658 40.0218 200.598 39.9978 200.537 39.9496C200.428 39.8413 200.428 39.6727 200.537 39.5764L206.788 33.3527C206.897 33.2444 207.066 33.2444 207.163 33.3527C207.272 33.4611 207.272 33.6296 207.163 33.7259L200.912 39.9496C200.864 39.9978 200.803 40.0218 200.731 40.0218Z" fill="white"/>
<path d="M191.492 40.0224H184.999C184.854 40.0224 184.733 39.9021 184.733 39.7576V33.2932C184.733 33.1487 184.854 33.0283 184.999 33.0283H191.492C191.637 33.0283 191.758 33.1487 191.758 33.2932V39.7576C191.758 39.9021 191.637 40.0224 191.492 40.0224ZM185.253 39.4928H191.214V33.558H185.253V39.4928Z" fill="white"/>
<path d="M201.837 84.2168H143.427V111.555H201.837V84.2168Z" fill="#D4D4D4"/>
<path d="M201.849 78.2089H198.657C198.512 78.2089 198.391 78.0886 198.391 77.9441C198.391 77.7996 198.512 77.6793 198.657 77.6793H201.849C201.994 77.6793 202.115 77.7996 202.115 77.9441C202.115 78.0886 201.994 78.2089 201.849 78.2089ZM195.465 78.2089H192.273C192.128 78.2089 192.007 78.0886 192.007 77.9441C192.007 77.7996 192.128 77.6793 192.273 77.6793H195.465C195.61 77.6793 195.731 77.7996 195.731 77.9441C195.731 78.0886 195.61 78.2089 195.465 78.2089ZM189.069 78.2089H185.877C185.732 78.2089 185.611 78.0886 185.611 77.9441C185.611 77.7996 185.732 77.6793 185.877 77.6793H189.069C189.214 77.6793 189.335 77.7996 189.335 77.9441C189.335 78.0886 189.227 78.2089 189.069 78.2089ZM182.685 78.2089H179.493C179.348 78.2089 179.227 78.0886 179.227 77.9441C179.227 77.7996 179.348 77.6793 179.493 77.6793H182.685C182.831 77.6793 182.951 77.7996 182.951 77.9441C182.951 78.0886 182.831 78.2089 182.685 78.2089ZM176.302 78.2089H173.11C172.964 78.2089 172.844 78.0886 172.844 77.9441C172.844 77.7996 172.964 77.6793 173.11 77.6793H176.302C176.447 77.6793 176.567 77.7996 176.567 77.9441C176.567 78.0886 176.447 78.2089 176.302 78.2089ZM169.918 78.2089H166.726C166.581 78.2089 166.46 78.0886 166.46 77.9441C166.46 77.7996 166.581 77.6793 166.726 77.6793H169.918C170.063 77.6793 170.184 77.7996 170.184 77.9441C170.184 78.0886 170.063 78.2089 169.918 78.2089ZM163.534 78.2089H160.342C160.197 78.2089 160.076 78.0886 160.076 77.9441C160.076 77.7996 160.197 77.6793 160.342 77.6793H163.534C163.679 77.6793 163.8 77.7996 163.8 77.9441C163.8 78.0886 163.679 78.2089 163.534 78.2089ZM157.15 78.2089H153.958C153.813 78.2089 153.692 78.0886 153.692 77.9441C153.692 77.7996 153.813 77.6793 153.958 77.6793H157.15C157.295 77.6793 157.416 77.7996 157.416 77.9441C157.416 78.0886 157.295 78.2089 157.15 78.2089ZM150.754 78.2089H147.562C147.417 78.2089 147.296 78.0886 147.296 77.9441C147.296 77.7996 147.417 77.6793 147.562 77.6793H150.754C150.899 77.6793 151.02 77.7996 151.02 77.9441C151.02 78.0886 150.911 78.2089 150.754 78.2089ZM144.37 78.2089H143.427C143.282 78.2089 143.161 78.0886 143.161 77.9441V75.705C143.161 75.5606 143.282 75.4402 143.427 75.4402C143.572 75.4402 143.693 75.5606 143.693 75.705V77.6793H144.37C144.515 77.6793 144.636 77.7996 144.636 77.9441C144.636 78.0886 144.515 78.2089 144.37 78.2089ZM201.849 75.693C201.704 75.693 201.583 75.5726 201.583 75.4281V72.2501C201.583 72.1056 201.704 71.9853 201.849 71.9853C201.994 71.9853 202.115 72.1056 202.115 72.2501V75.4281C202.115 75.5726 201.994 75.693 201.849 75.693ZM143.427 72.7918C143.282 72.7918 143.161 72.6714 143.161 72.527V69.3489C143.161 69.2045 143.282 69.0841 143.427 69.0841C143.572 69.0841 143.693 69.2045 143.693 69.3489V72.527C143.693 72.6714 143.584 72.7918 143.427 72.7918ZM201.849 69.3369C201.704 69.3369 201.583 69.2165 201.583 69.072V65.894C201.583 65.7495 201.704 65.6292 201.849 65.6292C201.994 65.6292 202.115 65.7495 202.115 65.894V69.072C202.115 69.2165 201.994 69.3369 201.849 69.3369ZM143.427 66.4357C143.282 66.4357 143.161 66.3153 143.161 66.1709V62.9928C143.161 62.8484 143.282 62.728 143.427 62.728C143.572 62.728 143.693 62.8484 143.693 62.9928V66.1709C143.693 66.3153 143.584 66.4357 143.427 66.4357ZM201.849 62.9808C201.704 62.9808 201.583 62.8604 201.583 62.7159V59.5379C201.583 59.3934 201.704 59.2731 201.849 59.2731C201.994 59.2731 202.115 59.3934 202.115 59.5379V62.7159C202.115 62.8604 201.994 62.9808 201.849 62.9808ZM143.427 60.0796C143.282 60.0796 143.161 59.9592 143.161 59.8148V56.6367C143.161 56.4923 143.282 56.3719 143.427 56.3719C143.572 56.3719 143.693 56.4923 143.693 56.6367V59.8148C143.693 59.9592 143.584 60.0796 143.427 60.0796ZM201.849 56.6247C201.704 56.6247 201.583 56.5043 201.583 56.3599V53.1818C201.583 53.0373 201.704 52.917 201.849 52.917C201.994 52.917 202.115 53.0373 202.115 53.1818V56.3599C202.115 56.5043 201.994 56.6247 201.849 56.6247ZM143.427 53.7235C143.282 53.7235 143.161 53.6031 143.161 53.4587V50.6057C143.161 50.4612 143.282 50.3408 143.427 50.3408H143.753C143.898 50.3408 144.019 50.4612 144.019 50.6057C144.019 50.7501 143.898 50.8705 143.753 50.8705H143.693V53.4587C143.693 53.6031 143.584 53.7235 143.427 53.7235ZM201.233 50.8705H198.041C197.896 50.8705 197.775 50.7501 197.775 50.6057C197.775 50.4612 197.896 50.3408 198.041 50.3408H201.233C201.378 50.3408 201.499 50.4612 201.499 50.6057C201.499 50.7501 201.378 50.8705 201.233 50.8705ZM194.849 50.8705H191.657C191.512 50.8705 191.391 50.7501 191.391 50.6057C191.391 50.4612 191.512 50.3408 191.657 50.3408H194.849C194.994 50.3408 195.115 50.4612 195.115 50.6057C195.115 50.7501 194.994 50.8705 194.849 50.8705ZM188.465 50.8705H185.273C185.128 50.8705 185.007 50.7501 185.007 50.6057C185.007 50.4612 185.128 50.3408 185.273 50.3408H188.465C188.61 50.3408 188.731 50.4612 188.731 50.6057C188.731 50.7501 188.61 50.8705 188.465 50.8705ZM182.081 50.8705H178.889C178.744 50.8705 178.623 50.7501 178.623 50.6057C178.623 50.4612 178.744 50.3408 178.889 50.3408H182.081C182.226 50.3408 182.347 50.4612 182.347 50.6057C182.347 50.7501 182.226 50.8705 182.081 50.8705ZM175.697 50.8705H172.505C172.36 50.8705 172.239 50.7501 172.239 50.6057C172.239 50.4612 172.36 50.3408 172.505 50.3408H175.697C175.842 50.3408 175.963 50.4612 175.963 50.6057C175.963 50.7501 175.842 50.8705 175.697 50.8705ZM169.301 50.8705H166.109C165.964 50.8705 165.843 50.7501 165.843 50.6057C165.843 50.4612 165.964 50.3408 166.109 50.3408H169.301C169.446 50.3408 169.567 50.4612 169.567 50.6057C169.567 50.7501 169.458 50.8705 169.301 50.8705ZM162.917 50.8705H159.725C159.58 50.8705 159.459 50.7501 159.459 50.6057C159.459 50.4612 159.58 50.3408 159.725 50.3408H162.917C163.062 50.3408 163.183 50.4612 163.183 50.6057C163.183 50.7501 163.062 50.8705 162.917 50.8705ZM156.533 50.8705H153.341C153.196 50.8705 153.075 50.7501 153.075 50.6057C153.075 50.4612 153.196 50.3408 153.341 50.3408H156.533C156.678 50.3408 156.799 50.4612 156.799 50.6057C156.799 50.7501 156.678 50.8705 156.533 50.8705ZM150.149 50.8705H146.957C146.812 50.8705 146.691 50.7501 146.691 50.6057C146.691 50.4612 146.812 50.3408 146.957 50.3408H150.149C150.294 50.3408 150.415 50.4612 150.415 50.6057C150.415 50.7501 150.294 50.8705 150.149 50.8705Z" fill="#292524"/>
<path d="M133.471 52.5074C133.326 52.5074 133.205 52.387 133.205 52.2425V50.9183H131.875C131.73 50.9183 131.609 50.798 131.609 50.6535C131.609 50.5091 131.73 50.3887 131.875 50.3887H133.471C133.543 50.3887 133.604 50.4127 133.664 50.4609C133.713 50.5091 133.737 50.5813 133.737 50.6535V52.2425C133.737 52.387 133.616 52.5074 133.471 52.5074Z" fill="#292524"/>
<path d="M133.469 107.197C133.325 107.197 133.205 107.076 133.205 106.932V103.898C133.205 103.754 133.325 103.633 133.469 103.633C133.614 103.633 133.734 103.754 133.734 103.898V106.932C133.734 107.076 133.614 107.197 133.469 107.197ZM133.469 101.118C133.325 101.118 133.205 100.997 133.205 100.853V97.8191C133.205 97.6746 133.325 97.5542 133.469 97.5542C133.614 97.5542 133.734 97.6746 133.734 97.8191V100.853C133.734 100.997 133.614 101.118 133.469 101.118ZM133.469 95.0383C133.325 95.0383 133.205 94.9179 133.205 94.7734V91.7399C133.205 91.5954 133.325 91.475 133.469 91.475C133.614 91.475 133.734 91.5954 133.734 91.7399V94.7734C133.734 94.9179 133.614 95.0383 133.469 95.0383ZM133.469 88.9591C133.325 88.9591 133.205 88.8387 133.205 88.6942V85.6606C133.205 85.5162 133.325 85.3958 133.469 85.3958C133.614 85.3958 133.734 85.5162 133.734 85.6606V88.6942C133.734 88.8387 133.614 88.9591 133.469 88.9591ZM133.469 82.8919C133.325 82.8919 133.205 82.7715 133.205 82.627V79.5935C133.205 79.449 133.325 79.3286 133.469 79.3286C133.614 79.3286 133.734 79.449 133.734 79.5935V82.627C133.734 82.7715 133.614 82.8919 133.469 82.8919ZM133.469 76.8127C133.325 76.8127 133.205 76.6923 133.205 76.5478V73.5142C133.205 73.3698 133.325 73.2494 133.469 73.2494C133.614 73.2494 133.734 73.3698 133.734 73.5142V76.5478C133.734 76.6923 133.614 76.8127 133.469 76.8127ZM133.469 70.7334C133.325 70.7334 133.205 70.6131 133.205 70.4686V67.435C133.205 67.2905 133.325 67.1702 133.469 67.1702C133.614 67.1702 133.734 67.2905 133.734 67.435V70.4686C133.734 70.6131 133.614 70.7334 133.469 70.7334ZM133.469 64.6542C133.325 64.6542 133.205 64.5338 133.205 64.3894V61.3558C133.205 61.2113 133.325 61.0909 133.469 61.0909C133.614 61.0909 133.734 61.2113 133.734 61.3558V64.3894C133.734 64.5338 133.614 64.6542 133.469 64.6542ZM133.469 58.575C133.325 58.575 133.205 58.4546 133.205 58.3102V55.2766C133.205 55.1321 133.325 55.0117 133.469 55.0117C133.614 55.0117 133.734 55.1321 133.734 55.2766V58.3102C133.734 58.4666 133.614 58.575 133.469 58.575Z" fill="#292524"/>
<path d="M133.471 111.819H131.875C131.73 111.819 131.609 111.699 131.609 111.554C131.609 111.41 131.73 111.289 131.875 111.289H133.205V109.965C133.205 109.821 133.326 109.7 133.471 109.7C133.616 109.7 133.737 109.821 133.737 109.965V111.554C133.737 111.699 133.616 111.819 133.471 111.819Z" fill="#292524"/>
<path d="M128.615 111.819H125.363C125.218 111.819 125.097 111.698 125.097 111.554C125.097 111.409 125.218 111.289 125.363 111.289H128.615C128.761 111.289 128.881 111.409 128.881 111.554C128.881 111.698 128.761 111.819 128.615 111.819ZM122.098 111.819H118.846C118.701 111.819 118.58 111.698 118.58 111.554C118.58 111.409 118.701 111.289 118.846 111.289H122.098C122.244 111.289 122.364 111.409 122.364 111.554C122.364 111.698 122.244 111.819 122.098 111.819ZM115.582 111.819H112.329C112.184 111.819 112.063 111.698 112.063 111.554C112.063 111.409 112.184 111.289 112.329 111.289H115.582C115.727 111.289 115.848 111.409 115.848 111.554C115.848 111.698 115.739 111.819 115.582 111.819ZM109.077 111.819H105.824C105.679 111.819 105.558 111.698 105.558 111.554C105.558 111.409 105.679 111.289 105.824 111.289H109.077C109.222 111.289 109.343 111.409 109.343 111.554C109.343 111.698 109.222 111.819 109.077 111.819ZM102.56 111.819H99.3073C99.1623 111.819 99.0414 111.698 99.0414 111.554C99.0414 111.409 99.1623 111.289 99.3073 111.289H102.56C102.705 111.289 102.826 111.409 102.826 111.554C102.826 111.698 102.705 111.819 102.56 111.819ZM96.0428 111.819H92.7904C92.6453 111.819 92.5244 111.698 92.5244 111.554C92.5244 111.409 92.6453 111.289 92.7904 111.289H96.0428C96.1879 111.289 96.3088 111.409 96.3088 111.554C96.3088 111.698 96.1879 111.819 96.0428 111.819Z" fill="#292524"/>
<path d="M89.5241 111.819H87.9281C87.783 111.819 87.6621 111.699 87.6621 111.554V109.965C87.6621 109.821 87.783 109.7 87.9281 109.7C88.0732 109.7 88.1941 109.821 88.1941 109.965V111.289H89.5241C89.6692 111.289 89.7901 111.41 89.7901 111.554C89.7901 111.699 89.6692 111.819 89.5241 111.819Z" fill="#292524"/>
<path d="M87.9269 107.196C87.7825 107.196 87.6621 107.075 87.6621 106.931V103.897C87.6621 103.753 87.7825 103.633 87.9269 103.633C88.0714 103.633 88.1918 103.753 88.1918 103.897V106.931C88.1918 107.075 88.0714 107.196 87.9269 107.196ZM87.9269 101.117C87.7825 101.117 87.6621 100.996 87.6621 100.852V97.8181C87.6621 97.6737 87.7825 97.5533 87.9269 97.5533C88.0714 97.5533 88.1918 97.6737 88.1918 97.8181V100.852C88.1918 101.008 88.0714 101.117 87.9269 101.117ZM87.9269 95.0494C87.7825 95.0494 87.6621 94.929 87.6621 94.7845V91.7509C87.6621 91.6065 87.7825 91.4861 87.9269 91.4861C88.0714 91.4861 88.1918 91.6065 88.1918 91.7509V94.7845C88.1918 94.929 88.0714 95.0494 87.9269 95.0494ZM87.9269 88.9701C87.7825 88.9701 87.6621 88.8498 87.6621 88.7053V85.6717C87.6621 85.5273 87.7825 85.4069 87.9269 85.4069C88.0714 85.4069 88.1918 85.5273 88.1918 85.6717V88.7053C88.1918 88.8618 88.0714 88.9701 87.9269 88.9701ZM87.9269 82.903C87.7825 82.903 87.6621 82.7826 87.6621 82.6381V79.6045C87.6621 79.4601 87.7825 79.3397 87.9269 79.3397C88.0714 79.3397 88.1918 79.4601 88.1918 79.6045V82.6381C88.1918 82.7826 88.0714 82.903 87.9269 82.903ZM87.9269 76.8237C87.7825 76.8237 87.6621 76.7034 87.6621 76.5589V73.5253C87.6621 73.3808 87.7825 73.2605 87.9269 73.2605C88.0714 73.2605 88.1918 73.3808 88.1918 73.5253V76.5589C88.1918 76.7154 88.0714 76.8237 87.9269 76.8237ZM87.9269 70.7565C87.7825 70.7565 87.6621 70.6362 87.6621 70.4917V67.4581C87.6621 67.3137 87.7825 67.1933 87.9269 67.1933C88.0714 67.1933 88.1918 67.3137 88.1918 67.4581V70.4917C88.1918 70.6362 88.0714 70.7565 87.9269 70.7565ZM87.9269 64.6894C87.7825 64.6894 87.6621 64.569 87.6621 64.4245V61.3909C87.6621 61.2465 87.7825 61.1261 87.9269 61.1261C88.0714 61.1261 88.1918 61.2465 88.1918 61.3909V64.4245C88.1918 64.569 88.0714 64.6894 87.9269 64.6894ZM87.9269 58.6101C87.7825 58.6101 87.6621 58.4898 87.6621 58.3453V55.3117C87.6621 55.1673 87.7825 55.0469 87.9269 55.0469C88.0714 55.0469 88.1918 55.1673 88.1918 55.3117V58.3453C88.1918 58.4898 88.0714 58.6101 87.9269 58.6101Z" fill="#292524"/>
<path d="M87.9281 52.5445C87.783 52.5445 87.6621 52.4241 87.6621 52.2796V50.6906C87.6621 50.5462 87.783 50.4258 87.9281 50.4258H89.5241C89.6692 50.4258 89.7901 50.5462 89.7901 50.6906C89.7901 50.8351 89.6692 50.9555 89.5241 50.9555H88.1941V52.2796C88.1941 52.4241 88.0732 52.5445 87.9281 52.5445Z" fill="#292524"/>
<path d="M92.7787 50.9424C92.6336 50.9424 92.5127 50.822 92.5127 50.6776C92.5127 50.5331 92.6336 50.4127 92.7787 50.4127H96.0311C96.1762 50.4127 96.2971 50.5331 96.2971 50.6776C96.2971 50.822 96.1762 50.9424 96.0311 50.9424H92.7787ZM99.2956 50.9424C99.1505 50.9424 99.0296 50.822 99.0296 50.6776C99.0296 50.5331 99.1505 50.4127 99.2956 50.4127H102.548C102.693 50.4127 102.814 50.5331 102.814 50.6776C102.814 50.822 102.693 50.9424 102.548 50.9424H99.2956ZM105.813 50.9304C105.667 50.9304 105.547 50.81 105.547 50.6655C105.547 50.5211 105.667 50.4007 105.813 50.4007H109.065C109.21 50.4007 109.331 50.5211 109.331 50.6655C109.331 50.81 109.21 50.9304 109.065 50.9304H105.813ZM112.329 50.9304C112.184 50.9304 112.063 50.81 112.063 50.6655C112.063 50.5211 112.184 50.4007 112.329 50.4007H115.582C115.727 50.4007 115.848 50.5211 115.848 50.6655C115.848 50.81 115.727 50.9304 115.582 50.9304H112.329ZM118.846 50.9304C118.701 50.9304 118.58 50.81 118.58 50.6655C118.58 50.5211 118.701 50.4007 118.846 50.4007H122.099C122.244 50.4007 122.365 50.5211 122.365 50.6655C122.365 50.81 122.244 50.9304 122.099 50.9304H118.846ZM125.363 50.9183C125.218 50.9183 125.097 50.798 125.097 50.6535C125.097 50.5091 125.218 50.3887 125.363 50.3887H128.616C128.761 50.3887 128.882 50.5091 128.882 50.6535C128.882 50.798 128.761 50.9183 128.616 50.9183H125.363Z" fill="#292524"/>
<path d="M173.05 94.5912L172.469 97.9859L174.597 98.347C174.646 99.1536 174.827 99.9361 175.129 100.67L173.364 101.91L175.359 104.727L177.124 103.487C177.717 104.005 178.394 104.438 179.143 104.751L178.781 106.87L182.19 107.448L182.553 105.329C183.363 105.281 184.149 105.1 184.886 104.799L186.132 106.557L188.961 104.571L187.692 102.825C188.211 102.235 188.647 101.561 188.961 100.815L191.162 101.092L191.669 97.7813L189.541 97.4201C189.493 96.6136 189.312 95.8311 189.009 95.0968L190.775 93.8568L188.78 91.0399L187.014 92.2799C186.422 91.7622 185.745 91.3289 184.995 91.0159L185.358 88.8972L181.948 88.3193L181.586 90.438C180.776 90.4862 179.99 90.6668 179.252 90.9677L178.007 89.2102L175.178 91.1964L176.423 92.954C175.903 93.5439 175.468 94.218 175.153 94.9643L173.05 94.5912ZM182.807 93.604C185.177 94.0133 186.773 96.2524 186.362 98.6239C185.95 100.983 183.702 102.572 181.332 102.175C178.962 101.766 177.366 99.5268 177.777 97.1553C178.176 94.7838 180.437 93.1948 182.807 93.604Z" fill="white"/>
<path d="M56.339 52.5074C56.1939 52.5074 56.073 52.387 56.073 52.2425V50.9183H54.743C54.598 50.9183 54.4771 50.798 54.4771 50.6535C54.4771 50.5091 54.598 50.3887 54.743 50.3887H56.339C56.4116 50.3887 56.472 50.4127 56.5325 50.4609C56.5808 50.5091 56.605 50.5813 56.605 50.6535V52.2425C56.605 52.387 56.4841 52.5074 56.339 52.5074Z" fill="#292524"/>
<path d="M56.3376 107.197C56.1931 107.197 56.0728 107.076 56.0728 106.932V103.898C56.0728 103.754 56.1931 103.633 56.3376 103.633C56.482 103.633 56.6024 103.754 56.6024 103.898V106.932C56.6024 107.076 56.482 107.197 56.3376 107.197ZM56.3376 101.118C56.1931 101.118 56.0728 100.997 56.0728 100.853V97.8191C56.0728 97.6746 56.1931 97.5542 56.3376 97.5542C56.482 97.5542 56.6024 97.6746 56.6024 97.8191V100.853C56.6024 100.997 56.482 101.118 56.3376 101.118ZM56.3376 95.0383C56.1931 95.0383 56.0728 94.9179 56.0728 94.7734V91.7399C56.0728 91.5954 56.1931 91.475 56.3376 91.475C56.482 91.475 56.6024 91.5954 56.6024 91.7399V94.7734C56.6024 94.9179 56.482 95.0383 56.3376 95.0383ZM56.3376 88.9591C56.1931 88.9591 56.0728 88.8387 56.0728 88.6942V85.6606C56.0728 85.5162 56.1931 85.3958 56.3376 85.3958C56.482 85.3958 56.6024 85.5162 56.6024 85.6606V88.6942C56.6024 88.8387 56.482 88.9591 56.3376 88.9591ZM56.3376 82.8919C56.1931 82.8919 56.0728 82.7715 56.0728 82.627V79.5935C56.0728 79.449 56.1931 79.3286 56.3376 79.3286C56.482 79.3286 56.6024 79.449 56.6024 79.5935V82.627C56.6024 82.7715 56.482 82.8919 56.3376 82.8919ZM56.3376 76.8127C56.1931 76.8127 56.0728 76.6923 56.0728 76.5478V73.5142C56.0728 73.3698 56.1931 73.2494 56.3376 73.2494C56.482 73.2494 56.6024 73.3698 56.6024 73.5142V76.5478C56.6024 76.6923 56.482 76.8127 56.3376 76.8127ZM56.3376 70.7334C56.1931 70.7334 56.0728 70.6131 56.0728 70.4686V67.435C56.0728 67.2905 56.1931 67.1702 56.3376 67.1702C56.482 67.1702 56.6024 67.2905 56.6024 67.435V70.4686C56.6024 70.6131 56.482 70.7334 56.3376 70.7334ZM56.3376 64.6542C56.1931 64.6542 56.0728 64.5338 56.0728 64.3894V61.3558C56.0728 61.2113 56.1931 61.0909 56.3376 61.0909C56.482 61.0909 56.6024 61.2113 56.6024 61.3558V64.3894C56.6024 64.5338 56.482 64.6542 56.3376 64.6542ZM56.3376 58.575C56.1931 58.575 56.0728 58.4546 56.0728 58.3102V55.2766C56.0728 55.1321 56.1931 55.0117 56.3376 55.0117C56.482 55.0117 56.6024 55.1321 56.6024 55.2766V58.3102C56.6024 58.4666 56.482 58.575 56.3376 58.575Z" fill="#292524"/>
<path d="M56.339 111.819H54.743C54.598 111.819 54.4771 111.699 54.4771 111.554C54.4771 111.41 54.598 111.289 54.743 111.289H56.073V109.965C56.073 109.821 56.1939 109.7 56.339 109.7C56.4841 109.7 56.605 109.821 56.605 109.965V111.554C56.605 111.699 56.4841 111.819 56.339 111.819Z" fill="#292524"/>
<path d="M51.4839 111.819H48.2315C48.0864 111.819 47.9655 111.698 47.9655 111.554C47.9655 111.409 48.0864 111.289 48.2315 111.289H51.4839C51.629 111.289 51.7499 111.409 51.7499 111.554C51.7499 111.698 51.629 111.819 51.4839 111.819ZM44.967 111.819H41.7146C41.5695 111.819 41.4486 111.698 41.4486 111.554C41.4486 111.409 41.5695 111.289 41.7146 111.289H44.967C45.1121 111.289 45.233 111.409 45.233 111.554C45.233 111.698 45.1121 111.819 44.967 111.819ZM38.4501 111.819H35.1977C35.0526 111.819 34.9317 111.698 34.9317 111.554C34.9317 111.409 35.0526 111.289 35.1977 111.289H38.4501C38.5952 111.289 38.7161 111.409 38.7161 111.554C38.7161 111.698 38.6073 111.819 38.4501 111.819ZM31.9452 111.819H28.6928C28.5477 111.819 28.4268 111.698 28.4268 111.554C28.4268 111.409 28.5477 111.289 28.6928 111.289H31.9452C32.0903 111.289 32.2112 111.409 32.2112 111.554C32.2112 111.698 32.0903 111.819 31.9452 111.819ZM25.4283 111.819H22.1759C22.0308 111.819 21.9099 111.698 21.9099 111.554C21.9099 111.409 22.0308 111.289 22.1759 111.289H25.4283C25.5734 111.289 25.6943 111.409 25.6943 111.554C25.6943 111.698 25.5734 111.819 25.4283 111.819ZM18.9114 111.819H15.6469C15.5018 111.819 15.3809 111.698 15.3809 111.554C15.3809 111.409 15.5018 111.289 15.6469 111.289H18.9114C19.0565 111.289 19.1774 111.409 19.1774 111.554C19.1774 111.698 19.0565 111.819 18.9114 111.819Z" fill="#292524"/>
<path d="M12.3923 111.819H10.7963C10.6512 111.819 10.5303 111.699 10.5303 111.554V109.965C10.5303 109.821 10.6512 109.7 10.7963 109.7C10.9414 109.7 11.0623 109.821 11.0623 109.965V111.289H12.3923C12.5373 111.289 12.6583 111.41 12.6583 111.554C12.6583 111.699 12.5373 111.819 12.3923 111.819Z" fill="#292524"/>
<path d="M10.7951 107.196C10.6507 107.196 10.5303 107.075 10.5303 106.931V103.897C10.5303 103.753 10.6507 103.633 10.7951 103.633C10.9396 103.633 11.0599 103.753 11.0599 103.897V106.931C11.0599 107.075 10.9396 107.196 10.7951 107.196ZM10.7951 101.117C10.6507 101.117 10.5303 100.996 10.5303 100.852V97.8181C10.5303 97.6737 10.6507 97.5533 10.7951 97.5533C10.9396 97.5533 11.0599 97.6737 11.0599 97.8181V100.852C11.0599 101.008 10.9396 101.117 10.7951 101.117ZM10.7951 95.0494C10.6507 95.0494 10.5303 94.929 10.5303 94.7845V91.7509C10.5303 91.6065 10.6507 91.4861 10.7951 91.4861C10.9396 91.4861 11.0599 91.6065 11.0599 91.7509V94.7845C11.0599 94.929 10.9396 95.0494 10.7951 95.0494ZM10.7951 88.9701C10.6507 88.9701 10.5303 88.8498 10.5303 88.7053V85.6717C10.5303 85.5273 10.6507 85.4069 10.7951 85.4069C10.9396 85.4069 11.0599 85.5273 11.0599 85.6717V88.7053C11.0599 88.8618 10.9396 88.9701 10.7951 88.9701ZM10.7951 82.903C10.6507 82.903 10.5303 82.7826 10.5303 82.6381V79.6045C10.5303 79.4601 10.6507 79.3397 10.7951 79.3397C10.9396 79.3397 11.0599 79.4601 11.0599 79.6045V82.6381C11.0599 82.7826 10.9396 82.903 10.7951 82.903ZM10.7951 76.8237C10.6507 76.8237 10.5303 76.7034 10.5303 76.5589V73.5253C10.5303 73.3808 10.6507 73.2605 10.7951 73.2605C10.9396 73.2605 11.0599 73.3808 11.0599 73.5253V76.5589C11.0599 76.7154 10.9396 76.8237 10.7951 76.8237ZM10.7951 70.7565C10.6507 70.7565 10.5303 70.6362 10.5303 70.4917V67.4581C10.5303 67.3137 10.6507 67.1933 10.7951 67.1933C10.9396 67.1933 11.0599 67.3137 11.0599 67.4581V70.4917C11.0599 70.6362 10.9396 70.7565 10.7951 70.7565ZM10.7951 64.6894C10.6507 64.6894 10.5303 64.569 10.5303 64.4245V61.3909C10.5303 61.2465 10.6507 61.1261 10.7951 61.1261C10.9396 61.1261 11.0599 61.2465 11.0599 61.3909V64.4245C11.0599 64.569 10.9396 64.6894 10.7951 64.6894ZM10.7951 58.6101C10.6507 58.6101 10.5303 58.4898 10.5303 58.3453V55.3117C10.5303 55.1673 10.6507 55.0469 10.7951 55.0469C10.9396 55.0469 11.0599 55.1673 11.0599 55.3117V58.3453C11.0599 58.4898 10.9396 58.6101 10.7951 58.6101Z" fill="#292524"/>
<path d="M10.7963 52.5445C10.6512 52.5445 10.5303 52.4241 10.5303 52.2796V50.6906C10.5303 50.5462 10.6512 50.4258 10.7963 50.4258H12.3923C12.5373 50.4258 12.6583 50.5462 12.6583 50.6906C12.6583 50.8351 12.5373 50.9555 12.3923 50.9555H11.0623V52.2796C11.0623 52.4241 10.9414 52.5445 10.7963 52.5445Z" fill="#292524"/>
<path d="M15.6469 50.9424C15.5018 50.9424 15.3809 50.822 15.3809 50.6776C15.3809 50.5331 15.5018 50.4127 15.6469 50.4127H18.8993C19.0444 50.4127 19.1653 50.5331 19.1653 50.6776C19.1653 50.822 19.0444 50.9424 18.8993 50.9424H15.6469ZM22.1638 50.9424C22.0187 50.9424 21.8978 50.822 21.8978 50.6776C21.8978 50.5331 22.0187 50.4127 22.1638 50.4127H25.4162C25.5613 50.4127 25.6822 50.5331 25.6822 50.6776C25.6822 50.822 25.5613 50.9424 25.4162 50.9424H22.1638ZM28.6807 50.9304C28.5356 50.9304 28.4147 50.81 28.4147 50.6655C28.4147 50.5211 28.5356 50.4007 28.6807 50.4007H31.9331C32.0782 50.4007 32.1991 50.5211 32.1991 50.6655C32.1991 50.81 32.0782 50.9304 31.9331 50.9304H28.6807ZM35.1977 50.9304C35.0526 50.9304 34.9317 50.81 34.9317 50.6655C34.9317 50.5211 35.0526 50.4007 35.1977 50.4007H38.4501C38.5952 50.4007 38.7161 50.5211 38.7161 50.6655C38.7161 50.81 38.5952 50.9304 38.4501 50.9304H35.1977ZM41.7146 50.9304C41.5695 50.9304 41.4486 50.81 41.4486 50.6655C41.4486 50.5211 41.5695 50.4007 41.7146 50.4007H44.967C45.1121 50.4007 45.233 50.5211 45.233 50.6655C45.233 50.81 45.1121 50.9304 44.967 50.9304H41.7146ZM48.2315 50.9183C48.0864 50.9183 47.9655 50.798 47.9655 50.6535C47.9655 50.5091 48.0864 50.3887 48.2315 50.3887H51.4839C51.629 50.3887 51.7499 50.5091 51.7499 50.6535C51.7499 50.798 51.629 50.9183 51.4839 50.9183H48.2315Z" fill="#292524"/>
<path d="M137.598 22.1816L137.659 22.4584L147.174 61.6785L58.4279 82.9497L44.8379 26.9246L64.5701 22.1816L119.087 9.09619L133.584 5.61719L134.431 9.09619L137.598 22.1816Z" fill="white"/>
<path d="M120.327 7.43589C119.601 7.43589 118.948 6.94233 118.767 6.22004C118.67 5.81075 118.731 5.37738 118.96 5.01624C119.178 4.65509 119.541 4.40229 119.952 4.29395C120.81 4.0893 121.681 4.61898 121.886 5.47368C121.983 5.88298 121.923 6.31635 121.693 6.67749C121.475 7.03863 121.113 7.29143 120.701 7.39977C120.581 7.42385 120.448 7.43589 120.327 7.43589ZM120.327 4.78751C120.242 4.78751 120.157 4.79955 120.073 4.81159C119.795 4.88382 119.565 5.05235 119.408 5.29311C119.263 5.53387 119.214 5.82279 119.275 6.09966C119.408 6.66545 119.988 7.02659 120.568 6.88214C120.847 6.80991 121.076 6.64137 121.233 6.40061C121.379 6.15985 121.427 5.87094 121.366 5.59406C121.246 5.11254 120.81 4.78751 120.327 4.78751Z" fill="#292524"/>
<path d="M124.837 6.36362C124.111 6.36362 123.459 5.87006 123.277 5.14778C123.18 4.73848 123.241 4.30511 123.471 3.94397C123.688 3.58283 124.051 3.33003 124.462 3.22169C125.321 3.01704 126.191 3.54671 126.397 4.40142C126.493 4.81071 126.433 5.24408 126.203 5.60522C125.986 5.96637 125.623 6.21916 125.212 6.32751C125.091 6.33955 124.958 6.36362 124.837 6.36362ZM124.837 3.70321C124.752 3.70321 124.668 3.71525 124.583 3.72728C124.305 3.79951 124.075 3.96805 123.918 4.20881C123.773 4.44957 123.725 4.73848 123.785 5.01536C123.918 5.58115 124.498 5.94229 125.079 5.79783C125.357 5.7256 125.587 5.55707 125.744 5.31631C125.901 5.07555 125.937 4.78663 125.877 4.50976C125.756 4.02824 125.321 3.70321 124.837 3.70321Z" fill="#292524"/>
<path d="M129.344 5.28061C128.618 5.28061 127.965 4.78705 127.784 4.06477C127.687 3.65547 127.748 3.2221 127.978 2.86096C128.195 2.49982 128.558 2.24702 128.969 2.13868C129.827 1.93403 130.698 2.46371 130.903 3.31841C131 3.7277 130.94 4.16107 130.71 4.52222C130.492 4.88336 130.13 5.13616 129.719 5.2445C129.598 5.26858 129.465 5.28061 129.344 5.28061ZM129.344 2.6202C129.259 2.6202 129.174 2.63224 129.09 2.64428C128.812 2.71651 128.582 2.88504 128.425 3.1258C128.28 3.36656 128.231 3.65547 128.292 3.93235C128.425 4.49814 129.005 4.85928 129.586 4.71482C129.864 4.6426 130.093 4.47406 130.251 4.2333C130.396 3.99254 130.444 3.70363 130.384 3.42675C130.263 2.94523 129.827 2.6202 129.344 2.6202Z" fill="#292524"/>
<path d="M58.4242 83.2153C58.3033 83.2153 58.1944 83.131 58.1703 83.0106L44.5802 26.9855C44.5681 26.9132 44.5802 26.841 44.6165 26.7808C44.6528 26.7206 44.7132 26.6725 44.7858 26.6604L133.52 5.35307C133.665 5.31695 133.81 5.40122 133.847 5.54568L137.861 22.1101L137.921 22.3749L147.424 61.5949C147.437 61.6671 147.424 61.7394 147.388 61.7996C147.352 61.8597 147.291 61.9079 147.219 61.9199L58.4725 83.2032C58.4604 83.2153 58.4363 83.2153 58.4242 83.2153ZM45.1606 27.1179L58.6176 82.6374L146.844 61.4866L133.387 5.93089L45.1606 27.1179Z" fill="#292524"/>
<path d="M44.8329 27.1542C44.712 27.1542 44.6032 27.0699 44.579 26.9495L43.2853 21.6167C43.2732 21.5444 43.2853 21.4722 43.3216 21.412C43.3578 21.3518 43.4183 21.3037 43.4908 21.2916L132.237 0.0083412C132.382 -0.027773 132.527 0.0564935 132.564 0.20095L133.857 5.53381C133.894 5.67827 133.809 5.82273 133.664 5.85884C133.519 5.89496 133.374 5.81069 133.337 5.66623L132.104 0.598206L43.8657 21.7611L45.0989 26.8292C45.1352 26.9736 45.0506 27.1181 44.9055 27.1542C44.8692 27.1542 44.845 27.1542 44.8329 27.1542Z" fill="#292524"/>
<path d="M130.076 13.9216L78.1909 26.8789L86.863 61.3025L138.748 48.3452L130.076 13.9216Z" fill="#D4D4D4"/>
<path d="M63.0534 75.9693C62.9325 75.9693 62.8237 75.885 62.7995 75.7646L61.9169 72.2856C61.9048 72.2134 61.9048 72.1411 61.9411 72.081C61.9774 72.0208 62.0378 71.9726 62.1104 71.9606L139.818 52.5552C139.963 52.5191 140.108 52.6034 140.144 52.7478L141.027 56.2268C141.039 56.2991 141.039 56.3713 141.003 56.4315C140.966 56.4917 140.906 56.5398 140.833 56.5519L63.1139 75.9572C63.1018 75.9572 63.0776 75.9693 63.0534 75.9693ZM62.4973 72.418L63.2469 75.3794L140.434 56.1064L139.685 53.1451L62.4973 72.418Z" fill="#292524"/>
<path d="M73.1354 28.3725L53.2681 33.334L56.6363 46.7041L76.5036 41.7426L73.1354 28.3725Z" fill="#D4D4D4"/>
<path d="M78.3971 49.2377L58.5298 54.1992L61.898 67.5693L81.7654 62.6078L78.3971 49.2377Z" fill="#D4D4D4"/>
<path d="M132.123 46.3672L93.8076 56.094L100.663 41.5881L107.591 45.5968L113.963 29.3574L132.123 46.3672Z" fill="white"/>
<path d="M95.0888 37.5081C97.1598 36.2541 97.8177 33.566 96.5582 31.504C95.2987 29.442 92.5988 28.787 90.5278 30.041C88.4567 31.295 87.7988 33.9831 89.0583 36.0451C90.3178 38.1071 93.0177 38.7621 95.0888 37.5081Z" fill="white"/>
<path d="M136.753 10.7826H111.701C111.555 10.7826 111.435 10.6622 111.435 10.5178C111.435 10.3733 111.555 10.2529 111.701 10.2529H136.753C136.898 10.2529 137.019 10.3733 137.019 10.5178C137.019 10.6622 136.91 10.7826 136.753 10.7826Z" fill="#292524"/>
<path d="M43.3107 218.465C43.1663 218.465 43.0459 218.344 43.0459 218.2V212.109C43.0459 211.964 43.1663 211.844 43.3107 211.844C43.4552 211.844 43.5756 211.964 43.5756 212.109V218.2C43.5756 218.344 43.4552 218.465 43.3107 218.465Z" fill="#D4D4D4"/>
<path d="M43.3107 212.373C43.1663 212.373 43.0459 212.253 43.0459 212.108V200.371C43.0459 200.227 43.1663 200.106 43.3107 200.106C43.4552 200.106 43.5756 200.227 43.5756 200.371V212.108C43.5756 212.253 43.4552 212.373 43.3107 212.373Z" fill="#292524"/>
<path d="M43.3107 200.636C43.1663 200.636 43.0459 200.515 43.0459 200.371V192.944C43.0459 192.799 43.1663 192.679 43.3107 192.679C43.4552 192.679 43.5756 192.799 43.5756 192.944V200.371C43.5756 200.515 43.4552 200.636 43.3107 200.636Z" fill="#D4D4D4"/>
<path d="M43.3107 193.209C43.1663 193.209 43.0459 193.088 43.0459 192.944V181.147C43.0459 181.002 43.1663 180.882 43.3107 180.882C43.4552 180.882 43.5756 181.002 43.5756 181.147V192.944C43.5756 193.088 43.4552 193.209 43.3107 193.209Z" fill="#292524"/>
<path d="M43.3107 181.412C43.1663 181.412 43.0459 181.291 43.0459 181.147V173.707C43.0459 173.563 43.1663 173.442 43.3107 173.442C43.4552 173.442 43.5756 173.563 43.5756 173.707V181.147C43.5756 181.291 43.4552 181.412 43.3107 181.412Z" fill="#D4D4D4"/>
<path d="M88.8483 173.96H42.9638C42.8187 173.96 42.6978 173.84 42.6978 173.695C42.6978 173.551 42.8187 173.431 42.9638 173.431H88.8483C88.9934 173.431 89.1143 173.551 89.1143 173.695C89.1143 173.852 88.9934 173.96 88.8483 173.96Z" fill="#292524"/>
<path d="M81.9323 181.472H36.0477C35.9026 181.472 35.7817 181.352 35.7817 181.207C35.7817 181.063 35.9026 180.942 36.0477 180.942H81.9323C82.0774 180.942 82.1983 181.063 82.1983 181.207C82.1983 181.352 82.0895 181.472 81.9323 181.472Z" fill="#292524"/>
<path d="M71.0201 193.221H25.184C25.0389 193.221 24.918 193.101 24.918 192.956C24.918 192.812 25.0389 192.691 25.184 192.691H71.0201C71.1652 192.691 71.2861 192.812 71.2861 192.956C71.2861 193.101 71.1652 193.221 71.0201 193.221Z" fill="#292524"/>
<path d="M64.1216 200.734H18.4789C18.3338 200.734 18.2129 200.613 18.2129 200.469C18.2129 200.324 18.3338 200.204 18.4789 200.204H64.1216C64.2667 200.204 64.3876 200.324 64.3876 200.469C64.3876 200.613 64.2667 200.734 64.1216 200.734Z" fill="#292524"/>
<path d="M53.3581 212.483H7.78797C7.64288 212.483 7.52197 212.362 7.52197 212.218C7.52197 212.073 7.64288 211.953 7.78797 211.953H53.3581C53.5032 211.953 53.6241 212.073 53.6241 212.218C53.6241 212.362 53.5032 212.483 53.3581 212.483Z" fill="#292524"/>
<path d="M46.5006 219.994H0.918341C0.773252 219.994 0.652344 219.873 0.652344 219.729C0.652344 219.584 0.773252 219.464 0.918341 219.464H46.4885C46.6336 219.464 46.7545 219.584 46.7545 219.729C46.7545 219.873 46.6457 219.994 46.5006 219.994Z" fill="#292524"/>
<path d="M46.1789 220.295C46.1185 220.295 46.0459 220.271 45.9976 220.223C45.8888 220.127 45.8767 219.958 45.9855 219.85L88.6539 173.515C88.7264 173.431 88.8473 173.407 88.944 173.443C88.9561 173.443 88.9561 173.455 88.9682 173.455C88.9682 173.467 88.9682 173.491 88.9682 173.503C89.0408 188.262 89.0408 203.237 88.9682 218.008C88.9682 218.152 88.8473 218.273 88.7022 218.273C88.5571 218.273 88.4362 218.152 88.4362 218.008C88.4967 203.466 88.5088 188.731 88.4362 174.189L46.2273 220.018C46.324 220.271 46.2515 220.295 46.1789 220.295Z" fill="#292524"/>
<path d="M0.546127 220.319C0.485673 220.319 0.413128 220.295 0.364765 220.247C0.255948 220.15 0.243857 219.982 0.352674 219.874C8.4535 211.122 16.5543 202.178 24.4012 193.534C30.3499 186.973 36.492 180.196 42.61 173.527C42.7067 173.419 42.876 173.407 42.9848 173.515C43.0936 173.611 43.1057 173.78 42.9969 173.888C36.8789 180.557 30.7247 187.335 24.7882 193.895C16.9412 202.551 8.82832 211.495 0.739579 220.247C0.691216 220.295 0.618672 220.319 0.546127 220.319Z" fill="#292524"/>
<path d="M44.2008 60.729C43.5237 60.729 42.9917 59.9585 42.9917 58.9714C42.9917 57.9843 43.5237 57.2139 44.2008 57.2139C44.8779 57.2139 45.4099 57.9843 45.4099 58.9714C45.3978 59.9585 44.8779 60.729 44.2008 60.729ZM44.2008 57.7435C43.8864 57.7435 43.5358 58.2491 43.5358 58.9714C43.5358 59.6937 43.8864 60.1993 44.2008 60.1993C44.5151 60.1993 44.8658 59.6937 44.8658 58.9714C44.8658 58.2491 44.5151 57.7435 44.2008 57.7435Z" fill="#292524"/>
<path d="M43.8953 58.4917C43.8953 61.0679 43.2303 63.945 40.8484 63.945C38.4544 63.945 35.2383 61.0679 35.2383 58.4917C35.2383 55.9156 37.1728 53.833 39.5668 53.833C41.9608 53.833 43.8953 55.9156 43.8953 58.4917Z" fill="#E7E5E4"/>
<path d="M40.8483 64.21C38.3939 64.21 34.9722 61.3329 34.9722 58.4919C34.9722 55.7834 37.0397 53.5684 39.5667 53.5684C42.0936 53.5684 44.1612 55.7713 44.1612 58.4919C44.1612 62.1274 42.9521 64.21 40.8483 64.21ZM39.5667 54.098C37.3299 54.098 35.5042 56.0723 35.5042 58.4919C35.5042 60.9958 38.6357 63.6803 40.8483 63.6803C43.3632 63.6803 43.6292 60.0569 43.6292 58.4919C43.6292 56.0723 41.8035 54.098 39.5667 54.098Z" fill="#292524"/>
<path d="M40.7008 58.4912H35.7314V66.653H40.7008V58.4912Z" fill="#E7E5E4"/>
<path d="M40.7006 66.9053H35.7313C35.5862 66.9053 35.4653 66.785 35.4653 66.6405V58.4787C35.4653 58.3342 35.5862 58.2139 35.7313 58.2139H40.7006C40.8457 58.2139 40.9666 58.3342 40.9666 58.4787V66.6405C40.9666 66.797 40.8457 66.9053 40.7006 66.9053ZM35.9973 66.3757H40.4346V58.7435H35.9973V66.3757Z" fill="#292524"/>
<path d="M40.6984 66.9048C40.554 66.9048 40.4336 66.7844 40.4336 66.64V62.4387C40.4336 62.2942 40.554 62.1738 40.6984 62.1738C40.8429 62.1738 40.9633 62.2942 40.9633 62.4387V66.64C40.9633 66.7964 40.8429 66.9048 40.6984 66.9048Z" fill="#292524"/>
<path d="M41.7634 57.696C41.7634 59.7786 40.639 63.0649 37.9669 63.0649C34.6903 63.0649 34.1704 59.7906 34.1704 57.696C34.1704 55.6013 35.8752 53.916 37.9669 53.916C40.0586 53.916 41.7634 55.6134 41.7634 57.696Z" fill="#292524"/>
<path d="M41.4698 57.3347C43.5999 57.3347 45.3267 56.2406 45.3267 54.891C45.3267 53.5414 43.5999 52.4473 41.4698 52.4473C39.3396 52.4473 37.6128 53.5414 37.6128 54.891C37.6128 56.2406 39.3396 57.3347 41.4698 57.3347Z" fill="#292524"/>
<path d="M45.1329 59.2359C45.1208 59.2359 45.1208 59.2359 45.1087 59.2359L40.9737 58.935C40.8286 58.9229 40.7198 58.8026 40.7319 58.6461C40.744 58.4896 40.8649 58.3933 41.0221 58.4053L45.1571 58.7063C45.3022 58.7183 45.411 58.8387 45.3989 58.9952C45.3868 59.1276 45.278 59.2359 45.1329 59.2359Z" fill="#292524"/>
<path d="M42.061 60.9675C42.6715 60.6982 42.9033 59.8886 42.5788 59.1592C42.2543 58.4297 41.4963 58.0567 40.8857 58.3259C40.2752 58.5952 40.0434 59.4048 40.3679 60.1342C40.6924 60.8637 41.4504 61.2367 42.061 60.9675Z" fill="#E7E5E4"/>
<path d="M52.2905 158.179L60.0407 139.628L71.3456 144.889L64.4055 161.874L52.2905 158.179Z" fill="#E7E5E4"/>
<path d="M64.4041 162.139C64.3799 162.139 64.3558 162.139 64.3316 162.127L52.2166 158.431C52.1441 158.407 52.0836 158.359 52.0594 158.287C52.0232 158.215 52.0232 158.143 52.0594 158.07L59.8217 139.52C59.8459 139.447 59.9063 139.399 59.9668 139.375C60.0393 139.351 60.1119 139.351 60.1723 139.387L71.4651 144.636C71.5981 144.696 71.6465 144.84 71.5981 144.973L64.658 161.971C64.6097 162.079 64.5008 162.139 64.4041 162.139ZM52.6398 158.01L64.2469 161.549L71.0057 145.009L60.1844 139.977L52.6398 158.01Z" fill="#292524"/>
<path d="M83.0451 170.072V167.593C83.0451 165.751 81.6789 164.186 79.8411 163.921L74.7025 163.199C73.8803 163.078 73.1065 162.765 72.4536 162.272L71.2808 161.465C68.7417 159.732 68.113 157.3 67.9679 157.035H51.2343L50.1582 169.892L83.0451 170.072Z" fill="white"/>
<path d="M83.045 170.338L50.1581 170.181C50.0855 170.181 50.013 170.145 49.9646 170.097C49.9163 170.037 49.8921 169.965 49.8921 169.892L50.9682 157.036C50.9803 156.903 51.0891 156.795 51.2342 156.795H67.9557C68.0525 156.795 68.1371 156.843 68.1854 156.927C68.2096 156.975 68.2459 157.06 68.2943 157.18C68.5361 157.83 69.2857 159.804 71.4137 161.261L72.5865 162.068C73.2152 162.537 73.9528 162.838 74.7266 162.946L79.8651 163.669C81.8239 163.946 83.2989 165.631 83.2989 167.605V170.085C83.2989 170.157 83.2747 170.217 83.2264 170.278C83.1901 170.314 83.1176 170.338 83.045 170.338ZM50.4483 169.652L82.779 169.808V167.593C82.779 165.884 81.4974 164.427 79.8047 164.186L74.6661 163.464C73.8077 163.344 72.9855 163.007 72.2963 162.489L71.1356 161.694C68.8625 160.141 68.0766 158.047 67.8106 157.361C67.7985 157.349 67.7985 157.325 67.7985 157.313H51.476L50.4483 169.652Z" fill="#292524"/>
<path d="M50.0773 169.819C49.6179 169.819 49.243 170.193 49.243 170.638L49.231 174.045C49.231 174.538 49.63 174.936 50.1378 174.936H83.0489C83.8348 174.936 84.4635 174.31 84.4635 173.527V171.228C84.4635 170.445 83.8348 169.819 83.0489 169.819H50.0773Z" fill="#292524"/>
<path d="M83.0674 170.084H83.0553C82.9102 170.072 82.8014 169.951 82.8014 169.807L82.9102 168.001C83.019 166.183 81.7374 164.618 79.9238 164.341L73.7454 163.415C73.7212 163.415 73.6971 163.427 73.6729 163.439L70.4809 168.254C70.3963 168.374 70.2391 168.41 70.1182 168.326C69.9973 168.242 69.961 168.085 70.0456 167.965L73.2376 163.15C73.3706 162.957 73.6003 162.849 73.8301 162.885L80.0084 163.812C82.0881 164.125 83.5631 165.942 83.4422 168.025L83.3334 169.831C83.3213 169.975 83.2125 170.084 83.0674 170.084Z" fill="#292524"/>
<path d="M67.9618 164.101C67.865 164.101 67.7804 164.053 67.732 163.968C67.6595 163.848 67.6958 163.679 67.8288 163.607L71.2021 161.645C71.323 161.573 71.4923 161.609 71.5648 161.741C71.6374 161.862 71.6011 162.03 71.4681 162.102L68.0948 164.065C68.0585 164.089 68.0101 164.101 67.9618 164.101Z" fill="#292524"/>
<path d="M56.4587 169.975C55.3826 165.678 52.2995 163.848 50.7035 163.174L50.0989 169.819C49.9297 169.831 56.4587 169.975 56.4587 169.975Z" fill="#292524"/>
<path d="M13.7734 176.933L25.5982 159.405L36.1535 167.122L25.4894 183.217L13.7734 176.933Z" fill="#E7E5E4"/>
<path d="M25.4895 183.482C25.4412 183.482 25.4049 183.47 25.3686 183.446L13.6527 177.162C13.5922 177.126 13.5439 177.066 13.5197 176.994C13.5076 176.921 13.5197 176.849 13.5559 176.777L25.3928 159.249C25.4291 159.189 25.5016 159.153 25.5621 159.141C25.6346 159.129 25.7072 159.141 25.7676 159.189L36.3229 166.906C36.4317 166.99 36.468 167.146 36.3834 167.267L25.7072 183.362C25.6588 183.446 25.5742 183.482 25.4895 183.482ZM14.1484 176.837L25.3928 182.868L35.7909 167.182L25.6588 159.779L14.1484 176.837Z" fill="#292524"/>
<path d="M16.7397 170.071L7.90137 176.692L20.8748 190.933C22.0476 192.209 23.704 192.944 25.4451 192.944H36.0608C36.0608 187.31 32.2038 186.106 30.2089 185.853C29.3867 185.757 28.6371 185.372 28.0688 184.77L28.4557 181.507L16.7397 170.071Z" fill="white"/>
<path d="M36.0451 193.208H25.4294C23.6157 193.208 21.8747 192.438 20.6656 191.114L7.69217 176.861C7.64381 176.8 7.61963 176.728 7.61963 176.656C7.63172 176.584 7.66799 176.512 7.72845 176.463L16.5668 169.842C16.6756 169.758 16.8207 169.77 16.9174 169.867L28.6213 181.303C28.6818 181.363 28.706 181.447 28.6939 181.519L28.3191 184.649C28.8269 185.155 29.504 185.48 30.2173 185.564C32.043 185.793 36.299 186.961 36.299 192.919C36.3111 193.088 36.1902 193.208 36.0451 193.208ZM8.28462 176.728L21.0646 190.753C22.1769 191.98 23.7729 192.679 25.4414 192.679H35.7791C35.6703 187.575 32.2244 186.371 30.1569 186.118C29.2742 186.01 28.4641 185.588 27.8596 184.95C27.8112 184.89 27.775 184.818 27.7871 184.734L28.1619 181.604L16.7119 170.42L8.28462 176.728Z" fill="#292524"/>
<path d="M36.0465 192.943H25.4307C23.6897 192.943 22.0332 192.209 20.8604 190.933L7.89911 176.692L7.71775 176.487C7.31875 176.078 6.66585 176.03 6.21849 176.391L4.56205 177.835C4.05424 178.233 3.99379 178.991 4.42905 179.472L18.5269 194.58C20.2075 196.386 22.5773 197.409 25.0559 197.409H36.0585C36.651 197.409 37.1346 196.928 37.1346 196.338V194.014C37.1346 193.425 36.651 192.943 36.0465 192.943Z" fill="#292524"/>
<path d="M11.6214 180.785C12.891 179.461 13.6648 177.667 13.6648 175.693C13.6648 174.67 13.4592 173.695 13.0723 172.804L7.89746 176.692L11.6214 180.785Z" fill="#292524"/>
<path d="M36.0444 193.207C35.8993 193.207 35.7784 193.087 35.7784 192.942C35.7784 189.054 33.8076 186.755 30.0957 186.285C29.8055 186.249 29.5154 186.177 29.2494 186.081C29.1164 186.033 29.0438 185.876 29.0922 185.744C29.1405 185.611 29.2977 185.539 29.4307 185.587C29.6604 185.671 29.9144 185.732 30.1562 185.768C32.9612 186.117 36.3104 187.646 36.3104 192.955C36.3104 193.087 36.1895 193.207 36.0444 193.207Z" fill="#292524"/>
<path d="M24.1224 190.065C24.0378 190.065 23.9652 190.029 23.9169 189.957C23.8322 189.837 23.8443 189.68 23.9652 189.584L29.1522 185.635C29.2731 185.551 29.4303 185.563 29.527 185.684C29.6116 185.804 29.5995 185.96 29.4786 186.057L24.2917 190.005C24.2433 190.041 24.1829 190.065 24.1224 190.065Z" fill="#292524"/>
<path d="M22.7839 186.659C22.6751 186.659 22.5783 186.598 22.5421 186.49C22.4816 186.358 22.5541 186.201 22.6871 186.141L25.7945 184.841C25.9275 184.781 26.0847 184.853 26.1451 184.985C26.2056 185.118 26.133 185.274 26 185.334L22.8927 186.634C22.8443 186.646 22.8081 186.659 22.7839 186.659Z" fill="#292524"/>
<path d="M48.5955 134.136L43.4569 95.0723L24.9338 97.4799L30.3263 138.518L17.3408 167.385L34.413 174.933L46.5884 147.883C48.5109 143.574 49.2121 138.807 48.5955 134.136Z" fill="#292524"/>
<path d="M51.668 96.6367H28.3569V107.82H51.668V96.6367Z" fill="#292524"/>
<path d="M83.9621 118.835L82.9344 121.664L46.8555 119.714C39.2141 119.305 32.6609 114.152 30.4966 106.845L28.3687 99.6465L73.165 102.463C81.3626 102.957 86.7792 111.155 83.9621 118.835Z" fill="#292524"/>
<path d="M70.9258 154.661L53.3579 148.365L66.5369 112.082L84.1048 118.378L70.9258 154.661Z" fill="#292524"/>
<path d="M70.9308 154.936C70.9066 154.936 70.8704 154.936 70.8462 154.924L53.2783 148.616C53.2057 148.592 53.1574 148.544 53.1332 148.484C53.109 148.424 53.0969 148.352 53.1211 148.279L63.1927 120.556C63.2411 120.423 63.3983 120.351 63.5313 120.399C63.6643 120.447 63.7368 120.604 63.6884 120.736L53.7014 148.207L70.7736 154.335L83.868 118.293C83.9163 118.16 84.0735 118.088 84.2065 118.136C84.3395 118.184 84.412 118.341 84.3637 118.473L71.1847 154.756C71.1364 154.864 71.0396 154.936 70.9308 154.936Z" fill="#292524"/>
<path d="M75.2343 121.506H75.2222L46.833 119.965C46.6879 119.953 46.5791 119.833 46.5791 119.688C46.5912 119.544 46.7121 119.423 46.8572 119.435L75.2343 120.976C75.3794 120.988 75.4882 121.109 75.4882 121.253C75.4882 121.398 75.3794 121.506 75.2343 121.506Z" fill="white"/>
<path d="M46.8584 119.966H46.8463C44.2226 119.821 41.7198 119.147 39.3984 117.943C39.2654 117.871 39.217 117.715 39.2896 117.582C39.3621 117.45 39.5193 117.402 39.6523 117.474C41.9133 118.642 44.3435 119.292 46.8826 119.436C47.0277 119.448 47.1365 119.569 47.1365 119.713C47.1123 119.858 46.9914 119.966 46.8584 119.966Z" fill="#292524"/>
<path d="M70.9336 154.936C70.9094 154.936 70.8731 154.936 70.8489 154.924C70.7159 154.876 70.6434 154.72 70.6918 154.587L82.6858 121.579C82.6979 121.555 82.71 121.531 82.7221 121.506L83.7256 118.762C85.0314 115.187 84.5841 111.31 82.4924 108.132C80.3886 104.942 76.9911 102.98 73.1583 102.751L48.1787 101.174C48.0336 101.162 47.9248 101.042 47.9248 100.897C47.9369 100.753 48.0578 100.645 48.2029 100.645L73.1825 102.222C77.1845 102.462 80.7271 104.509 82.9276 107.843C85.1161 111.166 85.5876 115.211 84.2213 118.942L83.1936 121.771C83.1815 121.795 83.1694 121.819 83.1574 121.844L71.1875 154.78C71.1391 154.864 71.0424 154.936 70.9336 154.936Z" fill="#292524"/>
<path d="M36.1557 139.89C36.1436 139.89 36.1194 139.89 36.1074 139.89L30.2796 138.77C30.1345 138.746 30.0378 138.602 30.0741 138.457C30.0982 138.313 30.2433 138.217 30.3884 138.253L36.2162 139.372C36.3613 139.396 36.458 139.541 36.4217 139.685C36.3975 139.806 36.2887 139.89 36.1557 139.89Z" fill="white"/>
<path d="M52.56 66.8918C52.7051 66.6992 53.9142 65.7843 54.0835 63.9545L54.156 63.2323C54.2285 62.4257 53.9384 62.2211 54.023 61.4145L54.3374 58.08C54.3857 57.5985 54.023 57.1651 53.5273 57.1169L53.4547 57.1049C52.959 57.0567 52.5237 57.4179 52.4875 57.8994L51.6411 66.7955L52.56 66.8918Z" fill="#E7E5E4"/>
<path d="M51.9377 65.4235L49.6646 61.8843C49.0842 60.9814 48.8303 59.9221 48.9392 58.8627C49.1447 56.8042 49.3019 55.8773 49.0963 54.4207L49.0722 54.216C48.9875 53.6623 49.4591 53.1808 50.0152 53.2289L50.0878 53.241C50.4868 53.2771 50.8132 53.5901 50.8737 53.9753C50.9946 54.842 51.1397 55.6486 51.0188 56.9005L50.91 58.0441C50.8132 59.1035 51.0671 60.1628 51.6475 61.0537L52.2641 62.0167L51.9377 65.4235Z" fill="#E7E5E4"/>
<path d="M46.6299 64.1228L47.1498 58.3084C47.2102 57.6945 47.3916 57.0926 47.6939 56.5509L47.8994 56.1897C48.2621 55.5517 49.0843 55.323 49.7372 55.6841C49.979 55.8165 50.0637 56.1175 49.9307 56.3582L49.6163 56.912C49.2415 57.5741 49.0118 58.3204 48.9392 59.0788L48.4677 64.2913L46.6299 64.1228Z" fill="#E7E5E4"/>
<path d="M45.3854 65.3504C45.0106 64.5559 44.8534 63.6771 44.9259 62.7983L45.0831 60.9324C45.1436 60.3185 45.3249 59.7166 45.6272 59.1749L45.8327 58.8137C46.1955 58.1757 47.0176 57.947 47.6705 58.3081C47.9123 58.4406 47.997 58.7415 47.864 58.9823L46.9693 60.5472L46.3284 67.3728L45.3854 65.3504Z" fill="#E7E5E4"/>
<path d="M45.918 70.684L47.1875 58.1885L49.2308 59.0793L52.9427 62.7028L52.0722 71.1174L45.918 70.684Z" fill="#E7E5E4"/>
<path d="M48.3382 63.1257C48.314 63.1257 48.2777 63.1257 48.2535 63.1137C48.1084 63.0655 48.0359 62.9211 48.0843 62.7766L48.1326 62.6201C48.2898 62.1386 48.3986 61.645 48.447 61.1515C48.5074 60.5014 48.5921 59.6828 48.5921 59.5624C48.6525 58.9605 48.7009 58.4429 48.7493 57.9975C48.9064 56.5048 48.9911 55.6742 48.8218 54.4703L48.7976 54.2657C48.7492 53.9166 48.8581 53.5795 49.0999 53.3267C49.3417 53.0739 49.6802 52.9535 50.0309 52.9776L50.1034 52.9897C50.6233 53.0378 51.0465 53.4351 51.119 53.9527L51.1432 54.1333C51.2641 54.9278 51.373 55.7464 51.2641 56.9502L51.1553 58.0938C51.0586 59.0809 51.3125 60.0921 51.8445 60.9348L52.316 61.6691C52.4007 61.7895 52.3644 61.958 52.2314 62.0302C52.1105 62.1145 51.9412 62.0784 51.8687 61.946L51.3971 61.2117C50.7926 60.2727 50.5145 59.1411 50.6233 58.0336L50.7321 56.89C50.841 55.7464 50.7321 55 50.6112 54.2055L50.5871 54.0249C50.5508 53.7481 50.3211 53.5434 50.043 53.5073L49.9704 53.4953C49.7891 53.4832 49.6077 53.5434 49.4747 53.6758C49.3417 53.8083 49.2933 53.9888 49.3175 54.1694L49.3417 54.374C49.5231 55.6501 49.4263 56.5409 49.2692 58.0336C49.2208 58.4911 49.1724 58.9967 49.112 59.5986C49.0999 59.7189 49.0273 60.5496 48.9548 61.1876C48.9064 61.7293 48.7855 62.271 48.6163 62.7766L48.5679 62.9331C48.5558 63.0535 48.447 63.1257 48.3382 63.1257Z" fill="#292524"/>
<path d="M46.5388 62.9569C46.5147 62.9569 46.4784 62.9569 46.4542 62.9449C46.3091 62.8967 46.2366 62.7523 46.2849 62.6078L46.3454 62.4152C46.5026 61.9457 46.5993 61.4522 46.6356 60.9586L46.8653 58.2741C46.9258 57.612 47.1192 56.9861 47.4457 56.4082L47.6512 56.0471C47.9656 55.5054 48.5701 55.1803 49.1988 55.2405C49.3439 55.2526 49.4527 55.385 49.4406 55.5294C49.4285 55.6739 49.3076 55.7822 49.1505 55.7702C48.7273 55.7341 48.3283 55.9508 48.1107 56.3119L47.9051 56.6731C47.6149 57.1787 47.4457 57.7324 47.3852 58.3223L47.1555 61.0068C47.1071 61.5364 46.9983 62.0661 46.8411 62.5838L46.7807 62.7764C46.7565 62.8847 46.6477 62.9569 46.5388 62.9569Z" fill="#292524"/>
<path d="M45.9101 70.9498C45.898 70.9498 45.8859 70.9498 45.8617 70.9498C45.7166 70.9257 45.6199 70.7933 45.6441 70.6488C45.6683 70.5044 45.7045 70.3238 45.7529 70.1071C45.9342 69.2404 46.2728 67.6393 45.9463 66.9772C45.1 65.8095 44.6647 64.702 44.5801 63.4741V63.4501V63.426C44.5922 63.2093 44.6043 62.9926 44.6164 62.7518C44.7131 60.8859 44.8461 58.3218 47.1071 57.8885C47.2521 57.8644 47.3851 57.9607 47.4214 58.0931C47.4456 58.2376 47.3489 58.37 47.2159 58.4061C45.366 58.7672 45.2451 60.9943 45.1604 62.7759C45.1483 63.0046 45.1363 63.2334 45.1242 63.438C45.2088 64.5576 45.6078 65.5808 46.4058 66.6642L46.43 66.7003C46.8531 67.5189 46.5146 69.132 46.2849 70.2034C46.2365 70.4081 46.2002 70.5886 46.1761 70.721C46.1519 70.8535 46.0431 70.9498 45.9101 70.9498Z" fill="#292524"/>
<path d="M52.0661 71.3837H52.054C51.909 71.3717 51.8001 71.2513 51.8001 71.1069C51.8122 70.9504 51.8243 70.7457 51.8364 70.505C51.8848 69.4817 51.9694 67.9168 52.1629 67.2065C52.2959 66.713 52.6223 66.3879 52.9125 66.099C53.1785 65.8342 53.4324 65.5814 53.5291 65.2202C54.0369 63.3664 53.9886 61.5727 53.9281 59.6827C53.9039 59.0327 53.8918 58.3706 53.8918 57.6965C53.8918 57.6483 53.9039 57.5761 53.7709 57.4918C53.5896 57.3714 53.2269 57.3353 52.9488 57.4798C52.8158 57.6122 52.6707 57.865 52.6465 58.1178C52.5377 59.6587 52.4168 61.4042 52.2717 63.0173C52.2596 63.1617 52.1266 63.2701 51.9815 63.258C51.8364 63.246 51.7276 63.1136 51.7397 62.9691C51.8848 61.356 52.0057 59.6225 52.1145 58.0937C52.1508 57.6483 52.3926 57.251 52.6102 57.0584L52.6586 57.0223C53.0697 56.7816 53.6621 56.7936 54.049 57.0344C54.3029 57.1909 54.4359 57.4437 54.4238 57.7085C54.4238 58.3465 54.448 59.0086 54.4601 59.6466C54.5206 61.5847 54.581 63.4145 54.049 65.3406C53.916 65.8342 53.5896 66.1592 53.2994 66.4481C53.0334 66.713 52.7795 66.9658 52.6828 67.3269C52.5014 67.977 52.4168 69.566 52.3684 70.505C52.3563 70.7457 52.3442 70.9624 52.3321 71.1189C52.32 71.2754 52.2112 71.3837 52.0661 71.3837Z" fill="#292524"/>
<path d="M95.2007 72.6585C95.37 72.4538 95.9866 70.937 97.8486 70.2388L98.5861 69.962C99.4204 69.649 99.6985 69.9018 100.521 69.5888L103.93 68.3127C104.426 68.1322 104.982 68.3729 105.176 68.8665L105.2 68.9387C105.393 69.4323 105.139 69.986 104.644 70.1666L95.5513 73.5734L95.2007 72.6585Z" fill="#E7E5E4"/>
<path d="M96.9141 72.8868L101.267 74.2351C102.367 74.5722 103.564 74.536 104.64 74.1267C106.732 73.3322 107.663 72.8989 109.247 72.7063L109.464 72.6822C110.069 72.61 110.444 71.996 110.226 71.4302L110.202 71.358C110.045 70.9487 109.634 70.7079 109.198 70.7561C108.255 70.8765 107.373 70.9607 106.091 71.4423L104.918 71.8756C103.842 72.2849 102.657 72.309 101.557 71.9719L100.372 71.5988L96.9141 72.8868Z" fill="#E7E5E4"/>
<path d="M99.7789 78.0034L105.728 75.8245C106.356 75.5958 106.937 75.2346 107.408 74.7531L107.735 74.4401C108.303 73.8743 108.303 72.9715 107.747 72.4057C107.541 72.189 107.191 72.189 106.985 72.4057L106.489 72.8872C105.897 73.465 105.196 73.9225 104.41 74.1994L99.0776 76.1736L99.7789 78.0034Z" fill="#E7E5E4"/>
<path d="M98.8466 79.6528C99.7897 79.8213 100.757 79.737 101.652 79.412L103.562 78.7259C104.191 78.4971 104.771 78.136 105.243 77.6545L105.569 77.3415C106.137 76.7757 106.137 75.8728 105.581 75.307C105.376 75.0904 105.025 75.0904 104.819 75.307L103.429 76.6673L96.4526 79.2676L98.8466 79.6528Z" fill="#E7E5E4"/>
<path d="M93.1058 80.6035L105.849 75.7521L104.338 73.8862L99.4776 71.0693L90.9053 74.3557L93.1058 80.6035Z" fill="#E7E5E4"/>
<path d="M100.62 76.1373C100.536 76.1373 100.451 76.1012 100.403 76.0169C100.318 75.8965 100.354 75.728 100.475 75.6437L100.62 75.5474C101.116 75.2224 101.636 74.9455 102.192 74.7409C102.857 74.4881 103.703 74.1751 103.824 74.1269C104.441 73.8982 104.961 73.7056 105.42 73.525C106.932 72.9472 107.85 72.5861 109.229 72.4175L109.459 72.3935C109.664 72.3694 109.845 72.249 109.954 72.0684C110.063 71.8879 110.075 71.6832 110.003 71.4906L109.978 71.4184C109.87 71.1295 109.579 70.9489 109.265 70.985L109.072 71.0091C108.201 71.1174 107.379 71.2137 106.218 71.6471L105.045 72.0805C103.921 72.5018 102.664 72.5379 101.515 72.1768L100.608 71.8999C100.463 71.8517 100.39 71.7073 100.439 71.5628C100.487 71.4184 100.632 71.3461 100.777 71.3943L101.684 71.6712C102.724 71.9962 103.861 71.9601 104.876 71.5869L106.049 71.1535C107.27 70.6961 108.165 70.5877 109.023 70.4794L109.217 70.4553C109.773 70.3831 110.293 70.7081 110.498 71.2258L110.523 71.298C110.656 71.6471 110.619 72.0203 110.426 72.3453C110.232 72.6583 109.906 72.875 109.543 72.9111L109.313 72.9352C107.996 73.1037 107.161 73.4167 105.626 74.0066C105.166 74.1871 104.634 74.3918 104.03 74.6085C103.909 74.6566 103.063 74.9696 102.398 75.2224C101.89 75.415 101.394 75.6678 100.935 75.9688L100.789 76.0651C100.717 76.1253 100.669 76.1373 100.62 76.1373Z" fill="#292524"/>
<path d="M101.301 77.955C101.216 77.955 101.132 77.9068 101.083 77.8346C100.999 77.7142 101.035 77.5457 101.156 77.4734L101.337 77.3531C101.821 77.0401 102.341 76.7752 102.897 76.5826L105.641 75.5835C106.246 75.3668 106.778 75.0297 107.225 74.5723L107.552 74.2593C107.878 73.9342 107.987 73.4407 107.83 73.0073C107.782 72.8749 107.854 72.7184 107.987 72.6702C108.12 72.6221 108.277 72.6943 108.326 72.8267C108.555 73.4527 108.398 74.163 107.927 74.6324L107.6 74.9454C107.092 75.451 106.488 75.8242 105.823 76.077L103.078 77.0762C102.57 77.2567 102.087 77.4975 101.627 77.7985L101.446 77.9188C101.41 77.9429 101.361 77.955 101.301 77.955Z" fill="#292524"/>
<path d="M91.9567 81.736C91.86 81.736 91.7633 81.6758 91.7149 81.5795C91.6544 81.4471 91.7149 81.2906 91.8479 81.2304C92.0172 81.1461 92.3557 80.9655 92.7426 80.7488C94.5683 79.7136 96.2852 78.8107 97.1316 78.9793L97.1678 78.9913C98.5341 79.4969 99.7311 79.6293 100.928 79.4006C101.146 79.3284 101.375 79.2561 101.617 79.1719C103.479 78.57 105.789 77.8116 105.631 75.7771C105.619 75.6327 105.728 75.5003 105.873 75.4882C106.018 75.4762 106.151 75.5845 106.163 75.729C106.345 78.1727 103.709 79.0394 101.787 79.6654C101.545 79.7497 101.315 79.8219 101.097 79.8941L101.061 79.9062C99.7674 80.159 98.4736 80.0266 97.0107 79.4849C96.2731 79.3645 94.1572 80.5562 93.0086 81.1943C92.5975 81.423 92.2711 81.6036 92.0776 81.6999C92.0413 81.7239 92.0051 81.736 91.9567 81.736Z" fill="#292524"/>
<path d="M89.656 74.9461C89.5472 74.9461 89.4384 74.8739 89.4021 74.7656C89.3538 74.6332 89.4263 74.4767 89.5714 74.4285C89.7769 74.3563 90.1518 74.2359 90.6233 74.0914C91.9291 73.6821 94.1175 73.008 94.71 72.6589C95.0606 72.4543 95.2541 72.1172 95.4596 71.7681C95.6893 71.3708 95.9312 70.9615 96.4027 70.6847C98.2768 69.5892 100.211 69.1197 102.255 68.6382C102.932 68.4817 103.633 68.3132 104.322 68.1206C104.576 68.0363 104.866 68.0965 105.096 68.3132C105.459 68.6382 105.628 69.2401 105.495 69.7216L105.483 69.7698C105.35 70.0587 105.011 70.4078 104.564 70.5643C102.98 71.118 101.191 71.732 99.5463 72.3459C99.4133 72.3941 99.2561 72.3218 99.2078 72.1894C99.1594 72.057 99.2319 71.9005 99.3649 71.8524C101.021 71.2505 102.799 70.6245 104.371 70.0828C104.649 69.9865 104.89 69.7577 104.987 69.5772C105.06 69.2521 104.915 68.879 104.733 68.7104C104.6 68.59 104.504 68.6141 104.479 68.6262C103.766 68.8188 103.053 68.9873 102.376 69.1558C100.368 69.6374 98.4702 70.0828 96.6687 71.1421C96.3181 71.3468 96.1246 71.6838 95.9191 72.0329C95.6893 72.4302 95.4475 72.8395 94.976 73.1164C94.3352 73.4895 92.1951 74.1637 90.7805 74.597C90.321 74.7415 89.9462 74.8498 89.7407 74.9221C89.7165 74.9461 89.6802 74.9461 89.656 74.9461Z" fill="#292524"/>
<path d="M38.2118 71.6955C41.1633 71.6955 43.5559 70.0948 43.5559 68.1202C43.5559 66.1456 41.1633 64.5449 38.2118 64.5449C35.2603 64.5449 32.8677 66.1456 32.8677 68.1202C32.8677 70.0948 35.2603 71.6955 38.2118 71.6955Z" fill="white"/>
<path d="M38.2117 71.9479C35.1164 71.9479 32.6016 70.2264 32.6016 68.1077C32.6016 65.989 35.1164 64.2676 38.2117 64.2676C41.3069 64.2676 43.8218 65.989 43.8218 68.1077C43.8218 70.2264 41.3069 71.9479 38.2117 71.9479ZM38.2117 64.8093C35.4066 64.8093 33.1336 66.29 33.1336 68.1198C33.1336 69.9375 35.4066 71.4302 38.2117 71.4302C41.0168 71.4302 43.2898 69.9495 43.2898 68.1198C43.2898 66.29 41.0168 64.8093 38.2117 64.8093Z" fill="#292524"/>
<path d="M91.9584 81.4706L89.6611 74.6812L92.6838 73.7783L94.9448 79.9057L91.9584 81.4706Z" fill="#292524"/>
<path d="M89.457 85.4198L70.8009 91.6314C68.1289 92.6546 64.9852 92.3416 62.4945 90.4396L53.4265 83.5057V98.77H24.2635V95.315L19.5964 80.123C19.5481 79.9785 19.5118 79.8461 19.4755 79.7017C17.7586 73.0687 22.9456 66.6524 29.8373 66.6283L48.3604 66.5802C51.5887 66.5681 54.7323 67.6275 57.2955 69.5897L68.6488 78.2691L85.1648 72.7557C87.0751 72.1177 89.1547 73.1409 89.7955 75.0429L91.7542 80.8212C92.4072 82.7232 91.3794 84.7817 89.457 85.4198Z" fill="white"/>
<path d="M53.4277 99.0346H24.2648C24.1197 99.0346 23.9988 98.9142 23.9988 98.7697V95.3509L19.3438 80.195C19.2955 80.0505 19.2592 79.9181 19.2229 79.7737C18.4007 76.5836 19.102 73.2611 21.1333 70.6368C23.2371 67.9282 26.4048 66.3753 29.8386 66.3753L48.3617 66.3271C48.3738 66.3271 48.3859 66.3271 48.398 66.3271C51.6504 66.3271 54.8666 67.4106 57.454 69.3969L68.6984 77.992L85.0693 72.5147C87.1248 71.8285 89.3495 72.924 90.0386 74.9705L91.9974 80.7487C92.3359 81.7359 92.2634 82.7952 91.7918 83.7222C91.3203 84.6611 90.5223 85.3593 89.5308 85.6844L70.8748 91.896C67.9851 93.0035 64.781 92.5461 62.3145 90.6561L53.6937 84.0472V98.7697C53.6937 98.9142 53.5728 99.0346 53.4277 99.0346ZM24.5308 98.5049H53.1497V83.5055C53.1497 83.4092 53.2101 83.3129 53.2948 83.2647C53.3915 83.2166 53.4882 83.2286 53.5728 83.2888L62.6409 90.2227C64.9503 91.9923 67.9609 92.4257 70.6934 91.3784L89.3616 85.1667C90.22 84.8778 90.9213 84.2759 91.3203 83.4694C91.7193 82.6628 91.7797 81.7479 91.4895 80.8932L89.5308 75.1149C88.9384 73.3574 87.0039 72.4064 85.2386 72.9962L68.7347 78.5217C68.65 78.5458 68.5533 78.5337 68.4929 78.4856L57.1396 69.8062C54.6489 67.9041 51.5416 66.8568 48.398 66.8568C48.3859 66.8568 48.3738 66.8568 48.3617 66.8568L29.8386 66.905C26.5741 66.917 23.5514 68.3977 21.5564 70.9618C19.6219 73.4537 18.9569 76.6197 19.7307 79.6413C19.767 79.7857 19.8033 79.9181 19.8395 80.0505L24.5308 95.2426C24.5429 95.2667 24.5429 95.2907 24.5429 95.3148V98.5049H24.5308Z" fill="#292524"/>
<path d="M71.5362 80.7487C71.4757 80.7487 71.4274 80.7367 71.379 80.6886L57.1481 69.8062C54.6574 67.9041 51.5501 66.8568 48.4065 66.8568C48.3944 66.8568 48.3823 66.8568 48.3702 66.8568L43.3163 66.8689C43.1712 66.8689 43.0503 66.7485 43.0503 66.604C43.0503 66.4596 43.1712 66.3392 43.3163 66.3392L48.3702 66.3271C48.3823 66.3271 48.3944 66.3271 48.4065 66.3271C51.671 66.3271 54.8872 67.4106 57.4746 69.3848L71.7055 80.2672C71.8264 80.3515 71.8385 80.52 71.7538 80.6404C71.6934 80.7126 71.6087 80.7487 71.5362 80.7487Z" fill="#292524"/>
<path d="M24.2717 95.5787C24.1272 95.5787 24.0068 95.4583 24.0068 95.3139V75.4992C24.0068 75.3548 24.1272 75.2344 24.2717 75.2344C24.4161 75.2344 24.5365 75.3548 24.5365 75.4992V95.3139C24.5365 95.4583 24.4161 95.5787 24.2717 95.5787Z" fill="#292524"/>
<path d="M53.4235 83.7698C53.2791 83.7698 53.1587 83.6495 53.1587 83.505V73.8986C53.1587 73.7542 53.2791 73.6338 53.4235 73.6338C53.568 73.6338 53.6884 73.7542 53.6884 73.8986V83.505C53.6884 83.6495 53.568 83.7698 53.4235 83.7698Z" fill="#292524"/>
<path d="M62.4808 90.4392L53.4248 83.5053V79.8096L62.4808 90.4392Z" fill="#292524"/>
<path d="M67.6781 92.4739C65.7678 92.4739 63.8937 91.8479 62.3219 90.6441L53.2538 83.7102C53.1329 83.6259 53.1208 83.4574 53.2054 83.337C53.2901 83.2166 53.4594 83.2046 53.5803 83.2888L62.6483 90.2228C64.7763 91.8479 67.4726 92.3535 70.0479 91.5951L89.369 85.1668C90.2274 84.8779 90.9287 84.276 91.3277 83.4694C91.7267 82.6629 91.7871 81.748 91.497 80.8933L89.5383 75.115C88.9458 73.3574 87.0113 72.4064 85.2339 72.9963L68.73 78.5218C68.5849 78.5699 68.4398 78.4977 68.3915 78.3532C68.3431 78.2088 68.4157 78.0643 68.5607 78.0162L85.0647 72.4907C87.1201 71.8045 89.3448 72.9 90.034 74.9465L91.9927 80.7247C92.3312 81.7119 92.2587 82.7712 91.7871 83.6981C91.3156 84.6371 90.5176 85.3353 89.5262 85.6603L70.2051 92.1127C69.3708 92.3535 68.5245 92.4739 67.6781 92.4739Z" fill="#292524"/>
</svg>
